<?xml version="1.0" standalone="no"?>
<!DOCTYPE svg PUBLIC "-//W3C//DTD SVG 1.1//EN" "http://www.w3.org/Graphics/SVG/1.1/DTD/svg11.dtd" >
<svg>
<metadata>
Created by FontForge 20090622 at Tue Mar 21 14:04:01 2017
 By deploy user
&#194;&#169; 2005, 2007 Adobe Systems Incorporated. All rights reserved.
</metadata>
<defs>
<font id="GaramondPremrPro-It" horiz-adv-x="495" >
  <font-face 
    font-family="Garamond Premr Pro"
    font-weight="400"
    font-style="italic"
    font-stretch="normal"
    units-per-em="1000"
    panose-1="2 2 4 2 5 5 6 9 4 3"
    ascent="725"
    descent="-275"
    x-height="404"
    cap-height="647"
    bbox="-229 -424 1659.08 944.333"
    underline-thickness="50"
    underline-position="-50"
    slope="-18"
    unicode-range="U+0020-U+FB06"
  />
<missing-glyph horiz-adv-x="500" 
d="M0 0v700h500v-700h-500zM250 395l170 255h-340zM280 350l170 -255v510zM80 50h340l-170 255zM50 605v-510l170 255z" />
    <glyph glyph-name="f_f" unicode="ff" horiz-adv-x="493" 
d="M409 688q57 0 90 -40q1 -1 4.5 0.5t5.5 3.5q67 65 137 65q33 0 52.5 -18.5t18.5 -39.5q0 -20 -17 -41q-16 -18 -36 -18q-4 0 -7 3.5t-2 8.5q2 9 2 26q2 49 -38 49q-52 0 -98 -88q-10 -19 -20 -44.5t-16.5 -44t-16.5 -51.5t-16 -50q-2 -6 0.5 -7.5t10.5 -1.5l87 4
q13 0 13 -8q0 -5 -9 -14t-18 -10q-2 0 -37 -2.5t-52 -2.5q-7 0 -14 -13l-123 -418q-16 -54 -41 -84.5t-61 -57.5q-25 -18 -60.5 -30.5t-58.5 -12.5q-63 0 -94 39q-22 -24 -66.5 -46t-70.5 -22t-46.5 14.5t-20.5 32.5q0 27 22 44q16 10 22 2q41 -46 80 -46q18 0 32 20t35 71
q25 65 144 487q2 5 -0.5 6.5t-12.5 1.5l-62 -1q-8 0 -8 7q1 10 10.5 18t16.5 8q10 0 30 1.5t27 1.5q11 0 14 12q58 177 151 244q58 42 117 42zM352 364l-146 -6q-7 0 -12 -12l-111 -387q-19 -69 -49 -122q-1 -1 0 -5.5t2 -5.5q31 -38 86 -38q74 0 111 122l130 441
q3 5 0.5 9.5t-11.5 3.5zM219 392l147 5q11 0 14 11q32 107 75 176q2 3 3.5 11.5t0.5 10.5q-18 50 -78 50q-28 0 -58.5 -23.5t-53.5 -70.5q-31 -59 -58 -162q-3 -8 8 -8z" />
    <glyph glyph-name="f_f_i" unicode="ffi" horiz-adv-x="734" 
d="M420 688q21 0 47.5 -12t41.5 -27q3 -3 8 1q75 67 150 67q54 0 79.5 -20.5t25.5 -47.5q0 -21 -16.5 -34t-32.5 -13q-17 0 -20 20q-8 65 -56 65q-70 0 -117 -88q-32 -60 -72 -189q-1 -4 0 -8.5t2 -4.5q103 0 175 6q36 4 56 8q6 1 7.5 -2.5t-1.5 -10.5q-22 -47 -62.5 -158
t-54.5 -163q-6 -22 5 -22q8 0 40 23.5t56 51.5q4 5 6.5 6t4.5 0t3 -1q8 0 -4 -26q0 -2 -1 -3q-19 -36 -75.5 -78t-91.5 -42q-26 0 -26 32q0 8 1.5 16.5t4 14.5t6.5 17t6 19q78 207 98 266q3 13 1 15t-13 2q-23 0 -85.5 -2.5t-65.5 -2.5q-7 0 -13 -18l-44.5 -152.5
l-47.5 -164.5t-25 -84q-29 -94 -105 -148q-25 -18 -63.5 -31.5t-59.5 -13.5q-65 0 -92 34q-5 5 -10 0q-30 -29 -67.5 -45.5t-65.5 -16.5q-32 0 -49.5 17t-16.5 32q0 22 22 40q18 13 25 5q40 -44 73 -44q42 0 73 89q45 134 142 485q1 4 -2 6t-9 2l-61 -2q-11 0 -11 8
q1 10 9 17.5t14 7.5q54 3 64 3q7 0 9 7q58 177 155 248q59 44 126 44zM130 -210q75 0 112 121q21 67 128 443q2 10 -6 10l-156 -6q-8 0 -13 -12l-112 -384q-19 -69 -49 -122q-3 -4 2 -10q35 -40 94 -40zM393 654q-77 0 -124 -95q-25 -47 -57 -158q-3 -9 3 -9l158 5q9 0 11 7
q33 102 79 177q2 3 3.5 10t0.5 9q-20 54 -74 54z" />
    <glyph glyph-name="f_f_l" unicode="ffl" horiz-adv-x="745" 
d="M677 718q50 0 76 -26q9 -7 14 0q22 22 31 22q5 0 7.5 -7t-1.5 -18l-122.5 -342.5t-97.5 -288.5q-5 -20 8 -20q17 0 52 26.5t64 61.5q11 13 18 8q1 -1 1 -4q0 -11 -6 -23q-30 -55 -78.5 -88.5t-96.5 -33.5q-19 0 -29.5 10.5t-10.5 28.5q0 14 26 86l85 247q2 4 1 9t-4 5
l-163 -9q-6 -1 -12 -12l-116 -400q-30 -99 -107 -153q-25 -19 -63.5 -33t-59.5 -14q-69 0 -96 38q-3 3 -5 1q-24 -26 -62 -46t-69 -20t-51 14.5t-19 28.5q0 13 8 27t16 19q18 12 26 4q41 -44 71 -44q42 0 73 90q6 17 27.5 92l56.5 194.5l57 194.5q3 9 -5 9l-72 -3q-8 0 -8 7
q1 10 7.5 18t12.5 8q10 0 70 4q7 0 10 12q34 93 68 151t89 98q57 41 118 41q55 0 89 -34q5 -5 7 -4.5t8 5.5q25 20 37.5 29t46.5 21.5t73 12.5zM138 -211q30 0 58.5 33t49.5 100l124 429q1 2 -0.5 5.5t-3.5 3.5l-158 -6q-6 0 -12 -11q-44 -138 -113 -386q-18 -61 -46 -113
q-1 -2 -0.5 -7.5t1.5 -6.5q30 -41 100 -41zM652 687q-29 0 -51 -9t-46 -40q-48 -62 -98 -234q-2 -8 5 -8q6 0 81 4.5t85 4.5q1 0 5.5 3.5t4.5 4.5q3 5 71 197q11 32 0 49q-22 28 -57 28zM215 389l160 6q7 0 12 13q38 111 79 178q7 10 4 18q-19 51 -76 51q-76 0 -121 -90
q-35 -67 -61 -167q-1 -2 0.5 -5.5t2.5 -3.5z" />
    <glyph glyph-name="longs_t" unicode="&#x17f;t" horiz-adv-x="514" 
d="M431 693q45 0 69.5 -21.5t24.5 -42.5q0 -6 -13.5 -43.5l-34 -93.5t-29.5 -84q-4 -17 5 -17q11 0 45 -0.5t46 -0.5q3 0 5 -3.5t1 -5.5q1 -5 -5.5 -14.5t-14.5 -9.5h-91q-6 0 -11 -10q-28 -56 -92 -248q-10 -28 5 -28q14 0 47 22.5t51 41.5q18 15 21 3q0 -11 -8 -24
q-31 -42 -91.5 -82.5t-95.5 -40.5q-8 0 -16 6.5t-9 16.5q0 13 4 25q1 3 20.5 56.5l47.5 128l47 123.5q6 10 -3 10h-51q-18 0 -18 9q0 8 5.5 15.5t10.5 7.5q40 0 66 2q6 0 10 10q57 143 74 202q5 24 -5 34q-19 17 -55 17q-33 0 -61.5 -19.5t-50.5 -55t-36 -66t-29 -71.5
q-54 -149 -125 -440q-45 -180 -122 -233q-72 -46 -118 -46q-31 0 -55.5 17.5t-24.5 36.5q0 15 22 34q15 14 26 3q44 -44 84 -44q35 0 58.5 49t53.5 169q57 228 105 368q36 104 79.5 177t111.5 121q59 39 120 39z" />
    <glyph glyph-name="T_h" unicode="Th" horiz-adv-x="995" 
d="M958 331q0 -54 -25 -120.5t-48 -104.5q-33 -51 -75 -84q-53 -41 -70 -41q-23 0 -36 9.5t-13 20.5q0 5 17 29q9 12 18 7q25 -16 45 -16q18 0 32 25q31 60 55.5 145t24.5 126q0 18 -7.5 27.5t-17.5 9.5q-30 0 -60.5 -31t-95.5 -115q-67 -91 -128 -212q-11 -22 -30 -22
q-12 0 -21 7q-8 10 -3 27l179 576q1 3 -2.5 7.5t-6.5 5.5l-201 4q-6 0 -11 -12q-102 -320 -146 -492q-11 -44 2.5 -59.5t60.5 -24.5q23 -5 23 -13q0 -14 -29 -14q-3 0 -53.5 2t-84.5 2q-40 0 -83 -3t-46 -3q-23 0 -23 11q0 13 21 15q60 9 82.5 26.5t43.5 76.5
q40 107 147 476q2 13 -7 13q-101 1 -143 -4q-25 -3 -53.5 -29.5t-49.5 -57.5q-11 -19 -23 -19q-3 0 -5.5 5.5t-1.5 9.5q1 5 22.5 51t30.5 80q1 4 8 10.5t11 6.5t8 -6q5 -12 46 -15q26 -1 153 -1h223q79 0 94 2q10 3 27 33q5 9 25.5 14.5t33.5 5.5q3 0 5.5 -2.5t3.5 -8.5
t-2 -14q-21 -67 -57.5 -174.5l-63 -185.5l-28.5 -84q-5 -15 2 -14q5 1 12 10q72 95 133 139q56 40 100 40q33 0 47 -23.5t14 -49.5z" />
    <glyph glyph-name="f_b" unicode="fb" horiz-adv-x="709" 
d="M433 717q42 0 76 -24q8 -8 12 -1q18 18 32 18q12 0 2 -29q-17 -32 -73.5 -190t-82.5 -240q-1 -2 1 -3q4 0 6 3q120 153 196 153q35 0 59 -25t24 -59q0 -71 -59.5 -161t-141.5 -138q-65 -37 -110 -37q-36 0 -60.5 23.5t-24.5 69.5q0 35 48 181l121 348q5 11 6.5 26.5
t-2.5 23.5q-21 29 -57 29q-49 0 -93 -55q-55 -74 -100 -226q-2 -10 3 -10l90 3q3 0 6 -5t3 -8q0 -6 -7.5 -14t-16.5 -8q-10 0 -41 -1.5t-46 -1.5q-4 0 -7 -8l-106 -375q-49 -168 -125 -215q-63 -38 -107 -38q-25 0 -45 15.5t-20 29.5q0 28 24 48q4 4 11 3.5t9 -3.5
q16 -22 38.5 -35.5t39.5 -13.5q23 0 40.5 26.5t37.5 92.5q25 80 130 453q6 16 -5 16h-60q-17 0 -17 7q0 5 8 15t18 11q5 0 31.5 1t30.5 2q10 1 13 13q20 56 38 97t44.5 83.5t60.5 72.5t76 46q35 14 72 14zM585 371q-68 0 -167 -156q-62 -99 -62 -155q0 -11 12 -29.5
t26 -18.5q22 0 66 38q53 50 106 140.5t53 149.5q0 13 -10 22t-24 9z" />
    <glyph glyph-name="f_f_b" unicode="ffb" horiz-adv-x="959" 
d="M676 717q50 0 77 -25q9 -9 14 -1q22 22 33 22q5 0 7.5 -7.5t-1.5 -17.5q-16 -32 -71 -187t-86 -250q-1 -2 1 -3q4 0 6 3q118 153 197 153q34 0 57.5 -25t23.5 -59q0 -71 -59 -161t-141 -138q-64 -37 -111 -37q-34 0 -59 23.5t-25 69.5q0 30 48 176q12 47 122 356
q11 33 0 49q-22 28 -57 28q-59 0 -97 -49q-47 -62 -95 -227q-2 -10 3 -10l90 4q3 0 6 -5t3 -8q0 -6 -7.5 -13t-16.5 -8q-52 -5 -87 -5q-6 0 -8 -6l-120 -410q-30 -99 -107 -153q-26 -18 -64 -32.5t-59 -14.5q-29 0 -57.5 11t-42.5 28q-23 -26 -61 -46t-71 -20
q-31 0 -51 14.5t-19 28.5q0 11 6.5 26t17.5 22q13 8 26 2q41 -44 71 -44q42 0 73 90q5 13 141 486q2 5 -1 7t-12 2l-63 -3q-8 0 -8 7q1 10 7.5 18t12.5 8q10 0 35 1.5t31 1.5q10 0 14 13q33 91 66.5 147.5t89.5 96.5q58 42 118 42q56 0 92 -38q4 -4 8 1q2 1 11 8.5t12.5 10
l13 9.5t16 10t16.5 8.5t19.5 8l21 5.5t24 4.5t26.5 1.5zM359 364l-149 -6q-7 0 -14 -12q-47 -149 -113 -390q-21 -69 -46 -113q-1 -2 -1 -7t2 -7q30 -41 100 -41q30 0 58.5 33t49.5 100l125 434q2 5 -0.5 7t-11.5 2zM836 371q-69 0 -168 -156q-62 -97 -62 -155q0 -12 12 -30
t27 -18q23 0 65 38q53 50 106 140.5t53 149.5q0 13 -9.5 22t-23.5 9zM221 392l152 5q9 0 15 14q35 104 78 174q3 3 4.5 8.5t0.5 7.5q-20 53 -77 53q-76 0 -121 -90q-33 -63 -61 -162q-3 -10 9 -10z" />
    <glyph glyph-name="f_f_h" unicode="ffh" horiz-adv-x="999" 
d="M416 688q56 0 93 -37q1 -1 4.5 -0.5t4.5 1.5q24 20 37.5 30t47.5 22.5t73 12.5q51 0 79 -26q1 -1 5.5 -1t6.5 1q22 22 33 22q5 0 7 -7.5t-2 -17.5l-58.5 -181l-65 -197t-29.5 -90q-1 -5 0 -7t3.5 -2t4.5 3q83 107 141 150q55 40 98 40q32 0 48 -22.5t16 -43.5
q0 -69 -36 -154t-70 -125q-25 -28 -66 -54q-35 -24 -49 -24q-23 0 -37 12q-10 11 -10 19q0 4 10.5 18.5t15.5 17.5q4 3 6 2q5 -2 15.5 -7.5t19.5 -8.5t19 -3t20 15q23 32 54.5 133t31.5 145q0 40 -28 40q-25 0 -58.5 -33t-95.5 -113q-21 -29 -65 -103t-62 -110
q-5 -8 -14.5 -14.5t-13.5 -6.5q-12 0 -20 11t-6 20l187 598q9 29 -2 44q-23 30 -57 30q-59 0 -97 -50q-47 -62 -95 -227q-2 -8 3 -8q72 2 90 2q3 0 6 -5t3 -8q0 -6 -7.5 -13t-16.5 -8q-32 -5 -87 -5q-6 0 -8 -6l-120 -409q-30 -99 -107 -153q-25 -19 -63.5 -33t-59.5 -14
q-31 0 -58.5 11.5t-39.5 30.5q-24 -26 -63 -47.5t-71 -21.5q-31 0 -51 14.5t-19 28.5q0 31 24 46q18 12 26 4q41 -44 71 -44q42 0 73 90q8 24 141 484q4 9 -6 9q-15 -1 -39 -1h-31q-8 0 -8 7q1 10 7.5 17.5t12.5 7.5q10 0 36 1.5t33 1.5t11 13q33 91 66.5 147.5t89.5 96.5
q58 42 118 42zM394 654q-76 0 -121 -90q-33 -63 -61 -162q-1 -2 0.5 -6t3.5 -4l160 6q7 0 12 13q35 104 78 174q7 7 5 15q-20 54 -77 54zM138 -211q30 0 58.5 33t49.5 100l125 433q2 8 -4 8l-161 -6q-4 0 -10 -11q-14 -44 -113 -389q-20 -67 -46 -113q-5 -7 1 -14
q30 -41 100 -41z" />
    <glyph glyph-name="f_f_j" unicode="ffj" horiz-adv-x="726" 
d="M417 684q61 0 90 -39q3 -5 11 3q75 65 145 65q55 0 81.5 -19t26.5 -46q0 -21 -16.5 -34t-32.5 -13q-13 0 -20 24q-8 30 -19.5 44t-38.5 14q-29 0 -61 -23.5t-57 -68.5q-30 -56 -68 -181q-3 -13 3 -13q104 0 164 5q36 4 56 8q15 0 9 -40q-7 -31 -57.5 -201t-65.5 -209
q-45 -116 -122 -158q-43 -23 -77 -23q-28 0 -43 12.5t-15 25.5q0 16 26 36q15 10 27 3l11.5 -8.5t12 -8.5l11 -7t13 -5.5t12.5 -1.5q34 0 58 69q64 189 125 432q11 42 -14 42q-27 0 -82.5 -2t-57.5 -2q-6 0 -14 -19l-114 -386q-18 -60 -44.5 -97.5t-69.5 -68.5
q-24 -18 -61 -30t-59 -12q-55 0 -96 41q-23 -25 -63.5 -47.5t-67.5 -22.5q-34 0 -53 16.5t-19 30.5q0 25 26 43q18 12 24 4q39 -42 71 -42q41 0 70 86q43 121 144 487q2 5 -1 6.5t-13 1.5q-11 0 -32.5 -0.5t-25.5 -0.5q-8 0 -8 7q1 10 8.5 17t14.5 8q9 1 33.5 2t28.5 1
q7 0 10 13q57 170 154 240q58 42 122 42zM385 651q-29 0 -60.5 -22t-53.5 -68q-29 -55 -59 -162q-2 -7 4 -7l160 5q4 0 10 9q32 102 76 173q3 3 4 9.5t0 8.5q-20 54 -81 54zM128 -209q29 0 61 27.5t52 93.5l129 442q2 9 -5 9l-157 -5q-8 0 -13 -12l-113 -388
q-20 -68 -47 -115q-3 -4 5 -14q33 -38 88 -38z" />
    <glyph glyph-name="f_f_k" unicode="ffk" horiz-adv-x="953" 
d="M393 651q-77 0 -121 -90q-33 -63 -60 -159q-1 -2 0.5 -6t3.5 -4l157 5q9 0 15 14q32 97 78 171q2 3 3 9.5t0 8.5q-19 51 -76 51zM138 -211q30 0 58.5 33t49.5 101l125 432q2 5 -0.5 7t-11.5 2l-149 -6q-7 0 -14 -12l-113 -388q-20 -69 -46 -114q-3 -5 1 -14
q32 -41 100 -41zM415 685q59 0 94 -37q3 -3 10 3q24 20 37 29.5t46.5 21.5t72.5 12q53 0 81 -26q1 -1 5.5 -1t6.5 1q22 22 33 22q12 0 5 -26q-2 -7 -28 -79.5l-63 -174.5l-59 -166q-3 -7 3 -7q8 1 12 8q57 80 126 116q44 22 84 22q23 0 38 -12.5t15 -28.5q0 -19 -21.5 -51
t-56.5 -56q-46 -30 -107 -56q-6 -1 -6 -10q14 -64 33 -108q15 -36 36 -36q12 0 35 17.5t40 39.5q9 12 16 12q13 0 -1 -27q-3 -6 -6 -11q-26 -39 -58.5 -66t-56.5 -27q-31 0 -57 61q-12 30 -36 97q-6 17 -16.5 27.5t-18.5 10.5q-16 0 -25 -20q-2 -6 -28 -66.5l-41 -93.5
q-4 -13 -18 -13q-11 0 -21 7t-10 15t9 33q20 48 191 570q9 28 -2 44q-23 29 -56 29q-60 0 -98 -50q-47 -61 -94 -224q-2 -10 3 -10l90 2q3 0 6 -5t3 -8q0 -5 -7 -11.5t-16 -7.5q-52 -5 -88 -5q-6 0 -8 -6q-91 -318 -120 -409q-31 -98 -107 -152q-25 -19 -63.5 -33.5
t-59.5 -14.5q-31 0 -58.5 11.5t-39.5 30.5q-24 -26 -63 -47.5t-71 -21.5q-31 0 -51 15t-19 29q0 11 6.5 25t17.5 21q19 12 26 3q41 -43 72 -43q41 0 72 89q6 19 141 485q2 2 0.5 5.5t-5.5 3.5l-71 -3q-8 0 -8 7q1 10 7.5 18t12.5 8q9 0 35.5 1.5t33.5 1.5q5 0 11 13
q33 90 66 145.5t89 96.5q57 41 118 41zM829 361q-22 0 -51 -17q-28 -17 -56 -50.5t-46 -69.5q-3 -7 0.5 -12.5t9.5 -4.5q58 4 117 50t59 83q0 21 -33 21z" />
    <glyph glyph-name="f_f_t" unicode="fft" horiz-adv-x="764" 
d="M409 685q30 0 54 -10.5t33 -26.5q6 -10 17 1q67 65 136 65q34 0 54 -18.5t19 -38.5q0 -22 -17 -42q-16 -17 -36 -17q-4 0 -7 3.5t-1 8.5q2 9 2 25q2 49 -40 49q-53 0 -99 -88q-10 -19 -20 -44.5t-16.5 -44t-16.5 -51.5t-16 -50q-1 -6 1 -7.5t11 -1.5l149 3q8 0 12 9
q17 34 39 70q18 29 46 29q12 0 5 -22l-21 -77q-1 -3 1.5 -5.5t7.5 -2.5q7 0 88 -3q6 0 6 -8q1 -6 -6 -14t-14 -9q-56 -4 -89 -4q-9 0 -12 -8q-26 -60 -97 -260q-8 -28 6 -28q13 0 47.5 22.5t52.5 41.5q7 7 13 9t7 -6q0 -10 -8 -24q-30 -43 -91 -83.5t-97 -40.5
q-7 0 -15.5 8.5t-8.5 14.5q0 9 4 25q1 3 21 58.5l48 132.5l46 125q4 13 -4 13h-39h-69h-45q-8 0 -13 -12l-123 -414q-16 -54 -41 -85.5t-60 -56.5q-24 -18 -62.5 -30.5t-61.5 -12.5q-70 0 -94 41q-22 -24 -67.5 -47t-71.5 -23t-46.5 14.5t-20.5 32.5q0 28 23 44q13 10 21 2
q42 -47 80 -47q18 0 32 20t35 72q34 87 146 486q2 5 -0.5 6.5t-12.5 1.5h-62q-8 0 -8 7q1 10 10.5 17.5t16.5 7.5q10 0 30 1.5t27 1.5q11 0 14 12q57 174 150 242q57 41 118 41zM122 -211q79 0 116 122l128 437q4 12 -11 12l-149 -2q-7 0 -12 -12l-112 -386
q-20 -68 -47 -115q-7 -11 -1 -18q30 -38 88 -38zM380 654q-28 0 -58 -24t-53 -71q-33 -62 -58 -159q-3 -8 8 -8l151 2q11 0 13 10q35 110 76 177q8 12 4 22q-10 27 -33.5 39t-49.5 12z" />
    <glyph glyph-name="f_h" unicode="fh" horiz-adv-x="749" 
d="M554 710q11 0 1 -28l-59 -178.5l-65.5 -196t-28.5 -87.5q-1 -5 0 -7t3.5 -2t4.5 3q91 114 142 150q55 40 98 40q32 0 47.5 -22.5t15.5 -43.5q0 -69 -35.5 -154.5t-69.5 -124.5q-24 -27 -65 -54q-38 -24 -51 -24q-23 0 -35 12q-11 11 -11 19q0 4 10.5 18.5t15.5 17.5
q4 3 6 2l14.5 -7.5t20 -8.5t18.5 -3q12 0 21 15q23 32 54.5 133t31.5 145q0 40 -28 40q-25 0 -59.5 -33.5t-94.5 -112.5q-21 -28 -64 -100.5t-64 -112.5q-4 -8 -14 -14.5t-14 -6.5q-11 0 -19 11t-5 20l185 598q11 34 3 43q-21 29 -59 29q-49 0 -93 -55q-55 -74 -100 -226
q-2 -10 3 -10l90 3q3 0 6 -5t3 -8q0 -6 -7.5 -14t-16.5 -8q-10 0 -41 -1.5t-46 -1.5q-4 0 -7 -8l-107 -375q-48 -166 -125 -215q-62 -38 -107 -38q-25 0 -45 15.5t-20 29.5q0 26 22 46q14 11 24 0q16 -21 37.5 -34t38.5 -13q23 0 40.5 26.5t37.5 92.5q37 118 131 453
q5 16 -5 16h-60q-17 0 -17 7q0 5 8 15t18 11q5 0 31.5 1t30.5 2q10 1 13 13q27 75 52 127t69 100.5t99 69.5q40 16 71 16q53 0 80 -25q4 -4 8 0q18 18 33 18z" />
    <glyph glyph-name="f_i" unicode="fi" horiz-adv-x="478" 
d="M525 659q0 -18 -16.5 -36.5t-36.5 -18.5q-18 0 -21 23q-3 29 -14 42.5t-39 13.5q-54 0 -103 -74q-42 -66 -82 -209q0 -8 7 -8q66 0 159 7q3 0 62 12q6 1 9 -2.5t0 -10.5q-18 -37 -61 -154.5t-58 -169.5q-8 -17 3 -17q14 0 46.5 26t49.5 43q16 16 23 16q4 0 4 -9
q0 -11 -18 -34q-32 -40 -85.5 -77.5t-82.5 -37.5q-11 0 -18.5 9.5t-7.5 18.5q0 6 11 39l56 151t56 150q5 13 -8 13l-86.5 -3.5t-65.5 -2.5q-7 0 -13 -13q-12 -39 -56 -194t-55 -191q-31 -93 -58 -137.5t-74 -70.5q-57 -32 -95 -32q-21 0 -43.5 14.5t-22.5 34.5q0 7 7 21
t14 21q18 10 23 3q37 -48 78 -48q24 0 42 28.5t49 124.5q6 18 23.5 80l46 163.5l49.5 175.5q5 16 -5 16h-66q-11 0 -11 10q0 4 9 12.5t18 9.5l60 4q11 0 13 9q56 171 137 249q65 65 150 65q30 0 51 -6.5t30 -16.5t12.5 -17.5t3.5 -14.5z" />
    <glyph glyph-name="f_j" unicode="fj" horiz-adv-x="476" 
d="M426 714q30 0 51.5 -6.5t30.5 -17t13 -18t4 -14.5q0 -18 -16.5 -36t-36.5 -18q-14 0 -21 23q-5 22 -8.5 32t-14 17t-29.5 7q-56 0 -103 -72q-45 -71 -81 -201q-2 -7 -0.5 -10.5t3.5 -4t6 -0.5q77 0 161 7q10 1 31.5 4.5t25.5 3.5q4 1 7 -3t3 -13.5t-4 -23.5
q-100 -363 -124 -426q-49 -120 -123 -158q-41 -23 -77 -23q-27 0 -42 12.5t-15 25.5q0 7 8.5 18.5t16.5 17.5q14 10 25 3q43 -30 64 -30q33 0 56 68q64 189 129 448q12 40 -15 40q-86 0 -142 -6q-10 -1 -16 -18q-67 -229 -105 -372q-25 -89 -54.5 -137t-76.5 -78
q-52 -34 -99 -34q-21 0 -43.5 15t-22.5 36t23 39q15 11 22 3q40 -47 76 -47q25 0 45 29t46 120l119 423q6 18 -5 18q-13 0 -28 -0.5t-23 -1t-12 -0.5q-13 0 -13 10q0 4 8.5 13t15.5 10l60 4q13 0 17 12q52 165 136 246q64 64 147 64z" />
    <glyph glyph-name="f_k" unicode="fk" horiz-adv-x="700" 
d="M552 708q10 0 2 -29q-2 -7 -28.5 -78l-63.5 -172l-60 -165q-3 -7 3 -7q8 1 12 8q57 80 127 116q44 22 82 22q25 0 40 -12t15 -29q0 -18 -22 -50.5t-57 -56.5q-51 -34 -108 -56q-5 -3 -5 -10q10 -55 33 -108q15 -36 36 -36q13 0 35.5 17t39.5 40q11 12 17 12q13 0 -1 -27
q-3 -6 -6 -11q-28 -40 -60 -66.5t-56 -26.5q-31 0 -57 61q-11 28 -35 97q-6 17 -17 27.5t-19 10.5q-15 0 -24 -20q-63 -145 -70 -160q-4 -13 -17 -13q-12 0 -21.5 7t-9.5 14q0 9 9 34q31 76 193 569q11 32 2 43q-21 29 -57 29q-49 0 -93 -54q-55 -76 -99 -224q-2 -10 3 -10
l90 3q3 0 6 -5t3 -8q0 -6 -7.5 -14t-16.5 -8q-10 0 -41 -1.5t-46 -1.5q-4 0 -7 -8l-107 -377q-48 -166 -125 -215q-62 -38 -107 -38q-25 0 -45 15.5t-20 29.5q0 26 22 46q13 9 20 2q44 -49 80 -49q23 0 40.5 26.5t37.5 92.5q51 164 131 455q6 16 -5 16h-60q-17 0 -17 7
q0 5 8 15t18 11q5 0 31.5 1t30.5 2q10 1 13 13q40 115 89 189t128 105q40 16 72 16q51 0 77 -26q7 -4 12 1q19 19 32 19zM576 361q-21 0 -52 -17q-58 -36 -102 -120q-3 -7 0.5 -12.5t9.5 -4.5q58 4 116.5 50t58.5 83q0 21 -31 21z" />
    <glyph glyph-name="f_l" unicode="fl" 
d="M430 714q48 0 75 -21q8 -6 12 -1q18 18 32 18q10 0 1 -25q-39 -101 -115 -326.5t-101 -306.5q-3 -8 0.5 -15.5t8.5 -7.5q11 0 51 32t66 65q8 11 16 8q2 0 2 -4q0 -5 -6 -21q-33 -58 -79.5 -91.5t-92.5 -33.5q-21 0 -31.5 19.5t-6.5 33.5q1 4 3.5 11.5l7.5 21.5l9 26
l88 262q2 8 -4 7h-1l-157 -5q-2 0 -7 -4t-6 -9l-106 -373q-48 -167 -125 -216q-62 -38 -107 -38q-25 0 -45 15.5t-20 29.5q0 26 22 46q4 3 11 5t10 -1q18 -21 41 -36t38 -15q23 0 40.5 26.5t37.5 92.5q25 80 132 461q1 4 0 7.5t-3 3.5h-63q-18 0 -18 8q1 6 9 15.5t18 10.5
q5 0 32.5 1t31.5 2q9 2 11 13q20 56 38 96t43.5 82.5t59.5 71.5t76 45q35 14 71 14zM404 683q-50 0 -93 -53q-53 -72 -99 -226q-3 -11 5 -11q6 0 73 2.5t77 2.5q13 0 19 9q2 3 15 41.5l30 89t24 68.5q3 8 5 19.5t2.5 20t-0.5 9.5q-20 28 -58 28z" />
    <glyph glyph-name="f_r" unicode="fr" horiz-adv-x="576" 
d="M405 714q43 0 60 -19t17 -43q0 -22 -17 -38t-31 -16q-7 0 -9.5 2.5t-3.5 12.5q-1 3 -3 17t-4 20t-6.5 15t-12.5 13t-19 4q-41 0 -79 -60q-43 -70 -83 -213q-1 -4 -0.5 -7.5t1.5 -5.5t2 -2q82 0 162 5q19 1 30.5 -10t11.5 -27q0 -10 -33 -113q-4 -10 0 -13t11 8
q47 69 76 103q48 57 85 57q20 0 29.5 -12.5t9.5 -28.5q0 -28 -17 -51t-29 -23q-11 0 -12 21q-6 34 -20 34q-25 0 -69 -69q-41 -63 -134 -252q-21 -40 -45 -40q-13 0 -19 10.5t0 23.5q60 158 100 287q12 37 -3 55q-18 3 -38 3l-110 -4q-5 0 -8 -11l-56.5 -199t-53.5 -185
q-30 -88 -59 -132.5t-75 -74.5q-49 -33 -93 -33q-21 0 -43 13t-22 33q0 7 7 19t14 19q16 9 22 3q47 -39 77 -39q24 0 42.5 28t49.5 123l23.5 81l46.5 165l50 177q4 14 -2 14q-10 0 -35 -0.5t-36 -0.5q-5 0 -7.5 4.5t-0.5 8.5q9 19 20 19q30 2 66 2q3 0 6 2.5t3 3.5
q55 177 137 255q66 61 129 61z" />
    <glyph glyph-name="f_t" unicode="ft" horiz-adv-x="524" 
d="M476 505q11 0 5 -22q-2 -7 -13 -43t-12 -40q-1 -2 0.5 -5t4.5 -3h95q3 0 3 -8q1 -5 -5.5 -13.5t-14.5 -9.5q-45 -3 -93 -3q-5 0 -9 -10q-39 -92 -96 -253q-10 -28 6 -28q13 0 47.5 22.5t52.5 41.5q7 7 13.5 9t7.5 -6q0 -10 -9 -24q-30 -43 -91 -83.5t-96 -40.5
q-7 0 -16.5 8.5t-9.5 14.5q0 10 5 25q1 2 21 57l48 131l47 125q5 12 -2 12h-163q-5 0 -8 -8q-26 -88 -119 -444q-6 -23 -15 -43t-16 -31.5t-19 -24.5t-16 -17t-18 -14l-14 -10q-25 -18 -60 -31t-52 -13q-32 0 -51 13t-19 32q0 10 16.5 28t26.5 18q9 2 16 -7q30 -39 65 -39
q25 0 46.5 27t40.5 105q94 359 120 450q3 8 -6 8h-61q-10 0 -10 11q0 9 6.5 15.5t12.5 6.5q10 0 34 0.5t31 0.5q3 0 7 7q71 219 162 281q53 37 98 37q36 0 55.5 -19t19.5 -44q0 -29 -16.5 -48.5t-31.5 -19.5q-8 0 -8 10q0 2 0.5 10t0.5 11q0 29 -12 50t-32 21q-24 0 -45 -18
t-48 -67q-37 -69 -73 -200q0 -2 0.5 -4.5t1.5 -4t2 -1.5q137 -2 163 1q7 0 11 9q20 38 41 73q18 29 47 29z" />
    <glyph glyph-name="longs_b" unicode="&#x17f;b" horiz-adv-x="681" 
d="M584 404q24 0 48 -17q29 -22 29 -65q0 -80 -61 -167.5t-133 -129.5q-68 -41 -116 -41q-36 0 -60 22.5t-24 68.5q0 31 51 188l117 354q8 21 -3 35q-20 20 -54 20q-51 0 -86.5 -53.5t-83.5 -186.5q-61 -179 -116 -435q-37 -174 -121 -231q-67 -43 -116 -43
q-29 0 -53.5 16.5t-24.5 37.5q0 16 21 34q7 6 15.5 6.5t12.5 -4.5q40 -45 81 -45q36 0 59.5 47.5t49.5 163.5q48 213 107 393q79 234 185 306q54 36 110 36q36 0 61 -15q5 -3 20 5q19 14 32 14q17 0 0 -35q-17 -33 -73 -192t-80 -236q-2 -5 3 -6q2 0 3 2q118 153 200 153z
M564 371q-37 0 -83.5 -48t-84.5 -105q-62 -99 -62 -152q0 -23 10.5 -37t29.5 -14q21 0 66 39q52 49 104 136.5t52 149.5q0 13 -9.5 22t-22.5 9z" />
    <glyph glyph-name="longs_h" unicode="&#x17f;h" horiz-adv-x="734" 
d="M426 714q42 0 67 -17q6 -3 18 6q18 15 32 15q4 0 5.5 -2.5t0.5 -8.5t-2.5 -10t-4.5 -14l-59 -177.5l-66 -199t-28 -86.5t2 -9q2 0 5 3q92 116 142 152q55 40 98 40q32 0 47 -24.5t15 -46.5q0 -69 -35.5 -153t-70.5 -123q-30 -34 -64 -56q-35 -22 -49 -22q-24 0 -34 12
q-8 6 -8 18q0 5 5.5 17.5t9.5 16.5q5 5 11 3l14.5 -7t19.5 -7.5t18 -2.5q10 0 22 15q23 31 55 131t32 143q0 40 -29 40t-62.5 -31.5t-92.5 -110.5q-43 -57 -123 -210q-14 -24 -32 -24q-12 0 -19.5 11t-4.5 20l188 604q7 23 0 30q-26 24 -64 24q-54 0 -96 -59t-84 -188
q-63 -198 -111 -423q-36 -175 -121 -234q-72 -46 -118 -46q-30 0 -54.5 18t-24.5 37q0 17 21 35q16 14 26 3q42 -46 84 -46q37 0 60.5 46.5t49.5 162.5q39 173 103 387q39 124 91 200.5t99 109.5q57 38 116 38z" />
    <glyph glyph-name="longs_i" unicode="&#x17f;i" horiz-adv-x="461" 
d="M411 714q33 0 58 -19.5t25 -46.5q0 -13 -12 -26t-22 -13q-17 0 -27 13q-32 45 -66 45q-49 0 -90.5 -62t-86.5 -218q-35 -120 -99 -381q-26 -104 -52.5 -157.5t-67.5 -82.5q-69 -43 -119 -43q-31 0 -54.5 16t-23.5 35q0 10 9 22.5t17 16.5q19 9 26 0q37 -43 81 -43
q36 0 58 45.5t49 163.5q40 178 112 411q72 216 178 286q55 38 107 38zM404 404q13 0 19.5 -8t6.5 -16q0 -9 -10 -34l-113 -272q-8 -17 4 -17q10 0 46.5 27.5t53.5 44.5q13 14 22 14q6 0 6 -8q0 -13 -19 -34q-33 -38 -89 -77.5t-85 -39.5q-11 0 -19 6.5t-8 14.5q0 9 6 22
l123 295q5 11 2 14t-11 -1q-25 -11 -72 -43q-5 -3 -8 -1t-3 7q0 7 11 21q19 21 66 53t71 32z" />
    <glyph glyph-name="longs_k" unicode="&#x17f;k" horiz-adv-x="678" 
d="M426 714q37 0 65 -17q5 -3 15 5q21 16 32 16q16 0 3 -32l-138 -387q-3 -8 1.5 -9t9.5 4q66 64 114 89q42 21 85 21q23 0 37 -13.5t14 -31.5q0 -45 -76 -98q-49 -33 -98 -55q-13 -6 -10 -16q7 -41 35 -107q16 -36 37 -36q14 0 34.5 15.5t37.5 40.5q9 12 15 12q13 0 0 -28
q-2 -5 -5 -10q-25 -41 -58 -67t-59 -26q-30 0 -56 61q-14 34 -37 104q-11 31 -36 31q-16 0 -25 -20l-28.5 -74.5t-34.5 -85.5q-6 -13 -24 -13q-11 0 -20.5 7t-9.5 14q0 9 9 34q3 7 36 106.5l84 251.5l73 219q3 7 3.5 16.5t-1.5 11.5q-21 26 -66 26q-53 0 -95 -59t-84 -188
q-63 -198 -111 -423q-36 -175 -121 -234q-72 -46 -118 -46q-30 0 -54.5 18t-24.5 37q0 17 21 35q16 14 26 3q42 -46 84 -46q37 0 60.5 46.5t49.5 162.5q33 146 103 387q68 225 189 310q57 38 117 38zM557 357q-27 0 -82 -41t-81 -92q-4 -7 -1 -12t14 -4q45 2 112.5 45
t69.5 83q0 6 -1.5 9.5t-9 7.5t-21.5 4z" />
    <glyph glyph-name="longs_l" unicode="&#x17f;l" horiz-adv-x="493" 
d="M426 714q33 0 65 -18q6 -3 15 4q23 18 37 18q4 0 5.5 -3t0.5 -8t-2.5 -10.5t-4.5 -13.5l-126.5 -348.5t-91.5 -260.5q-12 -36 9 -36q13 0 49 28.5t68 63.5q4 5 8.5 4t4.5 -6q0 -16 -5 -23q-33 -53 -81 -87t-91 -34q-18 0 -31.5 11t-13.5 30q0 1 34 100l175 494
q3 8 1.5 17.5t-4.5 12.5q-29 24 -62 24q-53 0 -95.5 -59t-84.5 -188q-63 -198 -111 -423q-36 -175 -121 -234q-72 -46 -118 -46q-30 0 -54.5 18t-24.5 37q0 17 21 35q5 4 13.5 5.5t12.5 -2.5q42 -46 84 -46q37 0 60.5 46.5t49.5 162.5q39 173 103 387q39 124 91 200.5
t99 109.5q57 38 116 38z" />
    <glyph glyph-name="longs_longs" unicode="&#x17f;&#x17f;" horiz-adv-x="448" 
d="M408 690q58 0 88 -36q4 -4 9 0q69 60 128 60q32 0 54.5 -17.5t21.5 -41.5q-1 -14 -12.5 -27.5t-19.5 -13.5q-3 0 -6 2t-4.5 3.5t-4 6.5t-4.5 7q-25 33 -66 33q-23 0 -40.5 -9t-38 -36t-41 -80.5t-44.5 -137.5q-73 -259 -98 -368q-22 -101 -51 -156.5t-72 -85.5
q-68 -46 -121 -46q-22 0 -48.5 10t-40.5 24q-3 3 -10 -2q-28 -22 -66 -39t-68 -17t-54 15t-24 36q0 5 7 16.5t15 19.5q18 14 27 7l17.5 -14.5t17 -14t13.5 -9t17 -7.5t17 -2q36 0 60.5 47.5t50.5 162.5q46 205 112 398q70 205 174 274q55 38 105 38zM374 649
q-52 0 -92.5 -61.5t-88.5 -213.5q-64 -202 -103 -375q-22 -101 -52 -157q-4 -8 1 -13q41 -41 91 -41q72 0 127 227q49 201 100 367q39 135 94 216q2 2 2.5 6t-0.5 6q-19 39 -79 39z" />
    <glyph glyph-name="longs_longs_i" unicode="&#x17f;&#x17f;i" horiz-adv-x="716" 
d="M374 649q-52 0 -92.5 -61.5t-88.5 -213.5q-63 -199 -102 -372q-23 -103 -52 -158q-4 -7 2 -13q38 -40 90 -40q72 0 127 227q49 202 99 364q39 136 94 219q5 5 2 9q-24 39 -79 39zM655 404q6 0 14.5 -8.5t8.5 -15.5q0 -9 -10 -34l-114 -272q-2 -5 1 -11t10 -6
q11 0 41 24.5t52 47.5q14 14 23 14q5 0 5 -6q0 -17 -18 -36q-37 -42 -90 -79.5t-82 -37.5q-10 0 -19.5 8.5t-9.5 16.5q0 7 5 18q20 52 123 295q3 6 -0.5 11t-7.5 3q-35 -12 -75 -46q-4 -4 -8 -2t-4 7q0 10 13 25q17 21 67 52.5t75 31.5zM408 690q59 0 88 -35q3 -5 9 -1
q69 60 129 60q34 0 59 -19t24 -43q-1 -15 -14 -30.5t-21 -15.5q-15 0 -26 17q-25 44 -61 44q-32 0 -55.5 -17.5t-52 -77t-59.5 -169.5q-72 -254 -97 -365q-22 -101 -51 -156.5t-72 -85.5q-68 -46 -121 -46q-21 0 -47 10t-40 24q-4 4 -12 -2q-29 -23 -68.5 -41t-69.5 -18
t-52 16.5t-22 37.5q0 5 7 16.5t15 18.5q15 13 27 3q42 -35 60 -40q10 -3 22 -3q36 0 60.5 47.5t50.5 163.5q46 205 111 395q70 205 174 274q55 38 105 38z" />
    <glyph glyph-name="longs_longs_l" unicode="&#x17f;&#x17f;l" horiz-adv-x="714" 
d="M374 650q-52 0 -92 -61t-89 -213q-62 -197 -103 -377q-22 -101 -52 -157q-1 -2 -1 -7t1 -6q39 -41 92 -41q71 0 127 227q50 205 100 368q39 136 94 217q1 1 2 5t0 5q-19 40 -79 40zM408 691q57 0 88 -36q4 -5 9 0q68 59 143 59q39 0 69 -18q5 -3 13 3q24 20 35 20
q3 0 4 -5t0 -13.5t-4 -16.5l-126 -345.5t-93 -264.5q-12 -35 9 -35q13 0 49 28t68 63q4 5 8.5 4t4.5 -6q0 -16 -5 -23q-33 -53 -81.5 -86.5t-91.5 -33.5q-17 0 -30.5 11.5t-13.5 29.5q0 4 4 15.5l13 37t16 47.5l176 493q8 27 4 32q-8 8 -29 15.5t-38 7.5q-24 0 -44 -10.5
t-43 -38t-46.5 -83t-47.5 -138.5q-77 -272 -98 -369q-23 -102 -51.5 -157.5t-72.5 -84.5q-65 -46 -120 -46q-22 0 -48 10.5t-40 24.5q-5 3 -11 -3q-73 -56 -134 -56q-31 0 -55 15t-24 36q0 5 7 16.5t16 18.5q14 12 27 3q17 -14 22.5 -18t17.5 -12t21 -10t21 -2q36 0 60 47
t50 163q51 219 113 399q37 108 78.5 172.5t94.5 101.5q58 38 106 38z" />
    <glyph glyph-name="Tcommaaccent_h" unicode="&#x162;h" horiz-adv-x="995" 
d="M958 331q0 -54 -25 -120.5t-48 -104.5q-33 -51 -75 -84q-53 -41 -70 -41q-23 0 -36 9.5t-13 20.5q0 5 17 29q9 12 18 7q25 -16 45 -16q18 0 32 25q31 60 55.5 145t24.5 126q0 18 -7.5 27.5t-17.5 9.5q-30 0 -60.5 -31t-95.5 -115q-67 -91 -128 -212q-11 -22 -30 -22
q-12 0 -21 7q-8 10 -3 27l179 576q1 3 -2.5 7.5t-6.5 5.5l-201 4q-6 0 -11 -12q-102 -320 -146 -492q-11 -44 2.5 -59.5t60.5 -24.5q23 -5 23 -13q0 -14 -29 -14q-3 0 -53.5 2t-84.5 2q-40 0 -83 -3t-46 -3q-23 0 -23 11q0 13 21 15q60 9 82.5 26.5t43.5 76.5
q40 107 147 476q2 13 -7 13q-101 1 -143 -4q-25 -3 -53.5 -29.5t-49.5 -57.5q-11 -19 -23 -19q-3 0 -5.5 5.5t-1.5 9.5q1 5 22.5 51t30.5 80q1 4 8 10.5t11 6.5t8 -6q5 -12 46 -15q26 -1 153 -1h223q79 0 94 2q10 3 27 33q5 9 25.5 14.5t33.5 5.5q3 0 5.5 -2.5t3.5 -8.5
t-2 -14q-21 -67 -57.5 -174.5l-63 -185.5l-28.5 -84q-5 -15 2 -14q5 1 12 10q72 95 133 139q56 40 100 40q33 0 47 -23.5t14 -49.5zM240 -45q23 0 37.5 -16t14.5 -44q0 -55 -41.5 -85t-79.5 -30q-13 0 -13 8t15 13q27 10 46 27.5t20 40.5q0 16 -17 17q-28 4 -28 31
q0 14 13.5 26t32.5 12z" />
    <glyph glyph-name="Tcaron_h" unicode="&#x164;h" horiz-adv-x="995" 
d="M958 331q0 -54 -25 -120.5t-48 -104.5q-33 -51 -75 -84q-53 -41 -70 -41q-23 0 -36 9.5t-13 20.5q0 5 17 29q9 12 18 7q25 -16 45 -16q18 0 32 25q31 60 55.5 145t24.5 126q0 18 -7.5 27.5t-17.5 9.5q-30 0 -60.5 -31t-95.5 -115q-67 -91 -128 -212q-11 -22 -30 -22
q-12 0 -21 7q-8 10 -3 27l179 576q1 3 -2.5 7.5t-6.5 5.5l-201 4q-6 0 -11 -12q-102 -320 -146 -492q-11 -44 2.5 -59.5t60.5 -24.5q23 -5 23 -13q0 -14 -29 -14q-3 0 -53.5 2t-84.5 2q-40 0 -83 -3t-46 -3q-23 0 -23 11q0 13 21 15q60 9 82.5 26.5t43.5 76.5
q40 107 147 476q2 13 -7 13q-101 1 -143 -4q-25 -3 -53.5 -29.5t-49.5 -57.5q-11 -19 -23 -19q-3 0 -5.5 5.5t-1.5 9.5q1 5 22.5 51t30.5 80q1 4 8 10.5t11 6.5t8 -6q5 -12 46 -15q26 -1 153 -1h223q79 0 94 2q10 3 27 33q5 9 25.5 14.5t33.5 5.5q3 0 5.5 -2.5t3.5 -8.5
t-2 -14q-21 -67 -57.5 -174.5l-63 -185.5l-28.5 -84q-5 -15 2 -14q5 1 12 10q72 95 133 139q56 40 100 40q33 0 47 -23.5t14 -49.5zM446 686q-10 0 -20 20q-11 19 -66 90q-7 9 -6 17.5t8 8.5q9 0 23 -10q52 -34 73 -50q4 -3 14 0q119 52 122 53q14 7 29 7q8 0 7 -8.5
t-15 -17.5l-126 -87q-35 -23 -43 -23z" />
    <glyph glyph-name="gamma_gamma" unicode="&#x3b3;&#x3b3;" horiz-adv-x="778" 
d="M142 409q33 0 55.5 -33t18.5 -113q-6 -103 -25 -167q-1 -3 2 -3q5 -1 7 4q41 76 95 147t95 109q61 56 119 56q34 0 59 -34t21 -113q-6 -91 -27 -170q-1 -2 2 -3q5 -1 9 4l131 196q53 82 74 130q2 2 8.5 1t8.5 -3q6 -7 12 -23t6 -27q0 -6 -11 -24t-17 -25l-107 -135
q-106 -135 -133 -194q-13 -29 -17 -48q-35 -114 -59 -165q-3 -5 -12 -11.5t-13 -5.5q-27 10 -38 49q-3 15 5 34q18 39 86 148q11 17 24.5 53t16.5 55q9 51 12 85t-0.5 72.5t-23.5 58.5t-56 20q-40 0 -88 -40t-89 -99.5t-70.5 -110t-46.5 -87.5l-7.5 -15.5t-7.5 -16.5t-4 -11
q-62 -156 -85 -205q-2 -5 -12 -11t-14 -5q-25 10 -35 47q-3 20 5 34q16 33 109 178q11 17 24.5 50.5t15.5 51.5q17 125 9 173q-12 68 -63 68q-39 0 -80 -45q-5 -6 -9.5 -8t-7 1t0.5 16q2 23 23 50q47 60 104 60z" />
    <glyph glyph-name="lambda_lambda" unicode="&#x3bb;&#x3bb;" horiz-adv-x="745" 
d="M161 688q99 0 103 -160q1 -37 -1.5 -179t-2.5 -178q0 -116 44 -116q5 0 18 12t22 24l172 218q10 11 27.5 34t19.5 25q3 3 6 16.5t3 17.5q0 8 -0.5 29t-1 32t-2 32t-3.5 33t-6.5 30t-10.5 28.5t-14.5 23t-19.5 19.5t-26.5 11.5t-33.5 4.5q-17 0 -34 -4t-25.5 -8t-22.5 -12
t-15 -9q-4 -1 -8 2.5t-3 5.5q0 8 14 28q52 65 124 65q51 0 77.5 -41t36.5 -120q3 -34 4 -177.5t-1 -203.5q0 -46 5.5 -70t13 -29.5t21.5 -5.5q36 0 77 51q1 1 3 -0.5t3.5 -4t1.5 -4.5q0 -11 -10 -31q-47 -94 -106 -94q-24 0 -36 23.5t-11 57.5q0 27 5 117.5t6 104.5
q0 10 -6 10q-2 0 -4 -3q-7 -12 -96 -131t-110 -139q-37 -40 -77 -40q-27 0 -41.5 23.5t-14.5 54.5q0 27 4.5 118t5.5 104q0 5 -3.5 8.5t-7.5 -2.5l-153 -255q-35 -52 -43 -52q-23 0 -50 16q-2 2 -3.5 8.5t0.5 9.5q2 4 103 147.5t108 156.5q35 55 40 59q8 6 8 34
q0 36 -1 61.5t-7.5 55t-17.5 48t-31.5 30.5t-49.5 12q-13 0 -26 -3.5t-20 -7t-18.5 -10t-14.5 -7.5q-3 -2 -7 1.5t-4 6.5q0 8 14 27q19 26 48.5 43.5t61.5 17.5z" />
    <glyph glyph-name=".notdef" horiz-adv-x="500" 
d="M0 0v700h500v-700h-500zM250 395l170 255h-340zM280 350l170 -255v510zM80 50h340l-170 255zM50 605v-510l170 255z" />
    <glyph glyph-name=".null" horiz-adv-x="0" 
 />
    <glyph glyph-name="nonmarkingreturn" horiz-adv-x="333" 
 />
    <glyph glyph-name="space" unicode=" " horiz-adv-x="199" 
 />
    <glyph glyph-name="exclam" unicode="!" horiz-adv-x="279" 
d="M273 613q25 0 31.5 -34t-5.5 -63q-10 -31 -64.5 -161.5t-64.5 -149.5q-7 -18 -22 -18q-14 0 -10 23q24 152 64 323q10 41 30.5 60.5t40.5 19.5zM119 102q51 0 51 -53q0 -29 -18.5 -46t-42.5 -17t-37 14.5t-13 35.5q0 28 19 47t41 19z" />
    <glyph glyph-name="quotedbl" unicode="&#x22;" horiz-adv-x="292" 
d="M240 701q13 0 7 -25q-6 -30 -34.5 -85.5t-52.5 -90.5q-16 -21 -34 -21q-4 0 -4.5 7.5t2.5 15.5q43 123 48 160q3 10 11 15q37 24 57 24zM385 701q11 0 7 -25q-7 -30 -36 -88.5t-53 -90.5q-16 -21 -33 -21q-4 0 -4.5 7t2.5 15q41 120 47 164q0 6 9 14q32 25 61 25z" />
    <glyph glyph-name="numbersign" unicode="#" horiz-adv-x="487" 
d="M497 427q-15 -31 -21 -31l-73 -3q-5 0 -10 -10l-45 -106q-1 -3 0 -5t4 -1l80 3q3 0 3.5 -10t-1.5 -14q-13 -36 -27 -36l-77 -3q-3 0 -5.5 -1.5t-4 -3t-1.5 -2.5l-71 -173q-5 -14 -25 -14q-14 0 -10 11l68 173q3 7 -6 7l-96 -2q-2 0 -6.5 -3.5t-4.5 -4.5l-74 -175
q-4 -11 -25 -11q-5 0 -8 5t-2 8l69 170q5 10 -5 10l-70 -2q-2 0 -3.5 7t-0.5 9q14 42 27 42l74 4q8 0 10 7l42 105q2 4 0.5 7.5t-5.5 2.5l-79 -3q0 21 3 32q2 6 10.5 16t12.5 11l76 3q10 0 12 6l62 157q1 4 11.5 8t19.5 4q3 0 6 -4t2 -6l-63 -158q-2 -6 2 -6l97 3q9 0 13 9
l68 160q5 10 30 10q1 0 2.5 -1.5t2.5 -4.5t-1 -8l-62 -154q-4 -9 2 -9l75 1q1 -5 0.5 -14t-2.5 -12zM354 381q2 10 -3 10l-100 -3q-7 0 -9 -8l-44 -106q-1 -2 0.5 -5.5t4.5 -2.5l95 3q9 0 13 9z" />
    <glyph glyph-name="dollar" unicode="$" horiz-adv-x="487" 
d="M364 628l22 62q3 6 12 6q16 0 16 -9l-20 -60q-2 -6 4 -8q4 -2 18.5 -7.5t26 -10.5t16.5 -8q10 -7 21 -5q5 0 14.5 2.5t12.5 2.5t5.5 -6.5t0.5 -10.5q-38 -75 -43 -109q-4 -23 -16 -23q-14 0 -10 29q11 81 -54 116q-6 3 -8 -3l-72 -229q-2 -6 4 -12q114 -91 114 -178
q0 -40 -25 -78t-68 -61q-51 -28 -128 -28q-7 0 -10 -7l-25 -75q-3 -10 -18 -10q-5 0 -8 3.5t-3 6.5l24 78q1 1 -1 4t-4 3q-62 14 -86 31q-15 10 -34 -1q-21 -9 -27 -4q-7 7 -3 19q18 40 46 140q6 24 17 24t10 -29q-3 -51 10.5 -84t30 -45t44.5 -23q8 -3 10 7l75 239
q2 5 -3 11q-34 30 -52.5 48.5t-38 53t-19.5 68.5q0 77 62 124.5t153 40.5q4 0 7 5zM286 375l66 213q0 9 -3 9q-53 5 -94.5 -27.5t-41.5 -86.5q0 -11 2 -20.5t6.5 -19.5t8 -16t11.5 -15.5t11.5 -13l13.5 -13.5l12 -12q6 -5 8 2zM280 256l-69 -223q0 -1 -0.5 -2.5t1.5 -3.5
t5 -2q61 1 97 38.5t36 84.5q0 46 -63 111q-2 2 -4 1t-3 -4z" />
    <glyph glyph-name="percent" unicode="%" horiz-adv-x="721" 
d="M298 631q43 0 67 -34.5t24 -80.5q0 -69 -39.5 -134t-90.5 -91q-32 -17 -67 -17q-41 0 -64.5 32t-23.5 71q-1 54 23.5 112t71.5 102q46 40 99 40zM291 606q-26 0 -58 -41q-27 -36 -46 -94t-18 -113q0 -58 35 -58q26 0 53 36t50.5 98t23.5 113q0 59 -40 59zM639 632
q11 0 17 -13q5 -8 0 -13l-505 -624q-8 -9 -16 -9q-4 0 -10 5t-7 10q-2 6 3 11l500 621q11 12 18 12zM587 346q43 0 68 -35t25 -81q0 -68 -40 -133t-91 -92q-36 -17 -67 -17q-42 0 -65 32.5t-23 71.5q0 54 23.5 111.5t70.5 101.5q47 41 99 41zM581 320q-27 0 -59 -40
q-26 -36 -45 -94.5t-18 -113.5q0 -58 34 -58q26 0 54 36q27 35 49.5 97t22.5 114q0 59 -38 59z" />
    <glyph glyph-name="ampersand" unicode="&#x26;" horiz-adv-x="794" 
d="M279 486q23 0 43 -23t23 -66q0 -1 1.5 -2t3.5 -1.5t5 1.5q47 41 85.5 97.5t38.5 100.5q0 25 -22 54q-9 9 1 25q15 22 37 22q18 0 31 -19.5t13 -45.5q0 -109 -184 -270q-29 -26 -68.5 -54.5l-81.5 -56.5t-53 -36q-8 -8 -7 -16q8 -69 55 -115t112 -46q80 0 144 45
q59 44 101.5 115t45.5 128q1 10 -3 21q-1 2 -7.5 5.5t-19 6t-27.5 2.5q-65 0 -65 -54q1 -25 15 -54q4 -11 1 -15q-7 -10 -29 -10q-16 0 -32 13t-16 29q0 24 12 42.5t42 49.5q56 49 109 49q68 0 135 -62q14 -16 28 -16q16 0 16 25q0 34 -20 64q-14 21 10 21t40.5 -22
t16.5 -46q0 -17 -7 -32t-19 -19q-7 -3 -69 -36q-15 -8 -24 1q-23 26 -48 43q-2 2 -6 -0.5t-4 -6.5q0 -18 -5 -41q-10 -51 -35 -104.5t-54 -86.5q-56 -63 -121.5 -94t-121.5 -31q-51 0 -90.5 15.5t-63.5 39.5t-39.5 55.5t-21 60.5t-5.5 58q0 136 93 226q24 23 56.5 44.5
t54.5 21.5zM142 252q0 -10 8 -5q17 10 70 47t59 43q8 6 8 37q-1 19 -14 40.5t-33 21.5q-42 0 -71.5 -58.5t-26.5 -125.5z" />
    <glyph glyph-name="quotesingle" unicode="'" horiz-adv-x="151" 
d="M244 701q13 0 7 -25q-6 -29 -35.5 -85t-54.5 -91q-4 -7 -15 -14t-19 -7q-12 0 -3 23q39 115 45 160q2 9 11 15q12 9 32 16.5t32 7.5z" />
    <glyph glyph-name="parenleft" unicode="(" horiz-adv-x="354" 
d="M449 732q9 0 9 -7t-17 -21q-151 -120 -219 -266.5t-68 -340.5q0 -87 17.5 -165.5t33.5 -110.5q4 -9 2 -13.5t-6 -4.5q-15 0 -32 23q-13 17 -27 43.5t-32 99t-18 156.5q0 182 78 335t222 247q38 25 57 25z" />
    <glyph glyph-name="parenright" unicode=")" horiz-adv-x="354" 
d="M-36 -197q-9 0 -9 9q0 6 17 20q151 119 219 265.5t68 341.5q0 86 -17.5 165.5t-33.5 110.5q-10 17 3 17q17 0 33 -22q12 -16 26 -42.5t32 -99.5t18 -157q0 -182 -78.5 -335.5t-221.5 -246.5q-38 -26 -56 -26z" />
    <glyph glyph-name="asterisk" unicode="*" horiz-adv-x="349" 
d="M399 562q21 4 21 -9q0 -11 -16 -16q-22 -9 -83 -28q-6 -1 0 -9q12 -12 34 -39t27 -32q8 -12 8 -22q0 -5 -8 -5t-16 4q-27 17 -78 68q-6 6 -8 -1q-17 -58 -31 -87q-9 -21 -20 -21t-7 28q1 17 9.5 51.5t8.5 37.5q2 6 -8 4q-79 -21 -97 -21q-20 -1 -20 9q0 8 16 16
q13 6 26 10.5t32.5 10.5t34.5 12q9 3 2 10q-1 1 -32.5 29.5t-39.5 43.5q-7 10 -3 16t17 1q18 -4 83 -62q8 -7 10 1q7 28 28 82q8 21 19 21q3 0 6 -7.5t2 -16.5q-2 -16 -12 -84q-1 -6 1 -8.5t8 -1.5q48 10 86 15z" />
    <glyph glyph-name="plus" unicode="+" horiz-adv-x="624" 
d="M297 499q0 5 15.5 9.5t27.5 4.5q7 0 12 -4t5 -8v-211q0 -9 9 -9l204 -1q2 0 5 -5t3 -9q0 -17 -4.5 -27.5t-9.5 -10.5h-199q-8 0 -8 -9l-3 -218q0 -6 -13 -11t-32 -5q-4 0 -8 3.5t-4 7.5v221q0 11 -8 11l-194 1q-13 0 -16.5 3t-3.5 13q0 11 4.5 23t9.5 12l201 1q7 0 7 7
v211z" />
    <glyph glyph-name="comma" unicode="," horiz-adv-x="226" 
d="M72 127q30 0 45.5 -25t15.5 -54q0 -43 -32.5 -81t-65 -56t-62.5 -28q-9 -3 -17 -1t-8 7q0 7 23 20q94 55 94 119q0 25 -40 36q-14 6 -14 17q0 17 17 31.5t44 14.5z" />
    <glyph glyph-name="hyphen" unicode="-" horiz-adv-x="305" 
d="M65 235q10 2 103 13t98 11q3 0 6.5 -5t2.5 -11q-2 -14 -11 -29.5t-21 -16.5q-24 -4 -102.5 -12t-88.5 -8q-9 -1 -9 12q0 8 8 26.5t14 19.5z" />
    <glyph glyph-name="period" unicode="." horiz-adv-x="226" 
d="M73 102q24 0 37 -14t13 -39q0 -28 -18.5 -45.5t-42.5 -17.5q-25 0 -37.5 14.5t-12.5 36.5q0 28 19.5 46.5t41.5 18.5z" />
    <glyph glyph-name="slash" unicode="/" horiz-adv-x="338" 
d="M-28 -45l398 689q8 11 18 11q14 0 22 -3q10 -5 4 -14l-396 -687q-10 -17 -20 -17t-20 5q-4 2 -6 7t0 9z" />
    <glyph glyph-name="zero" unicode="0" horiz-adv-x="487" 
d="M354 631q41 0 70 -17t43.5 -46t21 -58.5t6.5 -62.5q0 -93 -33 -193.5t-87 -168.5q-82 -97 -173 -97q-43 0 -73.5 17t-45.5 46t-21.5 57.5t-6.5 60.5q0 96 34.5 196.5t86.5 164.5q83 101 178 101zM349 602q-61 0 -118 -105q-41 -77 -68 -182t-27 -184q0 -114 65 -114
q30 0 56 19.5t47.5 57t32.5 62t26 65.5q53 148 53 272q0 109 -67 109z" />
    <glyph glyph-name="one" unicode="1" horiz-adv-x="487" 
d="M59 6q0 12 32 16q26 3 41 12t21.5 19t16.5 34q6 15 89 291q40 131 45 174q0 12 -9 12q-12 2 -25.5 5t-24.5 4q-9 2 -15.5 5t-5.5 7q0 10 21 13q10 1 34.5 4t39.5 5t33.5 6.5t28.5 9.5q15 8 21 8q4 0 5.5 -5.5t-0.5 -9.5q0 -2 -6 -19t-16 -48l-20 -64q-92 -327 -106 -383
q-13 -42 -5.5 -56.5t58.5 -23.5q20 -4 20 -12q0 -12 -32 -12q-16 0 -46 1t-44 1q-30 0 -67 -2t-51 -2q-33 0 -33 10z" />
    <glyph glyph-name="two" unicode="2" horiz-adv-x="487" 
d="M324 631q61 0 105 -43t44 -109q0 -32 -9.5 -60.5t-32 -56.5t-37 -42.5l-45.5 -43.5q-46 -44 -135 -115.5l-106 -85.5q-5 -4 -3.5 -7.5t5.5 -3.5q210 0 240 5q13 2 20.5 4t23 13.5t28.5 30.5q11 15 19 15q9 0 2 -26q-5 -21 -21.5 -53.5t-27.5 -45.5q-10 -11 -29 -11
q-4 0 -111.5 2t-134.5 2h-68l-36 -1q-19 0 -19 10q0 9 18 25q78 53 212 178q82 79 122 136t40 126q0 45 -28.5 71t-63.5 26q-77 0 -134 -59q-20 -21 -27 -21q-8 0 -8 7q2 14 12 28q33 46 81.5 75.5t103.5 29.5z" />
    <glyph glyph-name="three" unicode="3" horiz-adv-x="487" 
d="M328 631q59 0 93.5 -36t34.5 -78q0 -28 -16 -54t-31 -38.5t-44 -33.5q-12 -8 -36.5 -22t-28.5 -16q-11 -5 -1 -8q66 -16 107 -66q28 -32 28 -90q0 -63 -49.5 -119t-144.5 -94q-68 -26 -133 -26q-94 0 -94 73q4 16 12 18q5 3 20 -9q47 -40 117 -40q75 0 115 32
q69 56 69 150q0 59 -32.5 89t-77.5 30q-22 0 -54 -6q-4 0 -15 -3t-14 -3q-11 0 -11 8q0 5 5.5 13.5t14.5 12.5q2 1 38 15t61 26q113 60 113 143q0 38 -23 63t-63 25q-39 0 -71.5 -28t-46.5 -63q-1 -2 -5.5 -4t-6.5 -1q-21 13 -21 34q0 12 24 31q87 75 167 75z" />
    <glyph glyph-name="four" unicode="4" horiz-adv-x="487" 
d="M281 189q-3 0 -238 -10q-13 0 -18 6t1 15l154 152.5l172 170t87 87.5q4 5 20 13t24 8q3 0 5 -5.5t0 -13.5l-103 -363q-1 -3 0.5 -6t3.5 -3q13 0 48.5 1.5t46.5 1.5q2 1 3 -0.5t2 -4.5t1 -8q0 -7 -8.5 -20t-12.5 -13q-2 0 -41.5 -2.5t-50.5 -2.5q-9 0 -11 -8l-58 -209
q-2 -12 -16 -17q-14 -6 -54 -6q-4 0 -11 4t-6 7q1 5 26 85t39 134q3 7 -5 7zM294 234q9 2 10 9l87 267q3 5 -1 9q-2 3 -6 -2l-279 -285q-1 -2 -1 -4t1.5 -3t4.5 -1q33 1 100.5 5z" />
    <glyph glyph-name="five" unicode="5" horiz-adv-x="487" 
d="M261 606q30 6 117 15.5t103 9.5q3 0 6.5 -4.5t3.5 -7.5q-1 -13 -16 -35.5t-28 -31.5q-6 -5 -24 -9q-22 -2 -176 -2q-9 0 -15 -9q-14 -19 -32 -50t-18 -40q0 -10 18 -20l38 -19l49.5 -25.5t37.5 -22.5q105 -69 105 -162q0 -89 -89 -162q-39 -32 -102 -56.5t-123 -24.5
q-31 0 -57.5 16t-27.5 51q0 11 6 18q8 10 21 1q57 -37 120 -37q77 0 125.5 39t48.5 115q0 63 -45 106.5t-122 77.5q-61 27 -61 51q0 12 16 48q41 91 88 145q8 10 18.5 17.5t14.5 7.5z" />
    <glyph glyph-name="six" unicode="6" horiz-adv-x="487" 
d="M345 412q52 0 84.5 -44.5t32.5 -97.5q0 -69 -28.5 -128.5t-76.5 -100.5q-65 -55 -141 -55q-64 0 -107 45t-43 135q0 115 86 240t216 204q113 70 171 70q20 0 20 -12q0 -3 -13 -9q-198 -83 -311 -260q-2 -3 0 -5.5t6 -1.5q64 20 104 20zM287 378q-48 0 -80 -39
q-25 -31 -44.5 -88t-19.5 -117q0 -122 75 -122q50 0 91 55q32 42 51.5 97.5t19.5 105.5q0 49 -25 78.5t-68 29.5z" />
    <glyph glyph-name="seven" unicode="7" horiz-adv-x="487" 
d="M342 619q71 0 138.5 1.5t77.5 1.5q12 0 12 -8q0 -17 -31 -58l-421 -588q-11 -17 -21 -17q-6 0 -11.5 6t-5.5 15q0 10 27 44l376 518q3 4 1 7t-5 3q-18 2 -134 2q-89 0 -134 -3q-7 0 -12.5 -1t-11 -4t-9.5 -4.5t-9 -6.5t-7.5 -7t-7.5 -9l-6.5 -9l-7.5 -10t-7 -10
q-12 -17 -22 -17q-13 0 -6 24q2 7 35 59.5t43 65.5q8 8 16 8q1 0 49 -1.5t94 -1.5z" />
    <glyph glyph-name="eight" unicode="8" horiz-adv-x="487" 
d="M355 644q63 0 100 -39.5t37 -91.5q0 -54 -52 -98q-40 -34 -111 -78q-3 -3 0 -7l50 -57.5t30.5 -48.5t16.5 -61q0 -81 -83 -136q-63 -39 -143 -39q-66 0 -110 37t-44 89q0 28 12 52t25 36.5t37 31.5q8 6 111 75q4 4 2 9q-77 83 -77 151q0 82 78 137q56 38 121 38zM331 614
q-43 0 -74.5 -29.5t-31.5 -85.5q0 -66 79 -143q6 -4 11 -1q109 80 109 153q0 48 -26 77t-67 29zM234 20q52 0 83.5 32t31.5 79q0 62 -89 155q-8 8 -14 4q-63 -43 -95.5 -80.5t-32.5 -78.5q0 -52 34 -81.5t82 -29.5z" />
    <glyph glyph-name="nine" unicode="9" horiz-adv-x="487" 
d="M347 631q72 0 108.5 -52t36.5 -121q0 -68 -29.5 -143.5t-78.5 -141.5q-53 -70 -124.5 -124t-118.5 -79q-44 -25 -69 -25q-15 0 -15 6q-1 4 8 10q74 40 151.5 115t121.5 150q5 9 -5 8q-65 -20 -109 -20q-48 0 -84.5 40t-36.5 115q0 43 21.5 92.5t59.5 87.5q80 82 163 82z
M340 603q-45 0 -95 -61q-28 -33 -44.5 -81.5t-16.5 -94.5q0 -56 27 -86t67 -30q61 0 90 45q16 28 33 88.5t17 108.5q0 111 -78 111z" />
    <glyph glyph-name="colon" unicode=":" horiz-adv-x="265" 
d="M173 386q24 0 37 -14t13 -39q0 -28 -18.5 -45t-41.5 -17q-25 0 -37 14.5t-12 35.5q0 28 19 46.5t40 18.5zM91 101q24 0 37.5 -14t13.5 -39q0 -28 -19 -45t-42 -17q-24 0 -36.5 14t-12.5 36q0 28 19 46.5t40 18.5z" />
    <glyph glyph-name="semicolon" unicode=";" horiz-adv-x="265" 
d="M173 386q24 0 37 -14t13 -39q0 -28 -18.5 -45t-41.5 -17q-25 0 -37 14.5t-12 35.5q0 28 19 46.5t40 18.5zM91 127q31 0 46.5 -24.5t15.5 -54.5q0 -43 -32.5 -81t-65.5 -56t-63 -28q-9 -3 -16.5 -1t-7.5 7q0 7 23 20q94 55 94 119q0 25 -40 36q-14 6 -14 17q0 17 17 31.5
t43 14.5z" />
    <glyph glyph-name="less" unicode="&#x3c;" horiz-adv-x="596" 
d="M504 80q2 -3 2 -9.5t-5.5 -17.5t-13.5 -19q-6 -7 -19 0l-325 182q-42 23 -42 32q0 6 7 16q10 15 31 26l327 184q12 4 17 -1q34 -34 16 -44l-308 -167q-2 -1 -3 -5t2 -6z" />
    <glyph glyph-name="equal" unicode="=" horiz-adv-x="624" 
d="M563 373q9 0 12 -2.5t3 -9.5q0 -17 -4.5 -28.5t-9.5 -11.5h-469q-13 0 -16.5 2.5t-3.5 12.5q0 11 4.5 24t9.5 13h474zM563 188q9 0 12 -2.5t3 -9.5q0 -18 -4.5 -29t-9.5 -11h-469q-13 0 -16.5 2t-3.5 12q0 11 4.5 24.5t9.5 13.5h474z" />
    <glyph glyph-name="greater" unicode="&#x3e;" horiz-adv-x="596" 
d="M527 257q0 -5 -7 -16q-10 -15 -31 -26l-323 -182q-13 -8 -19 -2q-12 11 -18.5 24t1.5 21l307 167q10 5 2 10l-314 172q-2 3 -1.5 10t5.5 19t13 20q7 4 8 3.5l11 -5.5l326 -184q26 -15 33 -20.5t7 -10.5z" />
    <glyph glyph-name="question" unicode="?" horiz-adv-x="362" 
d="M267 619q40 0 83 -35q18 -14 31.5 -43t13.5 -60q0 -29 -17.5 -55.5t-37.5 -36.5q-28 -20 -104 -65q-33 -20 -35 -56q-1 -26 30 -80q1 -2 0 -5t-5 -4.5t-11 0.5q-9 3 -19.5 10t-24.5 21t-23 37t-9 52q1 42 30 71q26 27 123 73q62 29 62 69q0 61 -63 61q-27 0 -42 -29
q-7 -12 -13.5 -16.5t-19.5 -4.5q-14 0 -24 9.5t-10 27.5q0 25 25 42t60 17zM157 102q51 0 51 -53q0 -28 -18.5 -45.5t-42.5 -17.5q-25 0 -37.5 14.5t-12.5 35.5q0 28 19 47t41 19z" />
    <glyph glyph-name="at" unicode="@" horiz-adv-x="874" 
d="M332 93q0 -22 14 -22q32 0 86 50q36 31 72.5 86.5t56.5 97.5q2 8 -3 13q-17 17 -49 17q-42 0 -88 -53q-34 -39 -61.5 -93t-27.5 -96zM254 57q-1 28 22 77t71 108q44 52 101.5 96.5t88.5 44.5q19 0 42 -17q5 0 6 1q10 19 19 45q2 5 10 5q26 2 40 -12q2 -2 2 -7
q-24 -56 -61 -156.5t-46 -145.5q-4 -22 4 -32t31 -10q77 0 141.5 65t64.5 170q0 120 -81 190t-207 70q-84 0 -156 -36.5t-118 -95t-72 -129t-26 -140.5q0 -58 17.5 -111.5t53 -98.5t96.5 -72t140 -27q141 0 245 97q5 5 11.5 6t7.5 -6q0 -16 -18 -34q-47 -52 -119.5 -79
t-145.5 -27q-68 0 -129.5 20.5t-112 61t-80.5 110.5t-30 160q0 118 62.5 219.5t163.5 158.5t212 57q159 0 244 -85t85 -208q0 -108 -86.5 -192t-205.5 -84q-32 0 -48.5 12t-16.5 24q-1 7 7 30l24 69q2 4 -3 4q-3 0 -6 -3q-56 -59 -114 -97.5t-99 -38.5q-13 0 -22 13t-9 30z
" />
    <glyph glyph-name="A" unicode="A" horiz-adv-x="636" 
d="M626 665q14 0 2 -32q-27 -69 -34 -98q-7 -33 -29.5 -126.5l-40 -169.5t-25.5 -123q-11 -53 -2 -71t58 -24q19 -3 19 -13q0 -11 -30 -11q-17 0 -40.5 1.5t-42.5 1.5q-44 0 -85 -3.5t-54 -3.5q-8 0 -15.5 3t-6.5 7q0 10 20 14q24 3 39.5 9t24.5 17t13 19.5t9 25.5
q32 107 44 165q1 3 -2 7.5t-7 4.5q-73 0 -142 -9q-19 -2 -45 -28q-33 -33 -99 -128q-44 -67 28 -81q7 -3 7 -6q0 -5 -6.5 -10t-12.5 -5q-20 0 -52 1t-57 1q-12 0 -52 -2t-44 -2q-28 0 -28 14q0 9 25 11q42 1 68.5 14t59.5 49q66 71 159.5 182.5l167.5 203t77 95.5
q20 22 30 37q4 8 6 8q13 2 20 3.5t18.5 6t21 13t17.5 20.5t18 12zM316 290q67 0 131 8q11 2 18 18q7 20 23.5 91t19.5 90q2 12 3 18.5t1 10t-0.5 4.5t-2.5 1q-6 0 -23 -18q-42 -46 -173 -214q-5 -9 3 -9z" />
    <glyph glyph-name="B" unicode="B" horiz-adv-x="581" 
d="M570 527q0 -119 -172 -165q-3 -1 -4 -5.5t3 -6.5q65 -31 84 -48q48 -44 48 -114q0 -51 -29.5 -92.5t-71.5 -62.5q-67 -37 -187 -37q-30 0 -75.5 2t-64.5 2q-3 0 -44.5 -2.5t-61.5 -2.5q-26 0 -26 11q0 10 30 14q51 5 68.5 21.5t38.5 78.5q14 41 69.5 224.5t63.5 218.5
q13 53 -12 54l-53 3q-24 2 -24 13t26 11q4 0 45.5 0.5t65.5 0.5q2 0 37.5 4t60.5 4q90 0 132 -27q53 -35 53 -99zM439 190q0 31 -13 64.5t-32 48.5q-47 43 -126 43q-10 0 -19 -22q-35 -82 -69 -232q-9 -35 19 -53q10 -6 34.5 -12t32.5 -6q34 0 70 18t61 46q42 49 42 105z
M486 520q0 41 -30.5 73.5t-94.5 32.5q-13 0 -19 -7.5t-17 -41.5q-52 -168 -59 -198q-1 -3 2.5 -6.5t7.5 -3.5q78 0 114 16q37 16 66.5 52.5t29.5 82.5z" />
    <glyph glyph-name="C" unicode="C" horiz-adv-x="658" 
d="M84 239q0 85 36.5 165t101.5 141q122 117 288 117q72 0 138 -27q22 -10 41 0q17 10 22 7q10 -14 4 -24q-46 -72 -59 -136q0 -7 -8 -7q-6 0 -11 10t-4 16q11 62 -19 94q-41 41 -96 41q-52 0 -111 -26.5t-112 -78.5q-55 -56 -86 -141t-31 -162q0 -89 40 -142q28 -37 66 -55
t71 -18q29 0 68 14.5t59 29.5q67 59 92 90q6 6 9 6q9 0 2 -33q-6 -19 -37.5 -69t-40.5 -58q-3 -3 -9.5 -5.5t-8.5 -0.5q-25 21 -51 15l-27 -6q-27 -6 -50 -9.5t-43 -3.5q-58 0 -118 32t-92 96q-24 48 -24 128z" />
    <glyph glyph-name="D" unicode="D" horiz-adv-x="730" 
d="M392 648q136 0 216 -63q100 -76 100 -216q0 -101 -52.5 -182.5t-126.5 -127.5q-106 -64 -279 -64q-28 0 -69.5 2.5t-61.5 2.5q-23 0 -68.5 -2t-52.5 -2q-34 0 -34 13q0 11 28 13q55 4 75.5 18.5t37.5 73.5l131 438q17 58 -18 62q-40 5 -54 5q-29 2 -29 13q0 12 33 12
q9 0 37.5 -0.5t42.5 -0.5q12 0 65.5 2.5t78.5 2.5zM384 621q-10 0 -27 -5q-8 -2 -17 -18q-23 -45 -90 -269q-59 -202 -59 -244q-2 -37 21 -48q37 -17 65 -17q48 0 103.5 20t96.5 49q61 43 99.5 128t38.5 168q0 57 -20 109t-59 83q-54 44 -152 44z" />
    <glyph glyph-name="E" unicode="E" horiz-adv-x="599" 
d="M270 337l113 4q51 2 68.5 12t39.5 40q12 16 22 16q4 0 5 -6t-1 -14.5t-6 -16.5q-29 -52 -47 -130q-5 -20 -15 -20q-13 0 -12 29q2 32 -8.5 42t-30.5 10l-129 -3q-28 0 -34 -19q-5 -14 -48 -174q-10 -40 2 -58q13 -18 33 -19q72 -5 146 -5q43 0 69 18q47 24 85 77
q17 26 26 26q10 0 4 -27q-16 -63 -47 -98q-19 -21 -28 -22q-27 -6 -45 -6q-22 0 -155 3.5t-163 3.5q-32 0 -73.5 -3t-53.5 -3q-29 0 -29 13q0 11 31 14q39 3 60.5 13.5t29 23t16.5 41.5l141 439q16 34 5.5 55.5t-64.5 28.5q-26 2 -26 14q0 10 32 10q9 0 48.5 -1.5t68.5 -1.5
h93q192 0 229 10q2 0 4 -3t3 -7t0 -6q-14 -25 -27.5 -63t-15.5 -52q0 -8 -8 -8q-6 0 -13 8t-8 21q-3 48 -11 57q-4 5 -12 8q-15 7 -125 7q-51 0 -67 -21q-15 -21 -83 -243q-1 -4 3 -9t8 -5z" />
    <glyph glyph-name="F" unicode="F" horiz-adv-x="536" 
d="M294 643h81q211 0 240 12q5 1 7 -1q9 -11 2 -18q-11 -15 -26 -55t-19 -58q-2 -14 -10 -14q-6 0 -12 8.5t-6 25.5q1 41 -19 57t-68 16q-92 0 -106 -3q-7 -1 -11 -3.5t-10 -11.5t-13 -28q-11 -29 -34 -107t-29 -104q-4 -16 9 -19q22 -6 48 -6q54 0 77 4q44 6 69 39
q13 20 24 20q2 0 3.5 -3t1 -9.5t-4.5 -15.5q-24 -54 -42 -133q-4 -25 -16 -25q-11 0 -11 25q-1 26 -7 40.5t-11 17t-14 3.5q-24 2 -54 2q-72 0 -83 -2q-9 -1 -15 -20q-39 -138 -44 -160q-7 -31 -8 -49t8 -28t20 -13t36 -7q7 -1 15.5 -5t8.5 -7q0 -12 -30 -12q-15 0 -51 2
t-57 2t-69.5 -3.5t-67.5 -3.5q-10 0 -17 4t-7 8q0 10 26 13q60 7 78 34q8 11 24 61q89 274 132 428q15 43 5 60.5t-63 21.5q-27 2 -29 13q0 12 31 12q22 0 55 -2.5t63 -2.5z" />
    <glyph glyph-name="G" unicode="G" horiz-adv-x="697" 
d="M531 662q69 0 126 -17q21 -4 48 0q5 1 12 3.5t10 2.5q4 0 6 -7.5t-2 -12.5q-48 -60 -68 -134q-7 -25 -14 -25q-13 0 -12 32q0 8 1.5 23.5t2 23t-0.5 17.5t-4 16q-12 23 -43 38t-75 15q-117 0 -220 -111q-53 -57 -85 -140t-32 -157q0 -97 48 -159t146 -62q28 0 52 18
q11 8 16 17q27 42 58 152q12 30 1 47.5t-56 20.5q-35 4 -35 15q0 13 35 13q7 0 39.5 -1.5t59.5 -1.5q31 0 67 4t42 4q25 0 25 -11q-1 -10 -27 -15q-26 -6 -36.5 -15.5t-21.5 -32.5q-24 -54 -36 -95q-17 -62 -19 -92q-1 -4 -10.5 -11.5t-15.5 -9.5q-8 -2 -43 -12.5t-63.5 -16
t-54.5 -5.5q-59 0 -106 16t-76.5 41t-48.5 59.5t-26.5 69t-7.5 71.5q0 63 29.5 144.5t92.5 146.5q126 134 322 134z" />
    <glyph glyph-name="H" unicode="H" horiz-adv-x="775" 
d="M162 636q0 11 30 11q15 0 51 -2t58 -2q37 0 71 2t36 2q26 0 26 -10q0 -14 -31 -16q-20 -1 -34 -6t-23 -17t-12 -18t-10 -24q-40 -103 -56 -174q-7 -31 1 -34q13 -2 85 -2q153 -2 234 3q15 1 19 5.5t12 23.5q26 69 51 175q9 37 -1.5 51.5t-47.5 19.5q-23 2 -23 12
q0 11 29 11q9 0 47.5 -2t60.5 -2q21 0 58 2t51 2q24 0 24 -11q-1 -10 -30 -14q-34 -4 -51 -20.5t-31 -51.5q-32 -77 -78.5 -233.5t-56.5 -207.5q-11 -47 -2.5 -65t49.5 -23q24 -4 24 -14q0 -11 -26 -11q-18 0 -64 2t-63 2q-23 0 -56 -2t-44 -2q-27 0 -27 11q2 10 28 13
q37 3 53 18t29 46q24 60 70 214q0 2 -3 5.5t-4 3.5q-78 2 -326 -4q-10 0 -24 -34q-10 -24 -27 -80.5t-22 -88.5q-8 -42 2 -57.5t49 -22.5q26 -3 26 -15t-31 -12q-7 0 -48 3.5t-65 3.5q-23 0 -49.5 -1.5t-44.5 -3t-20 -1.5q-28 0 -28 13q0 11 27 14q40 4 58 19.5t35 62.5
q15 38 72 224.5t68 228.5q10 33 1 47.5t-51 19.5q-25 4 -25 13z" />
    <glyph glyph-name="I" unicode="I" horiz-adv-x="342" 
d="M159 634q0 11 28 11q19 0 46 -1t43 -1q31 0 71.5 1.5t50.5 1.5q26 0 26 -9q0 -12 -30 -17q-39 -7 -51 -18t-28 -52q-16 -40 -66 -219t-60 -227q-9 -48 -1.5 -61t42.5 -20q24 -4 24 -15t-29 -11q-19 0 -45.5 1.5t-42.5 1.5q-22 0 -68 -2.5t-61 -2.5q-28 0 -28 11
q0 4 7.5 8.5t18.5 5.5q43 6 60.5 22.5t35.5 66.5q14 38 61.5 203t61.5 223q11 46 4 63t-41 21q-28 5 -29 15z" />
    <glyph glyph-name="J" unicode="J" horiz-adv-x="342" 
d="M-68 -207q-52 0 -71 23q-13 15 -13 40q0 13 4 22.5t8 12.5t7 3q14 0 60 -35q33 -24 58 -24q28 0 55 53t74 212q94 321 120 431q13 46 3.5 65.5t-53.5 23.5q-29 3 -29 16q0 10 27 10q16 0 51.5 -1.5t53.5 -1.5q32 0 68 1.5t48 1.5q27 0 27 -10q0 -9 -27 -15
q-37 -7 -48.5 -20t-27.5 -59q-9 -26 -120 -414q-21 -83 -52 -156q-36 -87 -102 -133t-121 -46z" />
    <glyph glyph-name="K" unicode="K" horiz-adv-x="670" 
d="M167 635q0 10 29 10q19 0 47 -1t53 -1q22 0 56 1.5t49 1.5q27 0 27 -10t-27 -15q-35 -6 -53 -20.5t-28 -46.5q-46 -137 -63 -195q-3 -13 7 -13t30 5.5t27 9.5q50 31 126.5 95t121.5 109q23 26 18.5 37t-33.5 17q-17 6 -17 15q0 10 30 10q7 0 24 -0.5t26 -0.5q36 0 80.5 3
t64.5 3q27 0 27 -10t-30 -16q-35 -4 -67 -18.5t-51.5 -28.5t-56.5 -44l-212 -169q-13 -13 -13 -17q0 -15 19 -56q73 -163 116 -218q48 -53 104 -53q30 0 30 -13t-38 -13q-23 0 -60.5 2.5t-61.5 2.5q-18 0 -25 4q-24 15 -53 76q-32 63 -98 214q-15 32 -34 32q-10 0 -18 -23
q-31 -93 -54 -195q-9 -38 2.5 -56.5t48.5 -26.5q29 -7 29 -18q0 -10 -27 -10q-8 0 -55 2.5t-65 2.5q-14 0 -56 -2.5t-53 -2.5q-30 0 -30 12q0 9 30 15q35 7 53.5 24t31.5 51q17 44 65.5 205t68.5 233q15 47 10.5 63t-44.5 21q-28 5 -28 16z" />
    <glyph glyph-name="L" unicode="L" horiz-adv-x="613" 
d="M281 23q134 0 157 9q58 25 104 111q9 18 14 24t12 6q6 -2 5 -14t-6 -27q-7 -20 -30.5 -67l-26.5 -53q-6 -14 -20 -16q-20 -5 -101 -5q-27 0 -139 4.5t-147 4.5q-21 0 -60.5 -2.5t-49.5 -2.5q-31 0 -31 12q0 10 31 13q43 5 65 19.5t36 51.5q25 66 75.5 218.5t68.5 212.5
q19 62 14 76.5t-42 21.5q-29 6 -29 17q0 10 28 10q10 0 38.5 -2t44.5 -2q8 0 63 2.5t81 2.5q27 0 27 -11q0 -10 -27 -14q-46 -4 -66 -19t-35 -53q-21 -51 -81.5 -234t-72.5 -234q-5 -31 19 -46q24 -14 81 -14z" />
    <glyph glyph-name="M" unicode="M" horiz-adv-x="883" 
d="M159 636q0 12 31 12q5 0 45.5 -2.5t61.5 -2.5q8 0 25 1t18 1q12 0 15 -26q11 -102 45 -303q25 -137 28 -142q5 -11 12 1l137 182.5t121 152.5q51 54 90 123q8 10 15 10q25 0 72.5 2.5t62.5 2.5q27 0 27 -10q0 -11 -40 -16q-38 -3 -53.5 -20t-28.5 -52
q-31 -87 -67.5 -224.5t-51.5 -214.5q-9 -46 1 -66t50 -24q30 -4 30 -15q0 -12 -29 -12q-8 0 -63 3t-79 3q-19 0 -45 -3t-41 -3q-27 0 -27 11t28 16q35 6 51 23t26 50q28 82 129 424q3 10 -2 10.5t-8 -4.5q-47 -50 -134.5 -166t-125.5 -175q-75 -116 -89 -142
q-18 -32 -31 -32q-12 0 -12 34q-5 74 -19 175q-38 268 -40 273q-6 15 -13 4t-63 -155.5t-65 -180.5q-22 -66 -15 -98t57 -38q25 -1 25 -14q0 -12 -30 -12q-8 0 -40 1.5t-56 1.5t-62 -3t-52 -3q-12 0 -19.5 4t-7.5 8q0 10 29 14q51 6 71.5 26t46.5 87l160 394q15 45 9 63
t-33 24q-10 3 -50 9q-27 4 -27 13z" />
    <glyph glyph-name="N" unicode="N" horiz-adv-x="755" 
d="M139 635q0 11 34 11q14 0 49.5 -1.5t63.5 -1.5q31 0 47 2q4 1 11 -8t11 -22q16 -50 93.5 -247t98.5 -239q5 -12 10 -3q31 90 73 236t49 183q8 41 -4 56t-59 21q-30 4 -30 14q0 11 28 11q15 0 49 -2t47 -2q57 0 107 4q9 1 16 -0.5t10 -4t3 -5.5q0 -9 -30 -16
q-36 -8 -57 -26t-42 -76q-51 -142 -130 -417q-6 -20 -6 -31q0 -27 33 -48q2 -1 4.5 -2.5t4 -2.5l3 -2t2.5 -2t1.5 -2.5t0.5 -3.5q0 -11 -22 -11q-7 0 -26 1t-22 1q-36 0 -48 -2q-5 0 -10 4.5t-6 9.5q-5 32 -29 89l-145 377q-28 71 -31 74t-7.5 0t-6.5 -8
q-21 -58 -63.5 -208.5t-50.5 -201.5q-9 -58 1.5 -80.5t52.5 -30.5q31 -6 31 -16q0 -12 -32 -12q-11 0 -46.5 3t-56.5 3t-60 -3t-52 -3q-32 0 -32 13q0 11 28 14q45 7 70.5 23.5t38.5 58.5q129 405 135 427q11 41 9 52q-7 25 -27 30q-7 2 -17.5 3.5l-22 3t-15.5 2.5
q-29 5 -29 14z" />
    <glyph glyph-name="O" unicode="O" horiz-adv-x="684" 
d="M464 663q91 0 150 -67.5t59 -178.5q0 -105 -59 -220.5t-153 -170.5q-78 -46 -162 -46q-99 0 -155 56q-68 68 -68 183q0 93 49 200.5t133 171.5q93 72 206 72zM464 635q-73 0 -144 -67q-74 -70 -116.5 -178.5t-42.5 -225.5q0 -29 6.5 -54.5t21 -49.5t42 -38t64.5 -14
q66 0 140 67q54 48 104.5 165.5t50.5 225.5q0 28 -5.5 54.5t-18.5 54t-39.5 44t-62.5 16.5z" />
    <glyph glyph-name="P" unicode="P" horiz-adv-x="570" 
d="M370 650q104 0 156 -35q65 -42 65 -123q0 -76 -46 -126t-99 -71q-55 -23 -109 -23q-36 0 -36 15q0 7 12 10h3q41 7 74 20q52 19 81.5 69.5t30.5 99.5q1 44 -17 79t-52 47q-30 12 -80 12q-11 0 -17 -15q-43 -99 -145 -496q-6 -22 -6.5 -37t2 -24t13 -15t18.5 -8.5t27 -7.5
q26 -6 26 -16t-31 -10q-8 0 -44 2.5t-55 2.5q-20 0 -67.5 -3t-69.5 -3q-26 0 -26 10q0 11 28 16q47 6 63 22.5t31 61.5l33 107l58 192.5l43 144.5q9 40 0.5 53t-41.5 16q-45 5 -45 17q0 9 25 9h66q93 7 131 7z" />
    <glyph glyph-name="Q" unicode="Q" horiz-adv-x="677" 
d="M470 662q44 0 79.5 -14.5t57.5 -37t37 -51.5t21 -55.5t6 -51.5q0 -136 -64 -238.5t-166 -165.5q-91 -56 -269 -119q-9 -3 -10 -6l4 -2q47 0 86.5 -6.5t77 -22.5t54.5 -25t55 -32q66 -41 103 -56.5t75 -15.5q81 0 136 46q19 14 23 3q0 -7 -14 -25q-66 -85 -179 -85
q-45 0 -93.5 17t-76.5 33t-75 47q-41 26 -63 38.5t-64 26.5t-82 14q-73 0 -127 -28q-4 -3 -13 -2.5t-9 7.5q-2 12 30 29q44 23 88.5 42.5t96 40t54.5 21.5q13 6 -1 10q-22 6 -48 21.5t-55 41.5t-48 68.5t-19 93.5q0 127 65.5 232.5t144.5 154.5q84 52 182 52zM465 636
q-73 0 -138 -58q-70 -63 -117.5 -177.5t-47.5 -215.5q0 -80 36.5 -123.5t86.5 -43.5q32 0 69 22q99 61 165 185t66 245q0 22 -4.5 46t-16 53t-37.5 48t-62 19z" />
    <glyph glyph-name="R" unicode="R" horiz-adv-x="618" 
d="M583 518q0 -88 -87 -148q-11 -8 -85 -36q-1 0 -2.5 -2.5t-2 -5.5t0.5 -7q24 -124 63 -212q20 -46 41.5 -65.5t63.5 -24.5q24 -3 24 -13t-27 -12q-33 -4 -96 3q-36 3 -52.5 19.5t-35.5 73.5q-13 36 -30.5 102t-21.5 79q-5 16 -16 31t-24 15q-11 0 -24.5 -0.5t-16.5 -0.5
q-11 0 -24 -35q-29 -86 -45 -166q-11 -52 -1 -68t56 -24q24 -4 24 -13q0 -12 -30 -12q-24 0 -65 2t-55 2q-15 0 -52 -2t-53 -2q-28 0 -28 11t29 15q27 4 44 13t21.5 16t10.5 20q23 53 150 479q14 39 3 54t-63 15q-9 0 -15.5 2.5t-9 5.5t-2.5 5q0 11 25 11l106 3q7 0 46 2.5
t58 2.5q106 0 150 -35q48 -37 48 -98zM499 512q0 44 -33.5 78t-105.5 34q-6 0 -14 -7.5t-10 -14.5q-17 -38 -46 -134t-34 -119q-4 -12 4 -12q62 0 104 11q55 17 95 62t40 102z" />
    <glyph glyph-name="S" unicode="S" horiz-adv-x="473" 
d="M341 661q43 0 100 -19q27 -9 31 -9q10 -1 27 2q1 0 3 -2.5t3 -6.5t1 -6q-32 -62 -42 -125q-2 -20 -12 -20q-6 0 -10 9.5t-3 23.5q2 53 -16 83q-26 45 -85 45q-57 0 -84 -37t-27 -77q0 -54 37 -104q6 -8 44 -54.5t59 -74.5q31 -41 40.5 -68.5t9.5 -61.5q0 -46 -24 -85.5
t-63 -61.5q-53 -30 -132 -30q-33 0 -120 27q-16 5 -50 -7q-2 -1 -8.5 2t-7.5 4q-5 5 -2 8q11 22 55 149q9 25 19 25q12 0 7 -36q-6 -69 13 -93q40 -54 109 -54q47 0 85 31q17 12 27 35.5t10 46.5q0 41 -19.5 79.5t-68.5 97.5q-53 66 -74.5 105t-21.5 85q0 72 54 123
q55 51 136 51z" />
    <glyph glyph-name="T" unicode="T" horiz-adv-x="650" 
d="M316 643h296q85 0 108 11q2 1 4.5 2t4 1.5t3.5 0.5t4.5 -3t3.5 -8t-2 -10q-43 -70 -55 -127q0 -14 -9 -14q-5 0 -9.5 7t-4.5 17q0 8 1 23.5t1 21t-1 15.5t-3.5 13.5t-7 8.5t-12 7t-18.5 3q-62 7 -127 1q-8 0 -16 -16q-19 -48 -74 -234.5t-69 -246.5q-12 -51 -2 -67.5
t58 -25.5q25 -4 25 -16q0 -11 -27 -11q-8 0 -50 2t-58 2q-34 0 -82 -3t-72 -3q-28 0 -28 12t25 14q58 9 78.5 25t41.5 74q53 147 148 480q1 4 -1.5 8.5t-5.5 4.5q-77 5 -134 -3q-28 -4 -56 -26.5t-50 -58.5q-13 -22 -27 -22q-11 0 -6 18q1 2 22 48t31 82q1 3 7.5 9t10.5 6
t7 -6q7 -12 49 -15q26 -1 78 -1z" />
    <glyph glyph-name="U" unicode="U" horiz-adv-x="718" 
d="M144 636q0 10 30 10q17 0 54.5 -1.5t51.5 -1.5q10 0 47 2t53 2q25 0 25 -11q0 -8 -28 -14q-27 -5 -42 -17.5t-26 -41.5q-23 -60 -86 -290q-35 -129 -8 -177q16 -28 56 -47t80 -19q138 0 190 121q29 68 68 187.5t51 177.5q12 65 3.5 80t-54.5 23q-28 5 -28 14q0 11 27 11
q14 0 39 -0.5t40 -0.5q18 0 56.5 2t56.5 2q26 0 26 -11q2 -10 -28 -15q-34 -5 -50.5 -24t-39.5 -76q-4 -10 -119 -336q-2 -4 -8 -20t-8 -20.5l-7.5 -17.5t-9 -19l-9 -16t-12 -17.5l-13.5 -15.5q-75 -77 -208 -77q-50 0 -98.5 21t-72.5 65q-33 57 -21 121q6 31 91 326
q19 52 12 75.5t-53 29.5q-28 4 -28 16z" />
    <glyph glyph-name="V" unicode="V" horiz-adv-x="629" 
d="M125 636q0 9 29 9q6 0 41 -1t56 -1q24 0 62.5 1.5t41.5 1.5q26 0 26 -10q0 -11 -27 -15q-33 -7 -45.5 -21.5t-22.5 -58.5q-13 -52 -37 -191.5t-32 -196.5q-1 -6 1 -7.5t4.5 0t4.5 2.5l1 1l187 208t145 173q22 30 28.5 48t-1 28t-28.5 14q-25 5 -25 15t25 10q2 0 25.5 -1
t47.5 -1q20 0 62 2t55 2q17 0 17 -11q0 -9 -26 -15q-43 -8 -69.5 -26t-67.5 -67l-386 -437q-67 -81 -77 -94q-15 -18 -21 -18q-7 0 -12 9.5t-1 20.5q20 87 31 140q24 112 65 384q8 49 -1 65t-57 23q-19 3 -19 15z" />
    <glyph glyph-name="W" unicode="W" horiz-adv-x="952" 
d="M119 635q0 11 31 11q16 0 43 -1.5t43 -1.5q17 0 53.5 2t54.5 2q10 0 17.5 -3t6.5 -7q0 -11 -22 -15q-29 -5 -40.5 -14.5t-20.5 -40.5q-10 -31 -40 -208t-30 -196q0 -5 1.5 -6t4 0t4.5 4q77 85 179 211.5t120 166.5q9 15 9 27q2 26 -6.5 37.5t-40.5 16.5q-24 4 -24 15
q1 10 28 10q9 0 40.5 -1t48.5 -1t60 2t52 2q26 0 26 -10q0 -11 -26 -17q-39 -8 -53 -17.5t-21 -36.5q-10 -38 -28 -219.5t-14 -198.5q2 -6 3 -6.5t8 5.5q52 53 168 199.5t138 188.5q15 29 20.5 44.5t-1 24t-13.5 10.5t-28 5q-24 5 -24 15q1 11 30 11q4 0 35 -1t53 -1t55.5 2
t41.5 2q26 0 26 -10q0 -12 -31 -17q-27 -4 -52 -21.5t-36.5 -31t-36.5 -45.5q-123 -159 -303 -373q-52 -61 -113 -144q-19 -22 -29 -22q-5 0 -8 7t-2 13q16 116 20 153q28 270 30 312q0 3 -3 3q-7 0 -12 -6q-31 -41 -135.5 -170l-142.5 -174q-27 -33 -56 -72.5t-35 -46.5
q-19 -22 -33 -22q-13 0 -6 25q17 61 35 162q27 136 57 364q7 49 -2.5 65.5t-46.5 23.5q-27 5 -27 15z" />
    <glyph glyph-name="X" unicode="X" horiz-adv-x="633" 
d="M130 636q0 10 34 10q8 0 41.5 -1.5t55.5 -1.5q34 0 66.5 2t35.5 2q26 0 26 -11q0 -12 -29 -15q-28 -4 -36 -13.5t-5 -33.5q3 -29 24 -95.5t31 -91.5q2 -4 7 0q26 25 88.5 98t74.5 96q20 32 -39 43q-15 4 -15 12q0 10 28 10q8 0 42.5 -1.5t43.5 -1.5q21 0 54.5 2.5
t41.5 2.5q28 0 28 -10t-25 -15q-44 -7 -70.5 -21.5t-67.5 -58.5q-148 -154 -172 -183q-8 -12 -6 -21q5 -24 33.5 -117t43.5 -130q14 -34 33.5 -49t59.5 -22q29 -4 29 -14q0 -12 -30 -12q-5 0 -59 2.5t-79 2.5q-23 0 -49.5 -2.5t-33.5 -2.5q-28 0 -28 13q0 7 20 13
q22 7 35 16t16 15.5t2 11.5q-2 26 -25.5 112.5t-32.5 105.5q-2 8 -6 4q-25 -24 -72.5 -83t-73.5 -97q-15 -22 -21 -37.5t-0.5 -28t27.5 -16.5q24 -4 24 -12q0 -3 -9 -9t-16 -6q-19 0 -38 1.5t-37 1.5q-31 0 -71.5 -3.5t-48.5 -3.5q-39 0 -39 12q0 13 29 15q47 5 78 23t81 71
l86 100.5l85 99.5q8 8 6 21q-6 34 -57 188l-17 47t-14.5 26t-22.5 19t-34 6q-31 4 -31 15z" />
    <glyph glyph-name="Y" unicode="Y" horiz-adv-x="594" 
d="M117 636q1 10 29 10q10 0 49 -1.5t58 -1.5q28 0 55.5 1t33.5 1q22 0 24 -9q0 -10 -24 -15q-34 -7 -41.5 -20.5t-2.5 -35.5q2 -7 14.5 -62.5t23 -96t17.5 -57.5q2 -4 8 -2q153 176 181 219q30 46 -20 56q-24 3 -24 15q0 9 29 9q4 0 29 -1.5t49 -1.5q13 0 51.5 2t44.5 2
q25 0 25 -9q0 -10 -30 -17q-40 -8 -60 -22t-76 -70q-58 -55 -184 -205q-21 -25 -32 -63q-45 -165 -47 -176q1 -7 -0.5 -19.5t12.5 -26.5t41 -18q31 -4 31 -15t-35 -11q-12 0 -61.5 2.5t-57.5 2.5q-18 0 -55.5 -2.5t-56.5 -2.5q-28 0 -28 13q0 9 30 13q51 5 68 23t35 72
l43 130q17 52 12 85q-9 70 -50 196q-18 57 -32.5 73.5t-50.5 21.5q-25 4 -25 14z" />
    <glyph glyph-name="Z" unicode="Z" horiz-adv-x="643" 
d="M363 643q59 0 181.5 2.5t125.5 2.5q18 0 18 -8q0 -10 -18 -24q-45 -35 -117 -111l-211.5 -231l-202.5 -227q-15 -15 -4 -18q19 -3 227 -3q73 0 114 19q28 12 59 42.5t49 60.5q17 26 22 26q4 0 7.5 -9.5t0.5 -19.5q-6 -18 -46 -95q-20 -36 -36 -48q-8 -7 -106 -7
q-57 0 -187.5 2.5t-141.5 2.5t-49 -2t-50 -2q-5 0 -7 3.5t-0.5 9.5t7.5 12q100 95 305.5 319t238.5 267q1 3 -1 5.5t-5 2.5q-109 0 -201 -4q-49 -2 -73 -9t-41 -24q-39 -38 -61 -81q-10 -21 -19 -21q-12 0 -6 30q1 9 10.5 31l22 50t17.5 42q2 4 9.5 11.5t12.5 7.5
q3 0 21.5 -2.5t26.5 -2.5q23 -1 42 -1t38 0.5t28 0.5z" />
    <glyph glyph-name="bracketleft" unicode="[" horiz-adv-x="347" 
d="M293 711q34 0 79 0.5t48 0.5q22 0 22 -10q0 -13 -30 -18l-86 -7q-19 -1 -28 -26q-13 -37 -99 -331l-111 -408q-13 -49 7 -54q13 -4 83 -6q23 0 23 -13q0 -11 -30 -14q-24 -3 -85 -3q-49 0 -62 3q-5 1 -7 11.5t0 18.5l172 596q60 212 69 239q3 14 12 19q3 2 23 2z" />
    <glyph glyph-name="backslash" unicode="\" horiz-adv-x="386" 
d="M281 -48q0 -1 -3 -5t-10 -7.5t-15 -3.5h-5q-10 0 -10 11q-43 381 -71 697q0 1 4.5 5t6.5 4l21 2q7 0 12 -7q12 -135 70 -696z" />
    <glyph glyph-name="bracketright" unicode="]" horiz-adv-x="347" 
d="M101 -177q-34 0 -78.5 -0.5t-46.5 -0.5q-23 0 -23 10q0 13 31 17q16 3 85 6q18 1 27 27q28 78 100 333l112 407q13 48 -8 52q-9 3 -83 7q-24 4 -23 14q0 11 30 14q24 3 86 3q49 0 61 -3q5 -1 7 -11.5t0 -19.5l-172 -597l-68 -237q-4 -14 -12 -19q-3 -2 -25 -2z" />
    <glyph glyph-name="asciicircum" unicode="^" horiz-adv-x="469" 
d="M269 642q6 0 12 -4.5t8.5 -8.5t7.5 -13.5l6 -11.5l148 -291q7 -14 2 -19q-11 -12 -23.5 -18.5t-20.5 1.5l-135 277q-6 12 -11 2l-138 -281q-3 -2 -8.5 -2.5t-15 4t-17.5 12.5q-7 7 0 20l148 292q20 41 37 41z" />
    <glyph glyph-name="underscore" unicode="_" 
d="M-60 -124h495v-49h-495v49z" />
    <glyph glyph-name="grave" unicode="`" horiz-adv-x="400" 
d="M302 655q12 0 15 -48q7 -97 6 -140q0 -26 -12 -26q-5 0 -10.5 7.5t-7.5 14.5q-33 122 -35 130q-3 15 -1 28q2 9 18 21.5t27 12.5z" />
    <glyph glyph-name="a" unicode="a" horiz-adv-x="449" 
d="M303 389q19 0 40 -23q1 -1 4 0t4 4l16 28q1 2 6.5 5.5t7.5 3.5q16 0 38 -14q3 -5 -2 -14q-18 -41 -59 -147.5t-53 -150.5q-7 -27 19 -27q14 0 36 14.5t39 33.5q17 18 20 5q0 -12 -9 -25q-28 -45 -68 -71.5t-74 -26.5q-38 0 -40 37q0 4 35 98q3 7 -2 11q-2 3 -5 0
q-50 -53 -112 -99.5t-106 -46.5q-14 0 -29.5 12t-15.5 26q0 42 43 109q90 148 220 238q28 20 47 20zM287 336q-25 0 -56.5 -20t-59.5 -56q-31 -38 -61.5 -97.5t-30.5 -92.5q0 -9 6.5 -19t13.5 -10q37 0 101 69q65 66 118 178q10 26 5 31q-19 17 -36 17z" />
    <glyph glyph-name="b" unicode="b" horiz-adv-x="458" 
d="M355 404q34 0 56.5 -24.5t22.5 -59.5q0 -71 -59.5 -161t-141.5 -138q-64 -37 -110 -37q-35 0 -59.5 23.5t-24.5 69.5q0 33 48 181q13 43 63.5 190.5t56.5 166.5q7 29 2.5 37t-24.5 20q-13 9 -13 15q0 7 25 13q9 2 58 9.5t56 7.5q2 0 3 -3t1.5 -7t-1.5 -8
q-17 -34 -80.5 -204.5t-87.5 -243.5q-1 -2 1 -3q4 0 6 3q118 153 202 153zM335 371q-41 0 -86 -46.5t-84 -109.5q-60 -99 -60 -155q0 -11 12.5 -29.5t26.5 -18.5q22 0 66 38q53 50 106 140.5t53 149.5q0 13 -10 22t-24 9z" />
    <glyph glyph-name="c" unicode="c" horiz-adv-x="313" 
d="M274 404q25 0 43 -9q11 -4 11 -20q0 -22 -14 -39t-23 -17t-15 11q-21 44 -44 44q-36 0 -77 -79q-60 -109 -60 -202q0 -24 8.5 -36.5t16.5 -14.5t20 -2q49 0 100 48q4 3 8.5 3t4.5 -3q0 -14 -10 -26q-63 -74 -144 -74q-35 0 -56 30.5t-21 64.5q0 73 44 158q57 107 134 146
q33 17 74 17z" />
    <glyph glyph-name="d" unicode="d" horiz-adv-x="482" 
d="M12 54q0 75 64 177.5t145 147.5q43 25 74 25q29 0 59 -27q2 -1 6 0t5 3q3 11 15 47.5t26.5 85.5t29.5 105q5 24 1.5 32t-19.5 16q-28 12 -28 18q0 2 6 7t10 6q16 5 58 12.5t58 7.5q10 0 0 -41q-8 -28 -22 -73l-37.5 -117l-41.5 -130l-28.5 -95l-31.5 -104l-21 -71
q-9 -29 11 -29q14 0 40.5 21t48.5 51q3 4 6 5t4.5 -1t1.5 -7q0 -7 -4 -19q-14 -42 -63 -83.5t-85 -41.5q-9 0 -20 14t-11 24q0 22 36 134q0 2 -1.5 4.5t-3.5 3.5t-3 0q-55 -82 -115 -130t-112 -48q-29 0 -44 16q-14 17 -14 54zM82 54q0 -11 6 -18t13 -7q25 0 72.5 34.5
t88.5 88.5q44 62 69 133q16 42 6 69q-9 17 -26 17q-43 0 -108 -72q-52 -58 -86.5 -128t-34.5 -117z" />
    <glyph glyph-name="e" unicode="e" horiz-adv-x="345" 
d="M276 404q39 0 56 -19t17 -42q0 -24 -21 -51t-56 -47q-46 -25 -146 -54q-13 -4 -16 -15q-13 -35 -13 -78q0 -60 53 -60q47 0 98 47q15 15 25 15q6 0 6 -6q0 -9 -12 -25q-25 -29 -70.5 -56t-94.5 -27q-22 0 -49.5 30t-27.5 74q0 54 30 120.5t80 118.5q74 75 141 75z
M272 380q-36 0 -83 -55t-61 -100q-1 -1 -1 -3.5t1 -4t3 -1.5q158 55 158 139q0 25 -17 25z" />
    <glyph glyph-name="f" unicode="f" horiz-adv-x="254" 
d="M217 394l91 3q8 0 8 -13q0 -6 -7.5 -14t-16.5 -8q-10 0 -41.5 -1.5t-46.5 -1.5q-5 0 -8 -8q-28 -90 -127 -444q-6 -20 -13 -37t-15 -30t-14.5 -22t-16 -18l-14 -13t-14.5 -11.5t-12 -8.5q-26 -18 -61 -31t-51 -13q-33 0 -52 13t-18 32q0 10 16.5 28t26.5 18q9 2 16 -7
q30 -39 65 -39q25 0 47 26.5t42 105.5q80 297 127 451q1 2 -0.5 5t-5.5 3l-61 -2q-10 0 -10 10q0 9 6.5 16.5t12.5 7.5q10 0 35 0.5t31 0.5q4 0 7 7q75 220 167 281q53 37 98 37q36 0 55.5 -19t18.5 -44q-1 -29 -17.5 -48.5t-31.5 -19.5q-8 0 -8 10q0 2 0.5 10t0.5 11
q1 29 -10.5 50t-31.5 21q-24 0 -45.5 -18t-49.5 -67q-38 -68 -76 -199q0 -2 0.5 -4.5t1.5 -4t2 -1.5z" />
    <glyph glyph-name="g" unicode="g" horiz-adv-x="387" 
d="M269 405q22 0 53 -14q9 -5 28 -3l30.5 8t39.5 7q22 0 22 -28q0 -29 -22 -29q-14 0 -35 5t-34 5q-14 0 -10 -12q5 -18 5 -31q-1 -65 -51 -131.5t-98 -84.5q-7 -3 -67 -16q-4 0 -7 -5q-5 -12 -5 -25q0 -23 27 -45q15 -11 61.5 -39l56.5 -34q58 -40 58 -87
q0 -14 -14.5 -35.5t-35.5 -34.5q-91 -54 -188 -54q-66 0 -122 32q-25 14 -39.5 35.5t-14.5 39.5q0 16 11.5 31.5t21.5 23t30 20.5t60 32.5l48 23.5q2 1 3.5 2.5t1.5 2.5t-1 2q-25 32 -25 40q0 15 10 30q5 8 11 14.5l12.5 13l8.5 8.5q4 9 1 10q-60 26 -60 74q0 41 14.5 79
t37.5 65t38.5 42t29.5 25q56 37 109 37zM257 380q-22 0 -49 -25q-42 -38 -75.5 -102.5t-33.5 -104.5q0 -20 11 -32t26 -12q12 0 45 28q29 26 69 92.5t40 110.5q0 20 -10.5 32.5t-22.5 12.5zM131 -242q43 0 82 18t39 51q0 24 -24 43q-18 15 -55 39t-56 33q-4 2 -14 2.5
t-13 -1.5q-30 -10 -72 -42.5t-42 -68.5q0 -22 24 -38q51 -36 131 -36z" />
    <glyph glyph-name="h" unicode="h" horiz-adv-x="490" 
d="M454 338q0 -69 -36 -154.5t-70 -124.5q-24 -26 -65 -54q-37 -24 -50 -24q-23 0 -37 12q-9 10 -9 19q0 5 10 19t15 17q4 3 6 2q5 -2 15.5 -7.5t20 -8.5t18.5 -3q11 0 20 15q23 32 55 133.5t32 144.5q0 40 -29 40q-25 0 -58.5 -33t-95.5 -113q-21 -29 -65 -103t-62 -110
q-5 -8 -14.5 -14.5t-13.5 -6.5q-12 0 -20 11t-6 20l186 598q8 18 3 29t-30 17q-21 5 -21 16q0 7 18 12q112 30 122 30q3 0 5.5 -7.5t1.5 -13.5l-59.5 -183l-67 -201t-30.5 -92q-1 -5 0 -7t3.5 -2t4.5 3q83 107 141 150q55 40 98 40q32 0 48 -22.5t16 -43.5z" />
    <glyph glyph-name="i" unicode="i" horiz-adv-x="268" 
d="M206 404q6 0 14.5 -8.5t8.5 -15.5q0 -9 -10 -34l-114 -272q-2 -5 1 -11t10 -6q11 0 42 23t51 44q17 19 23 19q5 0 5 -6q0 -15 -18 -36q-36 -42 -89 -79.5t-82 -37.5q-11 0 -20.5 8.5t-9.5 16.5q0 7 5 18l124 295q3 6 -0.5 11t-7.5 3q-38 -12 -74 -44q-4 -4 -8.5 -3
t-4.5 6q0 10 13 25q17 21 67 52.5t74 31.5zM231 605q16 0 26 -12t10 -28q0 -20 -14.5 -37t-31.5 -17q-7 0 -15 3q-22 13 -22 37t20 42q15 12 27 12z" />
    <glyph glyph-name="j" unicode="j" horiz-adv-x="241" 
d="M220 608q37 0 37 -47q0 -20 -16 -35t-30 -15t-25.5 12.5t-11.5 28.5q0 28 23 47q12 9 23 9zM203 410q9 0 14 -17.5t1 -33.5q-110 -370 -148 -457q-52 -118 -131 -158q-39 -21 -69 -21q-28 0 -46.5 14.5t-18.5 26.5q0 19 22 36q16 9 26 1q37 -34 67 -34q21 0 34 18t33 62
q21 51 81 245t69 230q3 14 -11 14q-17 0 -62 -33q-7 -5 -12.5 -6t-8.5 0.5t-3 4.5q0 8 12 22q22 24 72 55t79 31z" />
    <glyph glyph-name="k" unicode="k" horiz-adv-x="443" 
d="M370 403q23 0 38 -12.5t15 -28.5q0 -19 -21.5 -51t-56.5 -56q-53 -35 -107 -56q-6 -2 -6 -10q14 -64 33 -108q17 -36 36 -36q13 0 36 17t40 40q9 12 15 12q13 0 1 -26q-3 -6 -7 -12q-27 -39 -59.5 -66t-56.5 -27q-31 0 -57 61q-15 37 -35 97q-6 17 -17 27.5t-19 10.5
q-16 0 -25 -20l-68 -160q-6 -13 -15 -13q-11 0 -23 7.5t-12 14.5q0 8 9 33q25 61 196 582q4 11 0.5 17t-20.5 12q-17 7 -17 12q1 9 15 16q10 6 55.5 16.5t58.5 10.5q2 0 3 -3t1 -8t-1 -10q-2 -8 -29 -80l-65 -175.5l-60 -166.5q-3 -7 3 -7q8 0 12 7q54 80 127 117
q43 22 83 22zM318 361q-21 0 -50 -17q-59 -36 -103 -120q-3 -7 0.5 -12.5t9.5 -4.5q58 4 117 50t59 83q0 21 -33 21z" />
    <glyph glyph-name="l" unicode="l" horiz-adv-x="258" 
d="M169 679q0 4 5 9t13 6q2 0 24 3.5l43.5 7t30.5 6.5q18 6 29 6q10 0 1 -31l-126 -346.5t-94 -269.5q-5 -14 -3.5 -28t9.5 -14q9 0 35 22.5t53 49.5t34 31q10 7 12 -1q0 -11 -6 -23q-27 -54 -78.5 -88.5t-95.5 -34.5q-14 0 -28 13t-14 25q0 7 33 103l174 493q9 30 4 37.5
t-31 13.5q-24 5 -24 10z" />
    <glyph glyph-name="m" unicode="m" horiz-adv-x="740" 
d="M180 404q23 0 39 -9q12 -9 6 -24q-22 -67 -52 -123q-5 -9 2.5 -10t15.5 9q93 106 128 129q46 28 80 28q21 0 38 -14.5t17 -33.5q0 -21 -36 -106q-2 -5 1 -7t7 2q88 104 129 131q42 28 78 28q26 0 41 -18t15 -40q0 -32 -14 -58q-13 -23 -49 -97t-50 -107q-4 -4 -4 -7.5
t2 -5.5t4 -1q14 2 48 24t62 46q17 12 20 3q0 -14 -13 -31q-29 -38 -95.5 -83t-99.5 -45q-13 0 -23 14q-6 6 -2 16l34 70l64.5 134t37.5 82q13 27 10.5 48t-20.5 21q-23 0 -65.5 -42t-84.5 -100q-23 -32 -48 -71.5l-49.5 -80.5l-34.5 -57q-21 -34 -45 -34q-7 0 -12 5.5
t-5 14.5q0 10 7 29q12 31 45 105.5l59 134t27 66.5q4 14 -3.5 23.5t-18.5 9.5q-28 0 -82 -55.5t-116 -151.5l-95 -150q-22 -31 -31 -31q-8 0 -17 6.5t-11 17.5q-2 17 12 44q7 14 128 276q10 23 -11 23q-34 0 -81 -50q-14 -14 -19 -14q-2 0 -3.5 2.5t-2 7.5t1.5 13
q10 40 45 67t89 27z" />
    <glyph glyph-name="n" unicode="n" horiz-adv-x="507" 
d="M395 404q27 0 42 -17.5t15 -39.5q0 -23 -14 -59q-15 -39 -48 -111.5t-42 -88.5q-14 -27 3 -27q26 0 90 60q4 3 8.5 5t8 1t3.5 -4q0 -10 -12 -29q-25 -38 -80.5 -74t-83.5 -36q-18 0 -32 17q-11 11 1 33q13 24 72.5 148t65.5 145q7 23 2.5 33.5t-16.5 10.5q-42 0 -113 -86
q-19 -21 -52.5 -70l-68.5 -103t-45 -68q-39 -61 -51 -61q-9 0 -18.5 10t-9.5 18q-1 10 31 83l31.5 68l41.5 90.5t32 76.5q8 16 -9 16q-14 0 -30 -8.5t-21.5 -13.5l-25.5 -23q-10 -10 -13 -10q-6 0 -6 10q0 28 37 66t93 38q24 0 37 -20q5 -9 -2 -26l-61 -145q-3 -6 3 -6.5
t9 5.5q17 25 58.5 73.5t65.5 68.5q58 50 104 50z" />
    <glyph glyph-name="o" unicode="o" horiz-adv-x="401" 
d="M273 404q42 0 68 -35.5t26 -76.5q0 -93 -52.5 -172.5t-121.5 -114.5q-44 -21 -83 -21q-32 0 -59.5 29.5t-27.5 77.5q0 53 34 131.5t92 128.5q60 53 124 53zM265 378q-34 0 -72 -45q-38 -44 -69 -125t-31 -152q0 -19 10 -31.5t28 -12.5q30 0 66 45q36 44 70.5 127
t34.5 146q0 48 -37 48z" />
    <glyph glyph-name="p" unicode="p" horiz-adv-x="432" 
d="M401 291q0 -82 -60.5 -166t-136.5 -122q-32 -17 -53 -17q-24 0 -52 13q-22 -67 -51 -185q-6 -22 5.5 -31.5t42.5 -16.5q25 -4 25 -14q0 -12 -28 -12q-16 0 -36.5 0.5t-27.5 0.5q-18 0 -59.5 -4t-54.5 -4q-29 -1 -29 12q0 10 26 15q29 6 41.5 17t19.5 33l170 540q0 5 -4 4
q-53 -15 -86 -34q-8 -4 -14 -5t-8.5 0.5t-2.5 4.5q0 12 15 22q34 23 109 51q4 1 8 9q20 55 26 61q10 13 43 13q11 0 11 -16q0 -5 -14 -50q-2 -6 4 -6q73 0 122 -28.5t49 -84.5zM327 299q0 34 -31 51.5t-71 17.5q-9 0 -13 -9q-85 -264 -96 -303q-2 -7 1 -12q6 -12 16 -22
t15 -10q26 0 53 25q52 46 89 118t37 144z" />
    <glyph glyph-name="q" unicode="q" horiz-adv-x="453" 
d="M305 404q19 0 38.5 -16.5t27.5 -34.5q1 -3 5 -2.5t6 3.5q11 27 26 49q17 24 29 24q5 0 7 -10t-1 -17q-34 -99 -63 -200q-62 -210 -107 -385q-5 -20 4.5 -28t30.5 -11q27 -4 27 -13q0 -10 -25 -13q-132 -15 -179 -26q-9 -2 -18.5 0t-9.5 8q0 8 21 17q42 15 55 28t26 52
q42 110 107 324q1 3 -1.5 4t-4.5 -1q-45 -61 -121 -115.5t-123 -54.5q-16 0 -34.5 15t-18.5 49q0 91 79 203q59 88 142 130q41 21 75 21zM294 378q-13 0 -42 -19t-59 -58q-42 -55 -76 -129.5t-34 -109.5q0 -33 26 -33q21 0 66 35t84 86q72 97 72 174q0 13 -11 33.5t-26 20.5
z" />
    <glyph glyph-name="r" unicode="r" horiz-adv-x="354" 
d="M148 404q20 0 31 -14t11 -31q0 -44 -33 -128q-4 -12 1 -12q6 1 17 19q35 60 79 109q49 57 87 57q20 0 29 -12.5t9 -28.5q0 -26 -18 -50.5t-29 -24.5q-12 0 -12 22q-1 15 -6.5 26t-12.5 11q-23 0 -66 -68q-40 -60 -140 -260q-17 -36 -42 -36q-16 0 -23 14q-1 2 -1 7.5
t1 7.5q72 184 102 277q14 47 -10 47q-25 0 -56 -39q-16 -20 -22 -20q-4 0 -5.5 10t1.5 19q16 43 46 70.5t62 27.5z" />
    <glyph glyph-name="s" unicode="s" horiz-adv-x="280" 
d="M219 404q30 0 46 -18q10 -10 10 -22q0 -8 -9.5 -21.5t-16.5 -18.5q-5 -3 -15 3q-8 4 -20 14t-21.5 14.5t-21.5 4.5q-11 0 -25.5 -13t-14.5 -34q0 -32 47 -97q40 -64 40 -88q0 -47 -55 -93q-27 -24 -61 -36.5t-55 -12.5q-19 0 -41 15.5t-22 37.5q0 17 19 40q7 7 15 0
q45 -45 88 -45q22 0 37.5 15.5t15.5 38.5t-44 89q-38 58 -38 91q0 48 55 97q46 39 87 39z" />
    <glyph glyph-name="t" unicode="t" horiz-adv-x="299" 
d="M251 505q11 0 5 -22l-24 -82q-1 -3 0.5 -6t4.5 -3q15 0 93 -3q4 0 4 -8q1 -5 -5.5 -13t-14.5 -9q-60 -4 -93 -4q-6 0 -9 -8q-36 -82 -96 -252q-10 -28 5 -28q14 0 48.5 22.5t51.5 41.5q8 7 14.5 9t7.5 -6q0 -10 -9 -24q-30 -43 -91 -83.5t-96 -40.5q-7 0 -16.5 8.5
t-9.5 14.5q0 10 5 25q1 3 21 56.5l48 128.5l47 124q5 12 -2 12l-53 3q-16 2 -16 9q0 5 7.5 12.5t12.5 8.5q30 3 61 3q8 0 11 10q27 51 41 75q18 29 47 29z" />
    <glyph glyph-name="u" unicode="u" horiz-adv-x="494" 
d="M212 404q11 0 17 -16q3 -8 -3 -19q-15 -28 -59.5 -141.5t-50.5 -137.5q-10 -39 10 -39q29 0 89.5 63.5t100.5 130.5q27 43 76 132q15 27 29 27q7 0 18 -8t11 -16q0 -12 -13 -41q-78 -192 -99 -256q-7 -20 8 -20q12 0 40.5 19t58.5 51q11 11 18 6q1 -1 1 -3q0 -6 -8 -22
q-21 -41 -79.5 -85.5t-89.5 -44.5q-8 0 -17 9.5t-9 17.5q0 3 4 17q2 6 25 65.5t26 69.5q5 16 0 16q-4 -1 -13 -11q-37 -44 -90 -90t-95 -73q-33 -21 -57 -21q-17 0 -27 12q-14 16 -4 43q10 28 52.5 133t59.5 142q7 14 -3 14q-6 0 -66 -40q-7 -5 -14 -5.5t-8 4.5q0 7 7 16
q12 22 67 61.5t87 39.5z" />
    <glyph glyph-name="v" unicode="v" horiz-adv-x="420" 
d="M102 -12q-22 0 -35.5 18t-13.5 45t15 71q11 35 40 112.5l34 90.5q2 11 -6 11q-21 0 -76 -53q-3 -3 -6 -4t-5.5 -1t-4 1.5t-1.5 4.5q0 10 10 23q22 31 66 64t77 33q10 0 19 -17q9 -18 0 -46q-9 -26 -45.5 -122.5t-42.5 -114.5q-8 -29 2.5 -43t24.5 -14q64 0 128 86t64 163
q0 21 -14 44q-8 13 -8 20q0 14 17.5 29t33.5 15q14 0 23.5 -16.5t9.5 -38.5q0 -53 -35 -126t-87 -129q-97 -106 -184 -106z" />
    <glyph glyph-name="w" unicode="w" horiz-adv-x="633" 
d="M202 404q13 0 18 -16q11 -24 -3 -49q-41 -91 -91 -238q-9 -25 -5 -43.5t19 -18.5q26 0 66 35.5t74 85.5q24 38 25 44q25 84 33 104q11 32 22 44q8 8 25.5 17.5t29.5 9.5q33 0 -2 -82q-1 -1 -1 -2l-54 -108q-14 -28 -17 -52q-16 -94 28 -94q16 0 46 16t48 37
q92 106 93 184q0 16 -3 28.5t-7 21t-5 11.5q-2 8 3 18q7 16 26 31.5t33 15.5q9 0 14 -17.5t5 -39.5q-1 -78 -69 -179.5t-138 -146.5q-49 -35 -99 -35q-24 0 -34.5 34t1.5 89q1 3 -3 3q-3 0 -4 -1q-63 -65 -87 -82q-59 -43 -100 -43q-15 0 -26 18.5t-10 47.5q2 37 25 93
l70 181q5 11 -6 11q-19 0 -86 -54q-3 -2 -6.5 0.5t-2.5 6.5q0 10 7 21q22 31 70 62t78 31z" />
    <glyph glyph-name="x" unicode="x" horiz-adv-x="438" 
d="M165 401q20 0 34 -49l34 -105q1 -5 7 1l42.5 51t50 58t37.5 33q16 14 39 14q39 0 39 -38q0 -13 -15 -35t-29 -22q-9 0 -14 12q-1 5 -7 13t-12 8q-8 0 -21 -9.5t-29 -26l-28.5 -30.5l-28 -33l-19.5 -24q-5 -7 -3 -13q39 -121 46 -134q9 -16 20 -16t29 21t32 44q5 10 11 10
q7 0 7 -17q-1 -46 -40.5 -86.5t-67.5 -40.5q-35 0 -58 71q-5 15 -14.5 47.5t-13.5 43.5q-1 5 -5 1q-78 -98 -115 -133.5t-69 -35.5q-15 0 -26.5 12.5t-10.5 23.5q0 19 13 37.5t25 25.5q20 11 21 -3q4 -19 8 -25t15 -6q5 0 13 4.5t19 15l19.5 18.5t22.5 24.5t20.5 23.5
t21 24.5t16.5 19.5q2 3 2.5 8.5t-0.5 8.5l-37 117q-6 22 -17 22q-20 0 -56 -52q-7 -10 -9 -10q-8 0 -8 13q0 31 39 74.5t70 43.5z" />
    <glyph glyph-name="y" unicode="y" horiz-adv-x="384" 
d="M141 404q20 0 35 -24t19 -47q21 -106 10 -276l2 -1q9 1 15 12q90 159 94 326q0 5 6.5 10.5t9.5 5.5q11 0 23.5 -15.5t12.5 -24.5q0 -55 -40 -151t-75 -155q-85 -141 -108 -169q-68 -83 -107 -115q-58 -46 -107 -46q-20 0 -35.5 11.5t-15.5 29.5q0 17 13.5 33.5t27.5 16.5
q9 0 12 -4q5 -3 13 -12.5t16 -14.5t17 -5q41 0 97 64q33 39 53 116t20 167q0 133 -15 182q-1 3 -2.5 9t-3 9l-3.5 7t-5 6t-7 2q-22 0 -59 -74q-12 -24 -18 -24q-7 0 -9 17q-2 40 34 87t80 47z" />
    <glyph glyph-name="z" unicode="z" horiz-adv-x="417" 
d="M201 404q21 0 68 -19q37 -16 54 -16q21 0 61 31q15 11 22 11q11 0 10 -7q0 -11 -10 -21q-35 -29 -150 -139.5t-142 -140.5q-3 -4 2 -6q18 -1 39 -10.5t29.5 -15l35.5 -23.5q32 -22 59 -22q59 0 59 85q0 23 -2 31q0 8 10 8q36 0 36 -48q-1 -23 -23.5 -52t-46.5 -46
q-30 -21 -47.5 -27.5t-42.5 -6.5q-22 0 -80 45q-41 32 -66 32q-20 0 -32 -15q-8 -8 -24 -40q-3 -6 -10 -6q-5 0 -11 7.5t-6 17.5q-2 20 39 59l85 80.5l116 112.5t47 51q1 4 -1 4q-5 1 -53 16q-70 19 -91 19q-15 0 -26 -10t-12 -25q0 -23 6 -41q1 -5 -5 -11q-7 -7 -21 -14
t-22 -7q-7 0 -11 9.5t-4 17.5q0 16 18 43.5t44 48.5q53 40 99 40z" />
    <glyph glyph-name="braceleft" unicode="{" horiz-adv-x="371" 
d="M83 284q0 10 16 10q32 6 53.5 15.5t33 23.5t16.5 25t10 30q4 15 16.5 92t20.5 102q19 65 75 102q63 38 119 38q21 0 21 -9q0 -7 -13 -11q-60 -18 -92 -42t-46 -74q-10 -32 -14.5 -95t-10.5 -86q-10 -34 -48 -67.5t-86 -52.5q-8 -3 0 -7q78 -49 59 -129q-5 -21 -13 -41
t-18.5 -41.5t-14.5 -31.5q-21 -54 -22 -58q-26 -110 78 -143q5 -1 8 -4t2 -5q-2 -12 -27 -12q-55 0 -96 61t-19 137q5 16 25.5 71t25.5 71q16 52 7 75t-43 35q-23 8 -23 21z" />
    <glyph glyph-name="bar" unicode="|" horiz-adv-x="288" 
d="M147 737h60v-979h-60v979z" />
    <glyph glyph-name="braceright" unicode="}" horiz-adv-x="367" 
d="M214 723q55 0 95.5 -59.5t16.5 -138.5q-3 -12 -21 -62.5t-24 -72.5q-28 -92 40 -114q26 -8 26 -17q0 -10 -20 -13q-101 -15 -118 -95q-1 -6 -13 -88t-20 -110q-17 -65 -73 -100q-34 -21 -70 -30t-53 -9q-20 0 -20 12q0 8 18 11q28 8 42.5 13.5t35 18t33.5 33t21 50.5
q6 23 12.5 88.5t14.5 92.5q11 37 45.5 71t88.5 51q3 1 2 3.5t-4 4.5q-76 51 -56 128q6 27 22.5 62.5t20.5 47.5q2 6 9.5 27t9.5 31q23 108 -74 145q-12 3 -12 10q0 9 25 9z" />
    <glyph glyph-name="asciitilde" unicode="~" horiz-adv-x="624" 
d="M227 338q26 0 57.5 -17.5t55.5 -39t50.5 -39t44.5 -17.5q36 0 55 23.5t43 81.5q4 9 11 9q12 0 25 -9t10 -19q-24 -66 -62 -105.5t-88 -39.5q-28 0 -59 18t-53.5 39t-49 39t-46.5 18q-52 0 -94 -99q-9 -14 -13 -15q-9 0 -23 8.5t-11 17.5q19 61 56.5 103.5t90.5 42.5z" />
    <glyph glyph-name="uni00A0" unicode="&#xa0;" horiz-adv-x="199" 
 />
    <glyph glyph-name="exclamdown" unicode="&#xa1;" horiz-adv-x="281" 
d="M16 -214q-24 0 -30.5 33.5t5.5 62.5q9 29 62 154.5l67 157.5q8 18 22 18q6 0 9 -7t1 -16q-25 -159 -62 -319q-10 -41 -32 -62.5t-42 -21.5zM171 296q-51 0 -51 54q0 28 18.5 45.5t42.5 17.5t37 -14.5t13 -36.5q0 -28 -19.5 -47t-40.5 -19z" />
    <glyph glyph-name="cent" unicode="&#xa2;" horiz-adv-x="487" 
d="M357 528l20 62q4 6 10 6q5 0 13.5 -4.5t8.5 -8.5l-18 -54q-2 -7 5 -8q40 -7 62 -20q19 -13 19 -28q0 -19 -13 -37.5t-23 -18.5t-15 16q-13 41 -41 55q-6 2 -8 -5l-110 -337q-1 -3 1.5 -4.5t5.5 -0.5q80 10 138 62q14 12 14 -1t-11 -26q-56 -69 -158 -84q-6 -2 -9 -6
l-25 -66q-5 -10 -17 -10q-7 0 -11.5 3t-3.5 6l23 68q4 7 -2 10q-49 9 -82 47t-33 87q0 83 48 156t123 109q43 20 82 25q5 1 7 7zM237 152l107 335q2 6 -4 6q-65 -12 -113.5 -92t-48.5 -162q0 -34 16 -57.5t36 -32.5q2 -2 7 3z" />
    <glyph glyph-name="sterling" unicode="&#xa3;" horiz-adv-x="487" 
d="M395 631q38 0 63.5 -20.5t25.5 -47.5q1 -48 -42 -59q-7 -2 -10.5 1.5t-3.5 7.5q3 21 2 34q-1 23 -15 41t-40 18q-43 0 -76 -58t-62 -204q-3 -9 4 -9l134 6q7 0 5 -13q-1 -6 -6 -12.5t-8 -6.5l-132 -7q-5 0 -8 -13q-21 -73 -43 -109.5t-67 -76.5q-1 -2 3 -4q37 -8 90 -31
q88 -32 116 -32q97 0 97 77q0 19 -11 56q-1 5 4 8.5t9 3.5q13 0 25.5 -14t12.5 -39q1 -53 -61.5 -104.5t-124.5 -51.5q-57 0 -147 60q-28 18 -44 23q-7 3 -17 -4q-66 -55 -83 -55q-16 0 -16 18q0 19 23.5 41.5t56.5 35.5q1 1 12.5 5t15.5 7q37 28 62 186q0 7 -7 7l-73 -3
q-8 0 -4 12q4 18 12 20l70 5q10 2 11 9q28 113 58 169t78 90q47 33 111 33z" />
    <glyph glyph-name="currency" unicode="&#xa4;" horiz-adv-x="487" 
d="M464 469l-49 -54q-3 -5 -1 -11q32 -49 32 -102q0 -51 -35 -102l-2 -6l53 -58q4 -3 2 -12t-10 -16q-4 -4 -11.5 -7t-9.5 0l-60 55q-3 3 -10 -1q-49 -30 -90 -30q-50 0 -92 26q-4 2 -12 -1l-52 -50q-7 -9 -24 5q-18 18 -9 32l47 51q3 6 0 10q-33 50 -33 103q0 45 34 98
q1 1 1.5 5.5t-1.5 6.5l-52 59q-8 10 10 28q16 15 25 7l50 -52q2 -2 7 -2.5t7 0.5q44 26 94 26q48 0 95 -28q6 -3 9 1l50 52q10 10 28 -7q18 -14 9 -26zM273 426q-52 0 -86.5 -35.5t-34.5 -89.5t35.5 -88t85.5 -34q49 0 84.5 34.5t35.5 87.5q0 51 -37 88t-83 37z" />
    <glyph glyph-name="yen" unicode="&#xa5;" horiz-adv-x="487" 
d="M118 613q0 9 24 9q7 0 35 -1.5t41 -1.5q16 0 41.5 1.5t33.5 1.5q22 0 22 -9q0 -10 -22 -14q-19 -5 -26 -14.5t-5 -28.5q23 -167 29 -199q0 -2 4 -2t6 2q62 72 120 148q40 51 46 68q1 4 0 8t-9 8.5t-22 8.5q-19 2 -19 14q0 9 25 9q10 0 34.5 -1t33.5 -1q13 -1 37 1.5
t34 2.5q20 0 20 -10q0 -9 -18 -12q-26 -7 -45 -18.5t-28 -21l-37 -40.5l-157 -184q-8 -9 1 -9l102 2q6 0 6 -11q0 -7 -5.5 -13t-9.5 -6l-104 -2q-8 0 -10 -6l-14 -51q-2 -8 5 -8l100 2q8 0 8 -11q0 -7 -5 -13.5t-9 -6.5l-101 -2q-11 0 -13 -10l-25 -98q-10 -40 -3 -52
t41 -20q21 -5 21 -15t-30 -10q-10 0 -46 1.5t-56 1.5q-14 0 -44.5 -1.5t-45.5 -1.5q-22 0 -22 10q0 14 30 17q39 6 52.5 20t28.5 63l25 85q2 10 -7 10l-98 -3q-7 0 -7 8q0 5 5.5 14t8.5 9l102 3q8 3 10 6l16 50q2 9 -2 9l-105 -3q-7 0 -7 8t5 15t11 7l95 3q8 0 8 9
q-18 113 -39 207q-6 27 -13.5 36.5t-33.5 18.5q-24 7 -24 14z" />
    <glyph glyph-name="brokenbar" unicode="&#xa6;" horiz-adv-x="288" 
d="M147 -173v346h59v-346h-59zM147 668h59v-346h-59v346z" />
    <glyph glyph-name="section" unicode="&#xa7;" horiz-adv-x="411" 
d="M388 637q21 0 35 -10q10 -7 8 -18q-3 -10 -32 -39q-14 -8 -20 -3q-28 22 -66 22q-35 0 -49 -22t-14 -45q0 -36 50 -145q48 -90 49 -165q1 -87 -91 -208q-43 -54 -107 -95.5t-119 -41.5q-12 0 -23.5 8t-15.5 16q-8 16 -8 42q0 5 4.5 10t7.5 3q47 -26 93 -26q41 0 64 19
t23 46q0 47 -44 152q-46 96 -46 162q0 110 110 218q7 17 27.5 41t45.5 41q54 38 118 38zM189 477q-49 -54 -49 -139q0 -9 1 -19t2 -18t4.5 -20t5 -18.5t7 -21.5l7.5 -20.5l9 -24t9 -24.5q44 -117 41 -155q-1 -3 0 -5t3 -1.5t6 4.5q60 53 60 156q0 65 -38 155
q-51 108 -58 149q0 4 -2 5t-4 0t-4 -3z" />
    <glyph glyph-name="dieresis" unicode="&#xa8;" horiz-adv-x="400" 
d="M225 604q15 0 25 -12t10 -27q1 -20 -12.5 -35t-31.5 -15q-16 0 -24.5 12t-8.5 29q0 21 12.5 34.5t29.5 13.5zM372 604q15 0 24.5 -12t9.5 -27q1 -20 -12 -35t-31 -15q-16 0 -25.5 12t-9.5 29q0 21 14 34.5t30 13.5z" />
    <glyph glyph-name="copyright" unicode="&#xa9;" horiz-adv-x="692" 
d="M365 628q133 0 219 -89.5t86 -219.5q0 -129 -87 -219t-218 -90q-136 0 -221 89t-85 220q0 129 87.5 219t218.5 90zM365 598q-114 0 -191.5 -80.5t-77.5 -197.5q0 -116 79 -198t190 -82q113 0 190 80.5t77 199.5q0 117 -77.5 197.5t-189.5 80.5zM384 493q35 0 59 -6
q6 -1 24.5 -6t24.5 -6q8 -3 9 -23q1 -13 1 -44q0 -18 -11 -18q-8 0 -13 16q-10 32 -29 45q-25 17 -61 17q-54 0 -88.5 -37.5t-34.5 -96.5q0 -80 40 -117.5t87 -37.5q27 0 46.5 9.5t28.5 20t18 27.5q10 20 18 20t8 -14q-2 -24 -13 -54q-2 -5 -10 -12t-12 -9q-38 -17 -91 -17
q-49 0 -87.5 17.5t-58.5 40.5q-45 50 -45 114q0 78 60 125q53 46 130 46z" />
    <glyph glyph-name="ordfeminine" unicode="&#xaa;" horiz-adv-x="315" 
d="M64 299q0 31 30 81q26 46 65.5 84.5t75.5 60.5q21 12 32 12q16 0 29 -13q1 -1 4 -0.5t4 1.5q13 26 20 26q15 0 29 -8q5 -4 2 -12q-57 -126 -76 -194q-4 -13 -2.5 -16t9.5 -3q12 0 50 31q11 9 13 3q3 -5 -3 -15q-19 -27 -48 -45t-52 -18q-26 0 -26 18q0 10 24 66q4 9 -2 8
q-3 0 -8 -5q-87 -87 -140 -87q-11 0 -20.5 6.5t-9.5 18.5zM126 336q0 -17 12 -17q23 0 62 39q47 45 80 110q7 13 3 19q-7 12 -27 12q-35 0 -72 -46q-25 -30 -41.5 -63.5t-16.5 -53.5z" />
    <glyph glyph-name="guillemotleft" unicode="&#xab;" horiz-adv-x="641" 
d="M80 199q0 6 16 13q115 48 270 148q15 10 21 10q11 0 2 -17q-4 -8 -13 -16q-49 -48 -185 -135q-4 -2 -5.5 -7t1.5 -8q86 -90 111 -135q2 -4 3.5 -9t-0.5 -9t-8 -4q-8 0 -20 11q-82 82 -181 144q-12 8 -12 14zM299 199q0 7 15 13q124 50 268 148q13 10 22 10q8 0 3 -12
q-3 -8 -11 -16q-47 -48 -188 -142q-7 -5 -3 -11q91 -99 111 -137q4 -5 3.5 -13.5t-6.5 -8.5q-9 0 -21 11q-75 75 -185 147q-8 5 -8 11z" />
    <glyph glyph-name="logicalnot" unicode="&#xac;" horiz-adv-x="624" 
d="M89 349h459q13 0 13 -21v-274q0 -10 -16 -15t-32 -5q-12 0 -12 15v227q0 19 -17 20h-389q-13 0 -16.5 2.5t-3.5 12.5q0 11 4.5 24.5t9.5 13.5z" />
    <glyph glyph-name="uni00AD" unicode="&#xad;" horiz-adv-x="305" 
d="M65 235q10 2 103 13t98 11q3 0 6.5 -5t2.5 -11q-2 -14 -11 -29.5t-21 -16.5q-24 -4 -102.5 -12t-88.5 -8q-9 -1 -9 12q0 8 8 26.5t14 19.5z" />
    <glyph glyph-name="registered" unicode="&#xae;" horiz-adv-x="233" 
d="M225 644q47 0 78.5 -31.5t31.5 -78.5q0 -43 -30.5 -78t-81.5 -35q-46 0 -77.5 32.5t-31.5 80.5q0 44 32.5 77t78.5 33zM225 626q-38 1 -63.5 -25.5t-25.5 -66.5t25.5 -66.5t63.5 -26.5q39 0 63.5 26.5t24.5 66.5q0 39 -26 65.5t-62 26.5zM190 508v51q0 11 -1.5 13t-8.5 5
q-5 2 -6 4.5t1 3.5l4 2q30 3 48 3q20 0 32 -8t12 -22q0 -12 -18 -21q-2 -2 -1 -4q19 -37 32 -45q5 -2 5 -6q0 -5 -13 -5q-18 0 -27 15q-13 17 -18 29q-1 4 -9 4q-7 0 -7 -4v-11q0 -11 2 -13.5t14 -7.5q3 -1 4 -3.5t-0.5 -4t-3.5 -1.5h-52q-3 0 -4.5 3t2.5 5q13 5 13 18z
M215 574v-30q0 -4 9 -4q19 0 19 18q0 8 -5 14t-13 6q-10 0 -10 -4z" />
    <glyph glyph-name="macron" unicode="&#xaf;" horiz-adv-x="400" 
d="M194 570l198 7q2 0 4 -2.5t3 -7.5t0 -13q-5 -32 -21 -32l-197 -4q-11 0 -7 18q3 11 9.5 22.5t10.5 11.5z" />
    <glyph glyph-name="degree" unicode="&#xb0;" horiz-adv-x="300" 
d="M219 636q46 0 79 -31t33 -84q0 -48 -35 -82t-81 -34q-47 0 -81.5 33.5t-34.5 82.5q0 47 36.5 81t83.5 34zM212 601q-27 0 -47 -23t-20 -57q0 -36 21.5 -58t53.5 -22q27 0 46.5 21.5t19.5 58.5q0 35 -20.5 57.5t-53.5 22.5z" />
    <glyph glyph-name="plusminus" unicode="&#xb1;" horiz-adv-x="624" 
d="M297 545q0 6 16.5 10.5t28.5 4.5q10 0 12.5 -3t2.5 -17v-189q0 -8 2 -10t10 -2h194q9 0 12 -2.5t3 -9.5q0 -18 -4.5 -29.5t-9.5 -11.5h-196q-11 0 -11 -14v-189q0 -11 -16 -16t-32 -5q-12 0 -12 15v192q0 11 -2.5 14t-12.5 3h-187q-13 0 -16.5 2.5t-3.5 12.5
q0 11 4.5 24.5t9.5 13.5h196q4 0 8 3.5t4 8.5v194zM563 4q9 0 12 -2.5t3 -9.5q0 -18 -4.5 -30t-9.5 -12h-469q-13 0 -16.5 2.5t-3.5 12.5q0 11 4.5 25t9.5 14h474z" />
    <glyph glyph-name="twosuperior" unicode="&#xb2;" horiz-adv-x="300" 
d="M296 775q31 0 56 -23.5t25 -59.5q0 -56 -69 -111l-115 -92q-5 -4 -3.5 -6t5.5 -2q90 0 114 4q15 2 36 28q9 13 17 13q5 0 6 -8t-3 -16l-36 -67q-4 -6 -15 -6q-3 0 -67 0.5t-80 0.5h-42q-26 0 -26 11q0 8 13 17q38 26 117 94q85 69 85 127q0 25 -12.5 38t-32.5 13
q-35 0 -73 -36q-10 -9 -17 -9t-7 8q0 11 17 31q49 51 107 51z" />
    <glyph glyph-name="threesuperior" unicode="&#xb3;" horiz-adv-x="300" 
d="M304 775q36 0 54.5 -21t18.5 -43q0 -12 -4.5 -22.5t-16 -19.5t-18.5 -14t-24 -13.5t-20 -10.5q-7 -5 -1 -6q31 -8 51.5 -28.5t20.5 -53.5t-31.5 -65t-86.5 -52q-30 -12 -73 -12q-27 0 -41 18.5t-12 42.5q0 14 9 14q6 0 12 -5q51 -40 78 -40q30 0 54.5 27t24.5 61
q0 31 -16 45.5t-39 14.5q-17 0 -27 -2q-20 -3 -19 5q0 8 14 17q7 4 25.5 12.5t27.5 13.5q53 26 53 71q0 36 -38 36q-34 0 -65 -51q-1 -2 -4.5 -2.5t-5.5 1.5q-9 9 -9 25q0 7 12 19q49 38 96 38z" />
    <glyph glyph-name="acute" unicode="&#xb4;" horiz-adv-x="400" 
d="M334 616q12 16 22 16q8 0 17.5 -16t8.5 -30q-2 -9 -14 -25q-37 -44 -99 -104q-16 -16 -28 -16q-6 1 -6 10.5t5 16.5q28 50 94 148z" />
    <glyph glyph-name="mu" unicode="&#xb5;" horiz-adv-x="468" 
d="M177 405q19 0 38 -19q1 -1 2.5 -10.5t0.5 -12.5q-10 -29 -58 -112l-30.5 -55.5t-27.5 -49.5q-13 -22 -12 -46q1 -14 14 -25.5t25 -11.5q32 0 73.5 35.5t75.5 83.5q11 15 21 42q53 131 69 159q4 8 14 17t15 9q27 0 44 -21q6 -10 -5 -38q-15 -32 -58.5 -98.5t-68.5 -96.5
q-14 -18 -15 -38q-1 -35 13.5 -50t34.5 -15q42 0 91 59q5 3 9 2.5t4 -4.5q0 -18 -20 -50q-23 -34 -53.5 -56.5t-55.5 -22.5q-62 0 -45 116q1 10 -1 10t-4 -3q-65 -67 -95 -91.5t-54 -24.5q-14 0 -25 15t-14.5 27.5t-5.5 23.5q-3 10 -10 1q-11 -15 -31.5 -84t-21.5 -93
q-2 -36 7 -54t33 -37q6 -6 -1 -19q-14 -22 -38 -34q-11 -6 -26 -6q-5 0 -12.5 10.5t-11.5 24.5q-10 37 16 128q19 72 66 194l8 27.5t7 25.5q47 150 82 248q4 11 14 15q9 5 23 5z" />
    <glyph glyph-name="paragraph" unicode="&#xb6;" horiz-adv-x="574" 
d="M101 336q0 71 30.5 125.5t74.5 86.5q82 64 222 70q124 6 192 6q19 0 19 -15q0 -6 -5 -13t-11 -7q-2 0 -33 2t-41 2q-13 0 -20 -9.5t-15 -37.5l-158 -559q-49 -167 -106 -212q-46 -36 -99 -36q-56 0 -86 29t-30 72q0 46 26.5 74.5t60.5 28.5q25 0 39.5 -16.5t14.5 -35.5
q0 -17 -15.5 -30t-33.5 -13q-10 0 -24 10q-7 6 -12 6q-6 0 -12 -7t-6 -22q0 -24 24 -44.5t59 -20.5q29 0 54 16t39.5 34.5t28.5 51t19 47.5t12 42l20.5 68.5l14 45t7.5 28.5q1 8 -1 12.5t-8 3.5q-14 -2 -39 -2q-81 0 -141.5 58t-60.5 161zM462 590q-34 0 -64 -47
q-28 -47 -59 -147.5t-43 -179.5q-4 -30 8.5 -49.5t36.5 -19.5q20 0 26 20l116 404q2 8 -3.5 13.5t-17.5 5.5z" />
    <glyph glyph-name="periodcentered" unicode="&#xb7;" horiz-adv-x="226" 
d="M115 245q50 0 50 -54q0 -28 -18.5 -45t-42.5 -17t-37 15t-13 36q0 28 19.5 46.5t41.5 18.5z" />
    <glyph glyph-name="cedilla" unicode="&#xb8;" horiz-adv-x="400" 
d="M180 2h27q-3 -2 -13 -12l-13 -13l-10.5 -11t-10.5 -12.5l-7 -11t-5.5 -12.5t-1.5 -12q0 -13 20 -49q12 -21 12 -41q0 -14 -15 -31.5t-35 -29.5q-25 -15 -39 -15q-18 0 -36.5 14.5t-18.5 33.5q0 21 11 21q4 0 15 -10q27 -22 43 -22q19 0 19 17q0 14 -23 54q-13 24 -13 38
q0 17 14 36q13 18 80 68z" />
    <glyph glyph-name="onesuperior" unicode="&#xb9;" horiz-adv-x="300" 
d="M209 737q0 2 7 6.5t13 5.5q95 15 116 26q5 3 7.5 -0.5t0.5 -7.5l-26 -78q-35 -104 -54 -187q-6 -26 0 -33.5t32 -14.5q24 -7 24 -17t-26 -10q-14 0 -38 1.5t-34 1.5q-22 0 -49 -2t-36 -2q-24 0 -24 12q0 10 32 17q22 4 31.5 11t17.5 24q13 27 48 139q20 67 24 83
q2 8 -6 9q-20 4 -36 4q-24 0 -24 12z" />
    <glyph glyph-name="ordmasculine" unicode="&#xba;" horiz-adv-x="294" 
d="M254 549q38 0 55 -23.5t17 -54.5q0 -55 -36 -108t-79 -75q-30 -14 -60 -14t-48.5 21t-18.5 54q0 37 23 85t61 81q42 34 86 34zM254 527q-30 0 -54 -31q-25 -29 -44 -78.5t-19 -83.5t28 -34q21 0 44 28q21 24 45.5 78t24.5 89q0 32 -25 32z" />
    <glyph glyph-name="guillemotright" unicode="&#xbb;" horiz-adv-x="661" 
d="M575 201q0 -6 -16 -13q-120 -50 -270 -149q-13 -9 -21 -9q-11 0 -1 17q4 7 12 15q55 54 185 135q12 6 4 16q-84 86 -111 134q-4 5 -4 14t9 9q8 0 20 -12q88 -86 181 -144q12 -6 12 -13zM355 201q0 -7 -14 -13q-125 -51 -268 -149q-18 -9 -22 -9q-9 0 -3 12q3 7 11 15
q51 53 188 142q8 6 3 11q-90 97 -111 137q-4 5 -3.5 14t6.5 9q9 0 21 -12q76 -76 184 -146q8 -4 8 -11z" />
    <glyph glyph-name="onequarter" unicode="&#xbc;" horiz-adv-x="641" 
d="M594 345q3 0 5.5 -5t1.5 -10q0 -1 -11.5 -37l-24.5 -79l-18 -60q-3 -7 5 -7l53 3q2 0 4 -3.5t1 -5.5q-8 -27 -21 -27q-8 0 -47 -3q-7 0 -8 -7q-25 -88 -30 -102q-2 -8 -13 -12q-12 -6 -40 -6q-10 0 -6 16q1 2 6.5 20l12.5 40t13 38q1 2 0.5 5.5t-2.5 3.5t-66.5 -3.5
t-71.5 -3.5q-4 0 -7.5 4t-2.5 7q0 4 19 23q20 23 183 168l17 15q37 28 48 28zM629 636q8 0 13.5 -3t5.5 -6t-2 -6l-539 -649q-5 -7 -12 -7q-8 0 -14 9.5t1 17.5l527 634q9 10 20 10zM165 589q0 2 7 6.5t13 5.5q95 15 116 26q5 3 7.5 -0.5t0.5 -7.5l-26 -78
q-35 -104 -54 -187q-6 -26 0 -33.5t32 -14.5q24 -7 24 -17t-26 -10q-14 0 -38 1.5t-34 1.5q-22 0 -49 -2t-36 -2q-24 0 -24 12q0 10 32 17q22 4 31.5 11t17.5 24q13 27 48 139q20 67 24 83q2 8 -6 9q-20 4 -36 4q-24 0 -24 12zM493 150q26 81 43 126q1 2 -1 2.5t-3 -0.5
q-51 -44 -136 -133q-2 -2 -2.5 -4t0 -3t2.5 -1l89 6q5 0 8 7z" />
    <glyph glyph-name="onehalf" unicode="&#xbd;" horiz-adv-x="679" 
d="M546 345q31 0 56 -23.5t25 -59.5q0 -56 -69 -111l-115 -92q-5 -4 -3.5 -6t5.5 -2q90 0 114 4q15 2 36 28q9 13 17 13q5 0 6 -8t-3 -16l-36 -67q-4 -6 -15 -6q-3 0 -67 0.5t-80 0.5h-42q-26 0 -26 11q0 8 13 17q38 26 117 94q85 69 85 127q0 25 -12.5 38t-32.5 13
q-35 0 -73 -36q-10 -9 -17 -9t-7 8q0 11 17 31q49 51 107 51zM613 636q8 0 13.5 -3t5.5 -6t-2 -6l-539 -649q-5 -7 -12 -7q-8 0 -14 9.5t1 17.5l527 634q9 10 20 10zM165 589q0 2 7 6.5t13 5.5q95 15 116 26q5 3 7.5 -0.5t0.5 -7.5l-26 -78q-35 -104 -54 -187
q-6 -26 0 -33.5t32 -14.5q24 -7 24 -17t-26 -10q-14 0 -38 1.5t-34 1.5q-22 0 -49 -2t-36 -2q-24 0 -24 12q0 10 32 17q22 4 31.5 11t17.5 24q13 27 48 139q20 67 24 83q2 8 -6 9q-20 4 -36 4q-24 0 -24 12z" />
    <glyph glyph-name="threequarters" unicode="&#xbe;" horiz-adv-x="637" 
d="M590 345q3 0 5.5 -5t1.5 -10q0 -1 -11.5 -37l-24.5 -79l-18 -60q-3 -7 5 -7l53 3q2 0 4 -3.5t1 -5.5q-8 -27 -21 -27q-8 0 -47 -3q-7 0 -8 -7q-25 -88 -30 -102q-2 -8 -13 -12q-12 -6 -40 -6q-10 0 -6 16q1 2 6.5 20l12.5 40t13 38q1 2 0.5 5.5t-2.5 3.5t-66.5 -3.5
t-71.5 -3.5q-4 0 -7.5 4t-2.5 7q0 4 19 23q20 23 183 168l17 15q37 28 48 28zM260 627q36 0 54.5 -21t18.5 -43q0 -12 -4.5 -22.5t-16 -19.5t-18.5 -14t-24 -13.5t-20 -10.5q-7 -5 -1 -6q31 -8 51.5 -28.5t20.5 -53.5t-31.5 -65t-86.5 -52q-30 -12 -73 -12q-27 0 -41 18.5
t-12 42.5q0 14 9 14q6 0 12 -5q51 -40 78 -40q30 0 54.5 27t24.5 61q0 31 -16 45.5t-39 14.5q-17 0 -27 -2q-20 -3 -19 5q0 8 14 17q7 4 25.5 12.5t27.5 13.5q53 26 53 71q0 36 -38 36q-34 0 -65 -51q-1 -2 -4.5 -2.5t-5.5 1.5q-9 9 -9 25q0 7 12 19q49 38 96 38zM630 636
q8 0 13.5 -3t5.5 -6t-2 -6l-539 -649q-5 -7 -12 -7q-8 0 -14 9.5t1 17.5l527 634q9 10 20 10zM489 150q26 81 43 126q1 2 -1 2.5t-3 -0.5q-51 -44 -136 -133q-2 -2 -2.5 -4t0 -3t2.5 -1l89 6q5 0 8 7z" />
    <glyph glyph-name="questiondown" unicode="&#xbf;" horiz-adv-x="361" 
d="M103 -220q-38 0 -81 35q-18 14 -32.5 43.5t-14.5 59.5q0 29 17.5 55.5t37.5 36.5q30 20 104 64q17 11 25 20t8.5 14.5t1.5 21.5q0 28 -30 81q-1 2 0 4.5t5 4t11 -0.5q9 -3 19.5 -10t24.5 -20.5t23 -37t9 -52.5q-1 -42 -30 -71q-25 -25 -123 -73q-62 -29 -62 -68
q0 -25 14 -43t49 -18q26 0 42 28q7 13 13.5 17.5t19.5 4.5q14 0 24.5 -10t10.5 -27q0 -25 -25.5 -42t-60.5 -17zM213 296q-24 0 -37.5 14.5t-13.5 39.5q0 28 19 45.5t42 17.5q25 0 37.5 -14.5t12.5 -36.5q0 -28 -19 -47t-41 -19z" />
    <glyph glyph-name="Agrave" unicode="&#xc0;" horiz-adv-x="636" 
d="M626 665q14 0 2 -32q-27 -69 -34 -98q-7 -33 -29.5 -126.5l-40 -169.5t-25.5 -123q-11 -53 -2 -71t58 -24q19 -3 19 -13q0 -11 -30 -11q-17 0 -40.5 1.5t-42.5 1.5q-44 0 -85 -3.5t-54 -3.5q-8 0 -15.5 3t-6.5 7q0 10 20 14q24 3 39.5 9t24.5 17t13 19.5t9 25.5
q32 107 44 165q1 3 -2 7.5t-7 4.5q-73 0 -142 -9q-19 -2 -45 -28q-33 -33 -99 -128q-44 -67 28 -81q7 -3 7 -6q0 -5 -6.5 -10t-12.5 -5q-20 0 -52 1t-57 1q-12 0 -52 -2t-44 -2q-28 0 -28 14q0 9 25 11q42 1 68.5 14t59.5 49q66 71 159.5 182.5l167.5 203t77 95.5
q20 22 30 37q4 8 6 8q13 2 20 3.5t18.5 6t21 13t17.5 20.5t18 12zM316 290q67 0 131 8q11 2 18 18q7 20 23.5 91t19.5 90q2 12 3 18.5t1 10t-0.5 4.5t-2.5 1q-6 0 -23 -18q-42 -46 -173 -214q-5 -9 3 -9zM513 834q14 0 36 -25q69 -75 84 -96q13 -18 6 -25q-10 -8 -30 5
q-56 33 -119 81q-19 14 -19 27q0 12 23 27q13 7 19 6z" />
    <glyph glyph-name="Aacute" unicode="&#xc1;" horiz-adv-x="636" 
d="M626 665q14 0 2 -32q-27 -69 -34 -98q-7 -33 -29.5 -126.5l-40 -169.5t-25.5 -123q-11 -53 -2 -71t58 -24q19 -3 19 -13q0 -11 -30 -11q-17 0 -40.5 1.5t-42.5 1.5q-44 0 -85 -3.5t-54 -3.5q-8 0 -15.5 3t-6.5 7q0 10 20 14q24 3 39.5 9t24.5 17t13 19.5t9 25.5
q32 107 44 165q1 3 -2 7.5t-7 4.5q-73 0 -142 -9q-19 -2 -45 -28q-33 -33 -99 -128q-44 -67 28 -81q7 -3 7 -6q0 -5 -6.5 -10t-12.5 -5q-20 0 -52 1t-57 1q-12 0 -52 -2t-44 -2q-28 0 -28 14q0 9 25 11q42 1 68.5 14t59.5 49q66 71 159.5 182.5l167.5 203t77 95.5
q20 22 30 37q4 8 6 8q13 2 20 3.5t18.5 6t21 13t17.5 20.5t18 12zM316 290q67 0 131 8q11 2 18 18q7 20 23.5 91t19.5 90q2 12 3 18.5t1 10t-0.5 4.5t-2.5 1q-6 0 -23 -18q-42 -46 -173 -214q-5 -9 3 -9zM777 805q0 -9 -27 -25q-113 -64 -153 -81q-29 -10 -35 -4
q-8 10 13 28q96 81 143 113q16 11 24 5q10 -4 23 -15t12 -21z" />
    <glyph glyph-name="Acircumflex" unicode="&#xc2;" horiz-adv-x="636" 
d="M626 665q14 0 2 -32q-27 -69 -34 -98q-7 -33 -29.5 -126.5l-40 -169.5t-25.5 -123q-11 -53 -2 -71t58 -24q19 -3 19 -13q0 -11 -30 -11q-17 0 -40.5 1.5t-42.5 1.5q-44 0 -85 -3.5t-54 -3.5q-8 0 -15.5 3t-6.5 7q0 10 20 14q24 3 39.5 9t24.5 17t13 19.5t9 25.5
q32 107 44 165q1 3 -2 7.5t-7 4.5q-73 0 -142 -9q-19 -2 -45 -28q-33 -33 -99 -128q-44 -67 28 -81q7 -3 7 -6q0 -5 -6.5 -10t-12.5 -5q-20 0 -52 1t-57 1q-12 0 -52 -2t-44 -2q-28 0 -28 14q0 9 25 11q42 1 68.5 14t59.5 49q66 71 159.5 182.5l167.5 203t77 95.5
q20 22 30 37q4 8 6 8q13 2 20 3.5t18.5 6t21 13t17.5 20.5t18 12zM316 290q67 0 131 8q11 2 18 18q7 20 23.5 91t19.5 90q2 12 3 18.5t1 10t-0.5 4.5t-2.5 1q-6 0 -23 -18q-42 -46 -173 -214q-5 -9 3 -9zM632 799q9 0 21 -19l65 -95q7 -11 5 -16t-10 -5q-4 0 -22 10
q-34 19 -74 52q-5 4 -11 0q-57 -34 -126 -54q-19 -6 -27 -6q-9 0 -6 9q2 8 15 16q92 55 133 87q28 21 37 21z" />
    <glyph glyph-name="Atilde" unicode="&#xc3;" horiz-adv-x="636" 
d="M626 665q14 0 2 -32q-27 -69 -34 -98q-7 -33 -29.5 -126.5l-40 -169.5t-25.5 -123q-11 -53 -2 -71t58 -24q19 -3 19 -13q0 -11 -30 -11q-17 0 -40.5 1.5t-42.5 1.5q-44 0 -85 -3.5t-54 -3.5q-8 0 -15.5 3t-6.5 7q0 10 20 14q24 3 39.5 9t24.5 17t13 19.5t9 25.5
q32 107 44 165q1 3 -2 7.5t-7 4.5q-73 0 -142 -9q-19 -2 -45 -28q-33 -33 -99 -128q-44 -67 28 -81q7 -3 7 -6q0 -5 -6.5 -10t-12.5 -5q-20 0 -52 1t-57 1q-12 0 -52 -2t-44 -2q-28 0 -28 14q0 9 25 11q42 1 68.5 14t59.5 49q66 71 159.5 182.5l167.5 203t77 95.5
q20 22 30 37q4 8 6 8q13 2 20 3.5t18.5 6t21 13t17.5 20.5t18 12zM316 290q67 0 131 8q11 2 18 18q7 20 23.5 91t19.5 90q2 12 3 18.5t1 10t-0.5 4.5t-2.5 1q-6 0 -23 -18q-42 -46 -173 -214q-5 -9 3 -9zM469 715q19 32 35 46q11 11 28 11q136 0 148 3q9 2 16 7t12.5 11.5
t6.5 6.5l10 10q5 -1 12 -13q5 -7 -5 -15l-43 -55q-13 -14 -26 -14q-6 0 -46.5 1t-69.5 0.5t-36 -2.5q-10 -3 -33 -33q-1 -4 -6 -4t-9.5 6t-4.5 9q0 5 11 25z" />
    <glyph glyph-name="Adieresis" unicode="&#xc4;" horiz-adv-x="636" 
d="M626 665q14 0 2 -32q-27 -69 -34 -98q-7 -33 -29.5 -126.5l-40 -169.5t-25.5 -123q-11 -53 -2 -71t58 -24q19 -3 19 -13q0 -11 -30 -11q-17 0 -40.5 1.5t-42.5 1.5q-44 0 -85 -3.5t-54 -3.5q-8 0 -15.5 3t-6.5 7q0 10 20 14q24 3 39.5 9t24.5 17t13 19.5t9 25.5
q32 107 44 165q1 3 -2 7.5t-7 4.5q-73 0 -142 -9q-19 -2 -45 -28q-33 -33 -99 -128q-44 -67 28 -81q7 -3 7 -6q0 -5 -6.5 -10t-12.5 -5q-20 0 -52 1t-57 1q-12 0 -52 -2t-44 -2q-28 0 -28 14q0 9 25 11q42 1 68.5 14t59.5 49q66 71 159.5 182.5l167.5 203t77 95.5
q20 22 30 37q4 8 6 8q13 2 20 3.5t18.5 6t21 13t17.5 20.5t18 12zM316 290q67 0 131 8q11 2 18 18q7 20 23.5 91t19.5 90q2 12 3 18.5t1 10t-0.5 4.5t-2.5 1q-6 0 -23 -18q-42 -46 -173 -214q-5 -9 3 -9zM508 775q18 0 28.5 -12t9.5 -32q-1 -18 -17.5 -33t-34.5 -15t-28 12
t-9 32t17 34t34 14zM697 775q18 0 27.5 -12t8.5 -32q-1 -19 -17 -33.5t-33 -14.5q-18 0 -28.5 12t-9.5 32t17 34t35 14z" />
    <glyph glyph-name="Aring" unicode="&#xc5;" horiz-adv-x="636" 
d="M626 665q14 0 2 -32q-27 -69 -34 -98q-7 -33 -29.5 -126.5l-40 -169.5t-25.5 -123q-11 -53 -2 -71t58 -24q19 -3 19 -13q0 -11 -30 -11q-17 0 -40.5 1.5t-42.5 1.5q-44 0 -85 -3.5t-54 -3.5q-8 0 -15.5 3t-6.5 7q0 10 20 14q24 3 39.5 9t24.5 17t13 19.5t9 25.5
q32 107 44 165q1 3 -2 7.5t-7 4.5q-73 0 -142 -9q-19 -2 -45 -28q-33 -33 -99 -128q-44 -67 28 -81q7 -3 7 -6q0 -5 -6.5 -10t-12.5 -5q-20 0 -52 1t-57 1q-12 0 -52 -2t-44 -2q-28 0 -28 14q0 9 25 11q42 1 68.5 14t59.5 49q66 71 159.5 182.5l167.5 203t77 95.5
q20 22 30 37q4 8 6 8q13 2 20 3.5t18.5 6t21 13t17.5 20.5t18 12zM316 290q67 0 131 8q11 2 18 18q7 20 23.5 91t19.5 90q2 12 3 18.5t1 10t-0.5 4.5t-2.5 1q-6 0 -23 -18q-42 -46 -173 -214q-5 -9 3 -9zM611 859q37 0 58 -28t17 -63q-6 -35 -32.5 -58.5t-63.5 -23.5
q-39 0 -60.5 26.5t-16.5 61.5t32 60t66 25zM606 827q-21 0 -36 -15.5t-18 -38.5q-2 -25 10 -40t31 -15q22 0 37 13.5t18 41.5q2 22 -10.5 38t-31.5 16z" />
    <glyph glyph-name="AE" unicode="&#xc6;" horiz-adv-x="943" 
d="M689 643h62q174 0 200 8q3 1 4.5 -2.5t1.5 -8.5t-2 -9q-22 -39 -30 -109q-2 -17 -14 -17q-13 0 -15 28q-3 41 -10 58.5t-22 18.5q-30 3 -142 3q-31 0 -39 -5.5t-17 -31.5q-14 -40 -68 -232q-4 -16 7 -16l119 3q12 1 21 1.5t17.5 2t13 2.5t10.5 5t8.5 5t8 7t7 8t8 11.5
l8.5 12.5q11 16 20 16q4 0 6.5 -3.5t1.5 -11t-5 -17.5q-25 -49 -47 -142q-5 -19 -18 -19q-11 0 -11 27q0 34 -7.5 45t-28.5 10l-146 -3q-11 0 -15 -17q-9 -25 -27.5 -89.5t-20.5 -78.5q-10 -43 2 -56q18 -18 122 -18q64 0 90.5 4.5t55.5 20.5q23 12 68 74q21 29 29 29
q13 0 4 -30q-22 -71 -49 -108q-9 -14 -23.5 -18t-45.5 -4q-22 0 -159 1.5t-167 1.5q-34 0 -71 -2l-38 -1q-23 0 -23 12q0 15 26 18q35 4 52.5 13t23.5 19.5t16 39.5q35 94 57 179q1 2 0 6.5t-5 4.5q-162 -5 -176 -6q-14 0 -27 -15q-114 -130 -157 -192q-13 -17 -12 -27
t9 -14t30 -10q19 -5 19 -15q0 -13 -23 -13q-1 0 -32 1.5t-67 1.5q-24 0 -59 -1.5t-42 -1.5q-24 0 -24 10q0 13 25 17q86 16 140 77l434 488q11 16 -2 19q-4 1 -27 4t-38 6q-28 4 -28 15q0 12 34 12q2 0 40 -0.5t90 -1t89 -0.5zM595 600q2 15 -21 -9q-161 -172 -226 -257
q-3 -4 -2.5 -6.5t2 -3.5t2.5 -1q7 0 77 2.5t78 2.5q9 0 13 15q0 3 37 122t40 135z" />
    <glyph glyph-name="Ccedilla" unicode="&#xc7;" horiz-adv-x="658" 
d="M363 -15q-51 -51 -51 -75q0 -14 21 -53q13 -24 13 -43q0 -14 -16 -32.5t-36 -29.5q-27 -18 -42 -18q-19 0 -38.5 17t-19.5 39q0 17 9 17q7 0 21 -12q29 -24 45 -24q18 0 18 21q0 19 -24 58q-13 22 -13 38q0 17 16 37q16 17 61 57h-10q-38 0 -76.5 14.5t-74.5 43t-59 80.5
t-23 118q0 85 36.5 165t101.5 141q122 117 286 117q74 0 138 -26q24 -11 42 -1t24 4q6 -9 0 -21q-37 -65 -50 -116q-7 -27 -20 -27q-12 0 -8 30q7 58 -20 91q-32 41 -99 41q-114 0 -221 -106q-55 -56 -85.5 -140.5t-30.5 -161.5q0 -59 19 -103.5t47.5 -67.5t57 -34t53.5 -11
q72 0 129 52l81 77q10 9 19 9q10 0 3 -23q-8 -29 -77 -132q-13 -17 -29 -4q-17 16 -43 10q-5 -1 -17.5 -4l-27.5 -6.5t-30 -5.5z" />
    <glyph glyph-name="Egrave" unicode="&#xc8;" horiz-adv-x="599" 
d="M270 337l113 4q51 2 68.5 12t39.5 40q12 16 22 16q4 0 5 -6t-1 -14.5t-6 -16.5q-29 -52 -47 -130q-5 -20 -15 -20q-13 0 -12 29q2 32 -8.5 42t-30.5 10l-129 -3q-28 0 -34 -19q-5 -14 -48 -174q-10 -40 2 -58q13 -18 33 -19q72 -5 146 -5q43 0 69 18q47 24 85 77
q17 26 26 26q10 0 4 -27q-16 -63 -47 -98q-19 -21 -28 -22q-27 -6 -45 -6q-22 0 -155 3.5t-163 3.5q-32 0 -73.5 -3t-53.5 -3q-29 0 -29 13q0 11 31 14q39 3 60.5 13.5t29 23t16.5 41.5l141 439q16 34 5.5 55.5t-64.5 28.5q-26 2 -26 14q0 10 32 10q9 0 48.5 -1.5t68.5 -1.5
h93q192 0 229 10q2 0 4 -3t3 -7t0 -6q-14 -25 -27.5 -63t-15.5 -52q0 -8 -8 -8q-6 0 -13 8t-8 21q-3 48 -11 57q-4 5 -12 8q-15 7 -125 7q-51 0 -67 -21q-15 -21 -83 -243q-1 -4 3 -9t8 -5zM362 834q14 0 36 -25q69 -75 84 -96q13 -18 6 -25q-10 -8 -30 5q-56 33 -119 81
q-19 14 -19 27q0 12 23 27q13 7 19 6z" />
    <glyph glyph-name="Eacute" unicode="&#xc9;" horiz-adv-x="599" 
d="M270 337l113 4q51 2 68.5 12t39.5 40q12 16 22 16q4 0 5 -6t-1 -14.5t-6 -16.5q-29 -52 -47 -130q-5 -20 -15 -20q-13 0 -12 29q2 32 -8.5 42t-30.5 10l-129 -3q-28 0 -34 -19q-5 -14 -48 -174q-10 -40 2 -58q13 -18 33 -19q72 -5 146 -5q43 0 69 18q47 24 85 77
q17 26 26 26q10 0 4 -27q-16 -63 -47 -98q-19 -21 -28 -22q-27 -6 -45 -6q-22 0 -155 3.5t-163 3.5q-32 0 -73.5 -3t-53.5 -3q-29 0 -29 13q0 11 31 14q39 3 60.5 13.5t29 23t16.5 41.5l141 439q16 34 5.5 55.5t-64.5 28.5q-26 2 -26 14q0 10 32 10q9 0 48.5 -1.5t68.5 -1.5
h93q192 0 229 10q2 0 4 -3t3 -7t0 -6q-14 -25 -27.5 -63t-15.5 -52q0 -8 -8 -8q-6 0 -13 8t-8 21q-3 48 -11 57q-4 5 -12 8q-15 7 -125 7q-51 0 -67 -21q-15 -21 -83 -243q-1 -4 3 -9t8 -5zM584 806q0 -9 -27 -25q-113 -64 -153 -81q-29 -10 -35 -4q-8 10 13 28
q96 81 143 113q16 11 24 5q10 -4 23 -15t12 -21z" />
    <glyph glyph-name="Ecircumflex" unicode="&#xca;" horiz-adv-x="599" 
d="M270 337l113 4q51 2 68.5 12t39.5 40q12 16 22 16q4 0 5 -6t-1 -14.5t-6 -16.5q-29 -52 -47 -130q-5 -20 -15 -20q-13 0 -12 29q2 32 -8.5 42t-30.5 10l-129 -3q-28 0 -34 -19q-5 -14 -48 -174q-10 -40 2 -58q13 -18 33 -19q72 -5 146 -5q43 0 69 18q47 24 85 77
q17 26 26 26q10 0 4 -27q-16 -63 -47 -98q-19 -21 -28 -22q-27 -6 -45 -6q-22 0 -155 3.5t-163 3.5q-32 0 -73.5 -3t-53.5 -3q-29 0 -29 13q0 11 31 14q39 3 60.5 13.5t29 23t16.5 41.5l141 439q16 34 5.5 55.5t-64.5 28.5q-26 2 -26 14q0 10 32 10q9 0 48.5 -1.5t68.5 -1.5
h93q192 0 229 10q2 0 4 -3t3 -7t0 -6q-14 -25 -27.5 -63t-15.5 -52q0 -8 -8 -8q-6 0 -13 8t-8 21q-3 48 -11 57q-4 5 -12 8q-15 7 -125 7q-51 0 -67 -21q-15 -21 -83 -243q-1 -4 3 -9t8 -5zM468 825q9 0 21 -19l65 -95q7 -11 5 -16t-10 -5q-4 0 -22 10q-34 19 -74 52
q-5 4 -11 0q-57 -34 -126 -54q-20 -6 -27 -6q-9 0 -6 9q2 8 15 16q92 55 133 87q28 21 37 21z" />
    <glyph glyph-name="Edieresis" unicode="&#xcb;" horiz-adv-x="599" 
d="M270 337l113 4q51 2 68.5 12t39.5 40q12 16 22 16q4 0 5 -6t-1 -14.5t-6 -16.5q-29 -52 -47 -130q-5 -20 -15 -20q-13 0 -12 29q2 32 -8.5 42t-30.5 10l-129 -3q-28 0 -34 -19q-5 -14 -48 -174q-10 -40 2 -58q13 -18 33 -19q72 -5 146 -5q43 0 69 18q47 24 85 77
q17 26 26 26q10 0 4 -27q-16 -63 -47 -98q-19 -21 -28 -22q-27 -6 -45 -6q-22 0 -155 3.5t-163 3.5q-32 0 -73.5 -3t-53.5 -3q-29 0 -29 13q0 11 31 14q39 3 60.5 13.5t29 23t16.5 41.5l141 439q16 34 5.5 55.5t-64.5 28.5q-26 2 -26 14q0 10 32 10q9 0 48.5 -1.5t68.5 -1.5
h93q192 0 229 10q2 0 4 -3t3 -7t0 -6q-14 -25 -27.5 -63t-15.5 -52q0 -8 -8 -8q-6 0 -13 8t-8 21q-3 48 -11 57q-4 5 -12 8q-15 7 -125 7q-51 0 -67 -21q-15 -21 -83 -243q-1 -4 3 -9t8 -5zM346 796q18 0 28.5 -12t9.5 -32q-1 -18 -17.5 -33t-34.5 -15t-28 12t-9 32t17 34
t34 14zM535 796q18 0 27.5 -12t8.5 -32q-1 -19 -17 -33.5t-33 -14.5q-18 0 -28.5 12t-9.5 32t17 34t35 14z" />
    <glyph glyph-name="Igrave" unicode="&#xcc;" horiz-adv-x="342" 
d="M159 634q0 11 28 11q19 0 46 -1t43 -1q31 0 71.5 1.5t50.5 1.5q26 0 26 -9q0 -12 -30 -17q-39 -7 -51 -18t-28 -52q-16 -40 -66 -219t-60 -227q-9 -48 -1.5 -61t42.5 -20q24 -4 24 -15t-29 -11q-19 0 -45.5 1.5t-42.5 1.5q-22 0 -68 -2.5t-61 -2.5q-28 0 -28 11
q0 4 7.5 8.5t18.5 5.5q43 6 60.5 22.5t35.5 66.5q14 38 61.5 203t61.5 223q11 46 4 63t-41 21q-28 5 -29 15zM222 834q14 0 36 -25q69 -75 84 -96q13 -18 6 -25q-10 -8 -30 5q-56 33 -119 81q-19 14 -19 27q0 12 23 27q13 7 19 6z" />
    <glyph glyph-name="Iacute" unicode="&#xcd;" horiz-adv-x="342" 
d="M159 634q0 11 28 11q19 0 46 -1t43 -1q31 0 71.5 1.5t50.5 1.5q26 0 26 -9q0 -12 -30 -17q-39 -7 -51 -18t-28 -52q-16 -40 -66 -219t-60 -227q-9 -48 -1.5 -61t42.5 -20q24 -4 24 -15t-29 -11q-19 0 -45.5 1.5t-42.5 1.5q-22 0 -68 -2.5t-61 -2.5q-28 0 -28 11
q0 4 7.5 8.5t18.5 5.5q43 6 60.5 22.5t35.5 66.5q14 38 61.5 203t61.5 223q11 46 4 63t-41 21q-28 5 -29 15zM478 797q0 -9 -27 -25q-113 -64 -153 -81q-29 -10 -35 -4q-8 10 13 28q96 81 143 113q16 11 24 5q10 -4 23 -15t12 -21z" />
    <glyph glyph-name="Icircumflex" unicode="&#xce;" horiz-adv-x="342" 
d="M159 634q0 11 28 11q19 0 46 -1t43 -1q31 0 71.5 1.5t50.5 1.5q26 0 26 -9q0 -12 -30 -17q-39 -7 -51 -18t-28 -52q-16 -40 -66 -219t-60 -227q-9 -48 -1.5 -61t42.5 -20q24 -4 24 -15t-29 -11q-19 0 -45.5 1.5t-42.5 1.5q-22 0 -68 -2.5t-61 -2.5q-28 0 -28 11
q0 4 7.5 8.5t18.5 5.5q43 6 60.5 22.5t35.5 66.5q14 38 61.5 203t61.5 223q11 46 4 63t-41 21q-28 5 -29 15zM345 820q9 0 21 -19l65 -95q7 -10 5 -15.5t-10 -5.5q-4 0 -22 10q-34 19 -74 52q-6 4 -11 0q-57 -34 -126 -54q-19 -6 -27 -6q-9 0 -6 9q2 8 15 16q92 55 133 87
q28 21 37 21z" />
    <glyph glyph-name="Idieresis" unicode="&#xcf;" horiz-adv-x="342" 
d="M159 634q0 11 28 11q19 0 46 -1t43 -1q31 0 71.5 1.5t50.5 1.5q26 0 26 -9q0 -12 -30 -17q-39 -7 -51 -18t-28 -52q-16 -40 -66 -219t-60 -227q-9 -48 -1.5 -61t42.5 -20q24 -4 24 -15t-29 -11q-19 0 -45.5 1.5t-42.5 1.5q-22 0 -68 -2.5t-61 -2.5q-28 0 -28 11
q0 4 7.5 8.5t18.5 5.5q43 6 60.5 22.5t35.5 66.5q14 38 61.5 203t61.5 223q11 46 4 63t-41 21q-28 5 -29 15zM223 791q18 0 28.5 -12t9.5 -32q-1 -18 -17.5 -33t-34.5 -15t-28 12t-9 32t17 34t34 14zM412 791q18 0 27.5 -12t8.5 -32q-1 -19 -17 -33.5t-33 -14.5
q-18 0 -28.5 12t-9.5 32t17 34t35 14z" />
    <glyph glyph-name="Eth" unicode="&#xd0;" horiz-adv-x="730" 
d="M389 649q139 0 220 -63q99 -76 99 -217q0 -97 -52 -181t-124 -128q-109 -65 -273 -65q-28 0 -74.5 2.5t-65.5 2.5q-23 0 -65 -1.5t-50 -1.5q-37 0 -37 11q0 14 34 16q53 2 70.5 19t37.5 81l54 175q2 15 -5 15l-75 -2q-4 0 -6 7t2 15q6 14 15 14l77 2q8 0 10 12
q40 132 56 190q15 56 -16 62q-14 3 -56 5q-29 2 -29 13q0 12 37 12q9 0 34 -0.5t40 -0.5q12 0 64 3t78 3zM388 621q-24 0 -33.5 -5.5t-15.5 -19.5q-25 -58 -78 -237q-2 -9 4 -9l162 3q11 0 8 -14q-1 -10 -7 -15.5t-12 -5.5l-162 -4q-8 0 -12 -16q-45 -152 -51 -203
q-3 -18 4 -34.5t20 -23.5q38 -18 69 -18q36 0 89 16.5t97 46.5q64 46 104.5 127t40.5 176q0 131 -75 191q-57 45 -152 45z" />
    <glyph glyph-name="Ntilde" unicode="&#xd1;" horiz-adv-x="755" 
d="M139 635q0 11 34 11q14 0 49.5 -1.5t63.5 -1.5q31 0 47 2q4 1 11 -8t11 -22q16 -50 93.5 -247t98.5 -239q5 -12 10 -3q31 90 73 236t49 183q8 41 -4 56t-59 21q-30 4 -30 14q0 11 28 11q15 0 49 -2t47 -2q57 0 107 4q9 1 16 -0.5t10 -4t3 -5.5q0 -9 -30 -16
q-36 -8 -57 -26t-42 -76q-51 -142 -130 -417q-6 -20 -6 -31q0 -27 33 -48q2 -1 4.5 -2.5t4 -2.5l3 -2t2.5 -2t1.5 -2.5t0.5 -3.5q0 -11 -22 -11q-7 0 -26 1t-22 1q-36 0 -48 -2q-5 0 -10 4.5t-6 9.5q-5 32 -29 89l-145 377q-28 71 -31 74t-7.5 0t-6.5 -8
q-21 -58 -63.5 -208.5t-50.5 -201.5q-9 -58 1.5 -80.5t52.5 -30.5q31 -6 31 -16q0 -12 -32 -12q-11 0 -46.5 3t-56.5 3t-60 -3t-52 -3q-32 0 -32 13q0 11 28 14q45 7 70.5 23.5t38.5 58.5q129 405 135 427q11 41 9 52q-7 25 -27 30q-7 2 -17.5 3.5l-22 3t-15.5 2.5
q-29 5 -29 14zM404 723q19 32 35 46q11 11 28 11q137 0 148 3q9 2 16 7t12.5 11.5t6.5 6.5l10 10q5 -1 12 -13q5 -7 -5 -15l-43 -55q-13 -14 -26 -14q-6 0 -46.5 1t-69.5 0.5t-36 -2.5q-10 -3 -33 -33q-1 -4 -6 -4t-9.5 6t-4.5 9q0 5 11 25z" />
    <glyph glyph-name="Ograve" unicode="&#xd2;" horiz-adv-x="684" 
d="M464 663q91 0 150 -67.5t59 -178.5q0 -105 -59 -220.5t-153 -170.5q-78 -46 -162 -46q-99 0 -155 56q-68 68 -68 183q0 93 49 200.5t133 171.5q93 72 206 72zM464 635q-73 0 -144 -67q-74 -70 -116.5 -178.5t-42.5 -225.5q0 -29 6.5 -54.5t21 -49.5t42 -38t64.5 -14
q66 0 140 67q54 48 104.5 165.5t50.5 225.5q0 28 -5.5 54.5t-18.5 54t-39.5 44t-62.5 16.5zM428 844q14 0 36 -25q69 -75 84 -96q13 -18 6 -25q-10 -8 -30 5q-56 33 -119 81q-19 14 -19 27q0 12 23 27q13 7 19 6z" />
    <glyph glyph-name="Oacute" unicode="&#xd3;" horiz-adv-x="684" 
d="M464 663q91 0 150 -67.5t59 -178.5q0 -105 -59 -220.5t-153 -170.5q-78 -46 -162 -46q-99 0 -155 56q-68 68 -68 183q0 93 49 200.5t133 171.5q93 72 206 72zM464 635q-73 0 -144 -67q-74 -70 -116.5 -178.5t-42.5 -225.5q0 -29 6.5 -54.5t21 -49.5t42 -38t64.5 -14
q66 0 140 67q54 48 104.5 165.5t50.5 225.5q0 28 -5.5 54.5t-18.5 54t-39.5 44t-62.5 16.5zM635 807q0 -9 -27 -25q-113 -64 -153 -81q-29 -10 -35 -4q-8 10 13 28q96 81 143 113q16 11 24 5q10 -4 23 -15t12 -21z" />
    <glyph glyph-name="Ocircumflex" unicode="&#xd4;" horiz-adv-x="684" 
d="M464 663q91 0 150 -67.5t59 -178.5q0 -105 -59 -220.5t-153 -170.5q-78 -46 -162 -46q-99 0 -155 56q-68 68 -68 183q0 93 49 200.5t133 171.5q93 72 206 72zM464 635q-73 0 -144 -67q-74 -70 -116.5 -178.5t-42.5 -225.5q0 -29 6.5 -54.5t21 -49.5t42 -38t64.5 -14
q66 0 140 67q54 48 104.5 165.5t50.5 225.5q0 28 -5.5 54.5t-18.5 54t-39.5 44t-62.5 16.5zM528 826q9 0 21 -19l65 -95q7 -10 5 -15.5t-10 -5.5q-4 0 -22 10q-34 19 -74 52q-5 4 -11 0q-57 -34 -126 -54q-19 -6 -27 -6q-9 0 -6 9q2 8 15 16q92 55 133 87q28 21 37 21z" />
    <glyph glyph-name="Otilde" unicode="&#xd5;" horiz-adv-x="684" 
d="M464 663q91 0 150 -67.5t59 -178.5q0 -105 -59 -220.5t-153 -170.5q-78 -46 -162 -46q-99 0 -155 56q-68 68 -68 183q0 93 49 200.5t133 171.5q93 72 206 72zM464 635q-73 0 -144 -67q-74 -70 -116.5 -178.5t-42.5 -225.5q0 -29 6.5 -54.5t21 -49.5t42 -38t64.5 -14
q66 0 140 67q54 48 104.5 165.5t50.5 225.5q0 28 -5.5 54.5t-18.5 54t-39.5 44t-62.5 16.5zM367 731q19 32 35 46q11 11 28 11q136 0 148 3q9 2 16 7t12.5 11.5t6.5 6.5l10 10q5 -1 12 -13q5 -7 -5 -15l-43 -55q-13 -14 -26 -14q-6 0 -46.5 1t-69.5 0.5t-36 -2.5
q-10 -3 -33 -33q-1 -4 -6 -4t-9.5 6t-4.5 9q0 5 11 25z" />
    <glyph glyph-name="Odieresis" unicode="&#xd6;" horiz-adv-x="684" 
d="M464 663q91 0 150 -67.5t59 -178.5q0 -105 -59 -220.5t-153 -170.5q-78 -46 -162 -46q-99 0 -155 56q-68 68 -68 183q0 93 49 200.5t133 171.5q93 72 206 72zM464 635q-73 0 -144 -67q-74 -70 -116.5 -178.5t-42.5 -225.5q0 -29 6.5 -54.5t21 -49.5t42 -38t64.5 -14
q66 0 140 67q54 48 104.5 165.5t50.5 225.5q0 28 -5.5 54.5t-18.5 54t-39.5 44t-62.5 16.5zM410 797q18 0 28.5 -12t9.5 -32q-1 -18 -17.5 -33t-34.5 -15t-28 12t-9 32t17 34t34 14zM599 797q18 0 27.5 -12t8.5 -32q-1 -19 -17 -33.5t-33 -14.5q-18 0 -28.5 12t-9.5 32
t17 34t35 14z" />
    <glyph glyph-name="multiply" unicode="&#xd7;" horiz-adv-x="624" 
d="M118 427q-8 6 21 35q13 14 29 -2l165 -162q7 -6 13 0l164 169q10 11 19 2q8 -8 13 -17t5.5 -13.5t-1.5 -7.5l-166 -173q-6 -6 4 -16l165 -166q15 -15 -16 -46q-9 -8 -19 2l-176 174q-9 9 -15 0l-161 -161q-10 -10 -14 -11t-12 6t-13 20t-1 17l164 165q7 10 0 17z" />
    <glyph glyph-name="Oslash" unicode="&#xd8;" horiz-adv-x="684" 
d="M461 663q58 0 112 -32q5 -2 10 4l28 39q4 7 16 7q4 0 12 -7.5t5 -12.5l-36 -50q-6 -6 0 -10q67 -67 67 -184q0 -109 -59.5 -223t-148.5 -167q-79 -47 -168 -47q-72 0 -117 28q-5 4 -11 -2l-41 -53q-1 -2 -9 -1.5t-12 3.5q-16 11 -6 21l37 52q4 7 1 12q-65 67 -65 180
q0 96 49 201.5t133 169.5q93 72 203 72zM464 635q-79 0 -150 -67q-155 -146 -155 -403q0 -28 16 -78q5 -9 11 0l362 499q6 8 0 14q-32 35 -84 35zM206 42q36 -34 87 -34q73 0 146 66q56 51 104 157.5t48 225.5q0 58 -16 95q0 1 -1.5 1t-4 -1t-4.5 -2l-359 -496q-6 -8 0 -12z
" />
    <glyph glyph-name="Ugrave" unicode="&#xd9;" horiz-adv-x="718" 
d="M144 636q0 10 30 10q17 0 54.5 -1.5t51.5 -1.5q10 0 47 2t53 2q25 0 25 -11q0 -8 -28 -14q-27 -5 -42 -17.5t-26 -41.5q-23 -60 -86 -290q-35 -129 -8 -177q16 -28 56 -47t80 -19q138 0 190 121q29 68 68 187.5t51 177.5q12 65 3.5 80t-54.5 23q-28 5 -28 14q0 11 27 11
q14 0 39 -0.5t40 -0.5q18 0 56.5 2t56.5 2q26 0 26 -11q2 -10 -28 -15q-34 -5 -50.5 -24t-39.5 -76q-4 -10 -119 -336q-2 -4 -8 -20t-8 -20.5l-7.5 -17.5t-9 -19l-9 -16t-12 -17.5l-13.5 -15.5q-75 -77 -208 -77q-50 0 -98.5 21t-72.5 65q-33 57 -21 121q6 31 91 326
q19 52 12 75.5t-53 29.5q-28 4 -28 16zM440 838q14 0 36 -25q69 -75 84 -96q13 -18 6 -25q-10 -8 -30 5q-56 33 -119 81q-19 14 -19 27q0 12 23 27q13 7 19 6z" />
    <glyph glyph-name="Uacute" unicode="&#xda;" horiz-adv-x="718" 
d="M144 636q0 10 30 10q17 0 54.5 -1.5t51.5 -1.5q10 0 47 2t53 2q25 0 25 -11q0 -8 -28 -14q-27 -5 -42 -17.5t-26 -41.5q-23 -60 -86 -290q-35 -129 -8 -177q16 -28 56 -47t80 -19q138 0 190 121q29 68 68 187.5t51 177.5q12 65 3.5 80t-54.5 23q-28 5 -28 14q0 11 27 11
q14 0 39 -0.5t40 -0.5q18 0 56.5 2t56.5 2q26 0 26 -11q2 -10 -28 -15q-34 -5 -50.5 -24t-39.5 -76q-4 -10 -119 -336q-2 -4 -8 -20t-8 -20.5l-7.5 -17.5t-9 -19l-9 -16t-12 -17.5l-13.5 -15.5q-75 -77 -208 -77q-50 0 -98.5 21t-72.5 65q-33 57 -21 121q6 31 91 326
q19 52 12 75.5t-53 29.5q-28 4 -28 16zM668 797q0 -9 -27 -25q-113 -64 -153 -81q-29 -10 -35 -4q-8 10 13 28q96 81 143 113q16 11 24 5q10 -4 23 -15t12 -21z" />
    <glyph glyph-name="Ucircumflex" unicode="&#xdb;" horiz-adv-x="718" 
d="M144 636q0 10 30 10q17 0 54.5 -1.5t51.5 -1.5q10 0 47 2t53 2q25 0 25 -11q0 -8 -28 -14q-27 -5 -42 -17.5t-26 -41.5q-23 -60 -86 -290q-35 -129 -8 -177q16 -28 56 -47t80 -19q138 0 190 121q29 68 68 187.5t51 177.5q12 65 3.5 80t-54.5 23q-28 5 -28 14q0 11 27 11
q14 0 39 -0.5t40 -0.5q18 0 56.5 2t56.5 2q26 0 26 -11q2 -10 -28 -15q-34 -5 -50.5 -24t-39.5 -76q-4 -10 -119 -336q-2 -4 -8 -20t-8 -20.5l-7.5 -17.5t-9 -19l-9 -16t-12 -17.5l-13.5 -15.5q-75 -77 -208 -77q-50 0 -98.5 21t-72.5 65q-33 57 -21 121q6 31 91 326
q19 52 12 75.5t-53 29.5q-28 4 -28 16zM559 826q9 0 21 -19l65 -95q7 -10 5 -15.5t-10 -5.5q-4 0 -22 10q-34 19 -74 52q-5 4 -11 0q-57 -34 -126 -54q-19 -6 -27 -6q-9 0 -6 9q2 8 15 16q92 55 133 87q28 21 37 21z" />
    <glyph glyph-name="Udieresis" unicode="&#xdc;" horiz-adv-x="718" 
d="M144 636q0 10 30 10q17 0 54.5 -1.5t51.5 -1.5q10 0 47 2t53 2q25 0 25 -11q0 -8 -28 -14q-27 -5 -42 -17.5t-26 -41.5q-23 -60 -86 -290q-35 -129 -8 -177q16 -28 56 -47t80 -19q138 0 190 121q29 68 68 187.5t51 177.5q12 65 3.5 80t-54.5 23q-28 5 -28 14q0 11 27 11
q14 0 39 -0.5t40 -0.5q18 0 56.5 2t56.5 2q26 0 26 -11q2 -10 -28 -15q-34 -5 -50.5 -24t-39.5 -76q-4 -10 -119 -336q-2 -4 -8 -20t-8 -20.5l-7.5 -17.5t-9 -19l-9 -16t-12 -17.5l-13.5 -15.5q-75 -77 -208 -77q-50 0 -98.5 21t-72.5 65q-33 57 -21 121q6 31 91 326
q19 52 12 75.5t-53 29.5q-28 4 -28 16zM431 793q18 0 28.5 -12t9.5 -32q-1 -18 -17.5 -33t-34.5 -15t-28 12t-9 32t17 34t34 14zM620 793q18 0 27.5 -12t8.5 -32q-1 -19 -17 -33.5t-33 -14.5q-18 0 -28.5 12t-9.5 32t17 34t35 14z" />
    <glyph glyph-name="Yacute" unicode="&#xdd;" horiz-adv-x="594" 
d="M117 636q1 10 29 10q10 0 49 -1.5t58 -1.5q28 0 55.5 1t33.5 1q22 0 24 -9q0 -10 -24 -15q-34 -7 -41.5 -20.5t-2.5 -35.5q2 -7 14.5 -62.5t23 -96t17.5 -57.5q2 -4 8 -2q153 176 181 219q30 46 -20 56q-24 3 -24 15q0 9 29 9q4 0 29 -1.5t49 -1.5q13 0 51.5 2t44.5 2
q25 0 25 -9q0 -10 -30 -17q-40 -8 -60 -22t-76 -70q-58 -55 -184 -205q-21 -25 -32 -63q-45 -165 -47 -176q1 -7 -0.5 -19.5t12.5 -26.5t41 -18q31 -4 31 -15t-35 -11q-12 0 -61.5 2.5t-57.5 2.5q-18 0 -55.5 -2.5t-56.5 -2.5q-28 0 -28 13q0 9 30 13q51 5 68 23t35 72
l43 130q17 52 12 85q-9 70 -50 196q-18 57 -32.5 73.5t-50.5 21.5q-25 4 -25 14zM605 806q0 -9 -27 -25q-113 -64 -153 -81q-29 -10 -35 -4q-8 10 13 28q96 81 143 113q16 11 24 5q10 -4 23 -15t12 -21z" />
    <glyph glyph-name="Thorn" unicode="&#xde;" horiz-adv-x="544" 
d="M167 637q0 9 27 9q9 0 38.5 -1.5t46.5 -1.5q25 0 74.5 1.5t57.5 1.5q18 0 18 -10q2 -10 -25 -14q-48 -7 -63 -23.5t-36 -88.5q-2 -8 7 -8q4 0 15 0.5t17 0.5q90 0 135 -35q58 -45 58 -118q0 -69 -40 -115.5t-83 -65.5q-61 -27 -127 -27q-27 0 -27 16q0 7 27 12
q67 8 114.5 59t47.5 120q0 61 -32.5 93.5t-79.5 32.5q-27 0 -36 -2.5t-13 -12.5q-5 -14 -49 -168t-52 -185q-11 -50 -1.5 -65.5t53.5 -21.5q24 -3 24 -12q0 -13 -32 -13q-19 0 -60 2.5t-59 2.5q-22 0 -58 -2t-45 -2q-30 0 -30 12q0 9 31 14q38 6 54 20t34 61q51 153 130 421
q18 55 13.5 72.5t-47.5 24.5q-25 4 -27 16z" />
    <glyph glyph-name="germandbls" unicode="&#xdf;" horiz-adv-x="481" 
d="M469 714q38 0 64 -9.5t37.5 -25t15.5 -29.5t4 -29q-1 -22 -18.5 -46t-35.5 -37l-35 -25.5l-40 -28.5q-65 -42 -89 -72t-24 -69q0 -11 38 -90q32 -69 31 -105q-1 -21 -16.5 -53t-42.5 -57q-26 -24 -62.5 -39t-59.5 -15q-20 0 -37 14t-17 31q0 25 25 45q9 8 24 -7
q12 -14 32 -23.5t33 -9.5q24 0 42.5 22.5t18.5 44.5q0 29 -30 96l-17 33.5t-16.5 33.5t-10 28t-4.5 29q0 39 34.5 78t116.5 96q45 31 66.5 58t22.5 58q1 27 -17.5 47t-61.5 20q-87 0 -139.5 -69t-102.5 -213q-57 -165 -99 -395q-18 -104 -55.5 -162t-95.5 -92
q-47 -29 -82 -29q-26 0 -49 13.5t-23 36.5q0 9 5.5 21t12.5 16q16 12 22 5q17 -16 41.5 -29t40.5 -13q29 0 47.5 21t30.5 73l10 41.5l22 95l29 126.5q74 329 178 458q107 131 236 131z" />
    <glyph glyph-name="agrave" unicode="&#xe0;" horiz-adv-x="449" 
d="M303 389q19 0 40 -23q1 -1 4 0t4 4l16 28q1 2 6.5 5.5t7.5 3.5q16 0 38 -14q3 -5 -2 -14q-18 -41 -59 -147.5t-53 -150.5q-7 -27 19 -27q14 0 36 14.5t39 33.5q17 18 20 5q0 -12 -9 -25q-28 -45 -68 -71.5t-74 -26.5q-38 0 -40 37q0 4 35 98q3 7 -2 11q-2 3 -5 0
q-50 -53 -112 -99.5t-106 -46.5q-14 0 -29.5 12t-15.5 26q0 42 43 109q90 148 220 238q28 20 47 20zM287 336q-25 0 -56.5 -20t-59.5 -56q-31 -38 -61.5 -97.5t-30.5 -92.5q0 -9 6.5 -19t13.5 -10q37 0 101 69q65 66 118 178q10 26 5 31q-19 17 -36 17zM330 663q12 0 15 -48
q7 -97 6 -140q0 -26 -12 -26q-5 0 -10.5 7.5t-7.5 14.5q-33 122 -35 130q-3 15 -1 28q2 9 18 21.5t27 12.5z" />
    <glyph glyph-name="aacute" unicode="&#xe1;" horiz-adv-x="449" 
d="M303 389q19 0 40 -23q1 -1 4 0t4 4l16 28q1 2 6.5 5.5t7.5 3.5q16 0 38 -14q3 -5 -2 -14q-18 -41 -59 -147.5t-53 -150.5q-7 -27 19 -27q14 0 36 14.5t39 33.5q17 18 20 5q0 -12 -9 -25q-28 -45 -68 -71.5t-74 -26.5q-38 0 -40 37q0 4 35 98q3 7 -2 11q-2 3 -5 0
q-50 -53 -112 -99.5t-106 -46.5q-14 0 -29.5 12t-15.5 26q0 42 43 109q90 148 220 238q28 20 47 20zM287 336q-25 0 -56.5 -20t-59.5 -56q-31 -38 -61.5 -97.5t-30.5 -92.5q0 -9 6.5 -19t13.5 -10q37 0 101 69q65 66 118 178q10 26 5 31q-19 17 -36 17zM395 616q12 16 22 16
q8 0 17.5 -16t8.5 -30q-2 -9 -14 -25q-37 -44 -99 -104q-16 -16 -28 -16q-6 1 -6 10.5t5 16.5q28 50 94 148z" />
    <glyph glyph-name="acircumflex" unicode="&#xe2;" horiz-adv-x="449" 
d="M303 389q19 0 40 -23q1 -1 4 0t4 4l16 28q1 2 6.5 5.5t7.5 3.5q16 0 38 -14q3 -5 -2 -14q-18 -41 -59 -147.5t-53 -150.5q-7 -27 19 -27q14 0 36 14.5t39 33.5q17 18 20 5q0 -12 -9 -25q-28 -45 -68 -71.5t-74 -26.5q-38 0 -40 37q0 4 35 98q3 7 -2 11q-2 3 -5 0
q-50 -53 -112 -99.5t-106 -46.5q-14 0 -29.5 12t-15.5 26q0 42 43 109q90 148 220 238q28 20 47 20zM287 336q-25 0 -56.5 -20t-59.5 -56q-31 -38 -61.5 -97.5t-30.5 -92.5q0 -9 6.5 -19t13.5 -10q37 0 101 69q65 66 118 178q10 26 5 31q-19 17 -36 17zM382 640q10 0 13 -26
q10 -68 17 -145q1 -9 -3 -16.5t-10 -7.5q-9 0 -16 24l-11.5 34t-13.5 44q-2 7 -9 1q-10 -11 -25.5 -26l-36.5 -35l-32 -30q-12 -12 -24 -12q-5 0 -6.5 4t1 10.5t7.5 13.5q53 57 115 140q24 27 34 27z" />
    <glyph glyph-name="atilde" unicode="&#xe3;" horiz-adv-x="449" 
d="M303 389q19 0 40 -23q1 -1 4 0t4 4l16 28q1 2 6.5 5.5t7.5 3.5q16 0 38 -14q3 -5 -2 -14q-18 -41 -59 -147.5t-53 -150.5q-7 -27 19 -27q14 0 36 14.5t39 33.5q17 18 20 5q0 -12 -9 -25q-28 -45 -68 -71.5t-74 -26.5q-38 0 -40 37q0 4 35 98q3 7 -2 11q-2 3 -5 0
q-50 -53 -112 -99.5t-106 -46.5q-14 0 -29.5 12t-15.5 26q0 42 43 109q90 148 220 238q28 20 47 20zM287 336q-25 0 -56.5 -20t-59.5 -56q-31 -38 -61.5 -97.5t-30.5 -92.5q0 -9 6.5 -19t13.5 -10q37 0 101 69q65 66 118 178q10 26 5 31q-19 17 -36 17zM277 521
q-11 0 -32 -23q-6 -6 -10 -6q-2 0 -8 7t-6 9q0 1 8.5 12t24.5 27.5t33 27.5q11 5 18 4q37 -11 95 -11q22 0 31 7q14 10 29 28q2 3 11 -3.5t9 -10.5q0 -7 -5 -9l-63 -64q-7 -7 -13 -7q-5 0 -52 6t-70 6z" />
    <glyph glyph-name="adieresis" unicode="&#xe4;" horiz-adv-x="449" 
d="M303 389q19 0 40 -23q1 -1 4 0t4 4l16 28q1 2 6.5 5.5t7.5 3.5q16 0 38 -14q3 -5 -2 -14q-18 -41 -59 -147.5t-53 -150.5q-7 -27 19 -27q14 0 36 14.5t39 33.5q17 18 20 5q0 -12 -9 -25q-28 -45 -68 -71.5t-74 -26.5q-38 0 -40 37q0 4 35 98q3 7 -2 11q-2 3 -5 0
q-50 -53 -112 -99.5t-106 -46.5q-14 0 -29.5 12t-15.5 26q0 42 43 109q90 148 220 238q28 20 47 20zM287 336q-25 0 -56.5 -20t-59.5 -56q-31 -38 -61.5 -97.5t-30.5 -92.5q0 -9 6.5 -19t13.5 -10q37 0 101 69q65 66 118 178q10 26 5 31q-19 17 -36 17zM278 604q15 0 25 -12
t10 -27q1 -20 -12.5 -35t-31.5 -15q-16 0 -24.5 12t-8.5 29q0 21 12.5 34.5t29.5 13.5zM425 604q15 0 24.5 -12t9.5 -27q1 -20 -12 -35t-31 -15q-16 0 -25.5 12t-9.5 29q0 21 14 34.5t30 13.5z" />
    <glyph glyph-name="aring" unicode="&#xe5;" horiz-adv-x="449" 
d="M303 389q19 0 40 -23q1 -1 4 0t4 4l16 28q1 2 6.5 5.5t7.5 3.5q16 0 38 -14q3 -5 -2 -14q-18 -41 -59 -147.5t-53 -150.5q-7 -27 19 -27q14 0 36 14.5t39 33.5q17 18 20 5q0 -12 -9 -25q-28 -45 -68 -71.5t-74 -26.5q-38 0 -40 37q0 4 35 98q3 7 -2 11q-2 3 -5 0
q-50 -53 -112 -99.5t-106 -46.5q-14 0 -29.5 12t-15.5 26q0 42 43 109q90 148 220 238q28 20 47 20zM287 336q-25 0 -56.5 -20t-59.5 -56q-31 -38 -61.5 -97.5t-30.5 -92.5q0 -9 6.5 -19t13.5 -10q37 0 101 69q65 66 118 178q10 26 5 31q-19 17 -36 17zM363 635q36 0 56 -26
t14 -59q-5 -33 -31 -56t-61 -23q-36 0 -56.5 25.5t-15.5 58.5t32 56.5t62 23.5zM359 605q-19 0 -34 -14t-18 -36q-3 -24 8 -39t30 -15q45 0 52 51q2 21 -8.5 37t-29.5 16z" />
    <glyph glyph-name="ae" unicode="&#xe6;" horiz-adv-x="452" 
d="M370 404q31 0 49 -18t18 -43q0 -88 -186 -176q-5 -3 -5 -14q-5 -111 55 -111q36 0 77 41q7 7 12 7q6 0 4 -9q-1 -25 -51 -61t-91 -36q-59 0 -72 95q-2 2 -7 -2q-35 -35 -79 -64t-76 -29q-15 0 -28 12t-13 37q0 53 81 142.5t152 139.5l47 37q62 52 113 52zM79 41
q16 0 43 22t44 47q12 18 12 31q3 52 29 128q3 8 -1 8q-2 1 -4 -1q-37 -26 -92 -90t-55 -113q0 -32 24 -32zM357 378q-40 0 -72 -60.5t-37 -116.5q0 -3 1.5 -5t3.5 -1q40 18 84 68.5t44 81.5q0 33 -24 33z" />
    <glyph glyph-name="ccedilla" unicode="&#xe7;" horiz-adv-x="313" 
d="M140 40q49 0 100 48q4 3 8.5 3t4.5 -3q0 -14 -10 -26q-24 -30 -69 -57q-76 -43 -76 -87q0 -14 21 -49q11 -19 11 -41q0 -14 -15 -31.5t-34 -29.5q-25 -15 -40 -15q-18 0 -36 14.5t-18 33.5q0 21 10 21q4 0 15 -10q27 -22 44 -22q19 0 19 17q0 14 -23 54q-14 23 -14 38
q0 14 15 36q13 20 65 56q-8 -2 -19 -2q-35 0 -56 30.5t-21 64.5q0 73 44 158q57 107 134 146q33 17 74 17q25 0 43 -9q11 -4 11 -20q0 -22 -14 -39t-23 -17t-15 11q-21 44 -44 44q-36 0 -77 -79q-60 -109 -60 -202q0 -24 8.5 -36.5t16.5 -14.5t20 -2z" />
    <glyph glyph-name="egrave" unicode="&#xe8;" horiz-adv-x="345" 
d="M276 404q39 0 56 -19t17 -42q0 -24 -21 -51t-56 -47q-46 -25 -146 -54q-13 -4 -16 -15q-13 -35 -13 -78q0 -60 53 -60q47 0 98 47q15 15 25 15q6 0 6 -6q0 -9 -12 -25q-25 -29 -70.5 -56t-94.5 -27q-22 0 -49.5 30t-27.5 74q0 54 30 120.5t80 118.5q74 75 141 75z
M272 380q-36 0 -83 -55t-61 -100q-1 -1 -1 -3.5t1 -4t3 -1.5q158 55 158 139q0 25 -17 25zM283 655q12 0 15 -48q7 -97 6 -140q0 -26 -12 -26t-18 22q-33 122 -35 130q-3 15 -1 28q2 9 18 21.5t27 12.5z" />
    <glyph glyph-name="eacute" unicode="&#xe9;" horiz-adv-x="345" 
d="M276 404q39 0 56 -19t17 -42q0 -24 -21 -51t-56 -47q-46 -25 -146 -54q-13 -4 -16 -15q-13 -35 -13 -78q0 -60 53 -60q47 0 98 47q15 15 25 15q6 0 6 -6q0 -9 -12 -25q-25 -29 -70.5 -56t-94.5 -27q-22 0 -49.5 30t-27.5 74q0 54 30 120.5t80 118.5q74 75 141 75z
M272 380q-36 0 -83 -55t-61 -100q-1 -1 -1 -3.5t1 -4t3 -1.5q158 55 158 139q0 25 -17 25zM352 616q12 16 22 16q8 0 17.5 -16t8.5 -30q-2 -9 -14 -25q-37 -44 -99 -104q-16 -16 -28 -16q-6 1 -6 10.5t5 16.5q28 50 94 148z" />
    <glyph glyph-name="ecircumflex" unicode="&#xea;" horiz-adv-x="345" 
d="M276 404q39 0 56 -19t17 -42q0 -24 -21 -51t-56 -47q-46 -25 -146 -54q-13 -4 -16 -15q-13 -35 -13 -78q0 -60 53 -60q47 0 98 47q15 15 25 15q6 0 6 -6q0 -9 -12 -25q-25 -29 -70.5 -56t-94.5 -27q-22 0 -49.5 30t-27.5 74q0 54 30 120.5t80 118.5q74 75 141 75z
M272 380q-36 0 -83 -55t-61 -100q-1 -1 -1 -3.5t1 -4t3 -1.5q158 55 158 139q0 25 -17 25zM333 640q10 0 13 -26q10 -68 17 -145q1 -9 -3 -16.5t-10 -7.5q-9 0 -16 24l-11.5 34t-13.5 44q-2 7 -9 1q-10 -11 -25.5 -26l-36.5 -35l-32 -30q-12 -12 -24 -12q-5 0 -6.5 4t1 10.5
t7.5 13.5q53 57 115 140q24 27 34 27z" />
    <glyph glyph-name="edieresis" unicode="&#xeb;" horiz-adv-x="345" 
d="M276 404q39 0 56 -19t17 -42q0 -24 -21 -51t-56 -47q-46 -25 -146 -54q-13 -4 -16 -15q-13 -35 -13 -78q0 -60 53 -60q47 0 98 47q15 15 25 15q6 0 6 -6q0 -9 -12 -25q-25 -29 -70.5 -56t-94.5 -27q-22 0 -49.5 30t-27.5 74q0 54 30 120.5t80 118.5q74 75 141 75z
M272 380q-36 0 -83 -55t-61 -100q-1 -1 -1 -3.5t1 -4t3 -1.5q158 55 158 139q0 25 -17 25zM223 604q15 0 25 -12t10 -27q1 -20 -12.5 -35t-31.5 -15q-16 0 -24.5 12t-8.5 29q0 21 12.5 34.5t29.5 13.5zM370 604q15 0 24.5 -12t9.5 -27q1 -20 -12 -35t-31 -15q-16 0 -25.5 12
t-9.5 29q0 21 14 34.5t30 13.5z" />
    <glyph glyph-name="igrave" unicode="&#xec;" horiz-adv-x="268" 
d="M206 404q6 0 14.5 -8.5t8.5 -15.5q0 -9 -10 -34l-114 -272q-2 -5 1 -11t10 -6q11 0 42 24.5t51 47.5q13 14 23 14q5 0 5 -6q0 -15 -18 -36q-36 -42 -89 -79.5t-82 -37.5q-11 0 -20.5 8.5t-9.5 16.5q0 7 5 18l124 295q3 6 -0.5 11t-7.5 3q-36 -12 -75 -46q-4 -4 -8 -2
t-4 7q0 10 13 25q17 21 67 52.5t74 31.5zM220 655q12 0 15 -48q7 -97 6 -140q0 -26 -12 -26q-5 0 -10.5 7.5t-7.5 14.5q-33 122 -35 130q-3 15 -1 28q2 9 18 21.5t27 12.5z" />
    <glyph glyph-name="iacute" unicode="&#xed;" horiz-adv-x="268" 
d="M206 404q6 0 14.5 -8.5t8.5 -15.5q0 -9 -10 -34l-114 -272q-2 -5 1 -11t10 -6q11 0 42 24.5t51 47.5q13 14 23 14q5 0 5 -6q0 -15 -18 -36q-36 -42 -89 -79.5t-82 -37.5q-11 0 -20.5 8.5t-9.5 16.5q0 7 5 18l124 295q3 6 -0.5 11t-7.5 3q-36 -12 -75 -46q-4 -4 -8 -2
t-4 7q0 10 13 25q17 21 67 52.5t74 31.5zM281 616q12 16 22 16q8 0 17.5 -16t8.5 -30q-2 -9 -14 -25q-37 -44 -99 -104q-16 -16 -28 -16q-6 1 -6 10.5t5 16.5q28 50 94 148z" />
    <glyph glyph-name="icircumflex" unicode="&#xee;" horiz-adv-x="268" 
d="M206 404q6 0 14.5 -8.5t8.5 -15.5q0 -9 -10 -34l-114 -272q-2 -5 1 -11t10 -6q11 0 42 24.5t51 47.5q13 14 23 14q5 0 5 -6q0 -15 -18 -36q-36 -42 -89 -79.5t-82 -37.5q-11 0 -20.5 8.5t-9.5 16.5q0 7 5 18l124 295q3 6 -0.5 11t-7.5 3q-36 -12 -75 -46q-4 -4 -8 -2
t-4 7q0 10 13 25q17 21 67 52.5t74 31.5zM254 640q10 0 13 -26q10 -68 17 -145q1 -9 -3 -16.5t-10 -7.5q-9 0 -16 24q-2 9 -10.5 34l-14.5 44q-2 7 -9 1q-10 -11 -25.5 -26l-36.5 -35l-32 -30q-12 -12 -24 -12q-5 0 -6.5 4t1 10.5t7.5 13.5q53 57 115 140q24 27 34 27z" />
    <glyph glyph-name="idieresis" unicode="&#xef;" horiz-adv-x="268" 
d="M206 404q6 0 14.5 -8.5t8.5 -15.5q0 -9 -10 -34l-114 -272q-2 -5 1 -11t10 -6q11 0 42 24.5t51 47.5q13 14 23 14q5 0 5 -6q0 -15 -18 -36q-36 -42 -89 -79.5t-82 -37.5q-11 0 -20.5 8.5t-9.5 16.5q0 7 5 18l124 295q3 6 -0.5 11t-7.5 3q-36 -12 -75 -46q-4 -4 -8 -2
t-4 7q0 10 13 25q17 21 67 52.5t74 31.5zM144 604q15 0 25 -12t10 -27q1 -20 -12.5 -35t-31.5 -15q-16 0 -24.5 12t-8.5 29q0 21 12.5 34.5t29.5 13.5zM291 604q15 0 24.5 -12t9.5 -27q1 -20 -12 -35t-31 -15q-16 0 -25.5 12t-9.5 29q0 21 14 34.5t30 13.5z" />
    <glyph glyph-name="eth" unicode="&#xf0;" horiz-adv-x="397" 
d="M276 401q10 0 22 -3q4 -1 6 1.5t2 8.5q-1 31 -8 69.5t-17 48.5q-5 3 -8 2l-81 -37q-2 -1 -4.5 -1t-4.5 1.5t-2 4.5q0 19 11 25q6 3 23.5 10.5t32 14.5t19.5 12q4 4 2 7q-21 45 -47.5 78t-41 45.5t-13.5 16.5q0 10 14 10q21 0 61.5 -40.5t67.5 -87.5q5 -9 12 -4l87 43
q12 6 13 -4q0 -21 -12 -29q-5 -3 -24 -11.5t-32.5 -15.5t-17.5 -13q-3 -5 -2 -8q37 -96 37 -197q0 -115 -48 -204.5t-114 -129.5q-34 -22 -77 -28q-14 -2 -23 -2q-33 1 -58 30t-25 75q0 54 33.5 130.5t92.5 126.5q64 55 124 55zM272 376q-26 0 -55 -24q-39 -29 -81 -120
t-42 -172q0 -19 10.5 -32.5t28.5 -13.5q34 0 69 43q36 44 70.5 131.5t34.5 150.5q0 13 -11 25t-24 12z" />
    <glyph glyph-name="ntilde" unicode="&#xf1;" horiz-adv-x="507" 
d="M395 404q27 0 42 -17.5t15 -39.5q0 -23 -14 -59q-15 -39 -48 -111.5t-42 -88.5q-14 -27 3 -27q26 0 90 60q4 3 8.5 5t8 1t3.5 -4q0 -10 -12 -29q-25 -38 -80.5 -74t-83.5 -36q-18 0 -32 17q-11 11 1 33q13 24 72.5 148t65.5 145q7 23 2.5 33.5t-16.5 10.5q-42 0 -113 -86
q-19 -21 -52.5 -70l-68.5 -103t-45 -68q-39 -61 -51 -61q-9 0 -18.5 10t-9.5 18q-1 10 31 83l31.5 68l41.5 90.5t32 76.5q8 16 -9 16q-14 0 -30 -8.5t-21.5 -13.5l-25.5 -23q-10 -10 -13 -10q-6 0 -6 10q0 28 37 66t93 38q24 0 37 -20q5 -9 -2 -26l-61 -145q-3 -6 3 -6.5
t9 5.5q17 25 58.5 73.5t65.5 68.5q58 50 104 50zM265 514q-11 0 -32 -23q-6 -6 -10 -6q-2 0 -8 7t-6 9q0 1 8.5 12t24.5 27.5t33 27.5q11 5 18 4q37 -11 95 -11q22 0 31 7q14 10 29 28q2 3 11 -3.5t9 -10.5q0 -6 -5 -9l-63 -64q-7 -7 -13 -7q-5 0 -52 6t-70 6z" />
    <glyph glyph-name="ograve" unicode="&#xf2;" horiz-adv-x="401" 
d="M273 404q42 0 68 -35.5t26 -76.5q0 -93 -52.5 -172.5t-121.5 -114.5q-44 -21 -83 -21q-32 0 -59.5 29.5t-27.5 77.5q0 53 34 131.5t92 128.5q60 53 124 53zM265 378q-34 0 -72 -45q-38 -44 -69 -125t-31 -152q0 -19 10 -31.5t28 -12.5q30 0 66 45q36 44 70.5 127
t34.5 146q0 48 -37 48zM284 655q12 0 15 -48q7 -97 6 -140q0 -26 -12 -26q-5 0 -10.5 7.5t-7.5 14.5q-33 122 -35 130q-3 15 -1 28q2 9 18 21.5t27 12.5z" />
    <glyph glyph-name="oacute" unicode="&#xf3;" horiz-adv-x="401" 
d="M273 404q42 0 68 -35.5t26 -76.5q0 -93 -52.5 -172.5t-121.5 -114.5q-44 -21 -83 -21q-32 0 -59.5 29.5t-27.5 77.5q0 53 34 131.5t92 128.5q60 53 124 53zM265 378q-34 0 -72 -45q-38 -44 -69 -125t-31 -152q0 -19 10 -31.5t28 -12.5q30 0 66 45q36 44 70.5 127
t34.5 146q0 48 -37 48zM357 616q12 16 22 16q8 0 17.5 -16t8.5 -30q-2 -9 -14 -25q-37 -44 -99 -104q-16 -16 -28 -16q-6 1 -6 10.5t5 16.5q28 50 94 148z" />
    <glyph glyph-name="ocircumflex" unicode="&#xf4;" horiz-adv-x="401" 
d="M273 404q42 0 68 -35.5t26 -76.5q0 -93 -52.5 -172.5t-121.5 -114.5q-44 -21 -83 -21q-32 0 -59.5 29.5t-27.5 77.5q0 53 34 131.5t92 128.5q60 53 124 53zM265 378q-34 0 -72 -45q-38 -44 -69 -125t-31 -152q0 -19 10 -31.5t28 -12.5q30 0 66 45q36 44 70.5 127
t34.5 146q0 48 -37 48zM335 640q10 0 13 -26q10 -68 17 -145q1 -9 -3 -16.5t-10 -7.5q-9 0 -16 24q-2 9 -10.5 34l-14.5 44q-2 7 -9 1q-10 -11 -25.5 -26l-36.5 -35l-32 -30q-12 -12 -24 -12q-5 0 -6.5 4t1 10.5t7.5 13.5q53 57 115 140q24 27 34 27z" />
    <glyph glyph-name="otilde" unicode="&#xf5;" horiz-adv-x="401" 
d="M273 404q42 0 68 -35.5t26 -76.5q0 -93 -52.5 -172.5t-121.5 -114.5q-44 -21 -83 -21q-32 0 -59.5 29.5t-27.5 77.5q0 53 34 131.5t92 128.5q60 53 124 53zM265 378q-34 0 -72 -45q-38 -44 -69 -125t-31 -152q0 -19 10 -31.5t28 -12.5q30 0 66 45q36 44 70.5 127
t34.5 146q0 48 -37 48zM231 522q-11 0 -32 -23q-6 -6 -10 -6q-2 0 -8 7t-6 9q0 1 8.5 12t24.5 27.5t33 27.5q11 5 18 4q37 -11 95 -11q22 0 31 7q14 10 29 28q2 3 11 -3.5t9 -10.5q0 -6 -5 -9l-63 -64q-7 -7 -13 -7q-5 0 -52 6t-70 6z" />
    <glyph glyph-name="odieresis" unicode="&#xf6;" horiz-adv-x="401" 
d="M273 404q42 0 68 -35.5t26 -76.5q0 -93 -52.5 -172.5t-121.5 -114.5q-44 -21 -83 -21q-32 0 -59.5 29.5t-27.5 77.5q0 53 34 131.5t92 128.5q60 53 124 53zM265 378q-34 0 -72 -45q-38 -44 -69 -125t-31 -152q0 -19 10 -31.5t28 -12.5q30 0 66 45q36 44 70.5 127
t34.5 146q0 48 -37 48zM232 604q15 0 25 -12t10 -27q1 -20 -12.5 -35t-31.5 -15q-16 0 -24.5 12t-8.5 29q0 21 12.5 34.5t29.5 13.5zM379 604q15 0 24.5 -12t9.5 -27q1 -20 -12 -35t-31 -15q-16 0 -25.5 12t-9.5 29q0 21 14 34.5t30 13.5z" />
    <glyph glyph-name="divide" unicode="&#xf7;" horiz-adv-x="624" 
d="M329 139q22 0 37 -15.5t15 -35.5q0 -23 -15 -39t-37 -16t-36.5 16t-14.5 39q0 20 14.5 35.5t36.5 15.5zM329 364q-20 0 -34.5 15t-14.5 37t14.5 37.5t34.5 15.5q24 0 39 -15.5t15 -37.5t-15 -37t-39 -15zM567 280q9 0 12 -2.5t3 -9.5q0 -17 -4.5 -28.5t-9.5 -11.5h-469
q-13 0 -16.5 2.5t-3.5 12.5q0 11 4.5 24t9.5 13h474z" />
    <glyph glyph-name="oslash" unicode="&#xf8;" horiz-adv-x="417" 
d="M282 406q23 0 41 -9q4 -2 7 2l13 16q12 13 16 13q7 0 12.5 -7t3.5 -11l-21 -33q-2 -3 2 -7q27 -35 27 -76q0 -94 -51.5 -172.5t-119.5 -112.5q-42 -21 -90 -21q-15 0 -35 10q-4 2 -7 -3l-21 -29q-5 -5 -9 -5q-7 0 -11.5 10.5t-1.5 15.5l19 24q3 7 1 9q-28 34 -28 80
q0 56 31.5 129t89.5 123q61 54 132 54zM321 333l-210 -294q-5 -7 -2 -10q12 -10 30 -10q25 0 42.5 9t39.5 35q37 45 70 121t34 138q-1 10 -4 11zM277 380q-32 0 -74 -42q-45 -46 -77.5 -120.5t-32.5 -148.5h4l1 1l208 294q4 4 0 8q-11 8 -29 8z" />
    <glyph glyph-name="ugrave" unicode="&#xf9;" horiz-adv-x="494" 
d="M212 404q11 0 17 -16q3 -8 -3 -19q-15 -28 -59.5 -141.5t-50.5 -137.5q-10 -39 10 -39q29 0 89.5 63.5t100.5 130.5q27 43 76 132q15 27 29 27q7 0 18 -8t11 -16q0 -12 -13 -41q-78 -192 -99 -256q-7 -20 8 -20q12 0 40.5 19t58.5 51q11 11 18 6q1 -1 1 -3q0 -6 -8 -22
q-21 -41 -79.5 -85.5t-89.5 -44.5q-8 0 -17 9.5t-9 17.5q0 3 4 17q2 6 25 65.5t26 69.5q5 16 0 16q-4 -1 -13 -11q-37 -44 -90 -90t-95 -73q-33 -21 -57 -21q-17 0 -27 12q-14 16 -4 43q10 28 52.5 133t59.5 142q7 14 -3 14q-6 0 -66 -40q-7 -5 -14 -5.5t-8 4.5q0 7 7 16
q12 22 67 61.5t87 39.5zM313 655q12 0 15 -48q7 -97 6 -140q0 -26 -12 -26t-18 22q-33 122 -35 130q-3 15 -1 28q2 9 18 21.5t27 12.5z" />
    <glyph glyph-name="uacute" unicode="&#xfa;" horiz-adv-x="494" 
d="M212 404q11 0 17 -16q3 -8 -3 -19q-15 -28 -59.5 -141.5t-50.5 -137.5q-10 -39 10 -39q29 0 89.5 63.5t100.5 130.5q27 43 76 132q15 27 29 27q7 0 18 -8t11 -16q0 -12 -13 -41q-78 -192 -99 -256q-7 -20 8 -20q12 0 40.5 19t58.5 51q11 11 18 6q1 -1 1 -3q0 -6 -8 -22
q-21 -41 -79.5 -85.5t-89.5 -44.5q-8 0 -17 9.5t-9 17.5q0 3 4 17q2 6 25 65.5t26 69.5q5 16 0 16q-4 -1 -13 -11q-37 -44 -90 -90t-95 -73q-33 -21 -57 -21q-17 0 -27 12q-14 16 -4 43q10 28 52.5 133t59.5 142q7 14 -3 14q-6 0 -66 -40q-7 -5 -14 -5.5t-8 4.5q0 7 7 16
q12 22 67 61.5t87 39.5zM392 616q12 16 22 16q8 0 17.5 -16t8.5 -30q-2 -9 -14 -25q-37 -44 -99 -104q-16 -16 -28 -16q-6 1 -6 10.5t5 16.5q28 50 94 148z" />
    <glyph glyph-name="ucircumflex" unicode="&#xfb;" horiz-adv-x="494" 
d="M212 404q11 0 17 -16q3 -8 -3 -19q-15 -28 -59.5 -141.5t-50.5 -137.5q-10 -39 10 -39q29 0 89.5 63.5t100.5 130.5q27 43 76 132q15 27 29 27q7 0 18 -8t11 -16q0 -12 -13 -41q-78 -192 -99 -256q-7 -20 8 -20q12 0 40.5 19t58.5 51q11 11 18 6q1 -1 1 -3q0 -6 -8 -22
q-21 -41 -79.5 -85.5t-89.5 -44.5q-8 0 -17 9.5t-9 17.5q0 3 4 17q2 6 25 65.5t26 69.5q5 16 0 16q-4 -1 -13 -11q-37 -44 -90 -90t-95 -73q-33 -21 -57 -21q-17 0 -27 12q-14 16 -4 43q10 28 52.5 133t59.5 142q7 14 -3 14q-6 0 -66 -40q-7 -5 -14 -5.5t-8 4.5q0 7 7 16
q12 22 67 61.5t87 39.5zM378 640q10 0 13 -26q10 -68 17 -145q1 -9 -3 -16.5t-10 -7.5q-9 0 -16 24q-2 9 -10.5 34l-14.5 44q-2 7 -9 1q-10 -11 -25.5 -26l-36.5 -35l-32 -30q-12 -12 -24 -12q-5 0 -6.5 4t1 10.5t7.5 13.5q53 57 115 140q24 27 34 27z" />
    <glyph glyph-name="udieresis" unicode="&#xfc;" horiz-adv-x="494" 
d="M212 404q11 0 17 -16q3 -8 -3 -19q-15 -28 -59.5 -141.5t-50.5 -137.5q-10 -39 10 -39q29 0 89.5 63.5t100.5 130.5q27 43 76 132q15 27 29 27q7 0 18 -8t11 -16q0 -12 -13 -41q-78 -192 -99 -256q-7 -20 8 -20q12 0 40.5 19t58.5 51q11 11 18 6q1 -1 1 -3q0 -6 -8 -22
q-21 -41 -79.5 -85.5t-89.5 -44.5q-8 0 -17 9.5t-9 17.5q0 3 4 17q2 6 25 65.5t26 69.5q5 16 0 16q-4 -1 -13 -11q-37 -44 -90 -90t-95 -73q-33 -21 -57 -21q-17 0 -27 12q-14 16 -4 43q10 28 52.5 133t59.5 142q7 14 -3 14q-6 0 -66 -40q-7 -5 -14 -5.5t-8 4.5q0 7 7 16
q12 22 67 61.5t87 39.5zM255 604q15 0 25 -12t10 -27q1 -20 -12.5 -35t-31.5 -15q-16 0 -24.5 12t-8.5 29q0 21 12.5 34.5t29.5 13.5zM402 604q15 0 24.5 -12t9.5 -27q1 -20 -12 -35t-31 -15q-16 0 -25.5 12t-9.5 29q0 21 14 34.5t30 13.5z" />
    <glyph glyph-name="yacute" unicode="&#xfd;" horiz-adv-x="384" 
d="M141 404q20 0 35 -24t19 -47q21 -106 10 -276l2 -1q9 1 15 12q90 159 94 326q0 5 6.5 10.5t9.5 5.5q11 0 23.5 -15.5t12.5 -24.5q0 -55 -40 -151t-75 -155q-85 -141 -108 -169q-68 -83 -107 -115q-58 -46 -107 -46q-20 0 -35.5 11.5t-15.5 29.5q0 17 13.5 33.5t27.5 16.5
q9 0 12 -4q5 -3 13 -12.5t16 -14.5t17 -5q41 0 97 64q33 39 53 116t20 167q0 133 -15 182q-1 3 -2.5 9t-3 9l-3.5 7t-5 6t-7 2q-22 0 -59 -74q-12 -24 -18 -24q-7 0 -9 17q-2 40 34 87t80 47zM315 616q12 16 22 16q8 0 17.5 -16t8.5 -30q-2 -9 -14 -25q-37 -44 -99 -104
q-16 -16 -28 -16q-6 1 -6 10.5t5 16.5q28 50 94 148z" />
    <glyph glyph-name="thorn" unicode="&#xfe;" horiz-adv-x="454" 
d="M48 126l159 489q6 29 2 37t-24 20q-12 8 -12 11q0 11 22 17q9 2 57 9.5t55 7.5q4 0 6 -6.5t0 -9.5q-16 -34 -76 -200t-84 -240q-2 -5 3 -6q2 -1 3 1q109 148 200 148q32 0 51 -19q24 -29 24 -63q0 -77 -62 -166.5t-133 -131.5q-67 -41 -112 -41q-31 0 -50 16q-4 2 -8 -7
l-24.5 -79l-19 -60t-9.5 -35q-9 -42 51 -51q23 -4 23 -14q2 -13 -29 -13q-15 0 -44.5 0.5t-43.5 0.5q-18 0 -51.5 -4t-44.5 -4q-22 0 -22 12q0 2 0.5 3t2 2.5t3 2.5t4 2t4.5 1.5l6 1.5t6 2q30 8 41 18t19 32q1 2 13 36l26 75l33.5 99zM333 371q-36 0 -80.5 -45t-80.5 -101
q-68 -107 -66 -157q1 -23 11 -38.5t29 -15.5q25 0 68 39q50 46 103 138t53 149q0 13 -11 22t-26 9z" />
    <glyph glyph-name="ydieresis" unicode="&#xff;" horiz-adv-x="384" 
d="M141 404q20 0 35 -24t19 -47q21 -106 10 -276l2 -1q9 1 15 12q90 159 94 326q0 5 6.5 10.5t9.5 5.5q11 0 23.5 -15.5t12.5 -24.5q0 -55 -40 -151t-75 -155q-85 -141 -108 -169q-68 -83 -107 -115q-58 -46 -107 -46q-20 0 -35.5 11.5t-15.5 29.5q0 17 13.5 33.5t27.5 16.5
q9 0 12 -4q5 -3 13 -12.5t16 -14.5t17 -5q41 0 97 64q33 39 53 116t20 167q0 133 -15 182q-1 3 -2.5 9t-3 9l-3.5 7t-5 6t-7 2q-22 0 -59 -74q-12 -24 -18 -24q-7 0 -9 17q-2 40 34 87t80 47zM188 604q15 0 25 -12t10 -27q1 -20 -12.5 -35t-31.5 -15q-16 0 -24.5 12t-8.5 29
q0 21 12.5 34.5t29.5 13.5zM335 604q15 0 24.5 -12t9.5 -27q1 -20 -12 -35t-31 -15q-16 0 -25.5 12t-9.5 29q0 21 14 34.5t30 13.5z" />
    <glyph glyph-name="Amacron" unicode="&#x100;" horiz-adv-x="636" 
d="M626 665q14 0 2 -32q-27 -69 -34 -98q-7 -33 -29.5 -126.5l-40 -169.5t-25.5 -123q-11 -53 -2 -71t58 -24q19 -3 19 -13q0 -11 -30 -11q-17 0 -40.5 1.5t-42.5 1.5q-44 0 -85 -3.5t-54 -3.5q-8 0 -15.5 3t-6.5 7q0 10 20 14q24 3 39.5 9t24.5 17t13 19.5t9 25.5
q32 107 44 165q1 3 -2 7.5t-7 4.5q-73 0 -142 -9q-19 -2 -45 -28q-33 -33 -99 -128q-44 -67 28 -81q7 -3 7 -6q0 -5 -6.5 -10t-12.5 -5q-20 0 -52 1t-57 1q-12 0 -52 -2t-44 -2q-28 0 -28 14q0 9 25 11q42 1 68.5 14t59.5 49q66 71 159.5 182.5l167.5 203t77 95.5
q20 22 30 37q4 8 6 8q13 2 20 3.5t18.5 6t21 13t17.5 20.5t18 12zM316 290q67 0 131 8q11 2 18 18q7 20 23.5 91t19.5 90q2 12 3 18.5t1 10t-0.5 4.5t-2.5 1q-6 0 -23 -18q-42 -46 -173 -214q-5 -9 3 -9zM497 756l221 5q7 0 7 -16t-12 -33q-5 -8 -17 -8l-215 -6q-3 0 -6.5 3
t-3.5 6q2 25 12 39q1 2 6 6t8 4z" />
    <glyph glyph-name="amacron" unicode="&#x101;" horiz-adv-x="449" 
d="M303 389q19 0 40 -23q1 -1 4 0t4 4l16 28q1 2 6.5 5.5t7.5 3.5q16 0 38 -14q3 -5 -2 -14q-18 -41 -59 -147.5t-53 -150.5q-7 -27 19 -27q14 0 36 14.5t39 33.5q17 18 20 5q0 -12 -9 -25q-28 -45 -68 -71.5t-74 -26.5q-38 0 -40 37q0 4 35 98q3 7 -2 11q-2 3 -5 0
q-50 -53 -112 -99.5t-106 -46.5q-14 0 -29.5 12t-15.5 26q0 42 43 109q90 148 220 238q28 20 47 20zM287 336q-25 0 -56.5 -20t-59.5 -56q-31 -38 -61.5 -97.5t-30.5 -92.5q0 -9 6.5 -19t13.5 -10q37 0 101 69q65 66 118 178q10 26 5 31q-19 17 -36 17zM253 570l198 7
q2 0 4 -2.5t3 -7.5t0 -13q-5 -32 -21 -32l-197 -4q-11 0 -7 18q3 11 9.5 22.5t10.5 11.5z" />
    <glyph glyph-name="Abreve" unicode="&#x102;" horiz-adv-x="636" 
d="M626 665q14 0 2 -32q-27 -69 -34 -98q-7 -33 -29.5 -126.5l-40 -169.5t-25.5 -123q-11 -53 -2 -71t58 -24q19 -3 19 -13q0 -11 -30 -11q-17 0 -40.5 1.5t-42.5 1.5q-44 0 -85 -3.5t-54 -3.5q-8 0 -15.5 3t-6.5 7q0 10 20 14q24 3 39.5 9t24.5 17t13 19.5t9 25.5
q32 107 44 165q1 3 -2 7.5t-7 4.5q-73 0 -142 -9q-19 -2 -45 -28q-33 -33 -99 -128q-44 -67 28 -81q7 -3 7 -6q0 -5 -6.5 -10t-12.5 -5q-20 0 -52 1t-57 1q-12 0 -52 -2t-44 -2q-28 0 -28 14q0 9 25 11q42 1 68.5 14t59.5 49q66 71 159.5 182.5l167.5 203t77 95.5
q20 22 30 37q4 8 6 8q13 2 20 3.5t18.5 6t21 13t17.5 20.5t18 12zM316 290q67 0 131 8q11 2 18 18q7 20 23.5 91t19.5 90q2 12 3 18.5t1 10t-0.5 4.5t-2.5 1q-6 0 -23 -18q-42 -46 -173 -214q-5 -9 3 -9zM591 699q-47 0 -74 27t-21 68q2 18 10 18q4 0 6 -2.5t5 -8.5l4 -8
q19 -39 83 -39q67 0 113 40q2 2 6 6.5t7 7t6.5 5t7.5 2.5q5 0 5 -9t-5 -18q-17 -35 -56 -62t-97 -27z" />
    <glyph glyph-name="abreve" unicode="&#x103;" horiz-adv-x="449" 
d="M303 389q19 0 40 -23q1 -1 4 0t4 4l16 28q1 2 6.5 5.5t7.5 3.5q16 0 38 -14q3 -5 -2 -14q-18 -41 -59 -147.5t-53 -150.5q-7 -27 19 -27q14 0 36 14.5t39 33.5q17 18 20 5q0 -12 -9 -25q-28 -45 -68 -71.5t-74 -26.5q-38 0 -40 37q0 4 35 98q3 7 -2 11q-2 3 -5 0
q-50 -53 -112 -99.5t-106 -46.5q-14 0 -29.5 12t-15.5 26q0 42 43 109q90 148 220 238q28 20 47 20zM287 336q-25 0 -56.5 -20t-59.5 -56q-31 -38 -61.5 -97.5t-30.5 -92.5q0 -9 6.5 -19t13.5 -10q37 0 101 69q65 66 118 178q10 26 5 31q-19 17 -36 17zM322 484
q-38 0 -60.5 29.5t-10.5 90.5q1 10 7.5 15t12.5 5q7 0 9 -22q2 -33 16 -47.5t44 -14.5q50 0 90 62q12 20 22 20t3 -27q-12 -40 -46.5 -75.5t-86.5 -35.5z" />
    <glyph glyph-name="Aogonek" unicode="&#x104;" horiz-adv-x="636" 
d="M627 665q14 0 1 -32q-29 -81 -33 -98q-7 -33 -29.5 -126.5l-40 -169.5t-25.5 -123q-11 -53 -2 -71t58 -24q19 -3 19 -13q0 -11 -31 -11q-16 0 -39 1.5t-39 1.5q-111 -86 -111 -146q0 -17 11.5 -27.5t27.5 -10.5q31 0 63 21q6 4 8.5 -0.5t0.5 -11.5q-4 -14 -14 -23
q-39 -45 -103 -45q-32 0 -51 19.5t-19 47.5q0 47 48.5 95t105.5 81q-31 -1 -64 -4t-47 -3q-8 0 -15.5 3t-6.5 7q0 10 20 14q24 3 39.5 9t24.5 17t13 19.5t9 25.5q32 107 44 165q1 3 -2 7.5t-7 4.5q-73 0 -142 -9q-6 -1 -21 -10t-25 -19q-32 -32 -98 -127q-44 -67 28 -81
q7 -3 7 -6q0 -5 -6.5 -10t-12.5 -5q-20 0 -52 1t-57 1q-12 0 -52 -2t-44 -2q-28 0 -28 14q0 9 25 11q42 1 68.5 14t59.5 49q66 71 159.5 182.5l167.5 203t77 95.5q20 22 30 37q4 8 6 8q14 2 21 3.5t18.5 6t21 13t17.5 20.5t18 12zM316 290q67 0 131 8q12 3 18 18q7 19 23 87
t21 93q3 26 3.5 29t-2.5 6q-7 0 -24 -18q-42 -46 -173 -214q-3 -3 -2 -5t2.5 -3t2.5 -1z" />
    <glyph glyph-name="aogonek" unicode="&#x105;" horiz-adv-x="449" 
d="M329 2q-41 -31 -71.5 -71.5t-30.5 -75.5q0 -17 11 -27t28 -10q34 0 62 21q7 4 9 1t0 -10q-4 -14 -14 -24q-40 -48 -104 -48q-31 0 -49 19.5t-18 48.5q0 74 120 158h-4q-38 0 -39 32q0 3 35 105q4 11 1 13t-11 -5q-134 -145 -213 -145q-15 0 -29 11.5t-14 30.5
q0 45 37 110q84 150 228 239q28 17 40 17q18 0 37 -20q8 -8 14 3q8 15 13 22.5t8 9t7 1.5q20 0 35 -13q5 -7 -3 -24q-15 -34 -54 -133t-51 -143q-6 -31 -2 -38t17 -7q32 0 79 54q5 5 10.5 4t5.5 -7q0 -11 -8 -22q-25 -39 -82 -77zM291 335q-64 0 -123 -76q-29 -36 -59 -97.5
t-30 -94.5q0 -25 19 -25q30 0 104 72q65 62 116 172q11 24 5 31q-11 18 -32 18z" />
    <glyph glyph-name="Cacute" unicode="&#x106;" horiz-adv-x="658" 
d="M84 239q0 85 36.5 165t101.5 141q122 117 288 117q72 0 138 -27q22 -10 41 0q17 10 22 7q10 -14 4 -24q-46 -72 -59 -136q0 -7 -8 -7q-6 0 -11 10t-4 16q11 62 -19 94q-41 41 -96 41q-52 0 -111 -26.5t-112 -78.5q-55 -56 -86 -141t-31 -162q0 -89 40 -142q28 -37 66 -55
t71 -18q29 0 68 14.5t59 29.5q67 59 92 90q6 6 9 6q9 0 2 -33q-6 -19 -37.5 -69t-40.5 -58q-3 -3 -9.5 -5.5t-8.5 -0.5q-25 21 -51 15l-27 -6q-27 -6 -50 -9.5t-43 -3.5q-58 0 -118 32t-92 96q-24 48 -24 128zM672 819q0 -9 -27 -25q-113 -64 -153 -81q-29 -10 -35 -4
q-8 10 13 28q96 81 143 113q16 11 24 5q10 -4 23 -15t12 -21z" />
    <glyph glyph-name="cacute" unicode="&#x107;" horiz-adv-x="313" 
d="M274 404q25 0 43 -9q11 -4 11 -20q0 -22 -14 -39t-23 -17t-15 11q-21 44 -44 44q-36 0 -77 -79q-60 -109 -60 -202q0 -24 8.5 -36.5t16.5 -14.5t20 -2q49 0 100 48q4 3 8.5 3t4.5 -3q0 -14 -10 -26q-63 -74 -144 -74q-35 0 -56 30.5t-21 64.5q0 73 44 158q57 107 134 146
q33 17 74 17zM327 616q12 16 22 16q8 0 17.5 -16t8.5 -30q-2 -9 -14 -25q-37 -44 -99 -104q-16 -16 -28 -16q-6 1 -6 10.5t5 16.5q28 50 94 148z" />
    <glyph glyph-name="Ccircumflex" unicode="&#x108;" horiz-adv-x="658" 
d="M84 239q0 85 36.5 165t101.5 141q122 117 288 117q72 0 138 -27q22 -10 41 0q17 10 22 7q10 -14 4 -24q-46 -72 -59 -136q0 -7 -8 -7q-6 0 -11 10t-4 16q11 62 -19 94q-41 41 -96 41q-52 0 -111 -26.5t-112 -78.5q-55 -56 -86 -141t-31 -162q0 -89 40 -142q28 -37 66 -55
t71 -18q29 0 68 14.5t59 29.5q67 59 92 90q6 6 9 6q9 0 2 -33q-6 -19 -37.5 -69t-40.5 -58q-3 -3 -9.5 -5.5t-8.5 -0.5q-25 21 -51 15l-27 -6q-27 -6 -50 -9.5t-43 -3.5q-58 0 -118 32t-92 96q-24 48 -24 128zM563 836q9 0 21 -19l65 -95q7 -10 5 -15.5t-10 -5.5
q-4 0 -22 10q-34 19 -74 52q-6 4 -11 0q-57 -34 -126 -54q-19 -6 -27 -6q-9 0 -6 9q2 8 15 16q92 55 133 87q28 21 37 21z" />
    <glyph glyph-name="ccircumflex" unicode="&#x109;" horiz-adv-x="313" 
d="M274 404q25 0 43 -9q11 -4 11 -20q0 -22 -14 -39t-23 -17t-15 11q-21 44 -44 44q-36 0 -77 -79q-60 -109 -60 -202q0 -24 8.5 -36.5t16.5 -14.5t20 -2q49 0 100 48q4 3 8.5 3t4.5 -3q0 -14 -10 -26q-63 -74 -144 -74q-35 0 -56 30.5t-21 64.5q0 73 44 158q57 107 134 146
q33 17 74 17zM311 640q10 0 13 -26q10 -68 17 -145q1 -9 -3 -16.5t-10 -7.5q-9 0 -16 24l-11.5 34t-13.5 44q-2 7 -9 1q-10 -11 -25.5 -26l-36.5 -35l-32 -30q-12 -12 -24 -12q-5 0 -6.5 4t1 10.5t7.5 13.5q53 57 115 140q24 27 34 27z" />
    <glyph glyph-name="Cdotaccent" unicode="&#x10a;" horiz-adv-x="658" 
d="M84 239q0 85 36.5 165t101.5 141q122 117 288 117q72 0 138 -27q22 -10 41 0q17 10 22 7q10 -14 4 -24q-46 -72 -59 -136q0 -7 -8 -7q-6 0 -11 10t-4 16q11 62 -19 94q-41 41 -96 41q-52 0 -111 -26.5t-112 -78.5q-55 -56 -86 -141t-31 -162q0 -89 40 -142q28 -37 66 -55
t71 -18q29 0 68 14.5t59 29.5q67 59 92 90q6 6 9 6q9 0 2 -33q-6 -19 -37.5 -69t-40.5 -58q-3 -3 -9.5 -5.5t-8.5 -0.5q-25 21 -51 15l-27 -6q-27 -6 -50 -9.5t-43 -3.5q-58 0 -118 32t-92 96q-24 48 -24 128zM547 811q14 0 26.5 -14t11.5 -33q-1 -22 -17.5 -36t-35.5 -14
t-30 12.5t-10 33.5q2 21 18 36t37 15z" />
    <glyph glyph-name="cdotaccent" unicode="&#x10b;" horiz-adv-x="313" 
d="M274 404q25 0 43 -9q11 -4 11 -20q0 -22 -14 -39t-23 -17t-15 11q-21 44 -44 44q-36 0 -77 -79q-60 -109 -60 -202q0 -24 8.5 -36.5t16.5 -14.5t20 -2q49 0 100 48q4 3 8.5 3t4.5 -3q0 -14 -10 -26q-63 -74 -144 -74q-35 0 -56 30.5t-21 64.5q0 73 44 158q57 107 134 146
q33 17 74 17zM281 607q18 0 28 -13t10 -31q0 -22 -13 -36t-33 -14q-17 0 -26.5 12.5t-9.5 30.5q0 21 14.5 36t29.5 15z" />
    <glyph glyph-name="Ccaron" unicode="&#x10c;" horiz-adv-x="658" 
d="M84 239q0 85 36.5 165t101.5 141q122 117 288 117q72 0 138 -27q22 -10 41 0q17 10 22 7q10 -14 4 -24q-46 -72 -59 -136q0 -7 -8 -7q-6 0 -11 10t-4 16q11 62 -19 94q-41 41 -96 41q-52 0 -111 -26.5t-112 -78.5q-55 -56 -86 -141t-31 -162q0 -89 40 -142q28 -37 66 -55
t71 -18q29 0 68 14.5t59 29.5q67 59 92 90q6 6 9 6q9 0 2 -33q-6 -19 -37.5 -69t-40.5 -58q-3 -3 -9.5 -5.5t-8.5 -0.5q-25 21 -51 15l-27 -6q-27 -6 -50 -9.5t-43 -3.5q-58 0 -118 32t-92 96q-24 48 -24 128zM519 699q-10 0 -20 20q-11 19 -66 90q-7 9 -6 17.5t8 8.5
q9 0 23 -10q52 -34 73 -50q4 -3 14 0q119 52 122 53q14 7 29 7q8 0 7 -8.5t-15 -17.5l-126 -87q-34 -23 -43 -23z" />
    <glyph glyph-name="ccaron" unicode="&#x10d;" horiz-adv-x="313" 
d="M274 404q25 0 43 -9q11 -4 11 -20q0 -22 -14 -39t-23 -17t-15 11q-21 44 -44 44q-36 0 -77 -79q-60 -109 -60 -202q0 -24 8.5 -36.5t16.5 -14.5t20 -2q49 0 100 48q4 3 8.5 3t4.5 -3q0 -14 -10 -26q-63 -74 -144 -74q-35 0 -56 30.5t-21 64.5q0 73 44 158q57 107 134 146
q33 17 74 17zM248 447q-8 0 -14 27q-7 73 -18 142q-1 9 2.5 18t9.5 9q8 0 16 -23q21 -60 27 -81q2 -9 10 -1q12 11 44.5 45t46.5 47q13 13 25 13q3 0 4 -3.5t-0.5 -10t-6.5 -14.5q-4 -6 -112 -140q-24 -28 -34 -28z" />
    <glyph glyph-name="Dcaron" unicode="&#x10e;" horiz-adv-x="730" 
d="M392 648q136 0 216 -63q100 -76 100 -216q0 -101 -52.5 -182.5t-126.5 -127.5q-106 -64 -279 -64q-28 0 -69.5 2.5t-61.5 2.5q-23 0 -68.5 -2t-52.5 -2q-34 0 -34 13q0 11 28 13q55 4 75.5 18.5t37.5 73.5l131 438q17 58 -18 62q-40 5 -54 5q-29 2 -29 13q0 12 33 12
q9 0 37.5 -0.5t42.5 -0.5q12 0 65.5 2.5t78.5 2.5zM384 621q-10 0 -27 -5q-8 -2 -17 -18q-23 -45 -90 -269q-59 -202 -59 -244q-2 -37 21 -48q37 -17 65 -17q48 0 103.5 20t96.5 49q61 43 99.5 128t38.5 168q0 57 -20 109t-59 83q-54 44 -152 44zM430 688q-10 0 -20 20
q-11 19 -66 90q-7 9 -6 17.5t8 8.5q9 0 23 -10q52 -34 73 -50q4 -3 14 0q119 52 122 53q14 7 29 7q8 0 7 -8.5t-15 -17.5l-126 -87q-35 -23 -43 -23z" />
    <glyph glyph-name="dcaron" unicode="&#x10f;" horiz-adv-x="482" 
d="M12 54q0 75 64 177.5t145 147.5q43 25 74 25q29 0 59 -27q2 -1 6 0t5 3q3 11 15 47.5t26.5 85.5t29.5 105q5 24 1.5 32t-19.5 16q-28 12 -28 18q0 2 6 7t10 6q16 5 58 12.5t58 7.5q10 0 0 -41q-8 -28 -22 -73l-37.5 -117l-41.5 -130l-28.5 -95l-31.5 -104l-21 -71
q-9 -29 11 -29q14 0 40.5 21t48.5 51q3 4 6 5t4.5 -1t1.5 -7q0 -7 -4 -19q-14 -42 -63 -83.5t-85 -41.5q-9 0 -20 14t-11 24q0 22 36 134q0 2 -1.5 4.5t-3.5 3.5t-3 0q-55 -82 -115 -130t-112 -48q-29 0 -44 16q-14 17 -14 54zM82 54q0 -11 6 -18t13 -7q25 0 72.5 34.5
t88.5 88.5q44 62 69 133q16 42 6 69q-9 17 -26 17q-43 0 -108 -72q-52 -58 -86.5 -128t-34.5 -117zM649 717q10 0 6 -22q-6 -25 -32.5 -78.5t-47.5 -85.5q-14 -17 -30 -17q-7 0 -3 20q26 79 43 149q2 7 10 12q29 22 54 22z" />
    <glyph glyph-name="Dcroat" unicode="&#x110;" horiz-adv-x="730" 
d="M389 649q139 0 220 -63q99 -76 99 -217q0 -97 -52 -181t-124 -128q-109 -65 -273 -65q-28 0 -74.5 2.5t-65.5 2.5q-23 0 -65 -1.5t-50 -1.5q-37 0 -37 11q0 14 34 16q53 2 70.5 19t37.5 81l54 175q2 15 -5 15l-75 -2q-4 0 -6 7t2 15q6 14 15 14l77 2q8 0 10 12
q40 132 56 190q15 56 -16 62q-14 3 -56 5q-29 2 -29 13q0 12 37 12q9 0 34 -0.5t40 -0.5q12 0 64 3t78 3zM388 621q-24 0 -33.5 -5.5t-15.5 -19.5q-25 -58 -78 -237q-2 -9 4 -9l162 3q11 0 8 -14q-1 -10 -7 -15.5t-12 -5.5l-162 -4q-8 0 -12 -16q-45 -152 -51 -203
q-3 -18 4 -34.5t20 -23.5q38 -18 69 -18q36 0 89 16.5t97 46.5q64 46 104.5 127t40.5 176q0 131 -75 191q-57 45 -152 45z" />
    <glyph glyph-name="dcroat" unicode="&#x111;" horiz-adv-x="482" 
d="M12 54q0 75 55.5 170.5t151.5 154.5q43 25 74 25q36 0 64 -28q1 -1 4.5 1t3.5 4l45 144q2 8 -3 9l-105 -3q-2 0 -4.5 4t-2.5 6q0 7 6 15t12 8l103 3q1 0 4.5 3.5t3.5 4.5l10 40q5 24 1.5 32t-19.5 16q-26 12 -26 18q0 9 15 14q16 5 55 12t55 7q13 0 3 -41
q-4 -15 -14 -46.5t-14 -45.5q-4 -12 2 -12l59 2q8 0 8 -12q0 -6 -6 -13.5t-16 -7.5l-53 -2q-6 0 -10 -8l-53 -172l-80 -268q-10 -33 10 -33q27 0 80 69q14 16 17 3q1 -6 -4 -20q-15 -41 -63 -82t-83 -41q-11 0 -19 11.5t-8 29.5q0 22 33 124q3 8 -1 9t-9 -7
q-126 -167 -224 -167q-24 0 -41 19t-17 51zM82 55q0 -24 19 -24q25 0 72.5 34t88.5 88q45 63 69 132q15 39 5 68q-8 16 -26 16q-48 0 -111 -70q-52 -57 -84.5 -127t-32.5 -117z" />
    <glyph glyph-name="Emacron" unicode="&#x112;" horiz-adv-x="599" 
d="M270 337l113 4q51 2 68.5 12t39.5 40q12 16 22 16q4 0 5 -6t-1 -14.5t-6 -16.5q-29 -52 -47 -130q-5 -20 -15 -20q-13 0 -12 29q2 32 -8.5 42t-30.5 10l-129 -3q-28 0 -34 -19q-5 -14 -48 -174q-10 -40 2 -58q13 -18 33 -19q72 -5 146 -5q43 0 69 18q47 24 85 77
q17 26 26 26q10 0 4 -27q-16 -63 -47 -98q-19 -21 -28 -22q-27 -6 -45 -6q-22 0 -155 3.5t-163 3.5q-32 0 -73.5 -3t-53.5 -3q-29 0 -29 13q0 11 31 14q39 3 60.5 13.5t29 23t16.5 41.5l141 439q16 34 5.5 55.5t-64.5 28.5q-26 2 -26 14q0 10 32 10q9 0 48.5 -1.5t68.5 -1.5
h93q192 0 229 10q2 0 4 -3t3 -7t0 -6q-14 -25 -27.5 -63t-15.5 -52q0 -8 -8 -8q-6 0 -13 8t-8 21q-3 48 -11 57q-4 5 -12 8q-15 7 -125 7q-51 0 -67 -21q-15 -21 -83 -243q-1 -4 3 -9t8 -5zM346 774l221 5q7 0 7 -16t-12 -33q-5 -8 -17 -8l-215 -6q-3 0 -6.5 3t-3.5 6
q2 25 12 39q1 2 6 6t8 4z" />
    <glyph glyph-name="emacron" unicode="&#x113;" horiz-adv-x="345" 
d="M276 404q39 0 56 -19t17 -42q0 -24 -21 -51t-56 -47q-46 -25 -146 -54q-13 -4 -16 -15q-13 -35 -13 -78q0 -60 53 -60q47 0 98 47q15 15 25 15q6 0 6 -6q0 -9 -12 -25q-25 -29 -70.5 -56t-94.5 -27q-22 0 -49.5 30t-27.5 74q0 54 30 120.5t80 118.5q74 75 141 75z
M272 380q-36 0 -83 -55t-61 -100q-1 -1 -1 -3.5t1 -4t3 -1.5q158 55 158 139q0 25 -17 25zM205 570l198 7q2 0 4 -2.5t3 -7.5t0 -13q-5 -32 -21 -32l-197 -4q-11 0 -7 18q3 11 9.5 22.5t10.5 11.5z" />
    <glyph glyph-name="Ebreve" unicode="&#x114;" horiz-adv-x="599" 
d="M270 337l113 4q51 2 68.5 12t39.5 40q12 16 22 16q4 0 5 -6t-1 -14.5t-6 -16.5q-29 -52 -47 -130q-5 -20 -15 -20q-13 0 -12 29q2 32 -8.5 42t-30.5 10l-129 -3q-28 0 -34 -19q-5 -14 -48 -174q-10 -40 2 -58q13 -18 33 -19q72 -5 146 -5q43 0 69 18q47 24 85 77
q17 26 26 26q10 0 4 -27q-16 -63 -47 -98q-19 -21 -28 -22q-27 -6 -45 -6q-22 0 -155 3.5t-163 3.5q-32 0 -73.5 -3t-53.5 -3q-29 0 -29 13q0 11 31 14q39 3 60.5 13.5t29 23t16.5 41.5l141 439q16 34 5.5 55.5t-64.5 28.5q-26 2 -26 14q0 10 32 10q9 0 48.5 -1.5t68.5 -1.5
h93q192 0 229 10q2 0 4 -3t3 -7t0 -6q-14 -25 -27.5 -63t-15.5 -52q0 -8 -8 -8q-6 0 -13 8t-8 21q-3 48 -11 57q-4 5 -12 8q-15 7 -125 7q-51 0 -67 -21q-15 -21 -83 -243q-1 -4 3 -9t8 -5zM416 696q-47 0 -74 27t-21 68q1 18 10 18q4 0 6 -2.5t5 -8.5l4 -8q20 -39 83 -39
q67 0 113 40q2 2 6 6.5t7 7t6.5 5t7.5 2.5q5 0 5 -9t-5 -18q-17 -35 -56 -62t-97 -27z" />
    <glyph glyph-name="ebreve" unicode="&#x115;" horiz-adv-x="345" 
d="M276 404q39 0 56 -19t17 -42q0 -24 -21 -51t-56 -47q-46 -25 -146 -54q-13 -4 -16 -15q-13 -35 -13 -78q0 -60 53 -60q47 0 98 47q15 15 25 15q6 0 6 -6q0 -9 -12 -25q-25 -29 -70.5 -56t-94.5 -27q-22 0 -49.5 30t-27.5 74q0 54 30 120.5t80 118.5q74 75 141 75z
M272 380q-36 0 -83 -55t-61 -100q-1 -1 -1 -3.5t1 -4t3 -1.5q158 55 158 139q0 25 -17 25zM275 484q-38 0 -60.5 29.5t-10.5 90.5q1 10 7.5 15t12.5 5q7 0 9 -22q2 -33 16 -47.5t44 -14.5q50 0 90 62q12 20 22 20t3 -27q-12 -40 -46.5 -75.5t-86.5 -35.5z" />
    <glyph glyph-name="Edotaccent" unicode="&#x116;" horiz-adv-x="599" 
d="M270 337l113 4q51 2 68.5 12t39.5 40q12 16 22 16q4 0 5 -6t-1 -14.5t-6 -16.5q-29 -52 -47 -130q-5 -20 -15 -20q-13 0 -12 29q2 32 -8.5 42t-30.5 10l-129 -3q-28 0 -34 -19q-5 -14 -48 -174q-10 -40 2 -58q13 -18 33 -19q72 -5 146 -5q43 0 69 18q47 24 85 77
q17 26 26 26q10 0 4 -27q-16 -63 -47 -98q-19 -21 -28 -22q-27 -6 -45 -6q-22 0 -155 3.5t-163 3.5q-32 0 -73.5 -3t-53.5 -3q-29 0 -29 13q0 11 31 14q39 3 60.5 13.5t29 23t16.5 41.5l141 439q16 34 5.5 55.5t-64.5 28.5q-26 2 -26 14q0 10 32 10q9 0 48.5 -1.5t68.5 -1.5
h93q192 0 229 10q2 0 4 -3t3 -7t0 -6q-14 -25 -27.5 -63t-15.5 -52q0 -8 -8 -8q-6 0 -13 8t-8 21q-3 48 -11 57q-4 5 -12 8q-15 7 -125 7q-51 0 -67 -21q-15 -21 -83 -243q-1 -4 3 -9t8 -5zM444 800q14 0 26.5 -14t11.5 -33q-1 -22 -17.5 -36t-35.5 -14t-30 12.5t-10 33.5
q2 21 18 36t37 15z" />
    <glyph glyph-name="edotaccent" unicode="&#x117;" horiz-adv-x="345" 
d="M276 404q39 0 56 -19t17 -42q0 -24 -21 -51t-56 -47q-46 -25 -146 -54q-13 -4 -16 -15q-13 -35 -13 -78q0 -60 53 -60q47 0 98 47q15 15 25 15q6 0 6 -6q0 -9 -12 -25q-25 -29 -70.5 -56t-94.5 -27q-22 0 -49.5 30t-27.5 74q0 54 30 120.5t80 118.5q74 75 141 75z
M272 380q-36 0 -83 -55t-61 -100q-1 -1 -1 -3.5t1 -4t3 -1.5q158 55 158 139q0 25 -17 25zM306 607q18 0 28 -13t10 -31q0 -22 -13 -36t-33 -14q-17 0 -26.5 12.5t-9.5 30.5q0 21 14.5 36t29.5 15z" />
    <glyph glyph-name="Eogonek" unicode="&#x118;" horiz-adv-x="599" 
d="M271 337l112 4q51 2 68.5 12t39.5 40q12 16 22 16q4 0 5 -6t-1 -14.5t-6 -16.5q-29 -52 -47 -130q-5 -20 -15 -20q-13 0 -12 29q2 32 -8.5 42t-30.5 10l-128 -3q-28 0 -34 -19q-5 -14 -48 -174q-10 -40 2 -58q13 -18 32 -19q72 -5 146 -5q43 0 69 18q47 24 85 77
q17 26 26 26q10 0 4 -27q-16 -63 -47 -98q-19 -21 -28 -22q-27 -6 -46 -6q-102 -79 -102 -140q0 -17 10.5 -27t26.5 -10q31 0 63 21q6 4 8.5 -0.5t0.5 -11.5q-4 -13 -14 -23q-39 -45 -103 -45q-32 0 -51 19.5t-19 47.5q0 45 45 90.5t102 79.5q-37 0 -148 3t-136 3
q-32 0 -73.5 -3t-53.5 -3q-29 0 -29 13q0 11 31 14q39 3 60.5 13.5t29 23t16.5 41.5l141 439q16 34 5.5 55.5t-64.5 28.5q-26 2 -26 14q0 10 32 10q9 0 48.5 -1.5t68.5 -1.5h93q192 0 229 10q2 0 4 -3t3 -7t0 -6q-14 -25 -27.5 -63t-15.5 -52q0 -8 -8 -8q-6 0 -13 8t-8 21
q-3 48 -11 57q-4 5 -12 8q-15 7 -124 7q-51 0 -67 -21q-15 -21 -83 -243q-1 -4 3 -9t8 -5z" />
    <glyph glyph-name="eogonek" unicode="&#x119;" horiz-adv-x="345" 
d="M276 404q39 0 56 -18.5t17 -41.5q0 -24 -21 -51.5t-55 -46.5q-41 -24 -147 -55q-13 -4 -16 -15q-13 -37 -13 -79q0 -35 14 -47t38 -12q49 0 98 45q14 15 26 15q5 0 5 -6q0 -10 -12 -24q-15 -18 -74 -56q-44 -31 -80.5 -76t-36.5 -81q0 -17 11 -27t27 -10q35 0 63 21
q7 4 9 1t0 -10q-4 -14 -14 -24q-40 -48 -104 -48q-32 0 -50 19.5t-18 48.5q0 75 132 163q-15 -3 -29 -3q-26 0 -52 29t-26 75q0 57 29.5 121.5t79.5 116.5q37 37 75.5 56.5t67.5 19.5zM270 377q-35 0 -81 -53.5t-61 -97.5q-2 -5 0.5 -7.5t8.5 -0.5q41 14 69.5 28t55 42.5
t26.5 63.5q0 25 -18 25z" />
    <glyph glyph-name="Ecaron" unicode="&#x11a;" horiz-adv-x="599" 
d="M270 337l113 4q51 2 68.5 12t39.5 40q12 16 22 16q4 0 5 -6t-1 -14.5t-6 -16.5q-29 -52 -47 -130q-5 -20 -15 -20q-13 0 -12 29q2 32 -8.5 42t-30.5 10l-129 -3q-28 0 -34 -19q-5 -14 -48 -174q-10 -40 2 -58q13 -18 33 -19q72 -5 146 -5q43 0 69 18q47 24 85 77
q17 26 26 26q10 0 4 -27q-16 -63 -47 -98q-19 -21 -28 -22q-27 -6 -45 -6q-22 0 -155 3.5t-163 3.5q-32 0 -73.5 -3t-53.5 -3q-29 0 -29 13q0 11 31 14q39 3 60.5 13.5t29 23t16.5 41.5l141 439q16 34 5.5 55.5t-64.5 28.5q-26 2 -26 14q0 10 32 10q9 0 48.5 -1.5t68.5 -1.5
h93q192 0 229 10q2 0 4 -3t3 -7t0 -6q-14 -25 -27.5 -63t-15.5 -52q0 -8 -8 -8q-6 0 -13 8t-8 21q-3 48 -11 57q-4 5 -12 8q-15 7 -125 7q-51 0 -67 -21q-15 -21 -83 -243q-1 -4 3 -9t8 -5zM415 687q-10 0 -20 20q-11 19 -66 90q-7 9 -6 17.5t8 8.5q9 0 23 -10
q52 -34 73 -50q4 -3 14 0q119 52 122 53q14 7 29 7q8 0 7 -8.5t-15 -17.5l-126 -87q-34 -23 -43 -23z" />
    <glyph glyph-name="ecaron" unicode="&#x11b;" horiz-adv-x="345" 
d="M276 404q39 0 56 -19t17 -42q0 -24 -21 -51t-56 -47q-46 -25 -146 -54q-13 -4 -16 -15q-13 -35 -13 -78q0 -60 53 -60q47 0 98 47q15 15 25 15q6 0 6 -6q0 -9 -12 -25q-25 -29 -70.5 -56t-94.5 -27q-22 0 -49.5 30t-27.5 74q0 54 30 120.5t80 118.5q74 75 141 75z
M272 380q-36 0 -83 -55t-61 -100q-1 -1 -1 -3.5t1 -4t3 -1.5q158 55 158 139q0 25 -17 25zM272 447q-8 0 -14 27q-7 73 -18 142q-1 9 2.5 18t9.5 9q8 0 16 -23q21 -60 27 -81q2 -9 10 -1q12 11 44.5 45t46.5 47q13 13 25 13q3 0 4 -3.5t-0.5 -10t-6.5 -14.5q-4 -6 -112 -140
q-24 -28 -34 -28z" />
    <glyph glyph-name="Gcircumflex" unicode="&#x11c;" horiz-adv-x="697" 
d="M531 662q69 0 126 -17q21 -4 48 0q5 1 12 3.5t10 2.5q4 0 6 -7.5t-2 -12.5q-48 -60 -68 -134q-7 -25 -14 -25q-13 0 -12 32q0 8 1.5 23.5t2 23t-0.5 17.5t-4 16q-12 23 -43 38t-75 15q-117 0 -220 -111q-53 -57 -85 -140t-32 -157q0 -97 48 -159t146 -62q28 0 52 18
q11 8 16 17q27 42 58 152q12 30 1 47.5t-56 20.5q-35 4 -35 15q0 13 35 13q7 0 39.5 -1.5t59.5 -1.5q31 0 67 4t42 4q25 0 25 -11q-1 -10 -27 -15q-26 -6 -36.5 -15.5t-21.5 -32.5q-24 -54 -36 -95q-17 -62 -19 -92q-1 -4 -10.5 -11.5t-15.5 -9.5q-8 -2 -43 -12.5t-63.5 -16
t-54.5 -5.5q-59 0 -106 16t-76.5 41t-48.5 59.5t-26.5 69t-7.5 71.5q0 63 29.5 144.5t92.5 146.5q126 134 322 134zM575 835q9 0 21 -19l65 -95q7 -11 5 -16t-10 -5q-4 0 -22 10q-34 19 -74 52q-6 4 -11 0q-57 -34 -126 -54q-19 -6 -27 -6q-9 0 -6 9q2 8 15 16q92 55 133 87
q28 21 37 21z" />
    <glyph glyph-name="gcircumflex" unicode="&#x11d;" horiz-adv-x="387" 
d="M269 405q22 0 53 -14q9 -5 28 -3l30.5 8t39.5 7q22 0 22 -28q0 -29 -22 -29q-14 0 -35 5t-34 5q-14 0 -10 -12q5 -18 5 -31q-1 -65 -51 -131.5t-98 -84.5q-7 -3 -67 -16q-4 0 -7 -5q-5 -12 -5 -25q0 -23 27 -45q15 -11 61.5 -39l56.5 -34q58 -40 58 -87
q0 -14 -14.5 -35.5t-35.5 -34.5q-91 -54 -188 -54q-66 0 -122 32q-25 14 -39.5 35.5t-14.5 39.5q0 16 11.5 31.5t21.5 23t30 20.5t60 32.5l48 23.5q2 1 3.5 2.5t1.5 2.5t-1 2q-25 32 -25 40q0 15 10 30q5 8 11 14.5l12.5 13l8.5 8.5q4 9 1 10q-60 26 -60 74q0 41 14.5 79
t37.5 65t38.5 42t29.5 25q56 37 109 37zM257 380q-22 0 -49 -25q-42 -38 -75.5 -102.5t-33.5 -104.5q0 -20 11 -32t26 -12q12 0 45 28q29 26 69 92.5t40 110.5q0 20 -10.5 32.5t-22.5 12.5zM131 -242q43 0 82 18t39 51q0 24 -24 43q-18 15 -55 39t-56 33q-4 2 -14 2.5
t-13 -1.5q-30 -10 -72 -42.5t-42 -68.5q0 -22 24 -38q51 -36 131 -36zM329 640q10 0 13 -26q10 -68 17 -145q1 -9 -3 -16.5t-10 -7.5q-9 0 -16 24l-11.5 34t-13.5 44q-2 7 -9 1q-10 -11 -25.5 -26l-36.5 -35l-32 -30q-12 -12 -24 -12q-5 0 -6.5 4t1 10.5t7.5 13.5
q53 57 115 140q24 27 34 27z" />
    <glyph glyph-name="Gbreve" unicode="&#x11e;" horiz-adv-x="697" 
d="M531 662q69 0 126 -17q21 -4 48 0q5 1 12 3.5t10 2.5q4 0 6 -7.5t-2 -12.5q-48 -60 -68 -134q-7 -25 -14 -25q-13 0 -12 32q0 8 1.5 23.5t2 23t-0.5 17.5t-4 16q-12 23 -43 38t-75 15q-117 0 -220 -111q-53 -57 -85 -140t-32 -157q0 -97 48 -159t146 -62q28 0 52 18
q11 8 16 17q27 42 58 152q12 30 1 47.5t-56 20.5q-35 4 -35 15q0 13 35 13q7 0 39.5 -1.5t59.5 -1.5q31 0 67 4t42 4q25 0 25 -11q-1 -10 -27 -15q-26 -6 -36.5 -15.5t-21.5 -32.5q-24 -54 -36 -95q-17 -62 -19 -92q-1 -4 -10.5 -11.5t-15.5 -9.5q-8 -2 -43 -12.5t-63.5 -16
t-54.5 -5.5q-59 0 -106 16t-76.5 41t-48.5 59.5t-26.5 69t-7.5 71.5q0 63 29.5 144.5t92.5 146.5q126 134 322 134zM524 710q-47 0 -74 27t-21 68q1 18 10 18q4 0 6 -2.5t5 -8.5l4 -8q20 -39 83 -39q67 0 113 40q2 2 6 6.5t7 7t6.5 5t7.5 2.5q5 0 5 -9t-5 -18
q-17 -35 -56 -62t-97 -27z" />
    <glyph glyph-name="gbreve" unicode="&#x11f;" horiz-adv-x="387" 
d="M269 405q22 0 53 -14q9 -5 28 -3l30.5 8t39.5 7q22 0 22 -28q0 -29 -22 -29q-14 0 -35 5t-34 5q-14 0 -10 -12q5 -18 5 -31q-1 -65 -51 -131.5t-98 -84.5q-7 -3 -67 -16q-4 0 -7 -5q-5 -12 -5 -25q0 -23 27 -45q15 -11 61.5 -39l56.5 -34q58 -40 58 -87
q0 -14 -14.5 -35.5t-35.5 -34.5q-91 -54 -188 -54q-66 0 -122 32q-25 14 -39.5 35.5t-14.5 39.5q0 16 11.5 31.5t21.5 23t30 20.5t60 32.5l48 23.5q2 1 3.5 2.5t1.5 2.5t-1 2q-25 32 -25 40q0 15 10 30q5 8 11 14.5l12.5 13l8.5 8.5q4 9 1 10q-60 26 -60 74q0 41 14.5 79
t37.5 65t38.5 42t29.5 25q56 37 109 37zM257 380q-22 0 -49 -25q-42 -38 -75.5 -102.5t-33.5 -104.5q0 -20 11 -32t26 -12q12 0 45 28q29 26 69 92.5t40 110.5q0 20 -10.5 32.5t-22.5 12.5zM131 -242q43 0 82 18t39 51q0 24 -24 43q-18 15 -55 39t-56 33q-4 2 -14 2.5
t-13 -1.5q-30 -10 -72 -42.5t-42 -68.5q0 -22 24 -38q51 -36 131 -36zM265 484q-38 0 -60.5 29.5t-10.5 90.5q1 10 7.5 15t12.5 5q7 0 9 -22q2 -33 16 -47.5t44 -14.5q50 0 90 62q12 20 22 20t3 -27q-12 -40 -46.5 -75.5t-86.5 -35.5z" />
    <glyph glyph-name="Gdotaccent" unicode="&#x120;" horiz-adv-x="697" 
d="M531 662q69 0 126 -17q21 -4 48 0q5 1 12 3.5t10 2.5q4 0 6 -7.5t-2 -12.5q-48 -60 -68 -134q-7 -25 -14 -25q-13 0 -12 32q0 8 1.5 23.5t2 23t-0.5 17.5t-4 16q-12 23 -43 38t-75 15q-117 0 -220 -111q-53 -57 -85 -140t-32 -157q0 -97 48 -159t146 -62q28 0 52 18
q11 8 16 17q27 42 58 152q12 30 1 47.5t-56 20.5q-35 4 -35 15q0 13 35 13q7 0 39.5 -1.5t59.5 -1.5q31 0 67 4t42 4q25 0 25 -11q-1 -10 -27 -15q-26 -6 -36.5 -15.5t-21.5 -32.5q-24 -54 -36 -95q-17 -62 -19 -92q-1 -4 -10.5 -11.5t-15.5 -9.5q-8 -2 -43 -12.5t-63.5 -16
t-54.5 -5.5q-59 0 -106 16t-76.5 41t-48.5 59.5t-26.5 69t-7.5 71.5q0 63 29.5 144.5t92.5 146.5q126 134 322 134zM559 801q14 0 26.5 -14t11.5 -33q-1 -22 -17.5 -36t-35.5 -14t-30 12.5t-10 33.5q2 21 18 36t37 15z" />
    <glyph glyph-name="gdotaccent" unicode="&#x121;" horiz-adv-x="387" 
d="M269 405q22 0 53 -14q9 -5 28 -3l30.5 8t39.5 7q22 0 22 -28q0 -29 -22 -29q-14 0 -35 5t-34 5q-14 0 -10 -12q5 -18 5 -31q-1 -65 -51 -131.5t-98 -84.5q-7 -3 -67 -16q-4 0 -7 -5q-5 -12 -5 -25q0 -23 27 -45q15 -11 61.5 -39l56.5 -34q58 -40 58 -87
q0 -14 -14.5 -35.5t-35.5 -34.5q-91 -54 -188 -54q-66 0 -122 32q-25 14 -39.5 35.5t-14.5 39.5q0 16 11.5 31.5t21.5 23t30 20.5t60 32.5l48 23.5q2 1 3.5 2.5t1.5 2.5t-1 2q-25 32 -25 40q0 15 10 30q5 8 11 14.5l12.5 13l8.5 8.5q4 9 1 10q-60 26 -60 74q0 41 14.5 79
t37.5 65t38.5 42t29.5 25q56 37 109 37zM257 380q-22 0 -49 -25q-42 -38 -75.5 -102.5t-33.5 -104.5q0 -20 11 -32t26 -12q12 0 45 28q29 26 69 92.5t40 110.5q0 20 -10.5 32.5t-22.5 12.5zM131 -242q43 0 82 18t39 51q0 24 -24 43q-18 15 -55 39t-56 33q-4 2 -14 2.5
t-13 -1.5q-30 -10 -72 -42.5t-42 -68.5q0 -22 24 -38q51 -36 131 -36zM284 607q18 0 28 -13t10 -31q0 -22 -13 -36t-33 -14q-17 0 -26.5 12.5t-9.5 30.5q0 21 14.5 36t29.5 15z" />
    <glyph glyph-name="Gcommaaccent" unicode="&#x122;" horiz-adv-x="697" 
d="M531 662q69 0 126 -17q21 -4 48 0q5 1 12 3.5t10 2.5q4 0 6 -7.5t-2 -12.5q-48 -60 -68 -134q-7 -25 -14 -25q-13 0 -12 32q0 8 1.5 23.5t2 23t-0.5 17.5t-4 16q-12 23 -43 38t-75 15q-117 0 -220 -111q-53 -57 -85 -140t-32 -157q0 -97 48 -159t146 -62q28 0 52 18
q11 8 16 17q27 42 58 152q12 30 1 47.5t-56 20.5q-35 4 -35 15q0 13 35 13q7 0 39.5 -1.5t59.5 -1.5q31 0 67 4t42 4q25 0 25 -11q-1 -10 -27 -15q-26 -6 -36.5 -15.5t-21.5 -32.5q-24 -54 -36 -95q-17 -62 -19 -92q-1 -4 -10.5 -11.5t-15.5 -9.5q-8 -2 -43 -12.5t-63.5 -16
t-54.5 -5.5q-59 0 -106 16t-76.5 41t-48.5 59.5t-26.5 69t-7.5 71.5q0 63 29.5 144.5t92.5 146.5q126 134 322 134zM320 -56q23 0 37.5 -16t14.5 -44q0 -55 -41.5 -85t-79.5 -30q-13 0 -13 8t15 13q27 10 46 27.5t20 40.5q0 16 -17 17q-28 3 -28 31q0 14 13.5 26t32.5 12z
" />
    <glyph glyph-name="gcommaaccent" unicode="&#x123;" horiz-adv-x="387" 
d="M290 474q-23 0 -38.5 17.5t-15.5 47.5q0 52 43 86t82 34q16 0 16 -9q0 -6 -15 -14q-29 -10 -49 -28t-21 -44q0 -18 21 -19q27 -3 27 -31q0 -14 -14.5 -27t-35.5 -13zM269 405q22 0 53 -14q9 -5 28 -3l30.5 8t39.5 7q22 0 22 -28q0 -29 -22 -29q-14 0 -35 5t-34 5
q-14 0 -10 -12q5 -18 5 -31q-1 -65 -51 -131.5t-98 -84.5q-7 -3 -67 -16q-4 0 -7 -5q-5 -12 -5 -25q0 -23 27 -45q15 -11 61.5 -39l56.5 -34q58 -40 58 -87q0 -14 -14.5 -35.5t-35.5 -34.5q-91 -54 -188 -54q-66 0 -122 32q-25 14 -39.5 35.5t-14.5 39.5q0 16 11.5 31.5
t21.5 23t30 20.5t60 32.5l48 23.5q2 1 3.5 2.5t1.5 2.5t-1 2q-25 32 -25 40q0 15 10 30q5 8 11 14.5l12.5 13l8.5 8.5q4 9 1 10q-60 26 -60 74q0 41 14.5 79t37.5 65t38.5 42t29.5 25q56 37 109 37zM257 380q-22 0 -49 -25q-42 -38 -75.5 -102.5t-33.5 -104.5q0 -20 11 -32
t26 -12q12 0 45 28q29 26 69 92.5t40 110.5q0 20 -10.5 32.5t-22.5 12.5zM131 -242q43 0 82 18t39 51q0 24 -24 43q-18 15 -55 39t-56 33q-4 2 -14 2.5t-13 -1.5q-30 -10 -72 -42.5t-42 -68.5q0 -22 24 -38q51 -36 131 -36z" />
    <glyph glyph-name="Hcircumflex" unicode="&#x124;" horiz-adv-x="775" 
d="M162 636q0 11 30 11q15 0 51 -2t58 -2q37 0 71 2t36 2q26 0 26 -10q0 -14 -31 -16q-20 -1 -34 -6t-23 -17t-12 -18t-10 -24q-40 -103 -56 -174q-7 -31 1 -34q13 -2 85 -2q153 -2 234 3q15 1 19 5.5t12 23.5q26 69 51 175q9 37 -1.5 51.5t-47.5 19.5q-23 2 -23 12
q0 11 29 11q9 0 47.5 -2t60.5 -2q21 0 58 2t51 2q24 0 24 -11q-1 -10 -30 -14q-34 -4 -51 -20.5t-31 -51.5q-32 -77 -78.5 -233.5t-56.5 -207.5q-11 -47 -2.5 -65t49.5 -23q24 -4 24 -14q0 -11 -26 -11q-18 0 -64 2t-63 2q-23 0 -56 -2t-44 -2q-27 0 -27 11q2 10 28 13
q37 3 53 18t29 46q24 60 70 214q0 2 -3 5.5t-4 3.5q-78 2 -326 -4q-10 0 -24 -34q-10 -24 -27 -80.5t-22 -88.5q-8 -42 2 -57.5t49 -22.5q26 -3 26 -15t-31 -12q-7 0 -48 3.5t-65 3.5q-23 0 -49.5 -1.5t-44.5 -3t-20 -1.5q-28 0 -28 13q0 11 27 14q40 4 58 19.5t35 62.5
q15 38 72 224.5t68 228.5q10 33 1 47.5t-51 19.5q-25 4 -25 13zM583 826q9 0 21 -19l65 -95q7 -10 5 -15.5t-10 -5.5q-4 0 -22 10q-34 19 -74 52q-5 4 -11 0q-57 -34 -126 -54q-20 -6 -27 -6q-9 0 -6 9q2 8 15 16q92 55 133 87q28 21 37 21z" />
    <glyph glyph-name="hcircumflex" unicode="&#x125;" horiz-adv-x="490" 
d="M454 338q0 -69 -36 -154.5t-70 -124.5q-24 -26 -65 -54q-37 -24 -50 -24q-23 0 -37 12q-9 10 -9 19q0 5 10 19t15 17q4 3 6 2q5 -2 15.5 -7.5t20 -8.5t18.5 -3q11 0 20 15q23 32 55 133.5t32 144.5q0 40 -29 40q-25 0 -58.5 -33t-95.5 -113q-21 -29 -65 -103t-62 -110
q-5 -8 -14.5 -14.5t-13.5 -6.5q-12 0 -20 11t-6 20l186 598q8 18 3 29t-30 17q-21 5 -21 16q0 7 18 12q112 30 122 30q3 0 5.5 -7.5t1.5 -13.5l-59.5 -183l-67 -201t-30.5 -92q-1 -5 0 -7t3.5 -2t4.5 3q83 107 141 150q55 40 98 40q32 0 48 -22.5t16 -43.5zM289 866
q9 0 21 -19l65 -95q7 -10 5 -15.5t-10 -5.5q-4 0 -22 10q-34 19 -74 52q-6 4 -11 0q-57 -34 -126 -54q-19 -6 -27 -6q-9 0 -6 9q2 8 15 16q92 55 133 87q28 21 37 21z" />
    <glyph glyph-name="Hbar" unicode="&#x126;" horiz-adv-x="775" 
d="M162 636q0 11 30 11q16 0 49 -2t54 -2q37 0 73 2t38 2q26 0 26 -10q0 -14 -31 -16q-20 -1 -33.5 -6.5t-22.5 -16.5t-12.5 -18.5t-9.5 -23.5q-16 -37 -27 -72q-3 -10 3 -10l343 3q8 0 11 10l17 66q9 37 -1.5 51.5t-47.5 19.5q-23 2 -23 12q0 11 29 11q9 0 47.5 -2t60.5 -2
q21 0 58 2t51 2q24 0 24 -11q-1 -10 -30 -14q-34 -4 -51 -20.5t-31 -51.5q-8 -17 -23 -62q-3 -10 3 -10q5 0 23.5 0.5t25.5 0.5q15 0 11 -11q-2 -9 -8 -16t-13 -7q-9 0 -23.5 -0.5t-25.5 -0.5q-9 -2 -12 -10q-74 -228 -93 -325q-11 -47 -2.5 -65t49.5 -23q24 -4 24 -14
q0 -11 -26 -11q-18 0 -64 2t-63 2q-23 0 -56 -2t-44 -2q-27 0 -27 11q2 10 28 13q37 3 53 18t29 46q31 77 63 192q0 1 -3 4.5t-4 3.5q-79 2 -328 -4q-11 0 -24 -34q-29 -72 -42 -146q-8 -42 2.5 -57.5t49.5 -22.5q25 -3 25 -15t-31 -12q-7 0 -47 3.5t-64 3.5
q-23 0 -49.5 -1.5t-44.5 -3t-20 -1.5q-28 0 -28 13q0 11 27 14q40 4 58 19.5t35 62.5q18 43 104 326q1 2 -3 6t-6 4h-61q-3 0 -6 3t-3 4q0 14 11 22q4 2 12 4h57q3 0 8 4.5t6 6.5l21 73q10 33 1 47.5t-51 19.5q-25 4 -25 13zM341 323q173 -2 240 4q14 1 18.5 5t12.5 23
q2 5 11 35.5t14 43.5q3 10 -5 10l-344 -4q-6 0 -8 -7q-24 -75 -25 -84q-5 -21 5 -24q13 -2 81 -2z" />
    <glyph glyph-name="hbar" unicode="&#x127;" horiz-adv-x="490" 
d="M454 335q0 -69 -35.5 -153t-70.5 -123q-29 -31 -65 -56q-34 -22 -50 -22q-21 0 -30 10q-12 13 -12 24q0 6 7 17.5t11 14.5q5 3 9 2q4 -2 15 -7t20.5 -8t18.5 -3q10 0 20 15q23 32 55.5 131.5t32.5 142.5q0 40 -29 40q-30 0 -62.5 -31t-94.5 -111q-17 -23 -38 -58
t-36 -62.5l-30.5 -56.5t-17.5 -33q-5 -9 -14.5 -16.5t-17.5 -7.5q-11 0 -19 10.5t-6 20.5l160 510q3 10 -3 10l-72 -1q-5 0 -5 10q0 5 4 13.5t9 8.5l75 2q2 0 7 7l10 35q7 17 2.5 27t-29.5 18q-19 6 -19 16q0 6 15 13q15 6 60 18t59 12q5 0 7.5 -8.5t-1.5 -18.5
q-5 -20 -35 -110q-2 -8 4 -8l85 1q3 0 6.5 -3.5t3.5 -7.5q0 -6 -4 -13t-6 -7l-95 -3q-6 0 -10 -11l-99 -305q-1 -5 0 -7t3.5 -2t4.5 3q84 110 141 152q55 40 98 40q32 0 47.5 -24.5t15.5 -46.5z" />
    <glyph glyph-name="Itilde" unicode="&#x128;" horiz-adv-x="342" 
d="M159 634q0 11 28 11q19 0 46 -1t43 -1q31 0 71.5 1.5t50.5 1.5q26 0 26 -9q0 -12 -30 -17q-39 -7 -51 -18t-28 -52q-16 -40 -66 -219t-60 -227q-9 -48 -1.5 -61t42.5 -20q24 -4 24 -15t-29 -11q-19 0 -45.5 1.5t-42.5 1.5q-22 0 -68 -2.5t-61 -2.5q-28 0 -28 11
q0 4 7.5 8.5t18.5 5.5q43 6 60.5 22.5t35.5 66.5q14 38 61.5 203t61.5 223q11 46 4 63t-41 21q-28 5 -29 15zM190 724q19 32 35 46q11 11 28 11q137 0 148 3q9 2 16 7t12.5 11.5t6.5 6.5l10 10q5 -1 12 -13q5 -7 -5 -15l-43 -55q-13 -14 -26 -14q-6 0 -46.5 1t-69.5 0.5
t-36 -2.5q-10 -3 -33 -33q-1 -4 -6 -4t-9.5 6t-4.5 9q0 5 11 25z" />
    <glyph glyph-name="itilde" unicode="&#x129;" horiz-adv-x="268" 
d="M206 404q6 0 14.5 -8.5t8.5 -15.5q0 -9 -10 -34l-114 -272q-2 -5 1 -11t10 -6q11 0 42 24.5t51 47.5q13 14 23 14q5 0 5 -6q0 -15 -18 -36q-36 -42 -89 -79.5t-82 -37.5q-11 0 -20.5 8.5t-9.5 16.5q0 7 5 18l124 295q3 6 -0.5 11t-7.5 3q-36 -12 -75 -46q-4 -4 -8 -2
t-4 7q0 10 13 25q17 21 67 52.5t74 31.5zM158 531q-11 0 -32 -23q-6 -6 -10 -6q-2 0 -8 7t-6 9q0 1 8.5 12t24.5 27.5t33 27.5q11 5 18 4q37 -11 95 -11q22 0 31 7q14 10 29 28q2 3 11 -3.5t9 -10.5q0 -7 -5 -9l-63 -64q-7 -7 -13 -7t-52 6t-70 6z" />
    <glyph glyph-name="Imacron" unicode="&#x12a;" horiz-adv-x="342" 
d="M159 634q0 11 28 11q19 0 46 -1t43 -1q31 0 71.5 1.5t50.5 1.5q26 0 26 -9q0 -12 -30 -17q-39 -7 -51 -18t-28 -52q-16 -40 -66 -219t-60 -227q-9 -48 -1.5 -61t42.5 -20q24 -4 24 -15t-29 -11q-19 0 -45.5 1.5t-42.5 1.5q-22 0 -68 -2.5t-61 -2.5q-28 0 -28 11
q0 4 7.5 8.5t18.5 5.5q43 6 60.5 22.5t35.5 66.5q14 38 61.5 203t61.5 223q11 46 4 63t-41 21q-28 5 -29 15zM208 759l221 5q7 0 7 -16t-12 -33q-5 -8 -17 -8l-215 -6q-3 0 -6.5 3t-3.5 6q2 25 12 39q1 2 6 6t8 4z" />
    <glyph glyph-name="imacron" unicode="&#x12b;" horiz-adv-x="268" 
d="M206 404q6 0 14.5 -8.5t8.5 -15.5q0 -9 -10 -34l-114 -272q-2 -5 1 -11t10 -6q11 0 42 24.5t51 47.5q13 14 23 14q5 0 5 -6q0 -15 -18 -36q-36 -42 -89 -79.5t-82 -37.5q-11 0 -20.5 8.5t-9.5 16.5q0 7 5 18l124 295q3 6 -0.5 11t-7.5 3q-36 -12 -75 -46q-4 -4 -8 -2
t-4 7q0 10 13 25q17 21 67 52.5t74 31.5zM123 570l198 7q2 0 4 -2.5t3 -7.5t0 -13q-5 -32 -21 -32l-197 -4q-11 0 -7 18q3 11 9.5 22.5t10.5 11.5z" />
    <glyph glyph-name="Ibreve" unicode="&#x12c;" horiz-adv-x="342" 
d="M159 634q0 11 28 11q19 0 46 -1t43 -1q31 0 71.5 1.5t50.5 1.5q26 0 26 -9q0 -12 -30 -17q-39 -7 -51 -18t-28 -52q-16 -40 -66 -219t-60 -227q-9 -48 -1.5 -61t42.5 -20q24 -4 24 -15t-29 -11q-19 0 -45.5 1.5t-42.5 1.5q-22 0 -68 -2.5t-61 -2.5q-28 0 -28 11
q0 4 7.5 8.5t18.5 5.5q43 6 60.5 22.5t35.5 66.5q14 38 61.5 203t61.5 223q11 46 4 63t-41 21q-28 5 -29 15zM297 693q-47 0 -74 27t-21 68q2 18 10 18q4 0 6 -2.5t5 -8.5l4 -8q19 -39 83 -39q67 0 113 40q2 2 6 6.5t7 7t6.5 5t7.5 2.5q5 0 5 -9t-5 -18q-17 -35 -56 -62
t-97 -27z" />
    <glyph glyph-name="ibreve" unicode="&#x12d;" horiz-adv-x="268" 
d="M206 404q6 0 14.5 -8.5t8.5 -15.5q0 -9 -10 -34l-114 -272q-2 -5 1 -11t10 -6q11 0 42 24.5t51 47.5q13 14 23 14q5 0 5 -6q0 -15 -18 -36q-36 -42 -89 -79.5t-82 -37.5q-11 0 -20.5 8.5t-9.5 16.5q0 7 5 18l124 295q3 6 -0.5 11t-7.5 3q-36 -12 -75 -46q-4 -4 -8 -2
t-4 7q0 10 13 25q17 21 67 52.5t74 31.5zM200 484q-38 0 -60.5 29.5t-10.5 90.5q1 10 7.5 15t12.5 5q7 0 9 -22q2 -33 16 -47.5t44 -14.5q50 0 90 62q12 20 22 20t3 -27q-12 -40 -46.5 -75.5t-86.5 -35.5z" />
    <glyph glyph-name="Iogonek" unicode="&#x12e;" horiz-adv-x="342" 
d="M160 633q0 12 28 12q19 0 49 -1t46 -1q30 0 66.5 1.5t47.5 1.5q27 0 27 -9q0 -12 -27 -17q-38 -6 -51 -17.5t-30 -52.5q-12 -29 -62.5 -210t-63.5 -236q-11 -48 -4 -60t45 -21q23 -5 23 -13q0 -13 -26 -13q-31 0 -75 2q-33 -28 -57.5 -64.5t-25.5 -66.5q-4 -43 31 -49
q32 -3 61 16q8 4 11 1.5t2 -8.5q-2 -11 -12 -21q-38 -46 -95 -46q-30 -1 -49.5 15.5t-22.5 42.5q-3 41 31.5 86.5t84.5 80.5q-3 7 2 14q-22 0 -56 -2.5t-48 -2.5q-27 0 -27 11q0 10 26 15q46 9 59 21t33 63q12 32 58.5 192.5t64.5 229.5q15 53 9.5 69t-44.5 23q-28 5 -29 14
z" />
    <glyph glyph-name="iogonek" unicode="&#x12f;" horiz-adv-x="268" 
d="M202 404q14 0 20.5 -7.5t6.5 -15.5q0 -9 -10 -34l-114 -273q-7 -16 5 -16q9 0 45.5 27t54.5 44q13 14 21 14q7 0 7 -7q0 -13 -19 -34q-17 -19 -81 -72q-67 -61 -95 -98t-28 -77q0 -17 11.5 -27t27.5 -10q34 0 62 21q7 4 9 1t0 -10q-4 -14 -14 -24q-40 -48 -104 -48
q-31 0 -49 19.5t-18 48.5q0 66 119 160q-10 -2 -14 -2q-11 0 -19 6.5t-8 14.5q0 9 6 23l123 295q9 21 -10 12q-33 -15 -71 -43q-4 -3 -7.5 -1t-3.5 7q0 8 11 21q19 22 65.5 53.5t70.5 31.5zM228 608q16 0 27 -13t12 -30q0 -21 -13 -36.5t-32 -15.5q-17 0 -27.5 12.5
t-10.5 30.5q0 24 14.5 38t29.5 14z" />
    <glyph glyph-name="Idotaccent" unicode="&#x130;" horiz-adv-x="342" 
d="M159 634q0 11 28 11q19 0 46 -1t43 -1q31 0 71.5 1.5t50.5 1.5q26 0 26 -9q0 -12 -30 -17q-39 -7 -51 -18t-28 -52q-16 -40 -66 -219t-60 -227q-9 -48 -1.5 -61t42.5 -20q24 -4 24 -15t-29 -11q-19 0 -45.5 1.5t-42.5 1.5q-22 0 -68 -2.5t-61 -2.5q-28 0 -28 11
q0 4 7.5 8.5t18.5 5.5q43 6 60.5 22.5t35.5 66.5q14 38 61.5 203t61.5 223q11 46 4 63t-41 21q-28 5 -29 15zM317 792q14 0 26.5 -14t11.5 -33q-1 -22 -17.5 -36t-35.5 -14t-30 12.5t-10 33.5q2 21 18 36t37 15z" />
    <glyph glyph-name="dotlessi" unicode="&#x131;" horiz-adv-x="268" 
d="M206 404q6 0 14.5 -8.5t8.5 -15.5q0 -9 -10 -34l-114 -272q-2 -5 1 -11t10 -6q11 0 42 24.5t51 47.5q13 14 23 14q5 0 5 -6q0 -15 -18 -36q-36 -42 -89 -79.5t-82 -37.5q-11 0 -20.5 8.5t-9.5 16.5q0 7 5 18l124 295q3 6 -0.5 11t-7.5 3q-36 -12 -75 -46q-4 -4 -8 -2
t-4 7q0 10 13 25q17 21 67 52.5t74 31.5z" />
    <glyph glyph-name="IJ" unicode="&#x132;" horiz-adv-x="685" 
d="M159 634q0 11 28 11q19 0 46 -1t43 -1q31 0 71.5 1.5t50.5 1.5q26 0 26 -9q0 -12 -30 -17q-39 -7 -51 -18t-28 -52q-16 -40 -66 -219t-60 -227q-9 -48 -1.5 -61t42.5 -20q24 -4 24 -15t-29 -11q-19 0 -45.5 1.5t-42.5 1.5q-22 0 -68 -2.5t-61 -2.5q-28 0 -28 11
q0 4 7.5 8.5t18.5 5.5q43 6 60.5 22.5t35.5 66.5q14 38 61.5 203t61.5 223q11 46 4 63t-41 21q-28 5 -29 15zM274 -207q-52 0 -71 23q-13 15 -13 40q0 13 4 22.5t8 12.5t7 3q14 0 60 -35q33 -24 58 -24q28 0 55 53t74 212q94 321 120 431q13 46 3.5 65.5t-53.5 23.5
q-29 3 -29 16q0 10 27 10q16 0 51.5 -1.5t53.5 -1.5q32 0 68 1.5t48 1.5q27 0 27 -10q0 -9 -27 -15q-37 -7 -48.5 -20t-27.5 -59q-9 -26 -120 -414q-21 -83 -52 -156q-36 -87 -102 -133t-121 -46z" />
    <glyph glyph-name="ij" unicode="&#x133;" horiz-adv-x="509" 
d="M206 404q6 0 14.5 -8.5t8.5 -15.5q0 -9 -10 -34l-114 -272q-2 -5 1 -11t10 -6q11 0 42 23t51 44q17 19 23 19q5 0 5 -6q0 -15 -18 -36q-36 -42 -89 -79.5t-82 -37.5q-11 0 -20.5 8.5t-9.5 16.5q0 7 5 18l124 295q3 6 -0.5 11t-7.5 3q-38 -12 -74 -44q-4 -4 -8.5 -3
t-4.5 6q0 10 13 25q17 21 67 52.5t74 31.5zM231 605q16 0 26 -12t10 -28q0 -20 -14.5 -37t-31.5 -17q-7 0 -15 3q-22 13 -22 37t20 42q15 12 27 12zM488 608q37 0 37 -47q0 -20 -16 -35t-30 -15t-25.5 12.5t-11.5 28.5q0 28 23 47q12 9 23 9zM471 410q9 0 14 -17.5t1 -33.5
q-110 -370 -148 -457q-52 -118 -131 -158q-39 -21 -69 -21q-28 0 -46.5 14.5t-18.5 26.5q0 19 22 36q16 9 26 1q37 -34 67 -34q21 0 34 18t33 62q21 51 81 245t69 230q3 14 -11 14q-17 0 -62 -33q-7 -5 -12.5 -6t-8.5 0.5t-3 4.5q0 8 12 22q22 24 72 55t79 31z" />
    <glyph glyph-name="Jcircumflex" unicode="&#x134;" horiz-adv-x="342" 
d="M-68 -207q-52 0 -71 23q-13 15 -13 40q0 13 4 22.5t8 12.5t7 3q14 0 60 -35q33 -24 58 -24q28 0 55 53t74 212q94 321 120 431q13 46 3.5 65.5t-53.5 23.5q-29 3 -29 16q0 10 27 10q16 0 51.5 -1.5t53.5 -1.5q32 0 68 1.5t48 1.5q27 0 27 -10q0 -9 -27 -15
q-37 -7 -48.5 -20t-27.5 -59q-9 -26 -120 -414q-21 -83 -52 -156q-36 -87 -102 -133t-121 -46zM358 825q9 0 21 -19l65 -95q7 -11 5 -16t-10 -5q-4 0 -22 10q-34 19 -74 52q-5 4 -11 0q-57 -34 -126 -54q-19 -6 -27 -6q-9 0 -6 9q2 8 15 16q92 55 133 87q28 21 37 21z" />
    <glyph glyph-name="jcircumflex" unicode="&#x135;" horiz-adv-x="241" 
d="M212 410q9 0 14 -17.5t1 -33.5q-11 -40 -71.5 -220t-85.5 -237q-52 -118 -131 -158q-39 -21 -69 -21q-28 0 -46.5 14.5t-18.5 26.5q0 19 22 36q15 10 26 1q37 -34 67 -34q21 0 34 18t33 62q22 53 87 250t72 225q3 14 -10 14q-18 0 -63 -33q-7 -5 -12.5 -6t-8.5 0.5
t-3 4.5q0 9 13 22q21 24 71 55t79 31zM250 640q10 0 13 -26q10 -68 17 -145q1 -9 -3 -16.5t-10 -7.5q-9 0 -16 24q-2 9 -10.5 34l-14.5 44q-2 7 -9 1q-10 -11 -25.5 -26l-36.5 -35l-32 -30q-12 -12 -24 -12q-5 0 -6.5 4t1 10.5t7.5 13.5q53 57 115 140q24 27 34 27z" />
    <glyph glyph-name="Kcommaaccent" unicode="&#x136;" horiz-adv-x="670" 
d="M167 635q0 10 29 10q19 0 47 -1t53 -1q22 0 56 1.5t49 1.5q27 0 27 -10t-27 -15q-35 -6 -53 -20.5t-28 -46.5q-46 -137 -63 -195q-3 -13 7 -13t30 5.5t27 9.5q50 31 126.5 95t121.5 109q23 26 18.5 37t-33.5 17q-17 6 -17 15q0 10 30 10q7 0 24 -0.5t26 -0.5q36 0 80.5 3
t64.5 3q27 0 27 -10t-30 -16q-35 -4 -67 -18.5t-51.5 -28.5t-56.5 -44l-212 -169q-13 -13 -13 -17q0 -15 19 -56q73 -163 116 -218q48 -53 104 -53q30 0 30 -13t-38 -13q-23 0 -60.5 2.5t-61.5 2.5q-18 0 -25 4q-24 15 -53 76q-32 63 -98 214q-15 32 -34 32q-10 0 -18 -23
q-31 -93 -54 -195q-9 -38 2.5 -56.5t48.5 -26.5q29 -7 29 -18q0 -10 -27 -10q-8 0 -55 2.5t-65 2.5q-14 0 -56 -2.5t-53 -2.5q-30 0 -30 12q0 9 30 15q35 7 53.5 24t31.5 51q17 44 65.5 205t68.5 233q15 47 10.5 63t-44.5 21q-28 5 -28 16zM305 -46q23 0 37.5 -16t14.5 -44
q0 -55 -41.5 -85t-79.5 -30q-13 0 -13 8t15 13q27 10 46 27.5t20 40.5q0 16 -17 17q-28 3 -28 31q0 14 13.5 26t32.5 12z" />
    <glyph glyph-name="kcommaaccent" unicode="&#x137;" horiz-adv-x="443" 
d="M370 403q23 0 38 -12.5t15 -28.5q0 -19 -21.5 -51t-56.5 -56q-53 -35 -107 -56q-6 -2 -6 -10q14 -64 33 -108q17 -36 36 -36q13 0 36 17t40 40q9 12 15 12q13 0 1 -26q-3 -6 -7 -12q-27 -39 -59.5 -66t-56.5 -27q-31 0 -57 61q-15 37 -35 97q-6 17 -17 27.5t-19 10.5
q-16 0 -25 -20l-68 -160q-6 -13 -15 -13q-11 0 -23 7.5t-12 14.5q0 8 9 33q25 61 196 582q4 11 0.5 17t-20.5 12q-17 7 -17 12q1 9 15 16q10 6 55.5 16.5t58.5 10.5q2 0 3 -3t1 -8t-1 -10q-2 -8 -29 -80l-65 -175.5l-60 -166.5q-3 -7 3 -7q8 0 12 7q54 80 127 117
q43 22 83 22zM318 361q-21 0 -50 -17q-59 -36 -103 -120q-3 -7 0.5 -12.5t9.5 -4.5q58 4 117 50t59 83q0 21 -33 21zM144 -37q23 0 37.5 -16t14.5 -44q0 -55 -41.5 -85t-79.5 -30q-13 0 -13 8t15 13q27 10 46 27.5t20 40.5q0 16 -17 17q-28 4 -28 31q0 14 13.5 26t32.5 12z
" />
    <glyph glyph-name="kgreenlandic" unicode="&#x138;" horiz-adv-x="452" 
d="M416 106q0 -15 -10 -32q-26 -41 -60 -65.5t-60 -24.5q-21 0 -39.5 17t-27.5 50q-3 10 -6.5 23t-8.5 34l-9 37q-8 37 -18 37q-6 0 -12 -10q-20 -26 -34 -53l-51 -101q-14 -29 -22 -29q-10 0 -20.5 7.5t-10.5 23.5q0 23 18 54q45 96 103 244q2 7 3 10t1 7.5t-3.5 6.5
t-10.5 2q-31 0 -77 -36q-11 -7 -11 5q0 11 9 22q21 28 53.5 48.5t62.5 20.5q62 0 22 -103q-7 -21 -21 -53t-15 -33q-2 -9 1 -10.5t9 4.5q9 9 44.5 48.5t63.5 67.5t66.5 53.5t67.5 25.5q17 0 28.5 -14t11.5 -36q0 -6 -3 -10.5t-6 -3.5q-21 6 -50 6q-32 0 -77.5 -29.5
t-94.5 -88.5q-1 -1 -1.5 -3.5t0.5 -3.5q16 -19 26 -57q19 -68 35 -92.5t34 -24.5q21 0 41.5 16t49.5 50q1 1 3 0.5t4 -3t2 -4.5z" />
    <glyph glyph-name="Lacute" unicode="&#x139;" horiz-adv-x="613" 
d="M281 23q134 0 157 9q58 25 104 111q9 18 14 24t12 6q6 -2 5 -14t-6 -27q-7 -20 -30.5 -67l-26.5 -53q-6 -14 -20 -16q-20 -5 -101 -5q-27 0 -139 4.5t-147 4.5q-21 0 -60.5 -2.5t-49.5 -2.5q-31 0 -31 12q0 10 31 13q43 5 65 19.5t36 51.5q25 66 75.5 218.5t68.5 212.5
q19 62 14 76.5t-42 21.5q-29 6 -29 17q0 10 28 10q10 0 38.5 -2t44.5 -2q8 0 63 2.5t81 2.5q27 0 27 -11q0 -10 -27 -14q-46 -4 -66 -19t-35 -53q-21 -51 -81.5 -234t-72.5 -234q-5 -31 19 -46q24 -14 81 -14zM501 797q0 -9 -27 -25q-113 -64 -153 -81q-29 -10 -35 -4
q-8 10 13 28q96 81 143 113q16 11 24 5q10 -4 23 -15t12 -21z" />
    <glyph glyph-name="lacute" unicode="&#x13a;" horiz-adv-x="258" 
d="M169 679q0 4 5 9t13 6q2 0 24 3.5l43.5 7t30.5 6.5q18 6 29 6q10 0 1 -31l-126 -346.5t-94 -269.5q-5 -14 -3.5 -28t9.5 -14q9 0 35 22.5t53 49.5t34 31q10 7 12 -1q0 -11 -6 -23q-27 -54 -78.5 -88.5t-95.5 -34.5q-14 0 -28 13t-14 25q0 7 33 103l174 493q9 30 4 37.5
t-31 13.5q-24 5 -24 10zM438 865q0 -9 -27 -25q-113 -64 -153 -81q-29 -10 -35 -4q-8 10 13 28q96 81 143 113q16 11 24 5q10 -4 23 -15t12 -21z" />
    <glyph glyph-name="Lcommaaccent" unicode="&#x13b;" horiz-adv-x="613" 
d="M281 23q134 0 157 9q58 25 104 111q9 18 14 24t12 6q6 -2 5 -14t-6 -27q-7 -20 -30.5 -67l-26.5 -53q-6 -14 -20 -16q-20 -5 -101 -5q-27 0 -139 4.5t-147 4.5q-21 0 -60.5 -2.5t-49.5 -2.5q-31 0 -31 12q0 10 31 13q43 5 65 19.5t36 51.5q25 66 75.5 218.5t68.5 212.5
q19 62 14 76.5t-42 21.5q-29 6 -29 17q0 10 28 10q10 0 38.5 -2t44.5 -2q8 0 63 2.5t81 2.5q27 0 27 -11q0 -10 -27 -14q-46 -4 -66 -19t-35 -53q-21 -51 -81.5 -234t-72.5 -234q-5 -31 19 -46q24 -14 81 -14zM271 -46q23 0 37.5 -16t14.5 -44q0 -55 -41.5 -85t-79.5 -30
q-13 0 -13 8t15 13q27 10 46 27.5t20 40.5q0 16 -17 17q-28 3 -28 31q0 14 13.5 26t32.5 12z" />
    <glyph glyph-name="lcommaaccent" unicode="&#x13c;" horiz-adv-x="258" 
d="M169 679q0 4 5 9t13 6q2 0 24 3.5l43.5 7t30.5 6.5q18 6 29 6q10 0 1 -31l-126 -346.5t-94 -269.5q-5 -14 -3.5 -28t9.5 -14q9 0 35 22.5t53 49.5t34 31q10 7 12 -1q0 -11 -6 -23q-27 -54 -78.5 -88.5t-95.5 -34.5q-14 0 -28 13t-14 25q0 7 33 103l174 493q9 30 4 37.5
t-31 13.5q-24 5 -24 10zM43 -46q23 0 37.5 -16t14.5 -44q0 -55 -41.5 -85t-79.5 -30q-13 0 -13 8t15 13q27 10 46 27.5t20 40.5q0 16 -17 17q-28 3 -28 31q0 14 13.5 26t32.5 12z" />
    <glyph glyph-name="Lcaron" unicode="&#x13d;" horiz-adv-x="613" 
d="M281 23q134 0 157 9q58 25 104 111q9 18 14 24t12 6q6 -2 5 -14t-6 -27q-7 -20 -30.5 -67l-26.5 -53q-6 -14 -20 -16q-20 -5 -101 -5q-27 0 -139 4.5t-147 4.5q-21 0 -60.5 -2.5t-49.5 -2.5q-31 0 -31 12q0 10 31 13q43 5 65 19.5t36 51.5q25 66 75.5 218.5t68.5 212.5
q19 62 14 76.5t-42 21.5q-29 6 -29 17q0 10 28 10q10 0 38.5 -2t44.5 -2q8 0 63 2.5t81 2.5q27 0 27 -11q0 -10 -27 -14q-46 -4 -66 -19t-35 -53q-21 -51 -81.5 -234t-72.5 -234q-5 -31 19 -46q24 -14 81 -14zM621 675q10 0 6 -22q-6 -25 -32.5 -78.5t-47.5 -85.5
q-14 -17 -30 -17q-7 0 -3 20q26 79 43 149q2 7 10 12q29 22 54 22z" />
    <glyph glyph-name="lcaron" unicode="&#x13e;" horiz-adv-x="258" 
d="M169 679q0 4 5 9t13 6q2 0 24 3.5l43.5 7t30.5 6.5q18 6 29 6q10 0 1 -31l-126 -346.5t-94 -269.5q-5 -14 -3.5 -28t9.5 -14q9 0 35 22.5t53 49.5t34 31q10 7 12 -1q0 -11 -6 -23q-27 -54 -78.5 -88.5t-95.5 -34.5q-14 0 -28 13t-14 25q0 7 33 103l174 493q9 30 4 37.5
t-31 13.5q-24 5 -24 10zM428 713q10 0 6 -22q-6 -25 -32.5 -78.5t-47.5 -85.5q-14 -17 -30 -17q-7 0 -3 20q26 79 43 149q2 7 10 12q29 22 54 22z" />
    <glyph glyph-name="Ldot" unicode="&#x13f;" horiz-adv-x="613" 
d="M281 23q134 0 157 9q58 25 104 111q9 18 14 24t12 6q6 -2 5 -14t-6 -27q-7 -20 -30.5 -67l-26.5 -53q-6 -14 -20 -16q-20 -5 -101 -5q-27 0 -139 4.5t-147 4.5q-21 0 -60.5 -2.5t-49.5 -2.5q-31 0 -31 12q0 10 31 13q43 5 65 19.5t36 51.5q25 66 75.5 218.5t68.5 212.5
q19 62 14 76.5t-42 21.5q-29 6 -29 17q0 10 28 10q10 0 38.5 -2t44.5 -2q8 0 63 2.5t81 2.5q27 0 27 -11q0 -10 -27 -14q-46 -4 -66 -19t-35 -53q-21 -51 -81.5 -234t-72.5 -234q-5 -31 19 -46q24 -14 81 -14zM536 401q14 0 26.5 -14t11.5 -33q-1 -22 -17.5 -36t-35.5 -14
t-30 12.5t-10 33.5q2 21 18 36t37 15z" />
    <glyph glyph-name="ldot" unicode="&#x140;" horiz-adv-x="258" 
d="M169 679q0 4 5 9t13 6q2 0 24 3.5l43.5 7t30.5 6.5q18 6 29 6q10 0 1 -31l-126 -346.5t-94 -269.5q-5 -14 -3.5 -28t9.5 -14q9 0 35 22.5t53 49.5t34 31q10 7 12 -1q0 -11 -6 -23q-27 -54 -78.5 -88.5t-95.5 -34.5q-14 0 -28 13t-14 25q0 7 33 103l174 493q9 30 4 37.5
t-31 13.5q-24 5 -24 10zM284 386q18 0 28 -13t10 -31q0 -22 -13 -36t-33 -14q-17 0 -26.5 12.5t-9.5 30.5q0 21 14.5 36t29.5 15z" />
    <glyph glyph-name="Lslash" unicode="&#x141;" horiz-adv-x="616" 
d="M181 637q0 10 28 10q10 0 38.5 -2t44.5 -2q8 0 63 2.5t81 2.5q27 0 27 -11q0 -10 -27 -14q-46 -4 -65.5 -19t-35.5 -53q-29 -75 -68 -195q0 -7 8 -5l142 42q5 1 9.5 -7t4.5 -14q0 -7 -16 -12l-159 -51q-1 0 -4.5 -4.5t-4.5 -7.5q-52 -160 -66 -214q-5 -31 19 -46
q24 -14 79 -14q129 0 158 15q69 39 105 105q9 18 14 24t12 6q6 -2 5 -14t-6 -27q-7 -20 -30.5 -67l-26.5 -53q-6 -14 -20 -16q-20 -5 -101 -5q-27 0 -139 4.5t-147 4.5q-21 0 -60.5 -2.5t-49.5 -2.5q-31 0 -31 12q0 10 31 13q43 5 65 19.5t36 51.5q6 16 61 181q0 1 -0.5 2
t-2.5 3t-6 0l-75 -18q-3 -1 -9 7.5t-6 13.5t11 9l99 29q9 4 12 12l60 192q19 62 14 76.5t-42 21.5q-29 6 -29 17z" />
    <glyph glyph-name="lslash" unicode="&#x142;" horiz-adv-x="273" 
d="M179 677q0 12 18 15q90 16 92 17q18 6 31 6q3 0 5 -4.5t2 -11.5t-3 -15l-103 -278v-4t1 -3t2 -1q52 12 73 18q3 1 5.5 -3.5t2.5 -9.5q0 -16 -13 -20l-45.5 -13.5t-31.5 -9.5q-2 -1 -8 -7t-7 -8l-94 -270q-12 -36 7 -36q14 0 52 30t69 64q9 9 11 -3q0 -13 -5 -21
q-30 -54 -80 -89t-93 -35q-18 0 -31 10t-13 29q0 3 34 102l73 205q1 7 -2 8l-15 -3t-23 -5t-20 -4q-3 -1 -5.5 1.5t-2.5 6.5q0 14 11 20l64 20q10 2 14 15l79 227q9 30 3.5 37.5t-30.5 12.5q-24 5 -24 10z" />
    <glyph glyph-name="Nacute" unicode="&#x143;" horiz-adv-x="755" 
d="M139 635q0 11 34 11q14 0 49.5 -1.5t63.5 -1.5q31 0 47 2q4 1 11 -8t11 -22q16 -50 93.5 -247t98.5 -239q5 -12 10 -3q31 90 73 236t49 183q8 41 -4 56t-59 21q-30 4 -30 14q0 11 28 11q15 0 49 -2t47 -2q57 0 107 4q9 1 16 -0.5t10 -4t3 -5.5q0 -9 -30 -16
q-36 -8 -57 -26t-42 -76q-51 -142 -130 -417q-6 -20 -6 -31q0 -27 33 -48q2 -1 4.5 -2.5t4 -2.5l3 -2t2.5 -2t1.5 -2.5t0.5 -3.5q0 -11 -22 -11q-7 0 -26 1t-22 1q-36 0 -48 -2q-5 0 -10 4.5t-6 9.5q-5 32 -29 89l-145 377q-28 71 -31 74t-7.5 0t-6.5 -8
q-21 -58 -63.5 -208.5t-50.5 -201.5q-9 -58 1.5 -80.5t52.5 -30.5q31 -6 31 -16q0 -12 -32 -12q-11 0 -46.5 3t-56.5 3t-60 -3t-52 -3q-32 0 -32 13q0 11 28 14q45 7 70.5 23.5t38.5 58.5q129 405 135 427q11 41 9 52q-7 25 -27 30q-7 2 -17.5 3.5l-22 3t-15.5 2.5
q-29 5 -29 14zM659 796q0 -9 -27 -25q-113 -64 -153 -81q-29 -10 -35 -4q-8 10 13 28q96 81 143 113q16 11 24 5q10 -4 23 -15t12 -21z" />
    <glyph glyph-name="nacute" unicode="&#x144;" horiz-adv-x="507" 
d="M395 404q27 0 42 -17.5t15 -39.5q0 -23 -14 -59q-15 -39 -48 -111.5t-42 -88.5q-14 -27 3 -27q26 0 90 60q4 3 8.5 5t8 1t3.5 -4q0 -10 -12 -29q-25 -38 -80.5 -74t-83.5 -36q-18 0 -32 17q-11 11 1 33q13 24 72.5 148t65.5 145q7 23 2.5 33.5t-16.5 10.5q-42 0 -113 -86
q-19 -21 -52.5 -70l-68.5 -103t-45 -68q-39 -61 -51 -61q-9 0 -18.5 10t-9.5 18q-1 10 31 83l31.5 68l41.5 90.5t32 76.5q8 16 -9 16q-14 0 -30 -8.5t-21.5 -13.5l-25.5 -23q-10 -10 -13 -10q-6 0 -6 10q0 28 37 66t93 38q24 0 37 -20q5 -9 -2 -26l-61 -145q-3 -6 3 -6.5
t9 5.5q17 25 58.5 73.5t65.5 68.5q58 50 104 50zM392 616q12 16 22 16q8 0 17.5 -16t8.5 -30q-2 -9 -14 -25q-37 -44 -99 -104q-16 -16 -28 -16q-6 1 -6 10.5t5 16.5q28 50 94 148z" />
    <glyph glyph-name="Ncommaaccent" unicode="&#x145;" horiz-adv-x="755" 
d="M139 635q0 11 34 11q14 0 49.5 -1.5t63.5 -1.5q31 0 47 2q4 1 11 -8t11 -22q16 -50 93.5 -247t98.5 -239q5 -12 10 -3q31 90 73 236t49 183q8 41 -4 56t-59 21q-30 4 -30 14q0 11 28 11q15 0 49 -2t47 -2q57 0 107 4q9 1 16 -0.5t10 -4t3 -5.5q0 -9 -30 -16
q-36 -8 -57 -26t-42 -76q-51 -142 -130 -417q-6 -20 -6 -31q0 -27 33 -48q2 -1 4.5 -2.5t4 -2.5l3 -2t2.5 -2t1.5 -2.5t0.5 -3.5q0 -11 -22 -11q-7 0 -26 1t-22 1q-36 0 -48 -2q-5 0 -10 4.5t-6 9.5q-5 32 -29 89l-145 377q-28 71 -31 74t-7.5 0t-6.5 -8
q-21 -58 -63.5 -208.5t-50.5 -201.5q-9 -58 1.5 -80.5t52.5 -30.5q31 -6 31 -16q0 -12 -32 -12q-11 0 -46.5 3t-56.5 3t-60 -3t-52 -3q-32 0 -32 13q0 11 28 14q45 7 70.5 23.5t38.5 58.5q129 405 135 427q11 41 9 52q-7 25 -27 30q-7 2 -17.5 3.5l-22 3t-15.5 2.5
q-29 5 -29 14zM341 -36q23 0 37.5 -16t14.5 -44q0 -55 -41.5 -85t-79.5 -30q-13 0 -13 8t15 13q27 10 46 27.5t20 40.5q0 16 -17 17q-28 3 -28 31q0 14 13.5 26t32.5 12z" />
    <glyph glyph-name="ncommaaccent" unicode="&#x146;" horiz-adv-x="507" 
d="M395 404q27 0 42 -17.5t15 -39.5q0 -23 -14 -59q-15 -39 -48 -111.5t-42 -88.5q-14 -27 3 -27q26 0 90 60q4 3 8.5 5t8 1t3.5 -4q0 -10 -12 -29q-25 -38 -80.5 -74t-83.5 -36q-18 0 -32 17q-11 11 1 33q13 24 72.5 148t65.5 145q7 23 2.5 33.5t-16.5 10.5q-42 0 -113 -86
q-19 -21 -52.5 -70l-68.5 -103t-45 -68q-39 -61 -51 -61q-9 0 -18.5 10t-9.5 18q-1 10 31 83l31.5 68l41.5 90.5t32 76.5q8 16 -9 16q-14 0 -30 -8.5t-21.5 -13.5l-25.5 -23q-10 -10 -13 -10q-6 0 -6 10q0 28 37 66t93 38q24 0 37 -20q5 -9 -2 -26l-61 -145q-3 -6 3 -6.5
t9 5.5q17 25 58.5 73.5t65.5 68.5q58 50 104 50zM174 -46q23 0 37.5 -16t14.5 -44q0 -55 -41.5 -85t-79.5 -30q-13 0 -13 8t15 13q27 10 46 27.5t20 40.5q0 16 -17 17q-28 3 -28 31q0 14 13.5 26t32.5 12z" />
    <glyph glyph-name="Ncaron" unicode="&#x147;" horiz-adv-x="755" 
d="M139 635q0 11 34 11q14 0 49.5 -1.5t63.5 -1.5q31 0 47 2q4 1 11 -8t11 -22q16 -50 93.5 -247t98.5 -239q5 -12 10 -3q31 90 73 236t49 183q8 41 -4 56t-59 21q-30 4 -30 14q0 11 28 11q15 0 49 -2t47 -2q57 0 107 4q9 1 16 -0.5t10 -4t3 -5.5q0 -9 -30 -16
q-36 -8 -57 -26t-42 -76q-51 -142 -130 -417q-6 -20 -6 -31q0 -27 33 -48q2 -1 4.5 -2.5t4 -2.5l3 -2t2.5 -2t1.5 -2.5t0.5 -3.5q0 -11 -22 -11q-7 0 -26 1t-22 1q-36 0 -48 -2q-5 0 -10 4.5t-6 9.5q-5 32 -29 89l-145 377q-28 71 -31 74t-7.5 0t-6.5 -8
q-21 -58 -63.5 -208.5t-50.5 -201.5q-9 -58 1.5 -80.5t52.5 -30.5q31 -6 31 -16q0 -12 -32 -12q-11 0 -46.5 3t-56.5 3t-60 -3t-52 -3q-32 0 -32 13q0 11 28 14q45 7 70.5 23.5t38.5 58.5q129 405 135 427q11 41 9 52q-7 25 -27 30q-7 2 -17.5 3.5l-22 3t-15.5 2.5
q-29 5 -29 14zM496 673q-10 0 -20 20q-11 19 -66 90q-7 9 -6 17.5t8 8.5q9 0 23 -10q52 -34 73 -50q4 -3 14 0q119 52 122 53q14 7 29 7q8 0 7 -8.5t-15 -17.5l-126 -87q-35 -23 -43 -23z" />
    <glyph glyph-name="ncaron" unicode="&#x148;" horiz-adv-x="507" 
d="M395 404q27 0 42 -17.5t15 -39.5q0 -23 -14 -59q-15 -39 -48 -111.5t-42 -88.5q-14 -27 3 -27q26 0 90 60q4 3 8.5 5t8 1t3.5 -4q0 -10 -12 -29q-25 -38 -80.5 -74t-83.5 -36q-18 0 -32 17q-11 11 1 33q13 24 72.5 148t65.5 145q7 23 2.5 33.5t-16.5 10.5q-42 0 -113 -86
q-19 -21 -52.5 -70l-68.5 -103t-45 -68q-39 -61 -51 -61q-9 0 -18.5 10t-9.5 18q-1 10 31 83l31.5 68l41.5 90.5t32 76.5q8 16 -9 16q-14 0 -30 -8.5t-21.5 -13.5l-25.5 -23q-10 -10 -13 -10q-6 0 -6 10q0 28 37 66t93 38q24 0 37 -20q5 -9 -2 -26l-61 -145q-3 -6 3 -6.5
t9 5.5q17 25 58.5 73.5t65.5 68.5q58 50 104 50zM311 447q-8 0 -14 27q-7 73 -18 142q-1 9 2.5 18t9.5 9q8 0 16 -23q21 -60 27 -81q2 -9 10 -1q12 11 44.5 45t46.5 47q13 13 25 13q3 0 4 -3.5t-0.5 -10t-6.5 -14.5q-4 -6 -112 -140q-24 -28 -34 -28z" />
    <glyph glyph-name="napostrophe" unicode="&#x149;" horiz-adv-x="507" 
d="M395 404q27 0 42 -17.5t15 -39.5q0 -23 -14 -59q-15 -39 -48 -111.5t-42 -88.5q-14 -27 3 -27q26 0 90 60q4 3 8.5 5t8 1t3.5 -4q0 -10 -12 -29q-25 -38 -80.5 -74t-83.5 -36q-18 0 -32 17q-11 11 1 33q13 24 72.5 148t65.5 145q7 23 2.5 33.5t-16.5 10.5q-42 0 -113 -86
q-19 -21 -52.5 -70l-68.5 -103t-45 -68q-39 -61 -51 -61q-9 0 -18.5 10t-9.5 18q-1 10 31 83l31.5 68l41.5 90.5t32 76.5q8 16 -9 16q-14 0 -30 -8.5t-21.5 -13.5l-25.5 -23q-10 -10 -13 -10q-6 0 -6 10q0 28 37 66t93 38q24 0 37 -20q5 -9 -2 -26l-61 -145q-3 -6 3 -6.5
t9 5.5q17 25 58.5 73.5t65.5 68.5q58 50 104 50zM230 626q22 0 35.5 -17.5t13.5 -47.5q0 -45 -38 -78t-73 -33q-15 0 -15 7q1 10 17 15q61 34 61 66q0 21 -22 23q-28 8 -28 24q1 20 16 30.5t33 10.5z" />
    <glyph glyph-name="Eng" unicode="&#x14a;" horiz-adv-x="746" 
d="M140 633q0 13 26 13q15 0 64 -2t62 -2q5 0 20.5 0.5t22.5 0.5q10 0 22 -33q15 -44 83.5 -214.5t109.5 -258.5q9 -22 14 -4q78 242 113 402q12 46 1 62t-62 23q-28 4 -28 15q0 12 28 12q15 0 49 -2t47 -2q23 0 63.5 1.5t48.5 1.5q21 0 21 -11q2 -7 -23 -14
q-43 -10 -62.5 -24.5t-36.5 -60.5q-15 -40 -128 -421q-58 -194 -94 -249q-46 -63 -80 -63q-23 0 -36 13q-18 17 -18 50q0 6 4.5 10.5t10.5 3.5q25 -5 40 -5q43 0 65.5 35.5t22.5 65.5q0 40 -36 124q-19 44 -83 208t-96 235q-11 23 -17 1q-104 -337 -115 -405
q-9 -64 1.5 -85.5t52.5 -31.5q32 -7 32 -17q0 -7 -4.5 -8.5t-22.5 -1.5q-11 0 -51 2.5t-61 2.5q-20 0 -58 -3.5t-51 -3.5q-31 0 -31 13q0 10 26 16q31 6 44.5 9.5t34 20.5t29.5 46q121 376 136 432q9 36 6 56q-6 21 -30 27q-9 2 -28 3.5t-24 2.5q-22 3 -24 14z" />
    <glyph glyph-name="eng" unicode="&#x14b;" horiz-adv-x="487" 
d="M398 404q26 0 41 -16t18 -34q0 -5 -15 -67q-12 -45 -68.5 -189.5t-74.5 -177.5q-35 -68 -61.5 -104t-71.5 -66q-51 -34 -82 -34q-23 0 -37 24q-5 9 -7.5 27t0.5 31q1 3 6 5.5t7 0.5q31 -33 71 -33q12 0 22.5 4t16.5 7t14 14.5t9.5 14.5t9.5 20.5t9 18.5q34 69 101 247
t79 225q13 45 -15 45q-37 0 -105 -81q-44 -53 -163 -242q-37 -61 -52 -61q-9 0 -18.5 10t-9.5 18q-1 5 3.5 18t10 25l12 25.5t7.5 14.5l104 240q1 5 -3.5 8t-8.5 3q-5 0 -9.5 -0.5t-9.5 -2.5l-8.5 -3.5t-8.5 -5l-8 -5.5t-8.5 -7t-7.5 -6.5t-8 -7.5t-8 -7q-9 -9 -13 -9
q-2 -1 -4 2.5t-2 6.5q0 28 37 66t93 38q12 0 23.5 -6.5t15.5 -16.5q3 -10 -6 -26q-1 -3 -26.5 -64.5t-31.5 -73.5q-6 -18 1 -19q4 -1 10 9q18 25 61.5 76.5t64.5 71.5q53 49 104 49z" />
    <glyph glyph-name="Omacron" unicode="&#x14c;" horiz-adv-x="684" 
d="M464 663q91 0 150 -67.5t59 -178.5q0 -105 -59 -220.5t-153 -170.5q-78 -46 -162 -46q-99 0 -155 56q-68 68 -68 183q0 93 49 200.5t133 171.5q93 72 206 72zM464 635q-73 0 -144 -67q-74 -70 -116.5 -178.5t-42.5 -225.5q0 -29 6.5 -54.5t21 -49.5t42 -38t64.5 -14
q66 0 140 67q54 48 104.5 165.5t50.5 225.5q0 28 -5.5 54.5t-18.5 54t-39.5 44t-62.5 16.5zM388 775l221 5q7 0 7 -16t-12 -33q-5 -8 -17 -8l-215 -6q-3 0 -6.5 3t-3.5 6q2 25 12 39q1 2 6 6t8 4z" />
    <glyph glyph-name="omacron" unicode="&#x14d;" horiz-adv-x="401" 
d="M273 404q42 0 68 -35.5t26 -76.5q0 -93 -52.5 -172.5t-121.5 -114.5q-44 -21 -83 -21q-32 0 -59.5 29.5t-27.5 77.5q0 53 34 131.5t92 128.5q60 53 124 53zM265 378q-34 0 -72 -45q-38 -44 -69 -125t-31 -152q0 -19 10 -31.5t28 -12.5q30 0 66 45q36 44 70.5 127
t34.5 146q0 48 -37 48zM209 562l198 7q2 0 4 -2.5t3 -7.5t0 -13q-5 -32 -21 -32l-197 -4q-11 0 -7 18q3 11 9.5 22.5t10.5 11.5z" />
    <glyph glyph-name="Obreve" unicode="&#x14e;" horiz-adv-x="684" 
d="M464 663q91 0 150 -67.5t59 -178.5q0 -105 -59 -220.5t-153 -170.5q-78 -46 -162 -46q-99 0 -155 56q-68 68 -68 183q0 93 49 200.5t133 171.5q93 72 206 72zM464 635q-73 0 -144 -67q-74 -70 -116.5 -178.5t-42.5 -225.5q0 -29 6.5 -54.5t21 -49.5t42 -38t64.5 -14
q66 0 140 67q54 48 104.5 165.5t50.5 225.5q0 28 -5.5 54.5t-18.5 54t-39.5 44t-62.5 16.5zM479 701q-47 0 -74 27t-21 68q2 18 10 18q4 0 6 -2.5t5 -8.5l4 -8q19 -39 83 -39q67 0 113 40q2 2 6 6.5t7 7t6.5 5t7.5 2.5q5 0 5 -9t-5 -18q-17 -35 -56 -62t-97 -27z" />
    <glyph glyph-name="obreve" unicode="&#x14f;" horiz-adv-x="401" 
d="M273 404q42 0 68 -35.5t26 -76.5q0 -93 -52.5 -172.5t-121.5 -114.5q-44 -21 -83 -21q-32 0 -59.5 29.5t-27.5 77.5q0 53 34 131.5t92 128.5q60 53 124 53zM265 378q-34 0 -72 -45q-38 -44 -69 -125t-31 -152q0 -19 10 -31.5t28 -12.5q30 0 66 45q36 44 70.5 127
t34.5 146q0 48 -37 48zM282 475q-38 0 -60.5 29.5t-10.5 90.5q1 10 7.5 15t12.5 5q7 0 9 -22q2 -33 16 -47.5t44 -14.5q50 0 90 62q12 20 22 20t3 -27q-12 -40 -46.5 -75.5t-86.5 -35.5z" />
    <glyph glyph-name="Ohungarumlaut" unicode="&#x150;" horiz-adv-x="684" 
d="M464 663q91 0 150 -67.5t59 -178.5q0 -105 -59 -220.5t-153 -170.5q-78 -46 -162 -46q-99 0 -155 56q-68 68 -68 183q0 93 49 200.5t133 171.5q93 72 206 72zM464 635q-73 0 -144 -67q-74 -70 -116.5 -178.5t-42.5 -225.5q0 -29 6.5 -54.5t21 -49.5t42 -38t64.5 -14
q66 0 140 67q54 48 104.5 165.5t50.5 225.5q0 28 -5.5 54.5t-18.5 54t-39.5 44t-62.5 16.5zM413 704q-13 -13 -26 -13q-17 0 0 28q23 37 78 110q12 15 22 15q7 0 18.5 -12.5t11.5 -21.5q0 -7 -9 -18q-28 -33 -95 -88zM557 708q-13 -13 -27 -13q-4 0 -5.5 2.5t-0.5 7t3.5 9
t5.5 10.5q30 48 79 109q15 23 27 23q10 0 18.5 -14t8.5 -23q0 -7 -9 -20q-38 -40 -100 -91z" />
    <glyph glyph-name="ohungarumlaut" unicode="&#x151;" horiz-adv-x="401" 
d="M273 404q42 0 68 -35.5t26 -76.5q0 -93 -52.5 -172.5t-121.5 -114.5q-44 -21 -83 -21q-32 0 -59.5 29.5t-27.5 77.5q0 53 34 131.5t92 128.5q60 53 124 53zM265 378q-34 0 -72 -45q-38 -44 -69 -125t-31 -152q0 -19 10 -31.5t28 -12.5q30 0 66 45q36 44 70.5 127
t34.5 146q0 48 -37 48zM275 616q9 14 19 14q6 0 14 -15.5t8 -25.5q-2 -11 -14 -27q-31 -48 -90 -112q-7 -9 -18 -9q-14 0 -3 22q39 76 84 153zM414 640q8 11 19 11q7 0 15 -14t8 -24t-13 -29q-53 -73 -95 -120q-2 -4 -9.5 -9.5t-13.5 -5.5q-12 0 -3 21q56 111 92 170z" />
    <glyph glyph-name="OE" unicode="&#x152;" horiz-adv-x="989" 
d="M763 643h82q124 0 164 9q5 1 8 -6.5t1 -12.5q-30 -55 -40 -106q-1 -9 -3 -10.5t-7 -1.5q-7 0 -13 7t-7 20q-2 36 -6.5 48t-19.5 18q-17 7 -122 7q-43 0 -55.5 -6.5t-23.5 -32.5q-26 -58 -68 -223q-1 -7 2.5 -11.5t6.5 -4.5l118 4q13 0 24 1.5l18.5 2.5t14.5 4.5t10.5 5.5
t9 7.5t7.5 8.5t7.5 10l8.5 11q12 17 21 17q16 0 1 -33q-13 -25 -27.5 -64t-18.5 -58q-8 -31 -18 -31q-11 0 -11 30q0 28 -7.5 39t-28.5 11l-134 -2q-18 0 -26 -19q-2 -5 -10 -33l-15 -51.5t-14 -51t-9 -42.5q-5 -30 -4 -39.5t9 -18.5q13 -13 46 -16q54 -4 118 -4q44 1 69 13
q50 23 90 80q22 26 28 28q11 0 3 -29q-4 -18 -21 -52.5t-31 -50.5q-14 -15 -27 -18.5t-45 -3.5q-17 0 -119 3t-147 4q-5 0 -30.5 -1t-32.5 -1q-5 0 -8.5 4t-2.5 10q3 8 8 26t7 22q1 5 -0.5 6.5t-3.5 0.5t-5 -4q-95 -83 -204 -83q-85 0 -137 52q-67 67 -67 181
q0 97 49.5 207.5t129.5 171.5q92 71 193 71q59 0 99.5 -30t67.5 -92q2 -4 6.5 -3.5t6.5 4.5q13 41 19 81q4 21 14 21q7 0 45.5 -0.5t56.5 -0.5zM161 159q0 -73 34.5 -110.5t94.5 -37.5q77 0 147 63q70 64 110.5 179.5t40.5 207.5q0 30 -6 57.5t-20 54t-41 42.5t-65 16
q-75 0 -138 -62q-157 -150 -157 -410z" />
    <glyph glyph-name="oe" unicode="&#x153;" horiz-adv-x="577" 
d="M284 404q31 0 51 -21.5t24 -52.5q2 -15 10 -5q75 79 152 79q20 0 40.5 -17t20.5 -46q0 -62 -77 -100q-63 -34 -153 -48q-6 0 -14 -8q-20 -40 -20 -83q0 -31 16 -45.5t37 -14.5q42 0 103 54q15 13 15 -2q0 -8 -7 -18q-25 -37 -69 -62.5t-89 -25.5q-26 0 -45 20.5t-24 57.5
q-1 3 -4 4t-4 -1q-81 -83 -156 -83q-24 0 -46.5 28t-22.5 69q0 77 41.5 152t76.5 104q81 65 144 65zM276 378q-38 0 -74 -41q-109 -130 -109 -279q0 -14 8 -27t18 -13q37 0 85 60q39 48 73 127.5t34 135.5q0 12 -9.5 24.5t-25.5 12.5zM496 376q-33 0 -75 -42.5t-67 -103.5
q-6 -10 2 -10q13 2 37.5 10.5t55.5 23.5t53 39t22 50q0 17 -8.5 25t-19.5 8z" />
    <glyph glyph-name="Racute" unicode="&#x154;" horiz-adv-x="618" 
d="M583 518q0 -88 -87 -148q-11 -8 -85 -36q-1 0 -2.5 -2.5t-2 -5.5t0.5 -7q24 -124 63 -212q20 -46 41.5 -65.5t63.5 -24.5q24 -3 24 -13t-27 -12q-33 -4 -96 3q-36 3 -52.5 19.5t-35.5 73.5q-13 36 -30.5 102t-21.5 79q-5 16 -16 31t-24 15q-11 0 -24.5 -0.5t-16.5 -0.5
q-11 0 -24 -35q-29 -86 -45 -166q-11 -52 -1 -68t56 -24q24 -4 24 -13q0 -12 -30 -12q-24 0 -65 2t-55 2q-15 0 -52 -2t-53 -2q-28 0 -28 11t29 15q27 4 44 13t21.5 16t10.5 20q23 53 150 479q14 39 3 54t-63 15q-9 0 -15.5 2.5t-9 5.5t-2.5 5q0 11 25 11l106 3q7 0 46 2.5
t58 2.5q106 0 150 -35q48 -37 48 -98zM499 512q0 44 -33.5 78t-105.5 34q-6 0 -14 -7.5t-10 -14.5q-17 -38 -46 -134t-34 -119q-4 -12 4 -12q62 0 104 11q55 17 95 62t40 102zM578 806q0 -9 -27 -25q-113 -64 -153 -81q-29 -10 -35 -4q-8 10 13 28q96 81 143 113q16 11 24 5
q10 -4 23 -15t12 -21z" />
    <glyph glyph-name="racute" unicode="&#x155;" horiz-adv-x="354" 
d="M148 404q20 0 31 -14t11 -31q0 -44 -33 -128q-4 -12 1 -12q6 1 17 19q35 60 79 109q49 57 87 57q20 0 29 -12.5t9 -28.5q0 -26 -18 -50.5t-29 -24.5q-12 0 -12 22q-1 15 -6.5 26t-12.5 11q-23 0 -66 -68q-40 -60 -140 -260q-17 -36 -42 -36q-16 0 -23 14q-1 2 -1 7.5
t1 7.5q72 184 102 277q14 47 -10 47q-25 0 -56 -39q-16 -20 -22 -20q-4 0 -5.5 10t1.5 19q16 43 46 70.5t62 27.5zM332 616q12 16 22 16q8 0 17.5 -16t8.5 -30q-2 -9 -14 -25q-37 -44 -99 -104q-16 -16 -28 -16q-6 1 -6 10.5t5 16.5q28 50 94 148z" />
    <glyph glyph-name="Rcommaaccent" unicode="&#x156;" horiz-adv-x="618" 
d="M583 518q0 -88 -87 -148q-11 -8 -85 -36q-1 0 -2.5 -2.5t-2 -5.5t0.5 -7q24 -124 63 -212q20 -46 41.5 -65.5t63.5 -24.5q24 -3 24 -13t-27 -12q-33 -4 -96 3q-36 3 -52.5 19.5t-35.5 73.5q-13 36 -30.5 102t-21.5 79q-5 16 -16 31t-24 15q-11 0 -24.5 -0.5t-16.5 -0.5
q-11 0 -24 -35q-29 -86 -45 -166q-11 -52 -1 -68t56 -24q24 -4 24 -13q0 -12 -30 -12q-24 0 -65 2t-55 2q-15 0 -52 -2t-53 -2q-28 0 -28 11t29 15q27 4 44 13t21.5 16t10.5 20q23 53 150 479q14 39 3 54t-63 15q-9 0 -15.5 2.5t-9 5.5t-2.5 5q0 11 25 11l106 3q7 0 46 2.5
t58 2.5q106 0 150 -35q48 -37 48 -98zM499 512q0 44 -33.5 78t-105.5 34q-6 0 -14 -7.5t-10 -14.5q-17 -38 -46 -134t-34 -119q-4 -12 4 -12q62 0 104 11q55 17 95 62t40 102zM294 -46q23 0 37.5 -16t14.5 -44q0 -55 -41.5 -85t-79.5 -30q-13 0 -13 8t15 13q27 10 46 27.5
t20 40.5q0 16 -17 17q-28 3 -28 31q0 14 13.5 26t32.5 12z" />
    <glyph glyph-name="rcommaaccent" unicode="&#x157;" horiz-adv-x="354" 
d="M148 404q20 0 31 -14t11 -31q0 -44 -33 -128q-4 -12 1 -12q6 1 17 19q35 60 79 109q49 57 87 57q20 0 29 -12.5t9 -28.5q0 -26 -18 -50.5t-29 -24.5q-12 0 -12 22q-1 15 -6.5 26t-12.5 11q-23 0 -66 -68q-40 -60 -140 -260q-17 -36 -42 -36q-16 0 -23 14q-1 2 -1 7.5
t1 7.5q72 184 102 277q14 47 -10 47q-25 0 -56 -39q-16 -20 -22 -20q-4 0 -5.5 10t1.5 19q16 43 46 70.5t62 27.5zM33 -46q23 0 37.5 -16t14.5 -44q0 -55 -41.5 -85t-79.5 -30q-13 0 -13 8t15 13q27 10 46 27.5t20 40.5q0 16 -17 17q-28 3 -28 31q0 14 13.5 26t32.5 12z" />
    <glyph glyph-name="Rcaron" unicode="&#x158;" horiz-adv-x="618" 
d="M583 518q0 -88 -87 -148q-11 -8 -85 -36q-1 0 -2.5 -2.5t-2 -5.5t0.5 -7q24 -124 63 -212q20 -46 41.5 -65.5t63.5 -24.5q24 -3 24 -13t-27 -12q-33 -4 -96 3q-36 3 -52.5 19.5t-35.5 73.5q-13 36 -30.5 102t-21.5 79q-5 16 -16 31t-24 15q-11 0 -24.5 -0.5t-16.5 -0.5
q-11 0 -24 -35q-29 -86 -45 -166q-11 -52 -1 -68t56 -24q24 -4 24 -13q0 -12 -30 -12q-24 0 -65 2t-55 2q-15 0 -52 -2t-53 -2q-28 0 -28 11t29 15q27 4 44 13t21.5 16t10.5 20q23 53 150 479q14 39 3 54t-63 15q-9 0 -15.5 2.5t-9 5.5t-2.5 5q0 11 25 11l106 3q7 0 46 2.5
t58 2.5q106 0 150 -35q48 -37 48 -98zM499 512q0 44 -33.5 78t-105.5 34q-6 0 -14 -7.5t-10 -14.5q-17 -38 -46 -134t-34 -119q-4 -12 4 -12q62 0 104 11q55 17 95 62t40 102zM389 683q-10 0 -20 20q-11 19 -66 90q-7 9 -6 17.5t8 8.5q9 0 23 -10q52 -34 73 -50q4 -3 14 0
q119 52 122 53q14 7 29 7q8 0 7 -8.5t-15 -17.5l-126 -87q-34 -23 -43 -23z" />
    <glyph glyph-name="rcaron" unicode="&#x159;" horiz-adv-x="354" 
d="M148 404q20 0 31 -14t11 -31q0 -44 -33 -128q-4 -12 1 -12q6 1 17 19q35 60 79 109q49 57 87 57q20 0 29 -12.5t9 -28.5q0 -26 -18 -50.5t-29 -24.5q-12 0 -12 22q-1 15 -6.5 26t-12.5 11q-23 0 -66 -68q-40 -60 -140 -260q-17 -36 -42 -36q-16 0 -23 14q-1 2 -1 7.5
t1 7.5q72 184 102 277q14 47 -10 47q-25 0 -56 -39q-16 -20 -22 -20q-4 0 -5.5 10t1.5 19q16 43 46 70.5t62 27.5zM228 447q-8 0 -14 27q-7 73 -18 142q-1 9 2.5 18t9.5 9q8 0 16 -23q21 -60 27 -81q2 -9 10 -1q12 11 44.5 45t46.5 47q13 13 25 13q3 0 4 -3.5t-0.5 -10
t-6.5 -14.5q-4 -6 -112 -140q-24 -28 -34 -28z" />
    <glyph glyph-name="Sacute" unicode="&#x15a;" horiz-adv-x="473" 
d="M341 661q43 0 100 -19q27 -9 31 -9q10 -1 27 2q1 0 3 -2.5t3 -6.5t1 -6q-32 -62 -42 -125q-2 -20 -12 -20q-6 0 -10 9.5t-3 23.5q2 53 -16 83q-26 45 -85 45q-57 0 -84 -37t-27 -77q0 -54 37 -104q6 -8 44 -54.5t59 -74.5q31 -41 40.5 -68.5t9.5 -61.5q0 -46 -24 -85.5
t-63 -61.5q-53 -30 -132 -30q-33 0 -120 27q-16 5 -50 -7q-2 -1 -8.5 2t-7.5 4q-5 5 -2 8q11 22 55 149q9 25 19 25q12 0 7 -36q-6 -69 13 -93q40 -54 109 -54q47 0 85 31q17 12 27 35.5t10 46.5q0 41 -19.5 79.5t-68.5 97.5q-53 66 -74.5 105t-21.5 85q0 72 54 123
q55 51 136 51zM539 812q0 -9 -27 -25q-113 -64 -153 -81q-29 -10 -35 -4q-8 10 13 28q96 81 143 113q16 11 24 5q10 -4 23 -15t12 -21z" />
    <glyph glyph-name="sacute" unicode="&#x15b;" horiz-adv-x="280" 
d="M219 404q30 0 46 -18q10 -10 10 -22q0 -8 -9.5 -21.5t-16.5 -18.5q-5 -3 -15 3q-8 4 -20 14t-21.5 14.5t-21.5 4.5q-11 0 -25.5 -13t-14.5 -34q0 -32 47 -97q40 -64 40 -88q0 -47 -55 -93q-27 -24 -61 -36.5t-55 -12.5q-19 0 -41 15.5t-22 37.5q0 17 19 40q7 7 15 0
q45 -45 88 -45q22 0 37.5 15.5t15.5 38.5t-44 89q-38 58 -38 91q0 48 55 97q46 39 87 39zM293 616q12 16 22 16q8 0 17.5 -16t8.5 -30q-2 -9 -14 -25q-37 -44 -99 -104q-16 -16 -28 -16q-6 1 -6 10.5t5 16.5q28 50 94 148z" />
    </font>
</defs>
</svg>
