<?xml version="1.0" encoding="utf-8"?>
<!-- Generator: Adobe Illustrator 21.0.0, SVG Export Plug-In . SVG Version: 6.00 Build 0)  -->
<svg version="1.1" id="Layer_1" xmlns="http://www.w3.org/2000/svg" xmlns:xlink="http://www.w3.org/1999/xlink" x="0px" y="0px"
	 viewBox="0 0 32 32" style="enable-background:new 0 0 32 32;" xml:space="preserve">
<style type="text/css">
	.st0{fill:#1D1D1B;}
</style>
<g>
	<g>
		<path class="st0" d="M4,15.3C4,15.3,4,15.2,4,15.3c0-0.1,0-0.2,0-0.2c0.1,0,0.2,0,0.3,0v-1.9c-0.1,0-0.2,0-0.3,0c0,0,0,0,0-0.1
			c0,0,0-0.1,0-0.1c0,0,0.3,0,0.5,0h0.6c0.8,0,1.2,0.4,1.2,1.1c0,0.8-0.5,1.1-1.3,1.1c-0.2,0-0.4,0-0.5,0C4.2,15.3,4.1,15.3,4,15.3z
			 M5,13.2c-0.2,0-0.2,0-0.3,0c0,0.1,0,0.7,0,1.3c0,0.3,0,0.5,0,0.5c0,0,0.1,0.1,0.3,0.1c0.6,0,0.9-0.2,0.9-1
			C5.9,13.4,5.5,13.2,5,13.2z"/>
		<path class="st0" d="M7.9,15.1C7.9,15.1,7.9,15.2,7.9,15.1c0,0.1,0,0.2,0,0.2c-0.1,0-0.3,0-0.5,0c-0.2,0-0.4,0-0.4,0
			c0,0,0,0,0-0.1c0,0,0-0.1,0-0.1c0.1,0,0.2,0,0.3,0v-1.9c-0.1,0-0.2,0-0.3,0c0,0,0,0,0-0.1c0,0,0-0.1,0-0.1c0,0,0.3,0,0.5,0
			c0.2,0,0.4,0,0.6,0c0.5,0,0.6,0.3,0.6,0.5c0,0.3-0.2,0.4-0.5,0.5c0.3,0.1,0.4,0.1,0.5,0.3c0.1,0.1,0.1,0.2,0.1,0.5
			c0,0.3,0.1,0.3,0.3,0.3c0.1,0,0.1,0,0.2,0c0,0,0,0,0,0.1c0,0.1,0,0.1-0.1,0.1c-0.1,0-0.3,0-0.5,0c-0.2,0-0.3-0.1-0.4-0.3
			c0-0.2,0-0.3,0-0.5c0-0.2-0.1-0.3-0.3-0.3c-0.1,0-0.3,0-0.5,0c0,0.2,0,0.3,0,0.4c0,0.3,0,0.6,0,0.6C7.7,15.1,7.8,15.1,7.9,15.1z
			 M7.6,14h0.2C7.8,14,8,14,8,14c0.2,0,0.2-0.2,0.2-0.4c0-0.2,0-0.3-0.2-0.4c-0.1,0-0.3,0-0.5,0C7.6,13.3,7.6,13.6,7.6,14z"/>
		<path class="st0" d="M11.7,15.1C11.7,15.1,11.7,15.2,11.7,15.1c0,0.1,0,0.2,0,0.2c-0.1,0-0.3,0-0.5,0c-0.2,0-0.4,0-0.5,0
			c0,0,0,0,0-0.1c0,0,0-0.1,0-0.1c0.1,0,0.2,0,0.3,0c0-0.1-0.2-0.5-0.2-0.7h-0.6C10,14.7,9.9,15,9.9,15.1c0,0,0.3,0,0.3,0
			c0,0,0,0,0,0.1c0,0,0,0.1,0,0.1c-0.1,0-0.2,0-0.4,0c-0.2,0-0.3,0-0.3,0c0,0,0,0,0-0.1c0,0,0-0.1,0-0.1c0.1,0,0.2,0,0.2,0
			c0.1-0.2,0.6-1.5,0.8-2.1c0,0,0-0.1,0.1-0.1c0,0,0.1,0,0.1,0c0,0.1,0.6,1.7,0.8,2.1C11.5,15.1,11.6,15.1,11.7,15.1z M10.2,14.3
			h0.6c-0.1-0.2-0.2-0.6-0.3-0.8C10.4,13.8,10.2,14.2,10.2,14.3z"/>
		<path class="st0" d="M14.2,15.1c-0.3,0.2-0.7,0.3-0.9,0.3c-0.6,0-1.1-0.5-1.1-1.2c0-0.6,0.4-1.2,1.2-1.2c0.5,0,0.8,0.1,0.8,0.3
			c0,0.1,0,0.4,0,0.5c0,0,0,0-0.1,0c0,0-0.1,0-0.1,0c-0.2-0.5-0.4-0.6-0.7-0.6c-0.5,0-0.8,0.3-0.8,1c0,0.7,0.3,1,0.7,1
			c0.3,0,0.5-0.2,0.6-0.3c0-0.1,0-0.2,0-0.5c-0.1,0-0.4,0-0.5,0c0,0,0,0,0-0.1c0,0,0-0.1,0-0.1c0.1,0,0.4,0,0.6,0c0.2,0,0.4,0,0.5,0
			c0,0,0,0,0,0.1c0,0.1,0,0.1,0,0.1c0,0-0.2,0-0.3,0V15.1z"/>
		<path class="st0" d="M17.3,14.2c0,0.6-0.5,1.2-1.1,1.2c-0.6,0-1.1-0.5-1.1-1.2c0-0.6,0.5-1.2,1.1-1.2C16.8,13,17.3,13.5,17.3,14.2
			z M15.5,14.2c0,0.7,0.3,1,0.7,1c0.5,0,0.7-0.3,0.7-1c0-0.6-0.2-1-0.7-1C15.7,13.1,15.5,13.5,15.5,14.2z"/>
		<path class="st0" d="M20.1,14.5c0,0.4,0,0.6,0,0.7c0,0,0,0.1-0.1,0.1c0,0-0.1,0-0.1-0.1c-0.1-0.1-1.2-1.5-1.4-1.8
			c0,0.1,0,0.2,0,0.4c0,1,0,1.3,0,1.3c0.1,0,0.3,0,0.3,0c0,0,0,0,0,0.1c0,0,0,0.1,0,0.1c-0.1,0-0.3,0-0.4,0c-0.1,0-0.3,0-0.4,0
			c0,0,0,0,0-0.1c0,0,0-0.1,0-0.1c0.1,0,0.2,0,0.3,0v-1.9c-0.1,0-0.2,0-0.3,0c0,0,0,0,0-0.1c0,0,0-0.1,0-0.1c0.1,0,0.2,0,0.3,0
			c0.1,0,0.2,0,0.2,0c0.1,0,0.1,0,0.1,0.1c0.2,0.3,0.9,1.3,1.3,1.6v-1.5c-0.1,0-0.3,0-0.3,0c0,0,0,0,0-0.1c0,0,0-0.1,0-0.1
			c0,0,0.2,0,0.4,0c0.2,0,0.3,0,0.4,0c0,0,0,0,0,0.1c0,0,0,0.1,0,0.1c0,0-0.2,0-0.3,0C20.1,13.5,20.1,14,20.1,14.5z"/>
		<path class="st0" d="M22,14.1c0.1-0.1,0.2-0.3,0.2-0.4c0,0,0,0,0.1,0c0.1,0,0.1,0,0.1,0c0,0.1,0,0.3,0,0.5c0,0.2,0,0.4,0,0.5
			c0,0,0,0-0.1,0c0,0-0.1,0-0.1,0c0-0.1-0.1-0.4-0.2-0.5c-0.1,0-0.3,0-0.4,0c0,0.1,0,0.2,0,0.4c0,0.3,0,0.5,0,0.5c0.2,0,0.4,0,0.4,0
			c0,0,0,0.1,0,0.1c0,0,0,0.1,0,0.1c-0.1,0-0.4,0-0.6,0c-0.2,0-0.4,0-0.5,0c0,0,0,0,0-0.1c0,0,0-0.1,0-0.1c0.1,0,0.2,0,0.3,0v-1.9
			c-0.1,0-0.2,0-0.3,0c0,0,0,0,0-0.1c0,0,0-0.1,0-0.1c0,0,0.3,0,0.5,0c0.2,0,1.3,0,1.4,0c0,0,0,0,0,0.1c0,0,0,0.4,0,0.6
			c0,0,0,0-0.1,0s-0.1,0-0.1,0c0-0.2-0.1-0.5-0.4-0.5c-0.2,0-0.6,0-0.7,0c0,0.2,0,0.4,0,0.9C21.8,14.1,21.9,14.1,22,14.1z"/>
		<path class="st0" d="M24.8,15.1c0.3,0,0.4-0.2,0.5-0.7c0,0,0,0,0.1,0c0,0,0.1,0,0.1,0c0,0.2,0,0.7,0,0.8c0,0,0,0.1-0.1,0.1
			c-0.1,0-1.2,0-1.4,0c-0.2,0-0.4,0-0.5,0c0,0,0,0,0-0.1c0,0,0-0.1,0-0.1c0.1,0,0.2,0,0.3,0v-1.9c-0.1,0-0.2,0-0.3,0c0,0,0,0,0-0.1
			c0,0,0-0.1,0-0.1c0,0,0.3,0,0.5,0c0.2,0,0.4,0,0.5,0c0,0,0,0,0,0.1c0,0,0,0.1,0,0.1c0,0-0.2,0-0.3,0c0,0.1,0,0.7,0,1.3
			c0,0.3,0,0.5,0,0.6C24.2,15.1,24.4,15.1,24.8,15.1z"/>
		<path class="st0" d="M27.2,13.2C27.2,13.2,27.2,13.2,27.2,13.2c0-0.1,0-0.2,0-0.2c0.1,0,0.2,0,0.4,0c0.2,0,0.3,0,0.4,0
			c0,0,0,0,0,0.1c0,0,0,0.1,0,0.1c0,0-0.1,0-0.2,0c-0.1,0.2-0.5,0.7-0.8,1.1c0,0.3,0,0.5,0,0.9c0,0,0.3,0,0.3,0c0,0,0,0.1,0,0.1
			c0,0,0,0.1,0,0.1c-0.1,0-0.3,0-0.5,0c-0.2,0-0.5,0-0.6,0c0,0,0,0,0-0.1c0,0,0-0.1,0-0.1c0.1,0,0.2,0,0.4,0c0,0,0-0.5,0-0.8
			c-0.3-0.5-0.7-1.1-0.8-1.2c-0.1,0-0.2,0-0.2,0c0,0,0,0,0-0.1c0,0,0-0.1,0-0.1c0.1,0,0.3,0,0.5,0c0.2,0,0.4,0,0.5,0c0,0,0,0,0,0.1
			c0,0,0,0.1,0,0.1c-0.1,0-0.3,0-0.3,0c0.2,0.3,0.4,0.7,0.6,0.9c0.2-0.3,0.5-0.8,0.6-0.9C27.4,13.2,27.2,13.2,27.2,13.2z"/>
	</g>
	<g>
		<path class="st0" d="M8.4,16.9c0,0.2,0,0.3,0,0.4c0,0,0,0-0.1,0c0,0-0.1,0-0.1,0c-0.2-0.3-0.3-0.5-0.6-0.5c-0.2,0-0.4,0.1-0.4,0.3
			c0,0.2,0.1,0.3,0.6,0.5c0.5,0.1,0.7,0.3,0.7,0.7c0,0.4-0.3,0.7-0.9,0.7C7.3,19,7,18.8,7,18.8c0-0.2,0-0.4,0-0.5c0,0,0-0.1,0.1-0.1
			c0,0,0,0,0.1,0c0.2,0.5,0.4,0.6,0.6,0.6c0.4,0,0.5-0.2,0.5-0.4c0-0.2-0.1-0.4-0.5-0.5c-0.4-0.1-0.6-0.3-0.6-0.6
			c0-0.4,0.3-0.6,0.7-0.6C8.2,16.7,8.4,16.8,8.4,16.9z"/>
		<path class="st0" d="M11.1,18.2C11.1,18.2,11.1,18.2,11.1,18.2c0.1,0,0.1,0,0.1,0c0,0.1,0,0.5,0,0.5c0,0.1-0.3,0.3-0.8,0.3
			c-0.7,0-1.1-0.5-1.1-1.2c0-0.6,0.4-1.2,1.2-1.2c0.5,0,0.8,0.1,0.8,0.3c0,0.1,0,0.4,0,0.5c0,0,0,0-0.1,0c0,0-0.1,0-0.1,0
			c-0.2-0.5-0.4-0.6-0.7-0.6c-0.5,0-0.7,0.3-0.7,1c0,0.7,0.3,1,0.7,1C10.6,18.9,10.9,18.7,11.1,18.2z"/>
		<path class="st0" d="M13.3,18.8c0.3,0,0.5-0.2,0.5-0.6c0,0,0,0,0.1,0c0,0,0.1,0,0.1,0c0,0.2,0,0.7,0,0.7c0,0,0,0.1-0.1,0.1
			c-0.1,0-1.1,0-1.4,0c-0.2,0-0.4,0-0.5,0c0,0,0,0,0-0.1c0,0,0-0.1,0-0.1c0.1,0,0.2,0,0.3,0v-1.9c-0.1,0-0.2,0-0.3,0c0,0,0,0,0-0.1
			c0,0,0-0.1,0-0.1c0,0,0.3,0,0.5,0c0.2,0,1.4,0,1.4,0c0,0,0,0,0,0.1c0,0,0,0.4,0,0.6c0,0,0,0-0.1,0c0,0-0.1,0-0.1,0
			c0-0.2-0.2-0.5-0.4-0.5c-0.2,0-0.7,0-0.8,0c0,0.2,0,0.5,0,0.9c0.1,0,0.3,0,0.4,0c0.1-0.1,0.2-0.3,0.2-0.4c0,0,0,0,0.1,0
			c0.1,0,0.1,0,0.1,0.1c0,0.1,0,0.3,0,0.5c0,0.2,0,0.4,0,0.5c0,0,0,0-0.1,0c0,0-0.1,0-0.1,0c0-0.1-0.1-0.4-0.2-0.5
			c-0.1,0-0.3,0-0.4,0c0,0.1,0,0.2,0,0.4c0,0.3,0,0.5,0,0.6C12.7,18.8,12.9,18.8,13.3,18.8z"/>
		<path class="st0" d="M16.7,18.2c0,0.4,0,0.6,0,0.7c0,0,0,0.1-0.1,0.1c0,0-0.1,0-0.1-0.1c-0.1-0.1-1.2-1.5-1.4-1.8
			c0,0.1,0,0.2,0,0.4c0,1,0,1.3,0,1.3c0.1,0,0.3,0,0.3,0c0,0,0,0,0,0.1c0,0,0,0.1,0,0.1c-0.1,0-0.3,0-0.4,0c-0.1,0-0.3,0-0.4,0
			c0,0,0,0,0-0.1c0,0,0-0.1,0-0.1c0.1,0,0.2,0,0.3,0v-1.9c-0.1,0-0.2,0-0.3,0c0,0,0,0,0-0.1c0,0,0-0.1,0-0.1c0.1,0,0.2,0,0.3,0
			c0.1,0,0.2,0,0.2,0c0.1,0,0.1,0,0.1,0.1c0.2,0.3,0.9,1.3,1.3,1.6v-1.5c-0.1,0-0.3,0-0.3,0c0,0,0,0,0-0.1c0,0,0-0.1,0-0.1
			c0,0,0.2,0,0.4,0c0.2,0,0.3,0,0.4,0c0,0,0,0,0,0.1c0,0,0,0.1,0,0.1c0,0-0.2,0-0.3,0C16.7,17.2,16.7,17.7,16.7,18.2z"/>
		<path class="st0" d="M19,18.8c0.3,0,0.5-0.2,0.5-0.6c0,0,0,0,0.1,0c0,0,0.1,0,0.1,0c0,0.2,0,0.7,0,0.7c0,0,0,0.1-0.1,0.1
			c-0.1,0-1.1,0-1.4,0c-0.2,0-0.4,0-0.5,0c0,0,0,0,0-0.1c0,0,0-0.1,0-0.1c0.1,0,0.2,0,0.3,0v-1.9c-0.1,0-0.2,0-0.3,0c0,0,0,0,0-0.1
			c0,0,0-0.1,0-0.1c0,0,0.3,0,0.5,0c0.2,0,1.4,0,1.4,0c0,0,0,0,0,0.1c0,0,0,0.4,0,0.6c0,0,0,0-0.1,0c0,0-0.1,0-0.1,0
			c0-0.2-0.2-0.5-0.4-0.5c-0.2,0-0.7,0-0.8,0c0,0.2,0,0.5,0,0.9c0.1,0,0.3,0,0.4,0c0.1-0.1,0.2-0.3,0.2-0.4c0,0,0,0,0.1,0
			c0.1,0,0.1,0,0.1,0.1c0,0.1,0,0.3,0,0.5c0,0.2,0,0.4,0,0.5c0,0,0,0-0.1,0c0,0-0.1,0-0.1,0c0-0.1-0.1-0.4-0.2-0.5
			c-0.1,0-0.3,0-0.4,0c0,0.1,0,0.2,0,0.4c0,0.3,0,0.5,0,0.6C18.4,18.8,18.7,18.8,19,18.8z"/>
		<path class="st0" d="M21.3,18.8C21.3,18.8,21.3,18.8,21.3,18.8c0,0.1,0,0.2,0,0.2c-0.1,0-0.3,0-0.5,0c-0.2,0-0.4,0-0.4,0
			c0,0,0,0,0-0.1c0,0,0-0.1,0-0.1c0.1,0,0.2,0,0.3,0v-1.9c-0.1,0-0.2,0-0.3,0c0,0,0,0,0-0.1c0,0,0-0.1,0-0.1c0,0,0.3,0,0.5,0
			c0.2,0,0.4,0,0.6,0c0.5,0,0.6,0.3,0.6,0.5c0,0.3-0.2,0.4-0.5,0.5c0.3,0.1,0.4,0.1,0.5,0.3c0.1,0.1,0.1,0.2,0.1,0.5
			c0,0.3,0.1,0.3,0.3,0.3c0.1,0,0.1,0,0.2,0c0,0,0,0,0,0.1c0,0.1,0,0.1-0.1,0.1c-0.1,0-0.3,0-0.5,0c-0.2,0-0.3-0.1-0.4-0.3
			c0-0.2,0-0.3,0-0.5c0-0.2-0.1-0.3-0.3-0.3c-0.1,0-0.3,0-0.5,0c0,0.2,0,0.3,0,0.4c0,0.3,0,0.6,0,0.6C21.1,18.8,21.2,18.8,21.3,18.8
			z M21,17.7h0.2c0.1,0,0.2,0,0.3,0c0.2,0,0.2-0.2,0.2-0.4c0-0.2,0-0.3-0.2-0.4c-0.1,0-0.3,0-0.5,0C21,16.9,21,17.3,21,17.7z"/>
		<path class="st0" d="M24.2,16.9C24.2,16.9,24.2,16.8,24.2,16.9c0-0.1,0-0.2,0-0.2c0.1,0,0.2,0,0.4,0c0.2,0,0.3,0,0.4,0
			c0,0,0,0,0,0.1c0,0,0,0.1,0,0.1c0,0-0.1,0-0.2,0c-0.1,0.2-0.5,0.7-0.8,1.1c0,0.3,0,0.5,0,0.9c0,0,0.3,0,0.3,0c0,0,0,0.1,0,0.1
			c0,0,0,0.1,0,0.1c-0.1,0-0.3,0-0.5,0c-0.2,0-0.5,0-0.6,0c0,0,0,0,0-0.1c0,0,0-0.1,0-0.1c0.1,0,0.2,0,0.4,0c0,0,0-0.5,0-0.8
			c-0.3-0.5-0.7-1.1-0.8-1.2c-0.1,0-0.2,0-0.2,0c0,0,0,0,0-0.1c0,0,0-0.1,0-0.1c0.1,0,0.3,0,0.5,0c0.2,0,0.4,0,0.5,0c0,0,0,0,0,0.1
			c0,0,0,0.1,0,0.1c-0.1,0-0.3,0-0.3,0c0.2,0.3,0.4,0.7,0.6,0.9c0.2-0.3,0.5-0.8,0.6-0.9C24.5,16.9,24.3,16.9,24.2,16.9z"/>
	</g>
</g>
</svg>
