<?xml version="1.0" encoding="utf-8"?>
<!-- Generator: Adobe Illustrator 21.0.0, SVG Export Plug-In . SVG Version: 6.00 Build 0)  -->
<svg version="1.1" id="Layer_1" xmlns="http://www.w3.org/2000/svg" xmlns:xlink="http://www.w3.org/1999/xlink" x="0px" y="0px"
	 viewBox="0 0 32 32" style="enable-background:new 0 0 32 32;" xml:space="preserve">
<style type="text/css">
	.st0{fill:#1D1D1B;}
</style>
<g>
	<g>
		<path class="st0" d="M4.0269,15.2904c-0.0244,0-0.0366-0.0457-0.0366-0.0792c0-0.0305,0.0122-0.0822,0.0366-0.0822
			c0.0639,0,0.1827,0.0061,0.2832,0.0061v-1.9277c-0.0579,0-0.2406,0.0091-0.2802,0.0091c-0.0213,0-0.0365-0.0335-0.0365-0.0792
			c0-0.0365,0.0122-0.0853,0.0396-0.0853c0.0396,0,0.2771,0.0183,0.472,0.0183h0.606c0.8192,0,1.1664,0.4294,1.1664,1.072
			c0,0.7522-0.469,1.1481-1.3004,1.1481c-0.2314,0-0.3807-0.0122-0.5329-0.0122C4.2279,15.2782,4.0878,15.2904,4.0269,15.2904z
			 M5.0014,13.2012c-0.1523,0-0.2101,0.0061-0.3167,0.0152c-0.0122,0.0944-0.0365,0.6547-0.0365,1.3369
			c0,0.3167,0.0061,0.5055,0.0061,0.5451c0,0.0365,0.1279,0.0578,0.2863,0.0578c0.5756,0,0.9349-0.204,0.9349-1.0232
			C5.8754,13.3627,5.513,13.2012,5.0014,13.2012z"/>
		<path class="st0" d="M7.8824,15.1289c0.0183,0,0.0274,0.0548,0.0274,0.0853c0,0.0335-0.0091,0.0761-0.0274,0.0761
			c-0.1035,0-0.271-0.0152-0.5208-0.0152c-0.1919,0-0.3685,0.0152-0.4294,0.0152c-0.0243,0-0.0365-0.0457-0.0365-0.0792
			c0-0.0305,0.0122-0.0822,0.0365-0.0822c0.064,0,0.2162,0.0061,0.2832,0.0061v-1.9277c-0.0579,0-0.2406,0.0091-0.2802,0.0091
			c-0.0213,0-0.0365-0.0335-0.0365-0.0792c0-0.0365,0.0122-0.0853,0.0396-0.0853c0.0396,0,0.2649,0.0183,0.4598,0.0183
			c0.201,0,0.3685-0.0091,0.5786-0.0091c0.4751,0,0.6456,0.2528,0.6456,0.536c0,0.3015-0.2193,0.4416-0.5208,0.469
			c0.3228,0.0548,0.4355,0.1157,0.5421,0.3015c0.0579,0.1005,0.0731,0.2223,0.1035,0.4507
			c0.0335,0.2528,0.0792,0.3289,0.2863,0.3289c0.0518,0,0.1066-0.0122,0.1584-0.0122c0.0304,0,0.0487,0.0244,0.0487,0.0792
			c0,0.0609-0.0122,0.0883-0.0548,0.0883c-0.1218,0-0.2984-0.0183-0.4568-0.0183c-0.2223,0-0.335-0.0853-0.3654-0.3198
			c-0.0244-0.1888-0.0305-0.3198-0.0487-0.4537c-0.0274-0.1675-0.1096-0.2954-0.3076-0.3411
			C7.858,14.1362,7.7027,14.127,7.5565,14.127c-0.003,0.1523-0.003,0.2771-0.003,0.4081c0,0.3167,0.0061,0.5695,0.0061,0.606
			C7.6783,15.1411,7.8428,15.1289,7.8824,15.1289z M7.5565,14.0144h0.1797c0.067,0,0.2375-0.0152,0.3015-0.0305
			c0.1736-0.0457,0.2162-0.204,0.2162-0.3837c0-0.1827-0.0457-0.3228-0.2162-0.3746c-0.0883-0.0274-0.2588-0.0366-0.4507-0.0366
			C7.5778,13.253,7.5596,13.6063,7.5565,14.0144z"/>
		<path class="st0" d="M11.68,15.132c0.0183,0,0.0335,0.0457,0.0335,0.0822c0,0.0365-0.0152,0.0761-0.0335,0.0761
			c-0.0731,0-0.3411-0.0183-0.5329-0.0183c-0.1888,0-0.3868,0.0183-0.4568,0.0183c-0.0305,0-0.0457-0.0427-0.0457-0.0792
			c0-0.0396,0.0152-0.0792,0.0457-0.0792c0.0792,0,0.1888,0.0091,0.3045,0.0091c-0.0366-0.1401-0.1614-0.472-0.2284-0.6822h-0.6486
			c-0.0731,0.2162-0.2254,0.5786-0.271,0.6761c0.0426,0,0.2832-0.003,0.338-0.003c0.0213,0,0.0335,0.0457,0.0335,0.0822
			c0,0.0365-0.0122,0.0761-0.0335,0.0761c-0.0731,0-0.1705-0.0183-0.3654-0.0183c-0.1949,0-0.2741,0.0183-0.3441,0.0183
			c-0.0305,0-0.0487-0.0427-0.0487-0.0792c0-0.0396,0.0183-0.0792,0.0487-0.0792c0.0731,0,0.1523,0.0091,0.1827,0.0091
			c0.137-0.2284,0.5908-1.4861,0.7979-2.083c0.0152-0.0487,0.0396-0.0518,0.0914-0.0518c0.0457,0,0.0609,0.0122,0.07,0.0457
			c0.0366,0.1401,0.6091,1.7206,0.804,2.0891C11.5217,15.1411,11.6252,15.132,11.68,15.132z M10.1604,14.3463h0.5664
			c-0.0883-0.204-0.2406-0.6304-0.2802-0.7888C10.3644,13.8042,10.2365,14.1636,10.1604,14.3463z"/>
		<path class="st0" d="M14.226,15.0619c-0.2863,0.1797-0.6608,0.2771-0.941,0.2771c-0.6456,0-1.1085-0.472-1.1085-1.1664
			c0-0.6213,0.3807-1.1633,1.1694-1.1633c0.5086,0,0.7979,0.1431,0.7979,0.2558c0,0.0761,0.0091,0.3959,0.0091,0.4537
			c0,0.0183-0.0274,0.0335-0.0548,0.0335c-0.0305,0-0.0518-0.0061-0.0609-0.0244c-0.204-0.4812-0.4081-0.5847-0.6974-0.5847
			c-0.4629,0-0.7613,0.3106-0.7613,1.0415c0,0.6883,0.271,1.0293,0.7065,1.0293c0.3502,0,0.5451-0.1584,0.5664-0.3502
			c0.0122-0.1035,0.0122-0.2345,0.0122-0.5481c-0.134,0-0.4233,0.003-0.4598,0.003c-0.0244,0-0.0396-0.0274-0.0396-0.0731
			c0-0.0396,0.0122-0.0701,0.0426-0.0701c0.07,0,0.3624,0.0244,0.6121,0.0244c0.204,0,0.4111-0.0122,0.4568-0.0122
			c0.0274,0,0.0396,0.0305,0.0396,0.067c0,0.0518-0.0152,0.07-0.0365,0.07c-0.0396,0-0.201-0.0091-0.2528-0.0091V15.0619z"/>
		<path class="st0" d="M17.3293,14.1849c0,0.6395-0.4934,1.1542-1.1268,1.1542c-0.6365,0-1.1359-0.5147-1.1359-1.1542
			c0-0.6426,0.4994-1.1755,1.1359-1.1755C16.8359,13.0094,17.3293,13.5423,17.3293,14.1849z M15.4686,14.1971
			c0,0.6882,0.2649,1.011,0.7339,1.011c0.5055,0,0.7248-0.3015,0.7248-1.011c0-0.6304-0.2284-1.0506-0.7248-1.0506
			C15.6726,13.1464,15.4686,13.4814,15.4686,14.1971z"/>
		<path class="st0" d="M20.0763,14.5473c0,0.4081,0.003,0.6121,0.003,0.6944c0,0.0487-0.0061,0.07-0.0944,0.07
			c-0.0305,0-0.0792-0.0305-0.1493-0.1157c-0.0944-0.1157-1.1846-1.4983-1.3947-1.8028c-0.0091,0.1066-0.0091,0.2497-0.0091,0.4142
			c0,1.0415,0.006,1.2547,0.0091,1.3278c0.1066,0,0.271-0.0061,0.3472-0.0061c0.0304,0,0.0396,0.0427,0.0396,0.0853
			c0,0.0335-0.0091,0.0761-0.0365,0.0761c-0.0853,0-0.2802-0.0152-0.4385-0.0152c-0.134,0-0.2619,0.0152-0.3624,0.0152
			c-0.0304,0-0.0426-0.0335-0.0426-0.0792c0-0.0426,0.0122-0.0822,0.0365-0.0822c0.0639,0,0.1553,0.0061,0.2832,0.0061v-1.9277
			c-0.0578,0-0.2406,0.0091-0.2802,0.0091c-0.0213,0-0.0366-0.0457-0.0366-0.0944c0-0.0335,0.0122-0.07,0.0396-0.07
			c0.1157,0,0.2162,0.0183,0.3381,0.0183c0.1279,0,0.2101-0.0091,0.2345-0.0091c0.0548,0,0.07,0.0183,0.0975,0.0609
			c0.2315,0.335,0.9502,1.2547,1.2547,1.6262v-1.5409c-0.0548,0-0.2528,0.0061-0.2924,0.0061c-0.0183,0-0.0366-0.0213-0.0366-0.0853
			c0-0.0366,0.0153-0.0761,0.0427-0.0761c0.0396,0,0.1857,0.0183,0.3776,0.0183c0.2071,0,0.2924-0.0183,0.3532-0.0183
			c0.0305,0,0.0457,0.0365,0.0457,0.07c0,0.0487-0.0183,0.0883-0.0426,0.0883c-0.0365,0-0.2132-0.003-0.2649-0.003
			C20.0915,13.5088,20.0763,14.0296,20.0763,14.5473z"/>
		<path class="st0" d="M22.0467,14.127c0.1279-0.0822,0.2041-0.2924,0.2041-0.4141c0-0.0305,0.0091-0.0396,0.0548-0.0396
			c0.0548,0,0.0731,0.0122,0.0731,0.0487c0,0.0914-0.0213,0.3106-0.0213,0.4903c0,0.1736,0.0213,0.3563,0.0213,0.5055
			c0,0.0305-0.0396,0.0396-0.0731,0.0396c-0.0305,0-0.0548-0.0091-0.0548-0.0305c0-0.0792-0.1005-0.3807-0.198-0.4629
			c-0.0944-0.0122-0.271-0.0122-0.4202-0.0122c-0.003,0.1157-0.003,0.2406-0.003,0.3715c0,0.3167,0.006,0.4751,0.006,0.5116
			c0.1767,0,0.3868-0.0061,0.4324-0.0061c0.0153,0,0.0244,0.0548,0.0244,0.0853c0,0.0335-0.0091,0.0761-0.0244,0.0761
			c-0.0609,0-0.4202-0.0152-0.5786-0.0152c-0.2101,0-0.4202,0.0152-0.4812,0.0152c-0.0243,0-0.0365-0.0457-0.0365-0.0792
			c0-0.0305,0.0122-0.0822,0.0365-0.0822c0.0639,0,0.1827,0.0061,0.2832,0.0061v-1.9277c-0.0578,0-0.2406,0.0091-0.2802,0.0091
			c-0.0213,0-0.0366-0.0335-0.0366-0.0792c0-0.0365,0.0122-0.0853,0.0396-0.0853c0.0396,0,0.2771,0.0183,0.472,0.0183
			c0.201,0,1.3399-0.0152,1.3643-0.0152c0.0274,0,0.0396,0.0366,0.0396,0.0731c0,0.0457,0.0152,0.4294,0.0152,0.6121
			c0,0.0305-0.0244,0.0427-0.0518,0.0427c-0.0274,0-0.0639-0.0152-0.067-0.0396c-0.0274-0.1553-0.1462-0.4934-0.3746-0.5238
			c-0.201-0.0274-0.6334-0.0244-0.7431-0.0244c-0.0213,0.1583-0.0335,0.3959-0.0365,0.944
			C21.7787,14.1362,21.9462,14.1362,22.0467,14.127z"/>
		<path class="st0" d="M24.7632,15.1168c0.3472-0.0183,0.4233-0.1919,0.536-0.6547c0.0061-0.0274,0.0304-0.0396,0.0578-0.0396
			c0.0487,0,0.067,0.0152,0.067,0.0305c0,0.1553-0.0091,0.7309-0.0091,0.7613c0,0.0426-0.0366,0.0792-0.1279,0.0792
			c-0.1127,0-1.1968-0.0183-1.3673-0.0183c-0.2101,0-0.3959,0.0152-0.4568,0.0152c-0.0243,0-0.0365-0.0457-0.0365-0.0792
			c0-0.0305,0.0122-0.0822,0.0365-0.0822c0.0639,0,0.1827,0.0061,0.2832,0.0061v-1.9277c-0.0578,0-0.2406,0.0091-0.2802,0.0091
			c-0.0213,0-0.0366-0.0335-0.0366-0.0792c0-0.0365,0.0122-0.0853,0.0396-0.0853c0.0396,0,0.2649,0.0183,0.4598,0.0183
			c0.201,0,0.4324-0.0183,0.4537-0.0183c0.0274,0,0.0426,0.0487,0.0426,0.0853c0,0.0457-0.0182,0.0792-0.0365,0.0792
			c-0.0396,0-0.2101-0.0091-0.271-0.0091c-0.0121,0.064-0.0335,0.6639-0.0335,1.346c0,0.3167,0.006,0.5451,0.006,0.5817
			C24.2242,15.135,24.4191,15.132,24.7632,15.1168z"/>
		<path class="st0" d="M27.1905,13.2104c-0.0152,0-0.0304-0.0426-0.0304-0.0822c0-0.0366,0.0152-0.0761,0.0304-0.0761
			c0.0761,0,0.1736,0.0213,0.3685,0.0213c0.1949,0,0.332-0.0213,0.405-0.0213c0.0335,0,0.0457,0.0426,0.0457,0.0792
			c0,0.0396-0.0122,0.0792-0.0457,0.0792c-0.0457,0-0.1401-0.0091-0.1888-0.0091c-0.1492,0.1858-0.5086,0.7218-0.7978,1.072
			c0.0121,0.3259,0.0182,0.536,0.0182,0.8649c0.0274,0,0.2924-0.0061,0.335-0.0061c0.0153,0,0.0244,0.0548,0.0244,0.0853
			c0,0.0304-0.0091,0.0761-0.0244,0.0761c-0.0578,0-0.335-0.0152-0.4934-0.0152c-0.1583,0-0.5116,0.0152-0.5694,0.0152
			c-0.0274,0-0.0427-0.0457-0.0427-0.0792c0-0.0305,0.0153-0.0822,0.0427-0.0822c0.0609,0,0.2162,0.0061,0.3776,0.0061
			c0-0.0305-0.0152-0.5268,0.0091-0.7552c-0.3045-0.4751-0.7065-1.1085-0.7583-1.1816c-0.1005,0-0.1949,0.0091-0.2467,0.0091
			c-0.0213,0-0.0335-0.0426-0.0335-0.0822c0-0.0366,0.0122-0.0761,0.0335-0.0761c0.07,0,0.3167,0.0213,0.5086,0.0213
			c0.1918,0,0.3928-0.0213,0.4629-0.0213c0.0305,0,0.0457,0.0426,0.0457,0.0792c0,0.0396-0.0152,0.0792-0.0457,0.0792
			c-0.0792,0-0.2863-0.0091-0.3198-0.0091c0.1919,0.2771,0.4446,0.6822,0.603,0.9471c0.1949-0.265,0.5299-0.7918,0.5847-0.9471
			C27.4554,13.2012,27.2453,13.2104,27.1905,13.2104z"/>
	</g>
	<g>
		<path class="st0" d="M8.4305,16.8589c0,0.1796,0.0183,0.3197,0.0183,0.4324c0,0.0304-0.0183,0.0426-0.067,0.0426
			c-0.0244,0-0.0548-0.0061-0.067-0.0396c-0.1523-0.338-0.2528-0.4964-0.5512-0.4964c-0.2497,0-0.402,0.1431-0.402,0.338
			c0,0.2132,0.0944,0.3198,0.5695,0.4507c0.4629,0.1279,0.6639,0.3381,0.6639,0.7065c0,0.3837-0.2893,0.7004-0.8618,0.7004
			c-0.4659,0-0.7278-0.1462-0.7278-0.2346c0-0.2375-0.0061-0.3837-0.0061-0.5055c0-0.0335,0.0213-0.0548,0.0822-0.0548
			c0.0274,0,0.0487,0.0091,0.0579,0.0335c0.1614,0.4842,0.3593,0.6273,0.6243,0.6273c0.3746,0,0.5238-0.2436,0.5238-0.4476
			c0-0.2467-0.0883-0.3807-0.5451-0.5116c-0.4416-0.1249-0.6334-0.2619-0.6334-0.6122c0-0.3928,0.2741-0.6243,0.6639-0.6243
			C8.2265,16.664,8.4305,16.801,8.4305,16.8589z"/>
		<path class="st0" d="M11.0861,18.1775c0.0091-0.0152,0.0183-0.0244,0.0457-0.0244c0.0396,0,0.0548,0.0122,0.0548,0.0305
			c0,0.0609-0.0183,0.4629-0.0183,0.5391c0,0.1126-0.335,0.271-0.8223,0.271c-0.673,0-1.1237-0.4721-1.1237-1.1664
			c0-0.6212,0.3685-1.1633,1.1572-1.1633c0.5086,0,0.7644,0.1431,0.7644,0.2558c0,0.0761,0.0091,0.399,0.0091,0.4568
			c0,0.0213-0.0213,0.0274-0.0548,0.0274c-0.0305,0-0.0518-0.003-0.0609-0.0213c-0.204-0.4812-0.3746-0.5847-0.6639-0.5847
			c-0.4629,0-0.7491,0.3106-0.7491,1.0415c0,0.6883,0.2588,1.0202,0.7339,1.0202C10.6446,18.8596,10.9278,18.6525,11.0861,18.1775z"
			/>
		<path class="st0" d="M13.285,18.8018c0.3471-0.0061,0.4933-0.1888,0.536-0.5999c0.003-0.0305,0.0304-0.0457,0.0578-0.0457
			c0.0305,0,0.067,0.0182,0.067,0.0304c0,0.1584-0.0091,0.6639-0.0091,0.6943c0,0.0457-0.0366,0.0792-0.1279,0.0792
			c-0.1127,0-1.139-0.0305-1.4283-0.0305c-0.2101,0-0.4203,0.0152-0.4812,0.0152c-0.0244,0-0.0366-0.0457-0.0366-0.0792
			c0-0.0305,0.0122-0.0822,0.0366-0.0822c0.0639,0,0.1827,0.0061,0.2832,0.0061v-1.9277c-0.0579,0-0.2406,0.0092-0.2802,0.0092
			c-0.0213,0-0.0365-0.0335-0.0365-0.0792c0-0.0365,0.0122-0.0853,0.0396-0.0853c0.0396,0,0.2771,0.0182,0.472,0.0182
			c0.201,0,1.3674-0.0152,1.3948-0.0152c0.0304,0,0.0426,0.0365,0.0426,0.0731c0,0.0457-0.003,0.3928-0.003,0.5756
			c0,0.0304-0.0274,0.0396-0.0579,0.0396c-0.0274,0-0.0578-0.0122-0.0639-0.0365c-0.0335-0.1919-0.201-0.4751-0.3685-0.4873
			c-0.198-0.0274-0.6517-0.0213-0.7644-0.0213c-0.0183,0.1797-0.0304,0.5177-0.0335,0.8649c0.1462,0,0.3137,0,0.4142-0.0091
			c0.1279-0.0822,0.204-0.2924,0.204-0.4142c0-0.0304,0.0091-0.0457,0.0548-0.0457c0.0548,0,0.0731,0.0182,0.0731,0.0548
			c0,0.0913-0.0213,0.3106-0.0213,0.4903c0,0.1736,0.0213,0.3563,0.0213,0.5055c0,0.0304-0.0396,0.0396-0.0731,0.0396
			c-0.0304,0-0.0548-0.0091-0.0548-0.0304c0-0.0792-0.1005-0.3807-0.1979-0.4629c-0.0944-0.0122-0.271-0.0122-0.4203-0.0122
			c-0.003,0.1188-0.003,0.2436-0.003,0.3745c0,0.3167,0.0061,0.5482,0.0061,0.5909C12.6576,18.7988,12.9408,18.8079,13.285,18.8018z
			"/>
		<path class="st0" d="M16.6958,18.2019c0,0.408,0.003,0.6121,0.003,0.6943c0,0.0487-0.0061,0.07-0.0944,0.07
			c-0.0305,0-0.0792-0.0304-0.1493-0.1157c-0.0944-0.1157-1.1846-1.4983-1.3947-1.8028c-0.0091,0.1066-0.0091,0.2497-0.0091,0.4141
			c0,1.0415,0.006,1.2547,0.0091,1.3278c0.1066,0,0.271-0.0061,0.3472-0.0061c0.0304,0,0.0396,0.0426,0.0396,0.0853
			c0,0.0335-0.0091,0.0761-0.0365,0.0761c-0.0853,0-0.2802-0.0152-0.4385-0.0152c-0.134,0-0.2619,0.0152-0.3624,0.0152
			c-0.0304,0-0.0426-0.0335-0.0426-0.0792c0-0.0426,0.0122-0.0822,0.0365-0.0822c0.064,0,0.1553,0.0061,0.2832,0.0061v-1.9277
			c-0.0579,0-0.2406,0.0092-0.2802,0.0092c-0.0213,0-0.0365-0.0457-0.0365-0.0944c0-0.0335,0.0122-0.07,0.0396-0.07
			c0.1157,0,0.2162,0.0182,0.338,0.0182c0.1279,0,0.2101-0.0091,0.2345-0.0091c0.0548,0,0.07,0.0183,0.0975,0.0609
			c0.2315,0.335,0.9502,1.2547,1.2547,1.6262v-1.5409c-0.0548,0-0.2528,0.0061-0.2924,0.0061c-0.0183,0-0.0366-0.0213-0.0366-0.0853
			c0-0.0366,0.0153-0.0761,0.0427-0.0761c0.0396,0,0.1857,0.0182,0.3776,0.0182c0.2071,0,0.2924-0.0182,0.3532-0.0182
			c0.0305,0,0.0457,0.0365,0.0457,0.07c0,0.0487-0.0183,0.0883-0.0426,0.0883c-0.0365,0-0.2132-0.003-0.2649-0.003
			C16.7111,17.1634,16.6958,17.6841,16.6958,18.2019z"/>
		<path class="st0" d="M19.0134,18.8018c0.3472-0.0061,0.4934-0.1888,0.536-0.5999c0.0031-0.0305,0.0305-0.0457,0.0579-0.0457
			c0.0304,0,0.067,0.0182,0.067,0.0304c0,0.1584-0.0091,0.6639-0.0091,0.6943c0,0.0457-0.0365,0.0792-0.1279,0.0792
			c-0.1127,0-1.139-0.0305-1.4283-0.0305c-0.2101,0-0.4202,0.0152-0.4812,0.0152c-0.0243,0-0.0365-0.0457-0.0365-0.0792
			c0-0.0305,0.0122-0.0822,0.0365-0.0822c0.0639,0,0.1827,0.0061,0.2832,0.0061v-1.9277c-0.0578,0-0.2406,0.0092-0.2802,0.0092
			c-0.0213,0-0.0366-0.0335-0.0366-0.0792c0-0.0365,0.0122-0.0853,0.0396-0.0853c0.0396,0,0.2771,0.0182,0.472,0.0182
			c0.201,0,1.3673-0.0152,1.3947-0.0152c0.0305,0,0.0426,0.0365,0.0426,0.0731c0,0.0457-0.003,0.3928-0.003,0.5756
			c0,0.0304-0.0274,0.0396-0.0578,0.0396c-0.0274,0-0.0579-0.0122-0.0639-0.0365c-0.0335-0.1919-0.201-0.4751-0.3685-0.4873
			c-0.198-0.0274-0.6517-0.0213-0.7644-0.0213c-0.0183,0.1797-0.0305,0.5177-0.0335,0.8649c0.1462,0,0.3137,0,0.4141-0.0091
			c0.1279-0.0822,0.2041-0.2924,0.2041-0.4142c0-0.0304,0.0091-0.0457,0.0548-0.0457c0.0548,0,0.0731,0.0182,0.0731,0.0548
			c0,0.0913-0.0213,0.3106-0.0213,0.4903c0,0.1736,0.0213,0.3563,0.0213,0.5055c0,0.0304-0.0396,0.0396-0.0731,0.0396
			c-0.0305,0-0.0548-0.0091-0.0548-0.0304c0-0.0792-0.1005-0.3807-0.198-0.4629c-0.0944-0.0122-0.271-0.0122-0.4202-0.0122
			c-0.003,0.1188-0.003,0.2436-0.003,0.3745c0,0.3167,0.006,0.5482,0.006,0.5909C18.3861,18.7988,18.6693,18.8079,19.0134,18.8018z"
			/>
		<path class="st0" d="M21.2823,18.7835c0.0182,0,0.0274,0.0548,0.0274,0.0853c0,0.0335-0.0092,0.0761-0.0274,0.0761
			c-0.1035,0-0.271-0.0152-0.5208-0.0152c-0.1919,0-0.3685,0.0152-0.4294,0.0152c-0.0243,0-0.0365-0.0457-0.0365-0.0792
			c0-0.0305,0.0122-0.0822,0.0365-0.0822c0.0639,0,0.2162,0.0061,0.2832,0.0061v-1.9277c-0.0578,0-0.2406,0.0092-0.2802,0.0092
			c-0.0213,0-0.0366-0.0335-0.0366-0.0792c0-0.0365,0.0122-0.0853,0.0396-0.0853c0.0396,0,0.2649,0.0182,0.4598,0.0182
			c0.201,0,0.3685-0.0091,0.5786-0.0091c0.4751,0,0.6456,0.2528,0.6456,0.536c0,0.3015-0.2192,0.4416-0.5208,0.469
			c0.3228,0.0548,0.4355,0.1157,0.5421,0.3015c0.0578,0.1005,0.0731,0.2223,0.1035,0.4507
			c0.0335,0.2527,0.0792,0.3289,0.2863,0.3289c0.0518,0,0.1066-0.0122,0.1584-0.0122c0.0304,0,0.0487,0.0243,0.0487,0.0792
			c0,0.0609-0.0122,0.0883-0.0548,0.0883c-0.1218,0-0.2985-0.0182-0.4568-0.0182c-0.2223,0-0.335-0.0853-0.3654-0.3198
			c-0.0244-0.1888-0.0305-0.3197-0.0487-0.4537c-0.0274-0.1674-0.1096-0.2954-0.3076-0.341
			c-0.1492-0.0335-0.3045-0.0427-0.4507-0.0427c-0.0031,0.1523-0.0031,0.2771-0.0031,0.4081c0,0.3167,0.0061,0.5694,0.0061,0.606
			C21.0783,18.7957,21.2427,18.7835,21.2823,18.7835z M20.9565,17.6689h0.1797c0.067,0,0.2375-0.0152,0.3015-0.0304
			c0.1736-0.0457,0.2162-0.204,0.2162-0.3838c0-0.1827-0.0457-0.3228-0.2162-0.3745c-0.0883-0.0274-0.2588-0.0366-0.4507-0.0366
			C20.9778,16.9075,20.9595,17.2609,20.9565,17.6689z"/>
		<path class="st0" d="M24.2181,16.8649c-0.0152,0-0.0304-0.0426-0.0304-0.0822c0-0.0366,0.0152-0.0761,0.0304-0.0761
			c0.0761,0,0.1736,0.0213,0.3685,0.0213c0.1949,0,0.332-0.0213,0.405-0.0213c0.0335,0,0.0457,0.0426,0.0457,0.0792
			c0,0.0396-0.0122,0.0792-0.0457,0.0792c-0.0457,0-0.1401-0.0091-0.1888-0.0091c-0.1492,0.1858-0.5086,0.7218-0.7978,1.072
			c0.0121,0.3259,0.0182,0.536,0.0182,0.8649c0.0274,0,0.2924-0.006,0.335-0.006c0.0152,0,0.0244,0.0548,0.0244,0.0853
			s-0.0092,0.0761-0.0244,0.0761c-0.0578,0-0.335-0.0153-0.4934-0.0153c-0.1583,0-0.5116,0.0153-0.5694,0.0153
			c-0.0274,0-0.0426-0.0457-0.0426-0.0792c0-0.0304,0.0152-0.0822,0.0426-0.0822c0.0609,0,0.2162,0.006,0.3776,0.006
			c0-0.0304-0.0152-0.5268,0.0091-0.7552c-0.3045-0.4751-0.7065-1.1085-0.7583-1.1816c-0.1005,0-0.1949,0.0091-0.2467,0.0091
			c-0.0213,0-0.0335-0.0426-0.0335-0.0822c0-0.0366,0.0122-0.0761,0.0335-0.0761c0.07,0,0.3167,0.0213,0.5086,0.0213
			c0.1918,0,0.3928-0.0213,0.4629-0.0213c0.0305,0,0.0457,0.0426,0.0457,0.0792c0,0.0396-0.0152,0.0792-0.0457,0.0792
			c-0.0792,0-0.2863-0.0091-0.3198-0.0091c0.1919,0.2771,0.4446,0.6822,0.603,0.9471c0.1949-0.265,0.5299-0.7918,0.5847-0.9471
			C24.483,16.8558,24.2729,16.8649,24.2181,16.8649z"/>
	</g>
</g>
</svg>
