<svg style="position: absolute; width: 0; height: 0; overflow: hidden;" version="1.1" xmlns="http://www.w3.org/2000/svg">
<defs>
<symbol id="icon-icon" viewBox="0 0 32 32">
<title>icon</title>
<path d="M29.23 4.66c-1.024-0.388-2.383-0.575-3.73-0.514-2.721 0.124-5.974 1.163-8.206 2.003 0.189-0.336 0.1-0.762-0.215-0.977-0.339-0.231-0.787-0.144-1.020 0.197-0.022 0.032-0.041 0.068-0.059 0.104-0.018-0.036-0.037-0.072-0.059-0.104-0.233-0.342-0.681-0.428-1.020-0.197-0.315 0.215-0.404 0.641-0.215 0.977-2.232-0.841-5.485-1.879-8.206-2.004-1.347-0.061-2.706 0.126-3.73 0.514-1.109 0.421-1.738 1.031-1.769 1.719-0.031 0.685 0.565 1.347 1.681 1.864 1.017 0.472 2.378 0.778 3.735 0.841 0.203 0.009 0.41 0.014 0.619 0.014 1.797 0 3.797-0.329 5.644-0.759-0.396 0.225-0.756 0.484-1.035 0.78-0.877 0.931-0.922 2.264-0.102 3.037 0.346 0.326 0.799 0.485 1.272 0.485 0.626 0 1.29-0.278 1.794-0.813 0.527-0.56 0.903-1.392 1.17-2.255v12.118c-0.024 0.022-0.046 0.046-0.064 0.075-0.263 0.429-0.705 1.249-0.708 1.923-0.002 0.658 0.432 1.175 0.989 1.177 0.001 0 0.002 0 0.003 0 0.546 0 0.991-0.536 0.994-1.197 0.002-0.63-0.376-1.382-0.693-1.902-0.021-0.034-0.048-0.062-0.078-0.086v-12.107c0.267 0.863 0.642 1.695 1.17 2.255l0 0c0.505 0.535 1.168 0.813 1.794 0.813 0.473 0 0.925-0.159 1.272-0.485 0.819-0.772 0.774-2.106-0.102-3.037-0.28-0.297-0.64-0.555-1.035-0.78 1.847 0.429 3.847 0.759 5.644 0.759 0.209 0 0.416-0.004 0.619-0.014h0c1.357-0.063 2.719-0.369 3.735-0.841 1.115-0.517 1.712-1.179 1.681-1.864-0.032-0.688-0.66-1.299-1.77-1.719zM16.425 5.619c0.058-0.086 0.15-0.131 0.243-0.131 0.056 0 0.112 0.016 0.162 0.051 0.131 0.089 0.16 0.277 0.064 0.419-0.093 0.136-0.314 0.278-0.621 0.4 0.004-0.333 0.058-0.6 0.153-0.738zM15.171 5.538v0c0.050-0.034 0.106-0.051 0.162-0.051 0.093 0 0.185 0.046 0.243 0.131 0.094 0.138 0.148 0.405 0.152 0.738-0.307-0.123-0.528-0.264-0.621-0.4-0.096-0.141-0.068-0.329 0.064-0.419zM6.437 8.641c-2.662-0.123-5.042-1.191-4.994-2.242 0.023-0.493 0.563-0.976 1.484-1.325 0.847-0.321 1.943-0.497 3.065-0.497 0.162 0 0.325 0.004 0.488 0.011 3.2 0.146 7.178 1.594 9.265 2.443 0.010 0.004 0.015 0.008 0.018 0.008-0.003 0.002-0.009 0.006-0.019 0.009-2.604 0.801-6.332 1.729-9.307 1.592zM14.287 11.524c-0.718 0.762-1.813 0.9-2.44 0.309-0.639-0.602-0.585-1.661 0.121-2.411 0.923-0.98 2.906-1.538 3.799-1.749-0.216 1.286-0.647 2.967-1.479 3.851zM16.55 23.667c-0.002 0.411-0.254 0.757-0.552 0.757-0 0-0.001 0-0.001 0-0.309-0.001-0.549-0.323-0.548-0.733 0.002-0.384 0.203-0.942 0.557-1.55 0.353 0.607 0.545 1.145 0.543 1.526zM20.033 9.422c0.707 0.75 0.76 1.809 0.121 2.411-0.628 0.591-1.722 0.452-2.44-0.309h0c-0.833-0.884-1.263-2.565-1.48-3.851 0.892 0.211 2.876 0.769 3.799 1.749zM25.563 8.641c-2.977 0.135-6.703-0.791-9.307-1.592-0.010-0.003-0.016-0.006-0.018-0.006-0 0-0 0-0 0 0.003-0.003 0.008-0.007 0.018-0.011 2.087-0.85 6.066-2.297 9.265-2.443 1.287-0.059 2.583 0.118 3.553 0.486 0.92 0.349 1.461 0.832 1.484 1.325 0.048 1.051-2.332 2.119-4.994 2.242z"></path>
</symbol>
</defs>
</svg>
